# Max2Obj Version 4.0 Mar 10th, 2001
#
# object hands to come ...
#
v  -0.76932 -0.09919 0.45544
v  -0.75960 -0.11949 0.46265
v  -0.78338 -0.10524 0.51335
v  -0.78780 -0.09001 0.49831
v  -0.77104 -0.12442 0.50953
v  -0.73556 -0.11270 0.46752
v  -0.74729 -0.11270 0.51128
v  -0.71858 -0.09930 0.47207
v  -0.73030 -0.09930 0.51583
v  -0.70079 -0.08848 0.47684
v  -0.71251 -0.08848 0.52060
v  -0.69849 -0.04962 0.47745
v  -0.71021 -0.04962 0.52121
v  -0.72224 -0.02424 0.47109
v  -0.73396 -0.02424 0.51485
v  -0.73071 -0.02580 0.46882
v  -0.74243 -0.02580 0.51258
v  -0.73898 -0.02816 0.46661
v  -0.75070 -0.02816 0.51037
v  -0.74684 -0.03212 0.46450
v  -0.75857 -0.03212 0.50826
v  -0.75410 -0.03848 0.46255
v  -0.76582 -0.03848 0.50631
v  -0.76054 -0.04803 0.46083
v  -0.77227 -0.04803 0.50459
v  -0.76506 -0.05883 0.45962
v  -0.77679 -0.05883 0.50338
v  -0.76708 -0.06857 0.45908
v  -0.77880 -0.06857 0.50284
v  -0.76722 -0.07750 0.45904
v  -0.77894 -0.07750 0.50280
v  -0.76611 -0.08590 0.45933
v  -0.77783 -0.08590 0.50310
v  -0.76437 -0.09404 0.45980
v  -0.77610 -0.09404 0.50356
v  -0.72703 -0.08668 0.52336
v  -0.76932 0.09919 0.45544
v  -0.75960 0.11949 0.46265
v  -0.78338 0.10524 0.51335
v  -0.78780 0.09001 0.49831
v  -0.77104 0.12442 0.50953
v  -0.73556 0.11507 0.46752
v  -0.74729 0.11507 0.51128
v  -0.71858 0.10501 0.47207
v  -0.73030 0.10501 0.51583
v  -0.70079 0.09419 0.47684
v  -0.71251 0.09419 0.52060
v  -0.69849 0.05533 0.47745
v  -0.71021 0.05533 0.52121
v  -0.72224 0.02995 0.47109
v  -0.73396 0.02995 0.51485
v  -0.73071 0.03151 0.46882
v  -0.74243 0.03151 0.51258
v  -0.73898 0.03387 0.46661
v  -0.75070 0.03387 0.51037
v  -0.74684 0.03783 0.46450
v  -0.75857 0.03783 0.50826
v  -0.75410 0.04419 0.46255
v  -0.76582 0.04419 0.50631
v  -0.76054 0.05374 0.46083
v  -0.77227 0.05374 0.50459
v  -0.76506 0.06454 0.45962
v  -0.77679 0.06454 0.50338
v  -0.76708 0.07428 0.45908
v  -0.77880 0.07428 0.50284
v  -0.76722 0.08321 0.45904
v  -0.77894 0.08321 0.50280
v  -0.76611 0.09161 0.45933
v  -0.77783 0.09161 0.50310
v  -0.76437 0.09974 0.45980
v  -0.77610 0.09974 0.50356
v  -0.72703 0.09239 0.52336
v  -0.76157 -0.13050 0.48966
v  -0.78047 -0.08683 0.46863
v  -0.76157 0.13050 0.48966
v  -0.78047 0.08683 0.46863
v  -0.95870 0.13772 0.45546
v  -0.91644 0.13175 0.39992
v  -0.78047 0.08683 0.46863
v  -0.78780 0.09001 0.49831
v  -0.95858 0.17249 0.47433
v  -0.78338 0.10524 0.51335
v  -0.95870 -0.13772 0.45546
v  -0.78047 -0.08683 0.46863
v  -0.91644 -0.13175 0.39992
v  -0.78780 -0.09001 0.49831
v  -0.95858 -0.17249 0.47433
v  -0.78338 -0.10524 0.51335
v  -0.76157 0.13050 0.48966
v  -0.76230 0.12064 0.47396
v  -0.75960 0.11949 0.46265
v  -0.76793 0.12309 0.49652
v  -0.77104 0.12442 0.50953
v  -0.78047 0.08683 0.46863
v  -0.76932 0.09919 0.45544
v  -0.78780 0.09001 0.49831
v  -0.78338 0.10524 0.51335
v  -0.93013 0.21029 0.44507
v  -0.90490 0.19208 0.39271
v  -0.95264 0.19835 0.46955
v  -0.90733 0.16603 0.38382
v  -0.91644 0.13175 0.39992
v  -0.95858 0.17249 0.47433
v  -0.76157 -0.13050 0.48966
v  -0.75960 -0.11949 0.46265
v  -0.76230 -0.12064 0.47396
v  -0.76793 -0.12309 0.49652
v  -0.77104 -0.12442 0.50953
v  -0.76932 -0.09919 0.45544
v  -0.78047 -0.08683 0.46863
v  -0.78780 -0.09001 0.49831
v  -0.78338 -0.10524 0.51335
v  -0.93473 -0.21206 0.44469
v  -0.90490 -0.19208 0.39271
v  -0.95264 -0.19835 0.46955
v  -0.90733 -0.16603 0.38382
v  -0.91644 -0.13175 0.39992
v  -0.95858 -0.17249 0.47433
v  -0.76157 -0.13050 0.48966
v  -0.75960 -0.11949 0.46265
v  -0.76230 -0.12064 0.47396
v  -0.76793 -0.12309 0.49652
v  -0.77104 -0.12442 0.50953
v  -0.78338 -0.10524 0.51335
# 124 vertices

vn  -0.08511 0.69034 -0.71846
vn  0.31836 -0.88569 -0.33792
vn  -0.24981 0.25468 0.93420
vn  0.45078 1.68917 0.29215
vn  0.51339 -1.12887 0.58992
vn  0.54868 -0.83555 0.02829
vn  1.86425 -2.63209 0.76075
vn  0.53835 -0.83029 0.14425
vn  1.68821 -2.60370 0.45235
vn  0.76840 -1.35446 0.20589
vn  0.76841 -1.35447 0.20589
vn  1.51444 -0.09599 0.40579
vn  1.51443 -0.09599 0.40579
vn  1.08977 1.09295 0.29200
vn  1.08977 1.09295 0.29200
vn  -0.21326 0.97532 -0.05714
vn  -0.66924 3.06074 -0.17932
vn  -0.34106 0.93559 -0.09139
vn  -1.06697 2.92687 -0.28589
vn  -0.52733 0.83783 -0.14130
vn  -1.64377 2.61165 -0.44045
vn  -0.71389 0.67362 -0.19129
vn  -2.22400 2.09857 -0.59592
vn  -0.84338 0.48748 -0.22598
vn  -2.63620 1.52372 -0.70637
vn  -0.91990 0.30502 -0.24649
vn  -2.87588 0.95358 -0.77059
vn  -0.95968 0.11355 -0.25715
vn  -3.00060 0.35506 -0.80401
vn  -0.96420 -0.05973 -0.25836
vn  -3.02036 -0.18710 -0.80931
vn  -0.95091 -0.17565 -0.25480
vn  -2.98490 -0.55137 -0.79981
vn  -1.48161 -0.33859 -0.39700
vn  -1.48160 -0.33860 -0.39699
vn  0.13603 -1.06997 2.47205
vn  0.43634 -0.81062 -0.39051
vn  0.23771 0.90539 -0.35181
vn  -0.23099 -0.28939 0.92892
vn  0.79176 -1.06544 0.21215
vn  0.41288 1.15131 0.54890
vn  0.45538 0.89030 0.00132
vn  1.58867 2.83005 0.69674
vn  0.48439 0.86517 0.12979
vn  1.52174 2.71796 0.40775
vn  0.76840 1.35446 0.20589
vn  0.76841 1.35447 0.20589
vn  1.51444 0.09599 0.40579
vn  1.51443 0.09599 0.40579
vn  1.08977 -1.09295 0.29200
vn  1.08977 -1.09295 0.29200
vn  -0.21326 -0.97532 -0.05714
vn  -0.66924 -3.06074 -0.17932
vn  -0.34106 -0.93559 -0.09139
vn  -1.06696 -2.92687 -0.28589
vn  -0.52733 -0.83783 -0.14130
vn  -1.64377 -2.61164 -0.44045
vn  -0.71389 -0.67362 -0.19129
vn  -2.22400 -2.09857 -0.59592
vn  -0.84338 -0.48748 -0.22598
vn  -2.63620 -1.52372 -0.70637
vn  -0.91990 -0.30502 -0.24649
vn  -2.87588 -0.95358 -0.77059
vn  -0.95968 -0.11355 -0.25715
vn  -3.00060 -0.35506 -0.80401
vn  -0.96420 0.05973 -0.25836
vn  -3.02036 0.18710 -0.80931
vn  -0.95091 0.17565 -0.25480
vn  -2.98490 0.55137 -0.79981
vn  -1.48161 0.33859 -0.39700
vn  -1.48160 0.33860 -0.39699
vn  0.09377 1.10801 2.54172
vn  0.51536 -0.84488 0.14345
vn  0.37421 0.92734 -0.00080
vn  0.45212 0.88295 0.12644
vn  0.67143 -0.72184 0.16772
vn  -0.31059 -1.11194 -0.09326
vn  -0.26637 -0.95871 -0.09963
vn  -0.27492 -0.96145 0.00557
vn  -0.44125 -1.53125 0.05484
vn  -0.33799 -0.46132 0.82033
vn  -0.38449 -0.58959 0.71031
vn  -0.31059 1.11194 -0.09326
vn  -0.27492 0.96145 0.00557
vn  -0.26637 0.95871 -0.09963
vn  -0.44125 1.53126 0.05484
vn  -0.33799 0.46132 0.82033
vn  -0.38449 0.58959 0.71031
vn  2.00622 -1.14602 0.61688
vn  0.84211 -0.47609 0.25335
vn  1.83401 -1.05968 0.54491
vn  0.83589 -0.48660 0.25400
vn  1.83692 -1.07322 0.54698
vn  1.91790 -1.12283 0.58573
vn  1.77664 -1.03800 0.52903
vn  0.83454 -0.48808 0.25557
vn  1.82315 -1.06517 0.54289
vn  0.32445 0.89330 0.31104
vn  0.77185 1.49637 -0.19066
vn  0.24821 0.99597 0.71426
vn  0.27337 -0.56965 -1.05852
vn  0.21219 -0.48640 -0.84758
vn  -0.13502 0.21005 0.96832
vn  0.43845 -0.89528 0.07896
vn  1.55565 0.90889 0.46324
vn  0.83486 0.48791 0.25486
vn  0.83444 0.48700 0.25796
vn  0.48692 -1.43626 0.71221
vn  1.77664 1.03800 0.52903
vn  1.91789 1.12283 0.58573
vn  0.83454 0.48808 0.25557
vn  1.42878 0.83476 0.42546
vn  0.32242 -0.89262 0.31509
vn  0.79837 -1.56253 -0.18786
vn  0.27040 -1.09690 0.80011
vn  0.27337 0.56966 -1.05853
vn  0.21219 0.48640 -0.84758
vn  -0.13502 -0.21005 0.96832
vn  0.83893 0.47923 0.25796
vn  0.85138 0.46123 0.24984
vn  0.84918 0.46420 0.25180
vn  0.83668 0.48637 0.25180
vn  0.83624 0.48857 0.24901
vn  0.83624 0.48857 0.24901
# 124 vertex normals

g hands
s 2
f 73//73 2//2 6//6
f 73//73 6//6 7//7
f 73//73 7//7 5//5
f 6//6 8//8 9//9
f 6//6 9//9 7//7
f 8//8 10//10 11//11
f 8//8 11//11 9//9
s 1
f 10//10 12//12 13//13
f 10//10 13//13 11//11
s 2
f 12//12 14//14 15//15
f 12//12 15//15 13//13
s 1
f 14//14 16//16 17//17
f 14//14 17//17 15//15
f 16//16 18//18 19//19
f 16//16 19//19 17//17
f 18//18 20//20 21//21
f 18//18 21//21 19//19
f 20//20 22//22 23//23
f 20//20 23//23 21//21
f 22//22 24//24 25//25
f 22//22 25//25 23//23
f 24//24 26//26 27//27
f 24//24 27//27 25//25
f 26//26 28//28 29//29
f 26//26 29//29 27//27
f 28//28 30//30 31//31
f 28//28 31//31 29//29
f 30//30 32//32 33//33
f 30//30 33//33 31//31
f 32//32 34//34 35//35
f 32//32 35//35 33//33
s 2
f 35//35 74//74 4//4
f 34//34 74//74 35//35
s 4
f 4//4 3//3 36//36
f 3//3 5//5 36//36
f 5//5 7//7 36//36
f 7//7 9//9 36//36
f 9//9 11//11 36//36
s 8
f 11//11 13//13 36//36
f 13//13 15//15 36//36
f 15//15 17//17 36//36
f 17//17 19//19 36//36
f 19//19 21//21 36//36
f 21//21 23//23 36//36
f 23//23 25//25 36//36
f 25//25 27//27 36//36
f 27//27 29//29 36//36
f 29//29 31//31 36//36
f 31//31 33//33 36//36
f 33//33 35//35 36//36
s 16
f 35//35 4//4 36//36
s 2
f 41//41 43//43 75//75
f 42//42 38//38 75//75
f 43//43 42//42 75//75
f 44//44 42//42 45//45
f 45//45 42//42 43//43
f 46//46 44//44 47//47
f 47//47 44//44 45//45
s 1
f 48//48 46//46 49//49
f 49//49 46//46 47//47
s 2
f 50//50 48//48 51//51
f 51//51 48//48 49//49
s 1
f 52//52 50//50 53//53
f 53//53 50//50 51//51
f 54//54 52//52 55//55
f 55//55 52//52 53//53
f 56//56 54//54 57//57
f 57//57 54//54 55//55
f 58//58 56//56 59//59
f 59//59 56//56 57//57
f 60//60 58//58 61//61
f 61//61 58//58 59//59
f 62//62 60//60 63//63
f 63//63 60//60 61//61
f 64//64 62//62 65//65
f 65//65 62//62 63//63
f 66//66 64//64 67//67
f 67//67 64//64 65//65
f 68//68 66//66 69//69
f 69//69 66//66 67//67
f 70//70 68//68 71//71
f 71//71 68//68 69//69
s 2
f 37//37 70//70 76//76
f 40//40 70//70 71//71
s 4
f 39//39 40//40 72//72
f 41//41 39//39 72//72
f 43//43 41//41 72//72
f 45//45 43//43 72//72
f 47//47 45//45 72//72
s 8
f 49//49 47//47 72//72
f 51//51 49//49 72//72
f 53//53 51//51 72//72
f 55//55 53//53 72//72
f 57//57 55//55 72//72
f 59//59 57//57 72//72
f 61//61 59//59 72//72
f 63//63 61//61 72//72
f 65//65 63//63 72//72
f 67//67 65//65 72//72
f 69//69 67//67 72//72
f 71//71 69//69 72//72
s 16
f 40//40 71//71 72//72
s 2
f 34//34 1//1 74//74
f 76//76 70//70 40//40
s 1
f 77//77 78//78 79//79
f 79//79 80//80 77//77
s 2
f 81//81 77//77 80//80
f 80//80 82//82 81//81
s 1
f 83//83 84//84 85//85
f 84//84 83//83 86//86
s 2
f 87//87 86//86 83//83
f 86//86 87//87 88//88
f 89//89 90//90 91//91
f 89//89 92//92 90//90
f 89//89 93//93 92//92
f 91//91 94//94 95//95
f 91//91 90//90 94//94
f 90//90 96//96 94//94
f 90//90 92//92 96//96
f 92//92 97//97 96//96
f 92//92 93//93 97//97
s 1
f 99//99 98//98 89//89
f 89//89 91//91 99//99
f 98//98 100//100 93//93
f 93//93 89//89 98//98
s 16
f 102//102 101//101 95//95
f 95//95 94//94 102//102
s 4
f 101//101 99//99 91//91
f 91//91 95//95 101//101
f 100//100 103//103 97//97
f 97//97 93//93 100//100
s 2
f 105//105 109//109 110//110
f 105//105 110//110 106//106
f 106//106 110//110 111//111
f 106//106 111//111 107//107
f 107//107 111//111 112//112
s 1
f 114//114 104//104 113//113
f 104//104 114//114 105//105
f 113//113 108//108 115//115
f 108//108 113//113 104//104
s 16
f 117//117 109//109 116//116
f 109//109 117//117 110//110
s 4
f 116//116 105//105 114//114
f 105//105 116//116 109//109
f 115//115 112//112 118//118
f 112//112 115//115 108//108
s 2
f 119//119 120//120 121//121
f 119//119 121//121 122//122
f 119//119 122//122 123//123
f 122//122 124//124 123//123
# 150 faces

g
