# Max2Obj Version 4.0 Mar 10th, 2001
#
# object Visor to come ...
#
v  -1.10214 -0.02564 0.61782
v  -1.10543 -0.02506 0.65795
v  -1.10408 0.00008 0.65760
v  -1.10071 -0.00004 0.61735
v  -1.10954 -0.04976 0.61907
v  -1.11173 -0.04887 0.65881
v  -1.12096 -0.07124 0.62102
v  -1.12235 -0.07025 0.66017
v  -1.13555 -0.08918 0.62251
v  -1.13663 -0.08828 0.65807
v  -1.15225 -0.10304 0.62292
v  -1.15287 -0.10230 0.65617
v  -1.17060 -0.11279 0.62348
v  -1.17019 -0.11202 0.65535
v  -1.18396 -0.11649 0.62423
v  -1.18449 -0.11643 0.63431
v  -1.10636 -0.02688 0.57896
v  -1.11328 -0.05036 0.58013
v  -1.12472 -0.07092 0.58230
v  -1.13922 -0.08806 0.58598
v  -1.15538 -0.10126 0.59146
v  -1.17141 -0.11028 0.60028
v  -1.17750 -0.11353 0.61138
v  -1.15380 -0.10124 0.66073
v  -1.12341 -0.06956 0.66714
v  -1.11292 -0.04835 0.66594
v  -1.15942 -0.10347 0.59327
v  -1.13766 -0.08716 0.66359
v  -1.10673 -0.02477 0.66511
v  -1.17910 -0.11489 0.64728
v  -1.10492 -0.00016 0.57856
v  -1.10541 0.00010 0.66478
v  -1.10214 0.02557 0.61767
v  -1.10543 0.02522 0.65779
v  -1.10955 0.04970 0.61877
v  -1.11173 0.04904 0.65852
v  -1.12096 0.07118 0.62058
v  -1.12236 0.07043 0.65974
v  -1.13555 0.08914 0.62196
v  -1.13663 0.08847 0.65752
v  -1.15225 0.10303 0.62228
v  -1.15287 0.10250 0.65553
v  -1.17060 0.11280 0.62277
v  -1.17019 0.11223 0.65464
v  -1.18396 0.11651 0.62348
v  -1.18449 0.11652 0.63357
v  -1.10636 0.02657 0.57880
v  -1.11329 0.05006 0.57982
v  -1.12473 0.07063 0.58187
v  -1.13922 0.08780 0.58544
v  -1.15539 0.10105 0.59083
v  -1.17141 0.11013 0.59958
v  -1.17750 0.11347 0.61066
v  -1.15380 0.10147 0.66009
v  -1.12342 0.06978 0.66672
v  -1.11293 0.04856 0.66564
v  -1.15943 0.10327 0.59262
v  -1.13767 0.08738 0.66305
v  -1.10674 0.02498 0.66496
v  -1.17910 0.11506 0.64654
# 60 vertices

vn  0.98489 -0.17300 -0.00847
vn  0.97963 -0.15449 0.12830
vn  0.99129 0.00048 0.13167
vn  0.99992 0.00001 -0.01271
vn  0.92456 -0.38090 -0.01010
vn  0.93060 -0.34718 0.11597
vn  0.83316 -0.55267 -0.02020
vn  0.83756 -0.53450 0.11314
vn  0.70937 -0.70430 -0.02766
vn  0.69879 -0.69978 0.14832
vn  0.55672 -0.82987 -0.03702
vn  0.55812 -0.81484 0.15663
vn  0.37235 -0.92715 -0.04170
vn  0.42655 -0.90372 0.03673
vn  0.26585 -0.96377 -0.02171
vn  0.27335 -0.96178 0.01615
vn  0.97964 -0.17333 -0.10136
vn  0.91629 -0.39153 -0.08432
vn  0.81919 -0.56792 -0.07997
vn  0.69645 -0.71249 -0.08547
vn  0.55019 -0.82973 -0.09399
vn  0.42282 -0.90021 -0.10414
vn  0.28764 -0.95191 -0.10552
vn  0.54193 -0.78883 0.28993
vn  0.82890 -0.52776 0.18549
vn  0.92302 -0.33992 0.18024
vn  0.44635 -0.88978 -0.09523
vn  0.67229 -0.69074 0.26628
vn  0.97183 -0.14820 0.18324
vn  0.32575 -0.94518 -0.02295
vn  0.99416 -0.00028 -0.10792
vn  0.98341 0.00063 0.18139
vn  0.98488 0.17301 -0.00950
vn  0.97960 0.15537 0.12743
vn  0.92456 0.38083 -0.01238
vn  0.93057 0.34790 0.11400
vn  0.83323 0.55243 -0.02349
vn  0.83768 0.53495 0.11005
vn  0.70970 0.70378 -0.03198
vn  0.69936 0.70015 0.14383
vn  0.55732 0.82922 -0.04230
vn  0.55880 0.81538 0.15130
vn  0.37307 0.92658 -0.04764
vn  0.42728 0.90359 0.03081
vn  0.26653 0.96342 -0.02789
vn  0.27394 0.96169 0.00992
vn  0.97963 0.17274 -0.10244
vn  0.91630 0.39098 -0.08674
vn  0.81925 0.56732 -0.08346
vn  0.69669 0.71172 -0.08987
vn  0.55067 0.82880 -0.09921
vn  0.42355 0.89919 -0.10988
vn  0.28860 0.95093 -0.11154
vn  0.54263 0.79026 0.28468
vn  0.82905 0.52858 0.18242
vn  0.92299 0.34102 0.17831
vn  0.44697 0.88884 -0.10089
vn  0.67298 0.69183 0.26167
vn  0.97181 0.14940 0.18240
vn  0.32656 0.94472 -0.02924
# 60 vertex normals

g Visor
s 1
f 2//2 1//1 3//3
f 4//4 3//3 1//1
f 6//6 5//5 2//2
f 1//1 2//2 5//5
f 8//8 7//7 6//6
f 5//5 6//6 7//7
f 10//10 9//9 8//8
f 7//7 8//8 9//9
f 12//12 11//11 10//10
f 9//9 10//10 11//11
f 14//14 13//13 12//12
f 11//11 12//12 13//13
f 16//16 15//15 14//14
f 1//1 17//17 4//4
f 5//5 18//18 1//1
f 17//17 1//1 18//18
f 7//7 19//19 5//5
f 18//18 5//5 19//19
f 9//9 20//20 7//7
f 19//19 7//7 20//20
f 9//9 11//11 21//21
f 11//11 13//13 22//22
f 23//23 22//22 13//13
f 15//15 23//23 13//13
f 12//12 10//10 24//24
f 26//26 25//25 6//6
f 8//8 6//6 25//25
f 27//27 11//11 22//22
f 13//13 14//14 15//15
f 24//24 10//10 28//28
f 29//29 26//26 2//2
f 6//6 2//2 26//26
f 20//20 9//9 21//21
f 14//14 30//30 16//16
f 14//14 12//12 24//24
f 10//10 8//8 25//25
f 31//31 4//4 17//17
f 11//11 27//27 21//21
f 10//10 25//25 28//28
f 2//2 3//3 29//29
f 32//32 29//29 3//3
f 3//3 33//33 34//34
f 33//33 3//3 4//4
f 34//34 35//35 36//36
f 35//35 34//34 33//33
f 36//36 37//37 38//38
f 37//37 36//36 35//35
f 38//38 39//39 40//40
f 39//39 38//38 37//37
f 40//40 41//41 42//42
f 41//41 40//40 39//39
f 42//42 43//43 44//44
f 43//43 42//42 41//41
f 44//44 45//45 46//46
f 4//4 47//47 33//33
f 33//33 48//48 35//35
f 48//48 33//33 47//47
f 35//35 49//49 37//37
f 49//49 35//35 48//48
f 37//37 50//50 39//39
f 50//50 37//37 49//49
f 51//51 41//41 39//39
f 52//52 43//43 41//41
f 43//43 52//52 53//53
f 43//43 53//53 45//45
f 54//54 40//40 42//42
f 36//36 55//55 56//56
f 55//55 36//36 38//38
f 52//52 41//41 57//57
f 45//45 44//44 43//43
f 58//58 40//40 54//54
f 34//34 56//56 59//59
f 56//56 34//34 36//36
f 51//51 39//39 50//50
f 46//46 60//60 44//44
f 54//54 42//42 44//44
f 55//55 38//38 40//40
f 47//47 4//4 31//31
f 51//51 57//57 41//41
f 58//58 55//55 40//40
f 59//59 3//3 34//34
f 3//3 59//59 32//32
# 82 faces

g
