# Max2Obj Version 4.0 Mar 10th, 2001
#
# object Object03 to come ...
#
v  -1.35952 -0.01787 0.73880
v  -1.33247 -0.02769 0.75567
v  -1.33774 -0.01388 0.75597
v  -1.35296 -0.03544 0.73840
v  -1.37624 -0.02116 0.71716
v  -1.36871 -0.04182 0.71671
v  -1.11814 -0.04957 0.55701
v  -1.11294 -0.02595 0.54756
v  -1.11126 -0.02619 0.55552
v  -1.11986 -0.04930 0.54913
v  -1.12976 -0.06997 0.55938
v  -1.13160 -0.06966 0.55157
v  -1.38442 -0.02498 0.58934
v  -1.38727 -0.00009 0.59170
v  -1.39569 -0.00003 0.60981
v  -1.39254 -0.02725 0.60717
v  -1.34264 -0.08335 0.55871
v  -1.36123 -0.06691 0.57096
v  -1.36751 -0.07262 0.58727
v  -1.34741 -0.09050 0.57395
v  -1.37544 -0.04713 0.58144
v  -1.38288 -0.05112 0.59865
v  -1.26964 -0.10518 0.52269
v  -1.27754 -0.10547 0.52601
v  -1.27699 -0.11461 0.53838
v  -1.26844 -0.11430 0.53477
v  -1.29992 -0.10270 0.53662
v  -1.30122 -0.11158 0.54993
v  -1.32209 -0.09537 0.54751
v  -1.32519 -0.10359 0.56177
v  -1.15141 -0.00046 0.48803
v  -1.15310 -0.02282 0.48818
v  -1.14132 -0.02469 0.49719
v  -1.13942 -0.00043 0.49703
v  -1.15983 -0.04394 0.48848
v  -1.14873 -0.04767 0.49752
v  -1.17133 -0.06187 0.48897
v  -1.16132 -0.06718 0.49805
v  -1.18553 -0.07588 0.49072
v  -1.17684 -0.08244 0.49997
v  -1.20079 -0.08659 0.49491
v  -1.19354 -0.09410 0.50452
v  -1.21724 -0.09458 0.50056
v  -1.21150 -0.10280 0.51067
v  -1.23506 -0.10050 0.50787
v  -1.23092 -0.10924 0.51863
v  -1.25514 -0.10435 0.51639
v  -1.25273 -0.11342 0.52791
v  -1.38442 0.02478 0.58919
v  -1.39254 0.02718 0.60701
v  -1.34264 0.08293 0.55821
v  -1.36751 0.07240 0.58683
v  -1.36123 0.06658 0.57056
v  -1.34741 0.09019 0.57340
v  -1.38288 0.05098 0.59835
v  -1.37544 0.04688 0.58115
v  -1.26964 0.10451 0.52206
v  -1.27699 0.11406 0.53769
v  -1.27754 0.10482 0.52538
v  -1.26844 0.11372 0.53408
v  -1.30122 0.11111 0.54925
v  -1.29993 0.10213 0.53600
v  -1.32519 0.10320 0.56115
v  -1.32209 0.09488 0.54694
v  -1.14133 0.02384 0.49704
v  -1.15311 0.02191 0.48804
v  -1.14873 0.04682 0.49723
v  -1.15984 0.04303 0.48822
v  -1.16132 0.06634 0.49765
v  -1.17133 0.06096 0.48860
v  -1.17685 0.08161 0.49947
v  -1.18553 0.07499 0.49027
v  -1.19354 0.09331 0.50395
v  -1.20079 0.08573 0.49439
v  -1.21150 0.10205 0.51005
v  -1.21724 0.09376 0.49999
v  -1.23092 0.10855 0.51797
v  -1.23506 0.09973 0.50726
v  -1.25273 0.11279 0.52722
v  -1.25514 0.10364 0.51576
v  -1.35952 0.01871 0.73869
v  -1.33247 0.02866 0.75550
v  -1.33818 0.01485 0.75587
v  -1.35296 0.03628 0.73819
v  -1.37624 0.02185 0.71703
v  -1.36871 0.04252 0.71646
v  -1.11814 0.04911 0.55671
v  -1.11294 0.02544 0.54740
v  -1.11126 0.02573 0.55536
v  -1.11987 0.04880 0.54883
v  -1.12976 0.06954 0.55896
v  -1.13161 0.06918 0.55114
v  -1.15816 -0.05115 0.73276
v  -1.17064 -0.02758 0.74994
v  -1.18210 -0.04047 0.74739
v  -1.14969 -0.03522 0.73224
v  -1.15815 0.05191 0.73245
v  -1.17762 0.04108 0.75010
v  -1.17063 0.02848 0.74977
v  -1.14968 0.03597 0.73203
# 100 vertices

vn  -0.66537 -0.26459 0.69805
vn  -0.57441 -0.23456 0.78424
vn  -0.57461 -0.23621 0.78360
vn  -0.66089 -0.26091 0.70367
vn  -0.73540 -0.28401 0.61525
vn  -0.73515 -0.28132 0.61678
vn  0.89228 -0.40081 -0.20783
vn  0.93458 -0.28893 -0.20757
vn  0.93509 -0.28840 -0.20597
vn  0.89294 -0.39788 -0.21058
vn  0.83556 -0.50605 -0.21392
vn  0.83405 -0.50705 -0.21738
vn  -0.89399 -0.14208 -0.42496
vn  -0.90677 -0.00128 -0.42162
vn  -0.90688 -0.00124 -0.42138
vn  -0.89676 -0.12577 -0.42426
vn  -0.67049 -0.56911 -0.47598
vn  -0.77400 -0.44286 -0.45255
vn  -0.79485 -0.40768 -0.44945
vn  -0.69878 -0.53780 -0.47168
vn  -0.84923 -0.29796 -0.43592
vn  -0.86125 -0.26427 -0.43406
vn  -0.20910 -0.79013 -0.57617
vn  -0.27180 -0.77983 -0.56390
vn  -0.29781 -0.77368 -0.55922
vn  -0.21161 -0.78946 -0.57617
vn  -0.40766 -0.74099 -0.53362
vn  -0.43677 -0.72759 -0.52900
vn  -0.54295 -0.67154 -0.50422
vn  -0.57407 -0.64876 -0.49955
vn  0.60100 -0.00237 -0.79925
vn  0.59066 -0.12496 -0.79718
vn  0.59012 -0.12335 -0.79784
vn  0.60026 -0.00236 -0.79980
vn  0.54820 -0.27968 -0.78819
vn  0.55039 -0.27177 -0.78944
vn  0.46376 -0.44102 -0.76839
vn  0.47071 -0.42932 -0.77079
vn  0.33689 -0.58952 -0.73414
vn  0.34302 -0.58314 -0.73640
vn  0.19634 -0.69549 -0.69120
vn  0.19527 -0.69586 -0.69112
vn  0.06663 -0.75553 -0.65172
vn  0.05943 -0.75789 -0.64967
vn  -0.04723 -0.78430 -0.61858
vn  -0.05826 -0.78576 -0.61578
vn  -0.14815 -0.79203 -0.59223
vn  -0.16391 -0.79132 -0.58902
vn  -0.89394 0.13948 -0.42592
vn  -0.89671 0.12326 -0.42512
vn  -0.67036 0.56603 -0.47982
vn  -0.79471 0.40490 -0.45221
vn  -0.77387 0.44000 -0.45554
vn  -0.69862 0.53481 -0.47531
vn  -0.86114 0.26166 -0.43585
vn  -0.84914 0.29526 -0.43794
vn  -0.20908 0.78629 -0.58141
vn  -0.29774 0.76996 -0.56437
vn  -0.27175 0.77607 -0.56909
vn  -0.21158 0.78562 -0.58141
vn  -0.43665 0.72410 -0.53387
vn  -0.40754 0.73746 -0.53858
vn  -0.57392 0.64553 -0.50390
vn  -0.54282 0.66825 -0.50872
vn  0.59005 0.11859 -0.79861
vn  0.59061 0.12015 -0.79796
vn  0.55028 0.26694 -0.79116
vn  0.54812 0.27480 -0.78997
vn  0.47058 0.42449 -0.77354
vn  0.46368 0.43614 -0.77122
vn  0.34292 0.57841 -0.74017
vn  0.33684 0.58476 -0.73797
vn  0.19522 0.69133 -0.69566
vn  0.19634 0.69093 -0.69575
vn  0.05942 0.75359 -0.65465
vn  0.06667 0.75121 -0.65669
vn  -0.05825 0.78167 -0.62097
vn  -0.04720 0.78019 -0.62376
vn  -0.16389 0.78739 -0.59426
vn  -0.14812 0.78809 -0.59748
vn  -0.66561 0.27160 0.69512
vn  -0.57589 0.25104 0.77803
vn  -0.57689 0.25997 0.77435
vn  -0.66097 0.26518 0.70200
vn  -0.73551 0.28776 0.61336
vn  -0.73526 0.28508 0.61492
vn  0.89225 0.39950 -0.21045
vn  0.93456 0.28764 -0.20945
vn  0.93508 0.28712 -0.20784
vn  0.89294 0.39651 -0.21318
vn  0.83555 0.50465 -0.21720
vn  0.83405 0.50563 -0.22067
vn  0.48156 -0.33532 0.80973
vn  0.40078 -0.39160 0.82827
vn  0.31387 -0.44517 0.83863
vn  0.56088 -0.27286 0.78164
vn  0.55825 0.28013 0.78095
vn  0.55158 0.28569 0.78367
vn  0.55493 0.28291 0.78232
vn  0.56110 0.27774 0.77976
# 100 vertex normals

g Object03
s 1
f 1//1 2//2 3//3
f 2//2 1//1 4//4
f 5//5 4//4 1//1
f 4//4 5//5 6//6
f 7//7 8//8 9//9
f 8//8 7//7 10//10
f 7//7 11//11 10//10
f 12//12 10//10 11//11
f 14//14 13//13 15//15
f 16//16 15//15 13//13
f 18//18 17//17 19//19
f 20//20 19//19 17//17
f 21//21 18//18 22//22
f 19//19 22//22 18//18
f 24//24 23//23 25//25
f 26//26 25//25 23//23
f 27//27 24//24 28//28
f 25//25 28//28 24//24
f 29//29 27//27 30//30
f 28//28 30//30 27//27
f 32//32 31//31 33//33
f 34//34 33//33 31//31
f 35//35 32//32 36//36
f 33//33 36//36 32//32
f 37//37 35//35 38//38
f 36//36 38//38 35//35
f 39//39 37//37 40//40
f 38//38 40//40 37//37
f 41//41 39//39 42//42
f 40//40 42//42 39//39
f 43//43 41//41 44//44
f 42//42 44//44 41//41
f 45//45 43//43 46//46
f 44//44 46//46 43//43
f 47//47 45//45 48//48
f 46//46 48//48 45//45
f 13//13 21//21 16//16
f 22//22 16//16 21//21
f 17//17 29//29 20//20
f 30//30 20//20 29//29
f 23//23 47//47 26//26
f 48//48 26//26 47//47
f 15//15 49//49 14//14
f 49//49 15//15 50//50
f 52//52 51//51 53//53
f 51//51 52//52 54//54
f 55//55 53//53 56//56
f 53//53 55//55 52//52
f 58//58 57//57 59//59
f 57//57 58//58 60//60
f 61//61 59//59 62//62
f 59//59 61//61 58//58
f 63//63 62//62 64//64
f 62//62 63//63 61//61
f 65//65 31//31 66//66
f 31//31 65//65 34//34
f 67//67 66//66 68//68
f 66//66 67//67 65//65
f 69//69 68//68 70//70
f 68//68 69//69 67//67
f 71//71 70//70 72//72
f 70//70 71//71 69//69
f 73//73 72//72 74//74
f 72//72 73//73 71//71
f 75//75 74//74 76//76
f 74//74 75//75 73//73
f 77//77 76//76 78//78
f 76//76 77//77 75//75
f 79//79 78//78 80//80
f 78//78 79//79 77//77
f 50//50 56//56 49//49
f 56//56 50//50 55//55
f 54//54 64//64 51//51
f 64//64 54//54 63//63
f 60//60 80//80 57//57
f 80//80 60//60 79//79
f 82//82 81//81 83//83
f 81//81 82//82 84//84
f 84//84 85//85 81//81
f 85//85 84//84 86//86
f 88//88 87//87 89//89
f 87//87 88//88 90//90
f 91//91 87//87 90//90
f 90//90 92//92 91//91
f 93//93 94//94 95//95
f 94//94 93//93 96//96
f 97//97 98//98 99//99
f 99//99 100//100 97//97
# 88 faces

g
# object helmet_vents to come ...
#
v  -1.35952 -0.01787 0.73880
v  -1.33247 -0.02769 0.75567
v  -1.33774 -0.01388 0.75597
v  -1.35296 -0.03544 0.73840
v  -1.37624 -0.02116 0.71716
v  -1.36871 -0.04182 0.71671
v  -1.11814 -0.04957 0.55701
v  -1.11294 -0.02595 0.54756
v  -1.11126 -0.02619 0.55552
v  -1.11986 -0.04930 0.54913
v  -1.12976 -0.06997 0.55938
v  -1.13160 -0.06966 0.55157
v  -1.38442 -0.02498 0.58934
v  -1.38727 -0.00009 0.59170
v  -1.39569 -0.00003 0.60981
v  -1.39254 -0.02725 0.60717
v  -1.34264 -0.08335 0.55871
v  -1.36123 -0.06691 0.57096
v  -1.36751 -0.07262 0.58727
v  -1.34741 -0.09050 0.57395
v  -1.37544 -0.04713 0.58144
v  -1.38288 -0.05112 0.59865
v  -1.26964 -0.10518 0.52269
v  -1.27754 -0.10547 0.52601
v  -1.27699 -0.11461 0.53838
v  -1.26844 -0.11430 0.53477
v  -1.29992 -0.10270 0.53662
v  -1.30122 -0.11158 0.54993
v  -1.32209 -0.09537 0.54751
v  -1.32519 -0.10359 0.56177
v  -1.15141 -0.00046 0.48803
v  -1.15310 -0.02282 0.48818
v  -1.14132 -0.02469 0.49719
v  -1.13942 -0.00043 0.49703
v  -1.15983 -0.04394 0.48848
v  -1.14873 -0.04767 0.49752
v  -1.17133 -0.06187 0.48897
v  -1.16132 -0.06718 0.49805
v  -1.18553 -0.07588 0.49072
v  -1.17684 -0.08244 0.49997
v  -1.20079 -0.08659 0.49491
v  -1.19354 -0.09410 0.50452
v  -1.21724 -0.09458 0.50056
v  -1.21150 -0.10280 0.51067
v  -1.23506 -0.10050 0.50787
v  -1.23092 -0.10924 0.51863
v  -1.25514 -0.10435 0.51639
v  -1.25273 -0.11342 0.52791
v  -1.38442 0.02478 0.58919
v  -1.39254 0.02718 0.60701
v  -1.34264 0.08293 0.55821
v  -1.36751 0.07240 0.58683
v  -1.36123 0.06658 0.57056
v  -1.34741 0.09019 0.57340
v  -1.38288 0.05098 0.59835
v  -1.37544 0.04688 0.58115
v  -1.26964 0.10451 0.52206
v  -1.27699 0.11406 0.53769
v  -1.27754 0.10482 0.52538
v  -1.26844 0.11372 0.53408
v  -1.30122 0.11111 0.54925
v  -1.29993 0.10213 0.53600
v  -1.32519 0.10320 0.56115
v  -1.32209 0.09488 0.54694
v  -1.14133 0.02384 0.49704
v  -1.15311 0.02191 0.48804
v  -1.14873 0.04682 0.49723
v  -1.15984 0.04303 0.48822
v  -1.16132 0.06634 0.49765
v  -1.17133 0.06096 0.48860
v  -1.17685 0.08161 0.49947
v  -1.18553 0.07499 0.49027
v  -1.19354 0.09331 0.50395
v  -1.20079 0.08573 0.49439
v  -1.21150 0.10205 0.51005
v  -1.21724 0.09376 0.49999
v  -1.23092 0.10855 0.51797
v  -1.23506 0.09973 0.50726
v  -1.25273 0.11279 0.52722
v  -1.25514 0.10364 0.51576
v  -1.35952 0.01871 0.73869
v  -1.33247 0.02866 0.75550
v  -1.33818 0.01485 0.75587
v  -1.35296 0.03628 0.73819
v  -1.37624 0.02185 0.71703
v  -1.36871 0.04252 0.71646
v  -1.11814 0.04911 0.55671
v  -1.11294 0.02544 0.54740
v  -1.11126 0.02573 0.55536
v  -1.11987 0.04880 0.54883
v  -1.12976 0.06954 0.55896
v  -1.13161 0.06918 0.55114
v  -1.15816 -0.05115 0.73276
v  -1.17064 -0.02758 0.74994
v  -1.18210 -0.04047 0.74739
v  -1.14969 -0.03522 0.73224
v  -1.15815 0.05191 0.73245
v  -1.17762 0.04108 0.75010
v  -1.17063 0.02848 0.74977
v  -1.14968 0.03597 0.73203
# 100 vertices

vn  0.66537 0.26459 -0.69805
vn  0.57441 0.23456 -0.78424
vn  0.57461 0.23621 -0.78360
vn  0.66089 0.26091 -0.70367
vn  0.73540 0.28401 -0.61525
vn  0.73515 0.28132 -0.61678
vn  -0.89228 0.40081 0.20783
vn  -0.93458 0.28893 0.20757
vn  -0.93509 0.28840 0.20597
vn  -0.89294 0.39788 0.21058
vn  -0.83556 0.50605 0.21392
vn  -0.83405 0.50705 0.21738
vn  0.89399 0.14208 0.42496
vn  0.90677 0.00128 0.42162
vn  0.90688 0.00124 0.42138
vn  0.89676 0.12577 0.42426
vn  0.67049 0.56911 0.47598
vn  0.77400 0.44286 0.45255
vn  0.79485 0.40768 0.44945
vn  0.69878 0.53780 0.47168
vn  0.84923 0.29796 0.43592
vn  0.86125 0.26427 0.43406
vn  0.20910 0.79013 0.57617
vn  0.27180 0.77983 0.56390
vn  0.29781 0.77368 0.55922
vn  0.21161 0.78946 0.57617
vn  0.40766 0.74099 0.53362
vn  0.43677 0.72759 0.52900
vn  0.54295 0.67154 0.50422
vn  0.57407 0.64876 0.49955
vn  -0.60100 0.00237 0.79925
vn  -0.59066 0.12496 0.79718
vn  -0.59012 0.12335 0.79784
vn  -0.60026 0.00236 0.79980
vn  -0.54820 0.27968 0.78819
vn  -0.55039 0.27177 0.78944
vn  -0.46376 0.44102 0.76839
vn  -0.47071 0.42932 0.77079
vn  -0.33689 0.58952 0.73414
vn  -0.34302 0.58314 0.73640
vn  -0.19634 0.69549 0.69120
vn  -0.19527 0.69586 0.69112
vn  -0.06663 0.75553 0.65172
vn  -0.05943 0.75789 0.64967
vn  0.04723 0.78430 0.61858
vn  0.05826 0.78576 0.61578
vn  0.14815 0.79203 0.59223
vn  0.16391 0.79132 0.58902
vn  0.89394 -0.13948 0.42592
vn  0.89671 -0.12326 0.42512
vn  0.67036 -0.56603 0.47982
vn  0.79471 -0.40490 0.45221
vn  0.77387 -0.44000 0.45554
vn  0.69862 -0.53481 0.47531
vn  0.86114 -0.26166 0.43585
vn  0.84914 -0.29526 0.43794
vn  0.20908 -0.78629 0.58141
vn  0.29774 -0.76996 0.56437
vn  0.27175 -0.77607 0.56909
vn  0.21158 -0.78562 0.58141
vn  0.43665 -0.72410 0.53387
vn  0.40754 -0.73746 0.53858
vn  0.57392 -0.64553 0.50390
vn  0.54282 -0.66825 0.50872
vn  -0.59005 -0.11859 0.79861
vn  -0.59061 -0.12015 0.79796
vn  -0.55028 -0.26694 0.79116
vn  -0.54812 -0.27480 0.78997
vn  -0.47058 -0.42449 0.77354
vn  -0.46368 -0.43614 0.77122
vn  -0.34292 -0.57841 0.74017
vn  -0.33684 -0.58476 0.73797
vn  -0.19522 -0.69133 0.69566
vn  -0.19634 -0.69093 0.69575
vn  -0.05942 -0.75359 0.65465
vn  -0.06667 -0.75121 0.65669
vn  0.05825 -0.78167 0.62097
vn  0.04720 -0.78019 0.62376
vn  0.16389 -0.78739 0.59426
vn  0.14812 -0.78809 0.59748
vn  0.66561 -0.27160 -0.69512
vn  0.57589 -0.25104 -0.77803
vn  0.57689 -0.25997 -0.77435
vn  0.66097 -0.26518 -0.70200
vn  0.73551 -0.28776 -0.61336
vn  0.73526 -0.28508 -0.61492
vn  -0.89225 -0.39950 0.21045
vn  -0.93456 -0.28764 0.20945
vn  -0.93508 -0.28712 0.20784
vn  -0.89294 -0.39651 0.21318
vn  -0.83555 -0.50465 0.21720
vn  -0.83405 -0.50563 0.22067
vn  -0.48156 0.33532 -0.80973
vn  -0.40078 0.39160 -0.82827
vn  -0.31387 0.44517 -0.83863
vn  -0.56088 0.27286 -0.78164
vn  -0.55825 -0.28013 -0.78095
vn  -0.55158 -0.28569 -0.78367
vn  -0.55493 -0.28291 -0.78232
vn  -0.56110 -0.27774 -0.77976
# 100 vertex normals

g helmet_vents
s 1
f 102//102 101//101 103//103
f 101//101 102//102 104//104
f 104//104 105//105 101//101
f 105//105 104//104 106//106
f 108//108 107//107 109//109
f 107//107 108//108 110//110
f 111//111 107//107 110//110
f 110//110 112//112 111//111
f 113//113 114//114 115//115
f 115//115 116//116 113//113
f 117//117 118//118 119//119
f 119//119 120//120 117//117
f 118//118 121//121 122//122
f 122//122 119//119 118//118
f 123//123 124//124 125//125
f 125//125 126//126 123//123
f 124//124 127//127 128//128
f 128//128 125//125 124//124
f 127//127 129//129 130//130
f 130//130 128//128 127//127
f 131//131 132//132 133//133
f 133//133 134//134 131//131
f 132//132 135//135 136//136
f 136//136 133//133 132//132
f 135//135 137//137 138//138
f 138//138 136//136 135//135
f 137//137 139//139 140//140
f 140//140 138//138 137//137
f 139//139 141//141 142//142
f 142//142 140//140 139//139
f 141//141 143//143 144//144
f 144//144 142//142 141//141
f 143//143 145//145 146//146
f 146//146 144//144 143//143
f 145//145 147//147 148//148
f 148//148 146//146 145//145
f 121//121 113//113 116//116
f 116//116 122//122 121//121
f 129//129 117//117 120//120
f 120//120 130//130 129//129
f 147//147 123//123 126//126
f 126//126 148//148 147//147
f 149//149 115//115 114//114
f 115//115 149//149 150//150
f 151//151 152//152 153//153
f 152//152 151//151 154//154
f 153//153 155//155 156//156
f 155//155 153//153 152//152
f 157//157 158//158 159//159
f 158//158 157//157 160//160
f 159//159 161//161 162//162
f 161//161 159//159 158//158
f 162//162 163//163 164//164
f 163//163 162//162 161//161
f 131//131 165//165 166//166
f 165//165 131//131 134//134
f 166//166 167//167 168//168
f 167//167 166//166 165//165
f 168//168 169//169 170//170
f 169//169 168//168 167//167
f 170//170 171//171 172//172
f 171//171 170//170 169//169
f 172//172 173//173 174//174
f 173//173 172//172 171//171
f 174//174 175//175 176//176
f 175//175 174//174 173//173
f 176//176 177//177 178//178
f 177//177 176//176 175//175
f 178//178 179//179 180//180
f 179//179 178//178 177//177
f 156//156 150//150 149//149
f 150//150 156//156 155//155
f 164//164 154//154 151//151
f 154//154 164//164 163//163
f 180//180 160//160 157//157
f 160//160 180//180 179//179
f 181//181 182//182 183//183
f 182//182 181//181 184//184
f 185//185 184//184 181//181
f 184//184 185//185 186//186
f 187//187 188//188 189//189
f 188//188 187//187 190//190
f 187//187 191//191 190//190
f 192//192 190//190 191//191
f 194//194 193//193 195//195
f 193//193 194//194 196//196
f 198//198 197//197 199//199
f 200//200 199//199 197//197
# 88 faces

g
