# Max2Obj Version 4.0 Mar 10th, 2001
#
# object Stripe01 to come ...
#
v  -1.23147 -0.12410 0.62600
v  -1.19093 -0.11768 0.65544
v  -1.23068 -0.12334 0.65622
v  -1.19139 -0.11830 0.62452
v  -1.26817 -0.12424 0.62772
v  -1.26714 -0.12322 0.65745
v  -1.30109 -0.11882 0.62951
v  -1.29987 -0.11754 0.65891
v  -1.32981 -0.10816 0.63118
v  -1.32846 -0.10668 0.66039
v  -1.35393 -0.09273 0.63261
v  -1.35250 -0.09121 0.66174
v  -1.37310 -0.07324 0.63372
v  -1.37163 -0.07188 0.66285
v  -1.38702 -0.05059 0.63447
v  -1.38553 -0.04955 0.66364
v  -1.39548 -0.02580 0.63488
v  -1.39399 -0.02520 0.66408
v  -1.39836 0.00006 0.63497
v  -1.39688 0.00016 0.66418
v  -1.17910 -0.11489 0.64728
v  -1.18449 -0.11643 0.63431
v  -1.18396 -0.11649 0.62423
v  -1.17019 -0.11202 0.65535
v  -1.23147 0.12414 0.62522
v  -1.23068 0.12358 0.65545
v  -1.19093 0.11791 0.65469
v  -1.19139 0.11832 0.62377
v  -1.26818 0.12429 0.62696
v  -1.26714 0.12349 0.65669
v  -1.30109 0.11890 0.62879
v  -1.29987 0.11782 0.65819
v  -1.32981 0.10825 0.63053
v  -1.32846 0.10697 0.65974
v  -1.35393 0.09283 0.63205
v  -1.35250 0.09151 0.66119
v  -1.37310 0.07335 0.63328
v  -1.37163 0.07219 0.66241
v  -1.38702 0.05070 0.63417
v  -1.38553 0.04987 0.66334
v  -1.39548 0.02591 0.63473
v  -1.39399 0.02553 0.66393
v  -1.17910 0.11506 0.64654
v  -1.18449 0.11652 0.63357
v  -1.18396 0.11651 0.62349
v  -1.17019 0.11223 0.65464
# 46 vertices

vn  -0.07435 0.99698 -0.02255
vn  -0.19619 0.98026 -0.02435
vn  -0.07177 0.99710 -0.02528
vn  -0.19182 0.98128 -0.01738
vn  0.07884 0.99628 -0.03473
vn  0.08365 0.99572 -0.03927
vn  0.25441 0.96579 -0.05027
vn  0.26056 0.96389 -0.05499
vn  0.44192 0.89478 -0.06383
vn  0.44780 0.89164 -0.06671
vn  0.62414 0.77812 -0.07059
vn  0.62839 0.77469 -0.07057
vn  0.78191 0.61954 -0.06927
vn  0.78420 0.61689 -0.06696
vn  0.90084 0.42960 -0.06268
vn  0.90172 0.42818 -0.05976
vn  0.97374 0.22083 -0.05539
vn  0.97395 0.22039 -0.05343
vn  0.99866 -0.00012 -0.05170
vn  0.99872 -0.00019 -0.05055
vn  -0.25189 0.96714 -0.03455
vn  -0.23940 0.97079 -0.01618
vn  -0.23715 0.97131 -0.01786
vn  -0.26330 0.96329 -0.05241
vn  -0.07460 -0.99709 -0.01589
vn  -0.07204 -0.99723 -0.01855
vn  -0.19658 -0.98032 -0.01795
vn  -0.19214 -0.98131 -0.01100
vn  0.07866 -0.99651 -0.02793
vn  0.08347 -0.99598 -0.03243
vn  0.25432 -0.96614 -0.04360
vn  0.26045 -0.96428 -0.04830
vn  0.44192 -0.89521 -0.05760
vn  0.44775 -0.89211 -0.06049
vn  0.62418 -0.77856 -0.06515
vn  0.62837 -0.77518 -0.06515
vn  0.78197 -0.61993 -0.06493
vn  0.78419 -0.61735 -0.06264
vn  0.90089 -0.42993 -0.05967
vn  0.90171 -0.42860 -0.05676
vn  0.97376 -0.22110 -0.05384
vn  0.97394 -0.22079 -0.05188
vn  -0.25240 -0.96721 -0.02833
vn  -0.23974 -0.97079 -0.00992
vn  -0.23753 -0.97131 -0.01157
vn  -0.26386 -0.96345 -0.04628
# 46 vertex normals

g Stripe01
s 1
f 2//2 1//1 3//3
f 1//1 2//2 4//4
f 3//3 5//5 6//6
f 5//5 3//3 1//1
f 6//6 7//7 8//8
f 7//7 6//6 5//5
f 8//8 9//9 10//10
f 9//9 8//8 7//7
f 10//10 11//11 12//12
f 11//11 10//10 9//9
f 12//12 13//13 14//14
f 13//13 12//12 11//11
f 14//14 15//15 16//16
f 15//15 14//14 13//13
f 16//16 17//17 18//18
f 17//17 16//16 15//15
f 18//18 19//19 20//20
f 19//19 18//18 17//17
f 21//21 4//4 2//2
f 22//22 4//4 21//21
f 22//22 23//23 4//4
f 24//24 21//21 2//2
f 26//26 25//25 27//27
f 28//28 27//27 25//25
f 30//30 29//29 26//26
f 25//25 26//26 29//29
f 32//32 31//31 30//30
f 29//29 30//30 31//31
f 34//34 33//33 32//32
f 31//31 32//32 33//33
f 36//36 35//35 34//34
f 33//33 34//34 35//35
f 38//38 37//37 36//36
f 35//35 36//36 37//37
f 40//40 39//39 38//38
f 37//37 38//38 39//39
f 42//42 41//41 40//40
f 39//39 40//40 41//41
f 20//20 19//19 42//42
f 41//41 42//42 19//19
f 27//27 28//28 43//43
f 43//43 28//28 44//44
f 28//28 45//45 44//44
f 27//27 43//43 46//46
# 44 faces

g
# object Object02 to come ...
#
v  -1.23147 -0.12410 0.62600
v  -1.19093 -0.11768 0.65544
v  -1.23068 -0.12334 0.65622
v  -1.19139 -0.11830 0.62452
v  -1.26817 -0.12424 0.62772
v  -1.26714 -0.12322 0.65745
v  -1.30109 -0.11882 0.62951
v  -1.29987 -0.11754 0.65891
v  -1.32981 -0.10816 0.63118
v  -1.32846 -0.10668 0.66039
v  -1.35393 -0.09273 0.63261
v  -1.35250 -0.09121 0.66174
v  -1.37310 -0.07324 0.63372
v  -1.37163 -0.07188 0.66285
v  -1.38702 -0.05059 0.63447
v  -1.38553 -0.04955 0.66364
v  -1.39548 -0.02580 0.63488
v  -1.39399 -0.02520 0.66408
v  -1.39836 0.00006 0.63497
v  -1.39688 0.00016 0.66418
v  -1.17910 -0.11489 0.64728
v  -1.18449 -0.11643 0.63431
v  -1.18396 -0.11649 0.62423
v  -1.17019 -0.11202 0.65535
v  -1.23147 0.12414 0.62522
v  -1.23068 0.12358 0.65545
v  -1.19093 0.11791 0.65469
v  -1.19139 0.11832 0.62377
v  -1.26818 0.12429 0.62696
v  -1.26714 0.12349 0.65669
v  -1.30109 0.11890 0.62879
v  -1.29987 0.11782 0.65819
v  -1.32981 0.10825 0.63053
v  -1.32846 0.10697 0.65974
v  -1.35393 0.09283 0.63205
v  -1.35250 0.09151 0.66119
v  -1.37310 0.07335 0.63328
v  -1.37163 0.07219 0.66241
v  -1.38702 0.05070 0.63417
v  -1.38553 0.04987 0.66334
v  -1.39548 0.02591 0.63473
v  -1.39399 0.02553 0.66393
v  -1.17910 0.11506 0.64654
v  -1.18449 0.11652 0.63357
v  -1.18396 0.11651 0.62349
v  -1.17019 0.11223 0.65464
# 46 vertices

vn  0.07435 -0.99698 0.02255
vn  0.19619 -0.98026 0.02435
vn  0.07177 -0.99710 0.02528
vn  0.19182 -0.98128 0.01738
vn  -0.07884 -0.99628 0.03473
vn  -0.08365 -0.99572 0.03927
vn  -0.25441 -0.96579 0.05027
vn  -0.26056 -0.96389 0.05499
vn  -0.44192 -0.89478 0.06383
vn  -0.44780 -0.89164 0.06671
vn  -0.62414 -0.77812 0.07059
vn  -0.62839 -0.77469 0.07057
vn  -0.78191 -0.61954 0.06927
vn  -0.78420 -0.61689 0.06696
vn  -0.90084 -0.42960 0.06268
vn  -0.90172 -0.42818 0.05976
vn  -0.97374 -0.22083 0.05539
vn  -0.97395 -0.22039 0.05343
vn  -0.99866 0.00012 0.05170
vn  -0.99872 0.00019 0.05055
vn  0.25189 -0.96714 0.03455
vn  0.23940 -0.97079 0.01618
vn  0.23715 -0.97131 0.01786
vn  0.26330 -0.96329 0.05241
vn  0.07460 0.99709 0.01589
vn  0.07204 0.99723 0.01855
vn  0.19658 0.98032 0.01795
vn  0.19214 0.98131 0.01100
vn  -0.07866 0.99651 0.02793
vn  -0.08347 0.99598 0.03243
vn  -0.25432 0.96614 0.04360
vn  -0.26045 0.96428 0.04830
vn  -0.44192 0.89521 0.05760
vn  -0.44775 0.89211 0.06049
vn  -0.62418 0.77856 0.06515
vn  -0.62837 0.77518 0.06515
vn  -0.78197 0.61993 0.06493
vn  -0.78419 0.61735 0.06264
vn  -0.90089 0.42993 0.05967
vn  -0.90171 0.42860 0.05676
vn  -0.97376 0.22110 0.05384
vn  -0.97394 0.22079 0.05188
vn  0.25240 0.96721 0.02833
vn  0.23974 0.97079 0.00992
vn  0.23753 0.97131 0.01157
vn  0.26386 0.96345 0.04628
# 46 vertex normals

g Object02
s 1
f 47//47 48//48 49//49
f 48//48 47//47 50//50
f 51//51 49//49 52//52
f 49//49 51//51 47//47
f 53//53 52//52 54//54
f 52//52 53//53 51//51
f 55//55 54//54 56//56
f 54//54 55//55 53//53
f 57//57 56//56 58//58
f 56//56 57//57 55//55
f 59//59 58//58 60//60
f 58//58 59//59 57//57
f 61//61 60//60 62//62
f 60//60 61//61 59//59
f 63//63 62//62 64//64
f 62//62 63//63 61//61
f 65//65 64//64 66//66
f 64//64 65//65 63//63
f 50//50 67//67 48//48
f 50//50 68//68 67//67
f 69//69 68//68 50//50
f 67//67 70//70 48//48
f 71//71 72//72 73//73
f 73//73 74//74 71//71
f 75//75 76//76 72//72
f 72//72 71//71 75//75
f 77//77 78//78 76//76
f 76//76 75//75 77//77
f 79//79 80//80 78//78
f 78//78 77//77 79//79
f 81//81 82//82 80//80
f 80//80 79//79 81//81
f 83//83 84//84 82//82
f 82//82 81//81 83//83
f 85//85 86//86 84//84
f 84//84 83//83 85//85
f 87//87 88//88 86//86
f 86//86 85//85 87//87
f 65//65 66//66 88//88
f 88//88 87//87 65//65
f 74//74 73//73 89//89
f 74//74 89//89 90//90
f 91//91 74//74 90//90
f 89//89 73//73 92//92
# 44 faces

g
