mtllib ./brakes.mtl
g
v 1.62684 6.1891 1.24522
v 1.4709 6.57641 1.24544
v 1.36338 6.71818 1.24544
v 1.3359 6.7407 1.24544
v 1.23891 6.79909 1.24544
v 0.856885 6.92695 1.25273
v 1.6186 6.10984 1.37596
v 1.45401 6.49207 1.4135
v 1.33592 6.6589 1.40295
v 1.19761 6.7535 1.40277
v 0.883615 6.87183 1.39785
v 1.52515 6.45656 1.24544
v 1.53192 6.30935 1.4198
v 1.58963 6.11447 1.443
v 1.44652 6.39798 1.4732
v 1.36153 6.5173 1.47772
v 1.14791 6.6781 1.48193
v 0.899467 6.74524 1.49012
v 1.55215 6.15682 1.47497
v 1.3972 6.32415 1.5163
v 1.08011 6.54604 1.55374
v 0.910262 6.60816 1.55721
v 1.26839 6.60604 1.47678
v 1.50551 6.21673 1.49672
v 1.39897 6.68255 1.24544
v 1.43451 6.63674 1.24544
v 0.856885 6.90486 1.24584
v -1.62684 6.1891 1.24522
v -1.53192 6.30935 1.4198
v -1.6186 6.10984 1.37596
v -1.52515 6.45656 1.24544
v -1.4709 6.57641 1.24544
v -1.45401 6.49207 1.4135
v -1.36338 6.71818 1.24544
v -1.33592 6.6589 1.40295
v -1.39897 6.68255 1.24544
v -1.19761 6.7535 1.40277
v -1.3359 6.7407 1.24544
v -1.23891 6.79909 1.24544
v -0.883615 6.87183 1.39785
v -0.856885 6.92695 1.25273
v -1.43451 6.63674 1.24544
v -1.58963 6.11447 1.443
v -1.44652 6.39798 1.4732
v -1.26839 6.60604 1.47678
v -1.36153 6.5173 1.47772
v -1.14791 6.6781 1.48193
v -0.899467 6.74524 1.49012
v -1.50551 6.21673 1.49672
v -1.08011 6.54604 1.55374
v -0.910262 6.60816 1.55721
v -1.3972 6.32415 1.5163
v -1.55215 6.15682 1.47497
v -0.856885 6.90486 1.24584
v 0.448376 5.87149 1.82944
v 0.333486 5.87149 1.82944
v 0.218595 5.87149 1.82944
v 0.103705 5.87149 1.82944
v 0.448376 5.87149 1.88767
v 0.333486 5.87149 1.88501
v 0.218595 5.87149 1.88807
v 0.103705 5.87149 1.88807
v 0.0 5.87149 1.82944
v -0.448374 5.87149 1.88767
v -0.448374 5.87149 1.82944
v -0.333484 5.87149 1.82944
v -0.333484 5.87149 1.88501
v -0.218593 5.87149 1.82944
v -0.218593 5.87149 1.88807
v -0.103703 5.87149 1.82944
v -0.103703 5.87149 1.88807
v 0.0 5.87149 1.88908

vt 0.137037 0.191835 0.463461
vt 0.428484 0.0588416 0.565782
vt 0.565879 0.0207084 0.576349
vt 0.594038 0.01684 0.572487
vt 0.68273 0.0122095 0.548787
vt 0.981376 0.0419968 0.410528
vt 0.121699 0.30441 0.491561
vt 0.421501 0.197363 0.606934
vt 0.576436 0.144514 0.618169
vt 0.708633 0.132951 0.5897
vt 0.959157 0.145349 0.476517
vt 0.334654 0.0987749 0.53735
vt 0.282333 0.262956 0.564421
vt 0.151863 0.34795 0.514437
vt 0.387404 0.274349 0.590097
vt 0.500371 0.243759 0.604349
vt 0.712678 0.222246 0.569806
vt 0.899301 0.250506 0.474094
vt 0.201022 0.356487 0.531955
vt 0.386535 0.341687 0.551746
vt 0.697894 0.335293 0.509237
vt 0.833383 0.346416 0.450412
vt 0.601967 0.224767 0.5967
vt 0.263113 0.35342 0.547483
vt 0.52613 0.0284911 0.578254
vt 0.481246 0.0406459 0.575264
vt 0.969129 0.047405 0.39626
vt 0.137037 0.191835 0.463461
vt 0.282333 0.262956 0.564421
vt 0.121699 0.30441 0.491561
vt 0.334654 0.0987749 0.53735
vt 0.428484 0.0588416 0.565782
vt 0.421501 0.197363 0.606934
vt 0.565879 0.0207084 0.576349
vt 0.576436 0.144514 0.618169
vt 0.52613 0.0284911 0.578254
vt 0.708633 0.132951 0.5897
vt 0.594038 0.01684 0.572487
vt 0.68273 0.0122095 0.548787
vt 0.959157 0.145349 0.476517
vt 0.981376 0.0419968 0.410528
vt 0.481246 0.0406459 0.575264
vt 0.151863 0.34795 0.514437
vt 0.387404 0.274349 0.590097
vt 0.601967 0.224767 0.5967
vt 0.500371 0.243759 0.604349
vt 0.712678 0.222246 0.569806
vt 0.899301 0.250506 0.474094
vt 0.263113 0.35342 0.547483
vt 0.697894 0.335293 0.509237
vt 0.833383 0.346416 0.450412
vt 0.386535 0.341687 0.551746
vt 0.201022 0.356487 0.531955
vt 0.969129 0.047405 0.39626
vt 0.0707966 0.0397221 0.5
vt 0.0707962 0.127203 0.5
vt 0.0707958 0.214685 0.5
vt 0.0707954 0.302166 0.5
vt 0.0142792 0.039722 0.5
vt 0.0168606 0.127203 0.5
vt 0.0138902 0.214685 0.5
vt 0.0138898 0.302166 0.5
vt 0.0707951 0.38113 0.5
vt 0.014276 0.722536 0.5
vt 0.0707935 0.722537 0.5
vt 0.0707939 0.635056 0.5
vt 0.0168582 0.635055 0.5
vt 0.0707943 0.547574 0.5
vt 0.0138887 0.547574 0.5
vt 0.0707946 0.460093 0.5
vt 0.0138891 0.460093 0.5
vt 0.0129091 0.38113 0.5

vn 0.904594 0.339201 0.258173
vn 0.827521 0.339735 0.446978
vn 0.895376 0.321255 0.308377
vn 0.883542 0.376678 0.27833
vn 0.835222 0.453249 0.311399
vn 0.748626 0.43298 0.502082
vn 0.621711 0.691119 0.368552
vn 0.564532 0.605121 0.561366
vn 0.699833 0.609932 0.371776
vn 0.365149 0.738883 0.56632
vn 0.536996 0.755618 0.375068
vn 0.409594 0.84457 0.344868
vn 0.285389 0.814965 0.504366
vn 0.308919 0.906606 0.287462
vn 0.759031 0.538431 0.366011
vn 0.85701 0.303352 0.416547
vn 0.570554 0.307166 0.761654
vn 0.346219 0.431127 0.833224
vn 0.441647 0.362711 0.820602
vn 0.245707 0.509198 0.82483
vn 0.185406 0.541499 0.820002
vn 0.665082 0.31041 0.679199
vn 0.2163 0.356542 0.908896
vn 0.15516 0.430108 0.889344
vn 0.370335 0.244801 0.896061
vn 0.76946 0.305034 0.561146
vn 0.0811791 0.29675 -0.951498
vn 0.0811791 0.29675 -0.951499
vn 0.0811791 0.29675 -0.951499
vn -0.827521 0.339735 0.446978
vn -0.904594 0.339201 0.258173
vn -0.895376 0.321255 0.308377
vn -0.883542 0.376678 0.27833
vn -0.835222 0.453249 0.311399
vn -0.748626 0.43298 0.502082
vn -0.564532 0.605121 0.561366
vn -0.621711 0.691119 0.368552
vn -0.699833 0.609932 0.371776
vn -0.536996 0.755618 0.375068
vn -0.365149 0.738883 0.56632
vn -0.409594 0.84457 0.344868
vn -0.285389 0.814965 0.504366
vn -0.308919 0.906606 0.287462
vn -0.759031 0.538431 0.366011
vn -0.85701 0.303352 0.416547
vn -0.570554 0.307166 0.761654
vn -0.346219 0.431127 0.833224
vn -0.441647 0.362711 0.820602
vn -0.245707 0.509198 0.82483
vn -0.185406 0.541499 0.820002
vn -0.665082 0.31041 0.679199
vn -0.2163 0.356542 0.908896
vn -0.15516 0.430108 0.889344
vn -0.370335 0.244801 0.896061
vn -0.76946 0.305034 0.561146
vn -0.0811791 0.29675 -0.951499
vn -0.0811791 0.29675 -0.951498
vn -0.0811791 0.29675 -0.951499
vn 0.0 1.0 0.0
vn 0.0 1.0 0.0
vn 0.0 1.0 0.0
vn 0.0 1.0 0.0
vn 0.0 1.0 0.0
vn 0.0 1.0 0.0
vn 0.0 1.0 0.0
vn 0.0 1.0 0.0
vn 0.0 1.0 0.0
vn 0.0 1.0 0.0
vn 0.0 1.0 0.0
vn 0.0 1.0 0.0
vn 0.0 1.0 0.0
vn 0.0 1.0 0.0
vn 0.0 1.0 0.0
vn 0.0 1.0 0.0
vn 0.0 1.0 0.0
vn 0.0 1.0 0.0

g
g Mesh03_Shell_Material
usemtl Mesh03_Shell_Material
f 1/1/1 13/13/2 7/7/3
f 12/12/4 13/13/2 1/1/1
f 12/12/4 2/2/5 8/8/6
f 3/3/7 9/9/8 25/25/9
f 10/10/10 4/4/11 5/5/12
f 10/10/10 5/5/12 11/11/13
f 11/11/13 5/5/12 6/6/14
f 8/8/6 13/13/2 12/12/4
f 26/26/15 9/9/8 8/8/6
f 9/9/8 3/3/7 4/4/11
f 14/14/16 7/7/3 13/13/2
f 13/13/2 8/8/6 15/15/17
f 9/9/8 23/23/18 16/16/19
f 23/23/18 10/10/10 17/17/20
f 10/10/10 23/23/18 9/9/8
f 10/10/10 11/11/13 18/18/21
f 18/18/21 17/17/20 10/10/10
f 15/15/17 24/24/22 13/13/2
f 23/23/18 21/21/23 16/16/19
f 17/17/20 21/21/23 23/23/18
f 17/17/20 18/18/21 22/22/24
f 21/21/23 20/20/25 16/16/19
f 22/22/24 21/21/23 17/17/20
f 16/16/19 15/15/17 8/8/6
f 8/8/6 9/9/8 16/16/19
f 24/24/22 19/19/26 13/13/2
f 15/15/17 16/16/19 20/20/25
f 19/19/26 14/14/16 13/13/2
f 20/20/25 24/24/22 15/15/17
f 25/25/9 9/9/8 26/26/15
f 26/26/15 8/8/6 2/2/5
f 4/4/11 10/10/10 9/9/8
g Mesh03_Shell_Material
usemtl Mesh03_Shell_Material
f 5/5/27 27/27/28 6/6/29
g Mesh03_Shell_Material
usemtl Mesh03_Shell_Material
f 29/29/30 28/28/31 30/30/32
f 29/29/30 31/31/33 28/28/31
f 32/32/34 31/31/33 33/33/35
f 35/35/36 34/34/37 36/36/38
f 38/38/39 37/37/40 39/39/41
f 39/39/41 37/37/40 40/40/42
f 39/39/41 40/40/42 41/41/43
f 29/29/30 33/33/35 31/31/33
f 35/35/36 42/42/44 33/33/35
f 34/34/37 35/35/36 38/38/39
f 30/30/32 43/43/45 29/29/30
f 33/33/35 29/29/30 44/44/46
f 45/45/47 35/35/36 46/46/48
f 37/37/40 45/45/47 47/47/49
f 45/45/47 37/37/40 35/35/36
f 40/40/42 37/37/40 48/48/50
f 47/47/49 48/48/50 37/37/40
f 49/49/51 44/44/46 29/29/30
f 50/50/52 45/45/47 46/46/48
f 50/50/52 47/47/49 45/45/47
f 48/48/50 47/47/49 51/51/53
f 52/52/54 50/50/52 46/46/48
f 50/50/52 51/51/53 47/47/49
f 44/44/46 46/46/48 33/33/35
f 35/35/36 33/33/35 46/46/48
f 53/53/55 49/49/51 29/29/30
f 46/46/48 44/44/46 52/52/54
f 43/43/45 53/53/55 29/29/30
f 49/49/51 52/52/54 44/44/46
f 35/35/36 36/36/38 42/42/44
f 33/33/35 42/42/44 32/32/34
f 37/37/40 38/38/39 35/35/36
g Mesh03_Shell_Material
usemtl Mesh03_Shell_Material
f 54/54/56 39/39/57 41/41/58
g Mesh03_Shell_Material
usemtl Mesh03_Shell_Material
f 55/55/59 56/56/60 60/60/61
f 60/60/61 59/59/62 55/55/59
f 56/56/60 57/57/63 61/61/64
f 61/61/64 60/60/61 56/56/60
f 57/57/63 58/58/65 62/62/66
f 62/62/66 61/61/64 57/57/63
f 58/58/65 63/63/67 72/72/68
f 72/72/68 62/62/66 58/58/65
f 65/65/69 64/64/70 67/67/71
f 67/67/71 66/66/72 65/65/69
f 66/66/72 67/67/71 69/69/73
f 69/69/73 68/68/74 66/66/72
f 68/68/74 69/69/73 71/71/75
f 71/71/75 70/70/76 68/68/74
f 70/70/76 71/71/75 72/72/68
f 72/72/68 63/63/67 70/70/76
