# Max2Obj Version 4.0 Mar 10th, 2001
#
# object Object01 to come ...
#
v  -1.3359 -0.0000 0.8103
v  -1.9149 -0.7191 1.2246
v  -3.7106 -0.7191 1.2246
v  -1.5004 -0.7191 1.2246
v  -1.3359 -0.5555 1.2246
v  -1.3359 -0.0000 1.2246
v  -1.3359 -0.3473 1.2246
v  -2.7629 -0.7191 0.7163
v  -3.7106 -0.7191 0.7163
v  -1.5004 -0.7191 0.7163
v  -1.3359 -0.0000 0.7163
v  -1.3359 -0.0788 0.7163
v  -2.5442 -0.7191 0.7163
v  -1.3359 -0.5555 0.7163
v  -1.3359 -0.4455 0.7163
v  -1.9149 0.7191 1.2246
v  -3.7106 0.7191 1.2246
v  -1.5004 0.7191 1.2246
v  -1.3359 0.5555 1.2246
v  -1.3359 0.3473 1.2246
v  -2.7629 0.7191 0.7163
v  -3.7106 0.7191 0.7163
v  -1.5004 0.7191 0.7163
v  -1.3359 0.0788 0.7163
v  -2.5442 0.7191 0.7163
v  -1.3359 0.5555 0.7163
v  -1.3359 0.4455 0.7163
# 27 vertices

vn  1.0000 -0.0000 0.0000
vn  -0.0000 -1.0000 -0.0000
vn  -0.0000 -1.0000 -0.0000
vn  -0.0000 -1.0000 -0.0000
vn  1.0000 -0.0000 0.0000
vn  1.0000 -0.0000 0.0000
vn  1.0000 -0.0000 0.0000
vn  -0.0000 -1.0000 -0.0000
vn  -0.0000 -1.0000 -0.0000
vn  -0.0000 -1.0000 -0.0000
vn  1.0000 -0.0000 0.0000
vn  1.0000 -0.0000 0.0000
vn  -0.0000 -1.0000 -0.0000
vn  1.0000 -0.0000 0.0000
vn  1.0000 -0.0000 0.0000
vn  0.0000 1.0000 0.0000
vn  0.0000 1.0000 0.0000
vn  0.0000 1.0000 0.0000
vn  1.0000 -0.0000 0.0000
vn  1.0000 -0.0000 0.0000
vn  0.0000 1.0000 0.0000
vn  0.0000 1.0000 0.0000
vn  0.0000 1.0000 0.0000
vn  1.0000 -0.0000 0.0000
vn  0.0000 1.0000 0.0000
vn  1.0000 -0.0000 0.0000
vn  1.0000 -0.0000 0.0000
# 27 vertex normals

g Object01
s 1
f 12//12 11//11 1//1
f 7//7 1//1 6//6
f 13//13 10//10 4//4
f 9//9 8//8 2//2
f 3//3 9//9 2//2
f 13//13 4//4 8//8
f 8//8 4//4 2//2
f 14//14 15//15 7//7
f 5//5 14//14 7//7
f 15//15 12//12 1//1
f 7//7 15//15 1//1
f 11//11 24//24 1//1
f 1//1 20//20 6//6
f 23//23 25//25 18//18
f 21//21 22//22 16//16
f 22//22 17//17 16//16
f 18//18 25//25 21//21
f 18//18 21//21 16//16
f 27//27 26//26 20//20
f 26//26 19//19 20//20
f 24//24 27//27 1//1
f 27//27 20//20 1//1
# 22 faces

g
