# Max2Obj Version 4.0 Mar 10th, 2001
#
# object Object02 to come ...
#
v  -1.5004 -0.7191 1.4730
v  -3.7106 -0.7191 1.4730
v  -3.7106 -0.7190 0.1482
v  -1.5004 -0.7191 0.1479
v  -1.3359 -0.5555 1.4730
v  -1.3359 -0.0000 1.4730
v  -1.3359 -0.0000 0.1475
v  -1.9149 -0.7191 1.2246
v  -3.7106 -0.7191 1.2246
v  -1.5004 -0.7191 1.2246
v  -1.3359 -0.5555 1.2246
v  -1.3359 -0.0000 1.2246
v  -1.3359 -0.3473 1.2246
v  -2.7629 -0.7191 0.7163
v  -3.7106 -0.7190 0.7163
v  -1.5004 -0.7191 0.7163
v  -1.3359 -0.0000 0.7163
v  -2.5442 -0.7191 0.7163
v  -1.5004 -0.5555 1.6346
v  -2.6937 -0.0000 1.6346
v  -1.5004 -0.0000 1.6346
v  -3.7106 -0.5555 1.6346
v  -3.7106 -0.3659 1.6346
v  -3.7106 -0.0000 1.6346
v  -1.5004 0.7190 1.4730
v  -3.7106 0.7191 1.4730
v  -3.7106 0.7191 0.1482
v  -1.5004 0.7190 0.1479
v  -1.3359 0.5555 1.4730
v  -1.3359 0.5555 0.1475
v  -1.9149 0.7190 1.2246
v  -3.7106 0.7191 1.2246
v  -1.5004 0.7190 1.2246
v  -1.3359 0.5555 1.2246
v  -1.3359 0.3473 1.2246
v  -2.7629 0.7191 0.7163
v  -3.7106 0.7191 0.7163
v  -1.5004 0.7190 0.7163
v  -1.3359 0.0788 0.7163
v  -2.5442 0.7190 0.7163
v  -1.3359 0.5555 0.7163
v  -1.3359 0.4455 0.7163
v  -1.5004 0.5555 1.6346
v  -2.6937 -0.0000 1.6346
v  -1.5004 -0.0000 1.6346
v  -3.7106 0.5555 1.6346
v  -3.7106 0.3659 1.6346
v  -1.3359 -0.5555 0.1475
v  -1.3359 -0.0788 0.7163
v  -1.3359 -0.5555 0.7163
v  -1.3359 -0.4455 0.7163
# 51 vertices

vn  -0.0000 -1.0000 -0.0000
vn  -0.0000 -1.0000 -0.0000
vn  -0.0000 -1.0000 -0.0000
vn  -0.0000 -1.0000 -0.0000
vn  1.0000 -0.0000 0.0000
vn  1.0000 -0.0000 0.0000
vn  1.0000 -0.0000 0.0000
vn  -0.0000 -1.0000 -0.0000
vn  -0.0000 -1.0000 -0.0000
vn  -0.0000 -1.0000 -0.0000
vn  1.0000 -0.0000 0.0000
vn  1.0000 -0.0000 0.0000
vn  1.0000 -0.0000 0.0000
vn  -0.0000 -1.0000 -0.0000
vn  -0.0000 -1.0000 -0.0000
vn  -0.0000 -1.0000 -0.0000
vn  1.0000 -0.0000 0.0000
vn  -0.0000 -1.0000 -0.0000
vn  -0.0000 -0.0000 1.0000
vn  -0.0000 -0.0000 1.0000
vn  -0.0000 -0.0000 1.0000
vn  -0.0000 -0.0000 1.0000
vn  -0.0000 -0.0000 1.0000
vn  -0.0000 -0.0000 1.0000
vn  0.0000 1.0000 0.0000
vn  0.0000 1.0000 0.0000
vn  0.0000 1.0000 0.0000
vn  0.0000 1.0000 0.0000
vn  1.0000 -0.0000 0.0000
vn  1.0000 -0.0000 0.0000
vn  0.0000 1.0000 0.0000
vn  0.0000 1.0000 0.0000
vn  0.0000 1.0000 0.0000
vn  1.0000 -0.0000 0.0000
vn  1.0000 -0.0000 0.0000
vn  0.0000 1.0000 0.0000
vn  0.0000 1.0000 0.0000
vn  0.0000 1.0000 0.0000
vn  1.0000 -0.0000 0.0000
vn  0.0000 1.0000 0.0000
vn  1.0000 -0.0000 0.0000
vn  1.0000 -0.0000 0.0000
vn  -0.0000 -0.0000 1.0000
vn  -0.0000 -0.0000 1.0000
vn  -0.0000 -0.0000 1.0000
vn  -0.0000 -0.0000 1.0000
vn  -0.0000 -0.0000 1.0000
vn  1.0000 -0.0000 0.0000
vn  1.0000 -0.0000 0.0000
vn  1.0000 -0.0000 0.0000
vn  1.0000 -0.0000 0.0000
# 51 vertex normals

g Object02
s 1
f 20//20 24//24 23//23
f 15//15 3//3 14//14
f 8//8 10//10 1//1
f 21//21 20//20 23//23
f 19//19 21//21 22//22
f 5//5 11//11 13//13
f 9//9 8//8 1//1
f 2//2 9//9 1//1
f 3//3 18//18 14//14
f 13//13 12//12 6//6
f 5//5 13//13 6//6
f 3//3 16//16 18//18
f 3//3 4//4 16//16
f 22//22 21//21 23//23
f 24//24 44//44 47//47
f 27//27 37//37 36//36
f 33//33 31//31 25//25
f 44//44 45//45 47//47
f 45//45 43//43 46//46
f 34//34 29//29 35//35
f 31//31 32//32 25//25
f 32//32 26//26 25//25
f 40//40 27//27 36//36
f 12//12 35//35 6//6
f 35//35 29//29 6//6
f 30//30 41//41 42//42
f 30//30 42//42 39//39
f 17//17 30//30 39//39
f 7//7 30//30 17//17
f 38//38 27//27 40//40
f 28//28 27//27 38//38
f 45//45 46//46 47//47
f 50//50 48//48 51//51
f 51//51 48//48 49//49
f 48//48 17//17 49//49
f 48//48 7//7 17//17
# 36 faces

g
# object Object03 to come ...
#
v  -3.7869 -0.5555 1.4730
v  -3.7869 -0.5555 0.0462
v  -3.7869 0.0000 1.4730
v  -3.7869 0.0000 0.0464
v  -3.7869 0.0000 0.7598
v  -3.7869 -0.5555 1.2246
v  -3.7869 -0.3620 1.2246
v  -3.7869 0.0000 1.2246
v  -3.7869 -0.5555 0.7163
v  -3.7869 -0.0339 0.7163
v  -3.7869 0.0000 0.7163
v  -3.7869 0.5555 1.4730
v  -3.7869 0.5555 0.0462
v  -3.7869 0.5555 1.2246
v  -3.7869 0.3620 1.2246
v  -3.7869 0.5555 0.7163
v  -3.7869 0.0339 0.7163
v  -3.7869 -0.6273 1.5507
v  -3.7869 -0.5555 1.5507
v  -3.7869 -0.6332 1.4730
v  -3.7869 -0.6332 0.0462
v  -3.7869 0.0000 1.5118
v  -3.7869 0.0000 1.5507
v  -3.7869 -0.6332 1.2246
v  -3.7869 -0.6197 1.2246
v  -3.7869 -0.5920 0.7163
v  -3.7869 -0.6332 0.7163
v  -3.7869 -0.5997 0.7163
v  -3.7869 0.6273 1.5507
v  -3.7869 0.5555 1.5507
v  -3.7869 0.6332 1.4730
v  -3.7869 0.6332 0.0462
v  -3.7869 0.6332 1.2246
v  -3.7869 0.6197 1.2246
v  -3.7869 0.5920 0.7163
v  -3.7869 0.6332 0.7163
v  -3.7869 0.5997 0.7163
# 37 vertices

vn  -1.0000 0.0000 0.0000
vn  -1.0000 0.0000 0.0000
vn  -1.0000 0.0000 0.0000
vn  -1.0000 0.0000 0.0000
vn  -1.0000 0.0000 0.0000
vn  -1.0000 0.0000 0.0000
vn  -1.0000 0.0000 0.0000
vn  -1.0000 0.0000 0.0000
vn  -1.0000 0.0000 0.0000
vn  -1.0000 0.0000 0.0000
vn  -1.0000 0.0000 0.0000
vn  -1.0000 0.0000 0.0000
vn  -1.0000 0.0000 0.0000
vn  -1.0000 0.0000 0.0000
vn  -1.0000 0.0000 0.0000
vn  -1.0000 0.0000 0.0000
vn  -1.0000 0.0000 0.0000
vn  -1.0000 0.0000 0.0000
vn  -1.0000 0.0000 0.0000
vn  -1.0000 0.0000 0.0000
vn  -1.0000 0.0000 0.0000
vn  -1.0000 0.0000 0.0000
vn  -1.0000 0.0000 0.0000
vn  -1.0000 0.0000 0.0000
vn  -1.0000 0.0000 0.0000
vn  -1.0000 0.0000 0.0000
vn  -1.0000 0.0000 0.0000
vn  -1.0000 0.0000 0.0000
vn  -1.0000 0.0000 0.0000
vn  -1.0000 0.0000 0.0000
vn  -1.0000 0.0000 0.0000
vn  -1.0000 0.0000 0.0000
vn  -1.0000 0.0000 0.0000
vn  -1.0000 0.0000 0.0000
vn  -1.0000 0.0000 0.0000
vn  -1.0000 0.0000 0.0000
vn  -1.0000 0.0000 0.0000
# 37 vertex normals

g Object03
s 4
f 59//59 56//56 58//58
f 62//62 61//61 56//56
f 58//58 57//57 52//52
f 59//59 58//58 52//52
f 54//54 59//59 52//52
f 56//56 57//57 58//58
f 61//61 53//53 60//60
f 55//55 61//61 62//62
f 55//55 53//53 61//61
f 61//61 60//60 57//57
f 56//56 61//61 57//57
f 68//68 62//62 56//56
f 65//65 66//66 63//63
f 66//66 59//59 63//63
f 59//59 54//54 63//63
f 65//65 56//56 66//66
f 64//64 68//68 67//67
f 68//68 55//55 62//62
f 64//64 55//55 68//68
f 67//67 68//68 65//65
f 68//68 56//56 65//65
f 52//52 71//71 69//69
f 70//70 52//52 69//69
f 74//74 73//73 70//70
f 76//76 75//75 71//71
f 60//60 53//53 77//77
f 54//54 52//52 73//73
f 73//73 52//52 70//70
f 53//53 79//79 77//77
f 79//79 78//78 75//75
f 57//57 76//76 71//71
f 52//52 57//57 71//71
f 60//60 77//77 76//76
f 57//57 60//60 76//76
f 79//79 75//75 77//77
f 77//77 75//75 76//76
f 53//53 78//78 79//79
f 53//53 72//72 78//78
f 82//82 63//63 80//80
f 63//63 81//81 80//80
f 73//73 74//74 81//81
f 84//84 85//85 82//82
f 64//64 67//67 86//86
f 63//63 54//54 73//73
f 63//63 73//73 81//81
f 88//88 64//64 86//86
f 87//87 88//88 84//84
f 85//85 65//65 82//82
f 65//65 63//63 82//82
f 86//86 67//67 85//85
f 67//67 65//65 85//85
f 84//84 88//88 86//86
f 84//84 86//86 85//85
f 87//87 64//64 88//88
f 83//83 64//64 87//87
f 56//56 59//59 66//66
# 56 faces

g
