# 3ds Max Wavefront OBJ Exporter v0.94b - (c)2007 guruware
# File Created: 28.07.2008 09:49:55

#
# object Circle01
#

v  -0.2291 -0.9736 0.0000
v  0.0000 -1.0000 0.0000
v  0.2291 -0.9736 0.0000
v  -0.4396 -0.8983 0.0000
v  0.4396 -0.8983 0.0000
v  0.6252 -0.7802 0.0000
v  -0.6252 -0.7802 0.0000
v  -0.7802 -0.6252 0.0000
v  0.7802 -0.6252 0.0000
v  0.8983 -0.4396 0.0000
v  0.9736 -0.2291 0.0000
v  1.0000 0.0000 0.0000
v  0.9736 0.2291 0.0000
v  0.8983 0.4396 0.0000
v  0.7802 0.6252 0.0000
v  0.6252 0.7802 0.0000
v  0.4396 0.8983 0.0000
v  0.2291 0.9736 0.0000
v  -0.0000 1.0000 0.0000
v  -0.2291 0.9736 0.0000
v  -0.4396 0.8983 0.0000
v  -0.6252 0.7802 0.0000
v  -0.7802 0.6252 0.0000
v  -0.8983 0.4396 0.0000
v  -0.9736 0.2291 0.0000
v  -1.0000 -0.0000 0.0000
v  -0.9736 -0.2291 0.0000
v  -0.8983 -0.4396 0.0000
# 28 vertices

vn 0.0000 0.0000 1.0000
# 1 vertex normals

g Circle01
s 1
f 1//1 2//1 3//1 
f 4//1 1//1 3//1 
f 4//1 3//1 5//1 
f 4//1 5//1 6//1 
f 7//1 4//1 6//1 
f 8//1 7//1 6//1 
f 8//1 6//1 9//1 
f 8//1 9//1 10//1 
f 8//1 10//1 11//1 
f 8//1 11//1 12//1 
f 8//1 12//1 13//1 
f 8//1 13//1 14//1 
f 8//1 14//1 15//1 
f 8//1 15//1 16//1 
f 8//1 16//1 17//1 
f 8//1 17//1 18//1 
f 8//1 18//1 19//1 
f 8//1 19//1 20//1 
f 8//1 20//1 21//1 
f 8//1 21//1 22//1 
f 8//1 22//1 23//1 
f 8//1 23//1 24//1 
f 8//1 24//1 25//1 
f 8//1 25//1 26//1 
f 8//1 26//1 27//1 
f 8//1 27//1 28//1 
# 26 faces

