# 3ds Max Wavefront OBJ Exporter v0.94b - (c)2007 guruware
# File Created: 28.07.2008 09:37:39

#
# object Cone01
#

v  1.0000 -1.0000 -0.0000
v  1.0000 -0.9659 0.2588
v  0.0000 0.0000 -0.0000
v  1.0000 -0.8660 0.5000
v  1.0000 -0.7071 0.7071
v  1.0000 -0.5000 0.8660
v  1.0000 -0.2588 0.9659
v  1.0000 -0.0000 1.0000
v  1.0000 0.2588 0.9659
v  1.0000 0.5000 0.8660
v  1.0000 0.7071 0.7071
v  1.0000 0.8660 0.5000
v  1.0000 0.9659 0.2588
v  1.0000 1.0000 0.0000
v  1.0000 0.9659 -0.2588
v  1.0000 0.8660 -0.5000
v  1.0000 0.7071 -0.7071
v  1.0000 0.5000 -0.8660
v  1.0000 0.2588 -0.9659
v  1.0000 0.0000 -1.0000
v  1.0000 -0.2588 -0.9659
v  1.0000 -0.5000 -0.8660
v  1.0000 -0.7071 -0.7071
v  1.0000 -0.8660 -0.5000
v  1.0000 -0.9659 -0.2588
# 25 vertices

vn -0.7071 -0.7071 -0.0000
vn -0.7071 -0.6830 0.1830
vn -1.0000 0.0000 -0.0000
vn -0.7071 -0.6124 0.3536
vn -0.7071 -0.5000 0.5000
vn -0.7071 -0.3536 0.6124
vn -0.7071 -0.1830 0.6830
vn -0.7071 0.0000 0.7071
vn -0.7071 0.1830 0.6830
vn -0.7071 0.3536 0.6124
vn -0.7071 0.5000 0.5000
vn -0.7071 0.6124 0.3536
vn -0.7071 0.6830 0.1830
vn -0.7071 0.7071 0.0000
vn -0.7071 0.6830 -0.1830
vn -0.7071 0.6124 -0.3536
vn -0.7071 0.5000 -0.5000
vn -0.7071 0.3536 -0.6124
vn -0.7071 0.1830 -0.6830
vn -0.7071 0.0000 -0.7071
vn -0.7071 -0.1830 -0.6830
vn -0.7071 -0.3536 -0.6124
vn -0.7071 -0.5000 -0.5000
vn -0.7071 -0.6124 -0.3536
vn -0.7071 -0.6830 -0.1830
vn 1.0000 -0.0000 0.0000
# 26 vertex normals

vt 0.7500 0.0000 1.0000
vt 0.7917 0.0000 1.0000
vt 0.5000 1.0000 0.0000
vt 0.3706 0.9830 -0.2500
vt 0.2500 0.9330 -0.2500
vt 0.5000 0.5000 0.2500
vt 0.1464 0.8536 -0.2500
vt 0.0670 0.7500 -0.2500
vt 0.0170 0.6294 -0.2500
vt 0.0000 0.5000 -0.2500
vt 2.0000 0.0000 1.0000
vt 1.0417 0.0000 1.0000
vt 1.5000 1.0000 0.0000
vt 0.0170 0.3706 -0.2500
vt 0.0670 0.2500 -0.2500
vt 0.1464 0.1464 -0.2500
vt 0.2500 0.0670 -0.2500
vt 0.3706 0.0170 -0.2500
vt 0.2083 0.0000 1.0000
vt 0.2500 0.0000 1.0000
vt 0.2917 0.0000 1.0000
vt 0.6294 0.0170 -0.2500
vt 0.7500 0.0670 -0.2500
vt 0.8536 0.1464 -0.2500
vt 0.9330 0.2500 -0.2500
vt 0.9830 0.3706 -0.2500
vt 1.0000 0.5000 -0.2500
vt 0.5000 0.0000 1.0000
vt 0.5417 0.0000 1.0000
vt 0.9830 0.6294 -0.2500
vt 0.9330 0.7500 -0.2500
vt 0.8536 0.8536 -0.2500
vt 0.7500 0.9330 -0.2500
vt 0.6294 0.9830 -0.2500
vt 0.7083 0.0000 1.0000
vt 0.5000 0.0000 -0.2500
vt 0.5000 1.0000 -0.2500
# 37 texture coords

g Cone01
s 1
f 1/1/1 2/2/2 3/3/3 
f 2/4/2 4/5/4 3/6/3 
f 4/5/4 5/7/5 3/6/3 
f 5/7/5 6/8/6 3/6/3 
f 6/8/6 7/9/7 3/6/3 
f 7/9/7 8/10/8 3/6/3 
f 8/11/8 9/12/9 3/13/3 
f 9/14/9 10/15/10 3/6/3 
f 10/15/10 11/16/11 3/6/3 
f 11/16/11 12/17/12 3/6/3 
f 12/17/12 13/18/13 3/6/3 
f 13/19/13 14/20/14 3/3/3 
f 14/20/14 15/21/15 3/3/3 
f 15/22/15 16/23/16 3/6/3 
f 16/23/16 17/24/17 3/6/3 
f 17/24/17 18/25/18 3/6/3 
f 18/25/18 19/26/19 3/6/3 
f 19/26/19 20/27/20 3/6/3 
f 20/28/20 21/29/21 3/3/3 
f 21/30/21 22/31/22 3/6/3 
f 22/31/22 23/32/23 3/6/3 
f 23/32/23 24/33/24 3/6/3 
f 24/33/24 25/34/25 3/6/3 
f 25/35/25 1/1/1 3/3/3 
s 2
f 24/33/26 23/32/26 22/31/26 
f 22/31/26 21/30/26 20/27/26 
f 20/27/26 19/26/26 18/25/26 
f 22/31/26 20/27/26 18/25/26 
f 18/25/26 17/24/26 16/23/26 
f 16/23/26 15/22/26 14/36/26 
f 18/25/26 16/23/26 14/36/26 
f 14/36/26 13/18/26 12/17/26 
f 12/17/26 11/16/26 10/15/26 
f 14/36/26 12/17/26 10/15/26 
f 18/25/26 14/36/26 10/15/26 
f 10/15/26 9/14/26 8/10/26 
f 8/10/26 7/9/26 6/8/26 
f 10/15/26 8/10/26 6/8/26 
f 6/8/26 5/7/26 4/5/26 
f 4/5/26 2/4/26 1/37/26 
f 6/8/26 4/5/26 1/37/26 
f 10/15/26 6/8/26 1/37/26 
f 18/25/26 10/15/26 1/37/26 
f 22/31/26 18/25/26 1/37/26 
f 24/33/26 22/31/26 1/37/26 
f 25/34/26 24/33/26 1/37/26 
# 46 faces

