# 3ds Max Wavefront OBJ Exporter v0.94b - (c)2007 guruware
# File Created: 28.07.2008 09:43:34

mtllib plane_1m_x_1m.mtl

#
# object Plane01
#

v  0.0000 0.5000 0.5000
v  0.0000 0.5000 -0.5000
v  -0.0000 -0.5000 0.5000
v  -0.0000 -0.5000 -0.5000
# 4 vertices

vn -1.0000 0.0000 -0.0000
# 1 vertex normals

vt 0.0000 1.0000 0.0000
vt 0.0000 0.0000 0.0000
vt 1.0000 1.0000 0.0000
vt 1.0000 0.0000 0.0000
# 4 texture coords

g Plane01
usemtl 01___Default
s 1
f 1/1/1 2/2/1 3/3/1 
f 4/4/1 3/3/1 2/2/1 
# 2 faces

