# 3ds Max Wavefront OBJ Exporter v0.94b - (c)2007 guruware
# File Created: 31.07.2008 11:14:11

#
# object Cylinder01
#

v  0.0000 0.0000 0.0000
v  0.0000 0.6428 0.7660
v  0.0000 0.7071 0.7071
v  0.0000 0.5736 0.8192
v  0.0000 0.5000 0.8660
v  0.0000 0.4226 0.9063
v  0.0000 0.3420 0.9397
v  0.0000 0.2588 0.9659
v  0.0000 0.1736 0.9848
v  0.0000 0.0872 0.9962
v  0.0000 0.0000 1.0000
v  0.0000 -0.0872 0.9962
v  0.0000 -0.1736 0.9848
v  0.0000 -0.2588 0.9659
v  0.0000 -0.3420 0.9397
v  0.0000 -0.4226 0.9063
v  0.0000 -0.5000 0.8660
v  0.0000 -0.5736 0.8192
v  0.0000 -0.6428 0.7660
v  0.0000 -0.7071 0.7071
v  0.2000 0.7071 0.7071
v  0.2000 0.0000 -0.0000
v  0.2000 0.6428 0.7660
v  0.2000 0.5736 0.8192
v  0.2000 0.5000 0.8660
v  0.2000 0.4226 0.9063
v  0.2000 0.3420 0.9397
v  0.2000 0.2588 0.9659
v  0.2000 0.1736 0.9848
v  0.2000 0.0872 0.9962
v  0.2000 0.0000 1.0000
v  0.2000 -0.0872 0.9962
v  0.2000 -0.1736 0.9848
v  0.2000 -0.2588 0.9659
v  0.2000 -0.3420 0.9397
v  0.2000 -0.4226 0.9063
v  0.2000 -0.5000 0.8660
v  0.2000 -0.5736 0.8192
v  0.2000 -0.6428 0.7660
v  0.2000 -0.7071 0.7071
v  0.4000 0.7071 0.7071
v  0.4000 0.0000 -0.0000
v  0.4000 0.6428 0.7660
v  0.4000 0.5736 0.8192
v  0.4000 0.5000 0.8660
v  0.4000 0.4226 0.9063
v  0.4000 0.3420 0.9397
v  0.4000 0.2588 0.9659
v  0.4000 0.1736 0.9848
v  0.4000 0.0872 0.9962
v  0.4000 0.0000 1.0000
v  0.4000 -0.0872 0.9962
v  0.4000 -0.1736 0.9848
v  0.4000 -0.2588 0.9659
v  0.4000 -0.3420 0.9397
v  0.4000 -0.4226 0.9063
v  0.4000 -0.5000 0.8660
v  0.4000 -0.5736 0.8192
v  0.4000 -0.6428 0.7660
v  0.4000 -0.7071 0.7071
v  0.6000 0.7071 0.7071
v  0.6000 0.0000 -0.0000
v  0.6000 0.6428 0.7660
v  0.6000 0.5736 0.8192
v  0.6000 0.5000 0.8660
v  0.6000 0.4226 0.9063
v  0.6000 0.3420 0.9397
v  0.6000 0.2588 0.9659
v  0.6000 0.1736 0.9848
v  0.6000 0.0872 0.9962
v  0.6000 0.0000 1.0000
v  0.6000 -0.0872 0.9962
v  0.6000 -0.1736 0.9848
v  0.6000 -0.2588 0.9659
v  0.6000 -0.3420 0.9397
v  0.6000 -0.4226 0.9063
v  0.6000 -0.5000 0.8660
v  0.6000 -0.5736 0.8192
v  0.6000 -0.6428 0.7660
v  0.6000 -0.7071 0.7071
v  0.8000 0.7071 0.7071
v  0.8000 0.0000 -0.0000
v  0.8000 0.6428 0.7660
v  0.8000 0.5736 0.8192
v  0.8000 0.5000 0.8660
v  0.8000 0.4226 0.9063
v  0.8000 0.3420 0.9397
v  0.8000 0.2588 0.9659
v  0.8000 0.1736 0.9848
v  0.8000 0.0872 0.9962
v  0.8000 0.0000 1.0000
v  0.8000 -0.0872 0.9962
v  0.8000 -0.1736 0.9848
v  0.8000 -0.2588 0.9659
v  0.8000 -0.3420 0.9397
v  0.8000 -0.4226 0.9063
v  0.8000 -0.5000 0.8660
v  0.8000 -0.5736 0.8192
v  0.8000 -0.6428 0.7660
v  0.8000 -0.7071 0.7071
v  1.0000 0.7071 0.7071
v  1.0000 0.0000 -0.0000
v  1.0000 0.6428 0.7660
v  1.0000 0.5736 0.8192
v  1.0000 0.5000 0.8660
v  1.0000 0.4226 0.9063
v  1.0000 0.3420 0.9397
v  1.0000 0.2588 0.9659
v  1.0000 0.1736 0.9848
v  1.0000 0.0872 0.9962
v  1.0000 0.0000 1.0000
v  1.0000 -0.0872 0.9962
v  1.0000 -0.1736 0.9848
v  1.0000 -0.2588 0.9659
v  1.0000 -0.3420 0.9397
v  1.0000 -0.4226 0.9063
v  1.0000 -0.5000 0.8660
v  1.0000 -0.5736 0.8192
v  1.0000 -0.6428 0.7660
v  1.0000 -0.7071 0.7071
# 120 vertices

vn -1.0000 0.0000 0.0000
vn -0.0000 0.7071 -0.7071
vn 0.0000 0.6756 0.7373
vn 0.0000 0.6428 0.7660
vn 0.0000 0.5736 0.8192
vn 0.0000 0.5000 0.8660
vn 0.0000 0.4226 0.9063
vn 0.0000 0.3420 0.9397
vn 0.0000 0.2588 0.9659
vn 0.0000 0.1736 0.9848
vn 0.0000 0.0872 0.9962
vn 0.0000 0.0000 1.0000
vn 0.0000 -0.0872 0.9962
vn 0.0000 -0.1736 0.9848
vn 0.0000 -0.2588 0.9659
vn 0.0000 -0.3420 0.9397
vn 0.0000 -0.4226 0.9063
vn 0.0000 -0.5000 0.8660
vn 0.0000 -0.5736 0.8192
vn 0.0000 -0.6428 0.7660
vn 0.0000 -0.6756 0.7373
vn -0.0000 -0.7071 -0.7071
vn 1.0000 0.0000 -0.0000
# 23 vertex normals

vt 0.5000 0.0000 0.0000
vt 0.1389 0.0000 1.0000
vt 0.1250 0.0000 1.0000
vt 0.1528 0.0000 1.0000
vt 0.1667 0.0000 1.0000
vt 0.1806 0.0000 1.0000
vt 0.1944 0.0000 1.0000
vt 0.2083 0.0000 1.0000
vt 0.2222 0.0000 1.0000
vt 0.2361 0.0000 1.0000
vt 0.2500 0.0000 1.0000
vt 0.2639 0.0000 1.0000
vt 0.2778 0.0000 1.0000
vt 0.2917 0.0000 1.0000
vt 0.3056 0.0000 1.0000
vt 0.3194 0.0000 1.0000
vt 0.3333 0.0000 1.0000
vt 0.3472 0.0000 1.0000
vt 0.3611 0.0000 1.0000
vt 0.3750 0.0000 1.0000
vt 0.1250 0.2000 1.0000
vt 0.5000 0.2000 0.0000
vt 0.1389 0.2000 1.0000
vt 0.1528 0.2000 1.0000
vt 0.1667 0.2000 1.0000
vt 0.1806 0.2000 1.0000
vt 0.1944 0.2000 1.0000
vt 0.2083 0.2000 1.0000
vt 0.2222 0.2000 1.0000
vt 0.2361 0.2000 1.0000
vt 0.2500 0.2000 1.0000
vt 0.2639 0.2000 1.0000
vt 0.2778 0.2000 1.0000
vt 0.2917 0.2000 1.0000
vt 0.3056 0.2000 1.0000
vt 0.3194 0.2000 1.0000
vt 0.3333 0.2000 1.0000
vt 0.3472 0.2000 1.0000
vt 0.3611 0.2000 1.0000
vt 0.3750 0.2000 1.0000
vt 0.1250 0.4000 1.0000
vt 0.5000 0.4000 0.0000
vt 0.1389 0.4000 1.0000
vt 0.1528 0.4000 1.0000
vt 0.1667 0.4000 1.0000
vt 0.1806 0.4000 1.0000
vt 0.1944 0.4000 1.0000
vt 0.2083 0.4000 1.0000
vt 0.2222 0.4000 1.0000
vt 0.2361 0.4000 1.0000
vt 0.2500 0.4000 1.0000
vt 0.2639 0.4000 1.0000
vt 0.2778 0.4000 1.0000
vt 0.2917 0.4000 1.0000
vt 0.3056 0.4000 1.0000
vt 0.3194 0.4000 1.0000
vt 0.3333 0.4000 1.0000
vt 0.3472 0.4000 1.0000
vt 0.3611 0.4000 1.0000
vt 0.3750 0.4000 1.0000
vt 0.1250 0.6000 1.0000
vt 0.5000 0.6000 0.0000
vt 0.1389 0.6000 1.0000
vt 0.1528 0.6000 1.0000
vt 0.1667 0.6000 1.0000
vt 0.1806 0.6000 1.0000
vt 0.1944 0.6000 1.0000
vt 0.2083 0.6000 1.0000
vt 0.2222 0.6000 1.0000
vt 0.2361 0.6000 1.0000
vt 0.2500 0.6000 1.0000
vt 0.2639 0.6000 1.0000
vt 0.2778 0.6000 1.0000
vt 0.2917 0.6000 1.0000
vt 0.3056 0.6000 1.0000
vt 0.3194 0.6000 1.0000
vt 0.3333 0.6000 1.0000
vt 0.3472 0.6000 1.0000
vt 0.3611 0.6000 1.0000
vt 0.3750 0.6000 1.0000
vt 0.1250 0.8000 1.0000
vt 0.5000 0.8000 0.0000
vt 0.1389 0.8000 1.0000
vt 0.1528 0.8000 1.0000
vt 0.1667 0.8000 1.0000
vt 0.1806 0.8000 1.0000
vt 0.1944 0.8000 1.0000
vt 0.2083 0.8000 1.0000
vt 0.2222 0.8000 1.0000
vt 0.2361 0.8000 1.0000
vt 0.2500 0.8000 1.0000
vt 0.2639 0.8000 1.0000
vt 0.2778 0.8000 1.0000
vt 0.2917 0.8000 1.0000
vt 0.3056 0.8000 1.0000
vt 0.3194 0.8000 1.0000
vt 0.3333 0.8000 1.0000
vt 0.3472 0.8000 1.0000
vt 0.3611 0.8000 1.0000
vt 0.3750 0.8000 1.0000
vt 0.1250 1.0000 1.0000
vt 0.5000 1.0000 0.0000
vt 0.1389 1.0000 1.0000
vt 0.1528 1.0000 1.0000
vt 0.1667 1.0000 1.0000
vt 0.1806 1.0000 1.0000
vt 0.1944 1.0000 1.0000
vt 0.2083 1.0000 1.0000
vt 0.2222 1.0000 1.0000
vt 0.2361 1.0000 1.0000
vt 0.2500 1.0000 1.0000
vt 0.2639 1.0000 1.0000
vt 0.2778 1.0000 1.0000
vt 0.2917 1.0000 1.0000
vt 0.3056 1.0000 1.0000
vt 0.3194 1.0000 1.0000
vt 0.3333 1.0000 1.0000
vt 0.3472 1.0000 1.0000
vt 0.3611 1.0000 1.0000
vt 0.3750 1.0000 1.0000
# 120 texture coords

g Cylinder01
s 1
f 1/1/1 2/2/1 3/3/1 
f 1/1/1 4/4/1 2/2/1 
f 1/1/1 5/5/1 4/4/1 
f 1/1/1 6/6/1 5/5/1 
f 1/1/1 7/7/1 6/6/1 
f 1/1/1 8/8/1 7/7/1 
f 1/1/1 9/9/1 8/8/1 
f 1/1/1 10/10/1 9/9/1 
f 1/1/1 11/11/1 10/10/1 
f 1/1/1 12/12/1 11/11/1 
f 1/1/1 13/13/1 12/12/1 
f 1/1/1 14/14/1 13/13/1 
f 1/1/1 15/15/1 14/14/1 
f 1/1/1 16/16/1 15/15/1 
f 1/1/1 17/17/1 16/16/1 
f 1/1/1 18/18/1 17/17/1 
f 1/1/1 19/19/1 18/18/1 
f 1/1/1 20/20/1 19/19/1 
s 2
f 1/1/2 21/21/2 22/22/2 
f 1/1/2 3/3/2 21/21/2 
s 8
f 3/3/3 23/23/4 21/21/3 
f 3/3/3 2/2/4 23/23/4 
f 2/2/4 24/24/5 23/23/4 
f 2/2/4 4/4/5 24/24/5 
f 4/4/5 25/25/6 24/24/5 
f 4/4/5 5/5/6 25/25/6 
f 5/5/6 26/26/7 25/25/6 
f 5/5/6 6/6/7 26/26/7 
f 6/6/7 27/27/8 26/26/7 
f 6/6/7 7/7/8 27/27/8 
f 7/7/8 28/28/9 27/27/8 
f 7/7/8 8/8/9 28/28/9 
f 8/8/9 29/29/10 28/28/9 
f 8/8/9 9/9/10 29/29/10 
f 9/9/10 30/30/11 29/29/10 
f 9/9/10 10/10/11 30/30/11 
f 10/10/11 31/31/12 30/30/11 
f 10/10/11 11/11/12 31/31/12 
f 11/11/12 32/32/13 31/31/12 
f 11/11/12 12/12/13 32/32/13 
f 12/12/13 33/33/14 32/32/13 
f 12/12/13 13/13/14 33/33/14 
f 13/13/14 34/34/15 33/33/14 
f 13/13/14 14/14/15 34/34/15 
f 14/14/15 35/35/16 34/34/15 
f 14/14/15 15/15/16 35/35/16 
f 15/15/16 36/36/17 35/35/16 
f 15/15/16 16/16/17 36/36/17 
f 16/16/17 37/37/18 36/36/17 
f 16/16/17 17/17/18 37/37/18 
f 17/17/18 38/38/19 37/37/18 
f 17/17/18 18/18/19 38/38/19 
f 18/18/19 39/39/20 38/38/19 
f 18/18/19 19/19/20 39/39/20 
f 19/19/20 40/40/21 39/39/20 
f 19/19/20 20/20/21 40/40/21 
s 4
f 20/20/22 22/22/22 40/40/22 
f 20/20/22 1/1/22 22/22/22 
s 2
f 22/22/2 41/41/2 42/42/2 
f 22/22/2 21/21/2 41/41/2 
s 8
f 21/21/3 43/43/4 41/41/3 
f 21/21/3 23/23/4 43/43/4 
f 23/23/4 44/44/5 43/43/4 
f 23/23/4 24/24/5 44/44/5 
f 24/24/5 45/45/6 44/44/5 
f 24/24/5 25/25/6 45/45/6 
f 25/25/6 46/46/7 45/45/6 
f 25/25/6 26/26/7 46/46/7 
f 26/26/7 47/47/8 46/46/7 
f 26/26/7 27/27/8 47/47/8 
f 27/27/8 48/48/9 47/47/8 
f 27/27/8 28/28/9 48/48/9 
f 28/28/9 49/49/10 48/48/9 
f 28/28/9 29/29/10 49/49/10 
f 29/29/10 50/50/11 49/49/10 
f 29/29/10 30/30/11 50/50/11 
f 30/30/11 51/51/12 50/50/11 
f 30/30/11 31/31/12 51/51/12 
f 31/31/12 52/52/13 51/51/12 
f 31/31/12 32/32/13 52/52/13 
f 32/32/13 53/53/14 52/52/13 
f 32/32/13 33/33/14 53/53/14 
f 33/33/14 54/54/15 53/53/14 
f 33/33/14 34/34/15 54/54/15 
f 34/34/15 55/55/16 54/54/15 
f 34/34/15 35/35/16 55/55/16 
f 35/35/16 56/56/17 55/55/16 
f 35/35/16 36/36/17 56/56/17 
f 36/36/17 57/57/18 56/56/17 
f 36/36/17 37/37/18 57/57/18 
f 37/37/18 58/58/19 57/57/18 
f 37/37/18 38/38/19 58/58/19 
f 38/38/19 59/59/20 58/58/19 
f 38/38/19 39/39/20 59/59/20 
f 39/39/20 60/60/21 59/59/20 
f 39/39/20 40/40/21 60/60/21 
s 4
f 40/40/22 42/42/22 60/60/22 
f 40/40/22 22/22/22 42/42/22 
s 2
f 42/42/2 61/61/2 62/62/2 
f 42/42/2 41/41/2 61/61/2 
s 8
f 41/41/3 63/63/4 61/61/3 
f 41/41/3 43/43/4 63/63/4 
f 43/43/4 64/64/5 63/63/4 
f 43/43/4 44/44/5 64/64/5 
f 44/44/5 65/65/6 64/64/5 
f 44/44/5 45/45/6 65/65/6 
f 45/45/6 66/66/7 65/65/6 
f 45/45/6 46/46/7 66/66/7 
f 46/46/7 67/67/8 66/66/7 
f 46/46/7 47/47/8 67/67/8 
f 47/47/8 68/68/9 67/67/8 
f 47/47/8 48/48/9 68/68/9 
f 48/48/9 69/69/10 68/68/9 
f 48/48/9 49/49/10 69/69/10 
f 49/49/10 70/70/11 69/69/10 
f 49/49/10 50/50/11 70/70/11 
f 50/50/11 71/71/12 70/70/11 
f 50/50/11 51/51/12 71/71/12 
f 51/51/12 72/72/13 71/71/12 
f 51/51/12 52/52/13 72/72/13 
f 52/52/13 73/73/14 72/72/13 
f 52/52/13 53/53/14 73/73/14 
f 53/53/14 74/74/15 73/73/14 
f 53/53/14 54/54/15 74/74/15 
f 54/54/15 75/75/16 74/74/15 
f 54/54/15 55/55/16 75/75/16 
f 55/55/16 76/76/17 75/75/16 
f 55/55/16 56/56/17 76/76/17 
f 56/56/17 77/77/18 76/76/17 
f 56/56/17 57/57/18 77/77/18 
f 57/57/18 78/78/19 77/77/18 
f 57/57/18 58/58/19 78/78/19 
f 58/58/19 79/79/20 78/78/19 
f 58/58/19 59/59/20 79/79/20 
f 59/59/20 80/80/21 79/79/20 
f 59/59/20 60/60/21 80/80/21 
s 4
f 60/60/22 62/62/22 80/80/22 
f 60/60/22 42/42/22 62/62/22 
s 2
f 62/62/2 81/81/2 82/82/2 
f 62/62/2 61/61/2 81/81/2 
s 8
f 61/61/3 83/83/4 81/81/3 
f 61/61/3 63/63/4 83/83/4 
f 63/63/4 84/84/5 83/83/4 
f 63/63/4 64/64/5 84/84/5 
f 64/64/5 85/85/6 84/84/5 
f 64/64/5 65/65/6 85/85/6 
f 65/65/6 86/86/7 85/85/6 
f 65/65/6 66/66/7 86/86/7 
f 66/66/7 87/87/8 86/86/7 
f 66/66/7 67/67/8 87/87/8 
f 67/67/8 88/88/9 87/87/8 
f 67/67/8 68/68/9 88/88/9 
f 68/68/9 89/89/10 88/88/9 
f 68/68/9 69/69/10 89/89/10 
f 69/69/10 90/90/11 89/89/10 
f 69/69/10 70/70/11 90/90/11 
f 70/70/11 91/91/12 90/90/11 
f 70/70/11 71/71/12 91/91/12 
f 71/71/12 92/92/13 91/91/12 
f 71/71/12 72/72/13 92/92/13 
f 72/72/13 93/93/14 92/92/13 
f 72/72/13 73/73/14 93/93/14 
f 73/73/14 94/94/15 93/93/14 
f 73/73/14 74/74/15 94/94/15 
f 74/74/15 95/95/16 94/94/15 
f 74/74/15 75/75/16 95/95/16 
f 75/75/16 96/96/17 95/95/16 
f 75/75/16 76/76/17 96/96/17 
f 76/76/17 97/97/18 96/96/17 
f 76/76/17 77/77/18 97/97/18 
f 77/77/18 98/98/19 97/97/18 
f 77/77/18 78/78/19 98/98/19 
f 78/78/19 99/99/20 98/98/19 
f 78/78/19 79/79/20 99/99/20 
f 79/79/20 100/100/21 99/99/20 
f 79/79/20 80/80/21 100/100/21 
s 4
f 80/80/22 82/82/22 100/100/22 
f 80/80/22 62/62/22 82/82/22 
s 2
f 82/82/2 101/101/2 102/102/2 
f 82/82/2 81/81/2 101/101/2 
s 8
f 81/81/3 103/103/4 101/101/3 
f 81/81/3 83/83/4 103/103/4 
f 83/83/4 104/104/5 103/103/4 
f 83/83/4 84/84/5 104/104/5 
f 84/84/5 105/105/6 104/104/5 
f 84/84/5 85/85/6 105/105/6 
f 85/85/6 106/106/7 105/105/6 
f 85/85/6 86/86/7 106/106/7 
f 86/86/7 107/107/8 106/106/7 
f 86/86/7 87/87/8 107/107/8 
f 87/87/8 108/108/9 107/107/8 
f 87/87/8 88/88/9 108/108/9 
f 88/88/9 109/109/10 108/108/9 
f 88/88/9 89/89/10 109/109/10 
f 89/89/10 110/110/11 109/109/10 
f 89/89/10 90/90/11 110/110/11 
f 90/90/11 111/111/12 110/110/11 
f 90/90/11 91/91/12 111/111/12 
f 91/91/12 112/112/13 111/111/12 
f 91/91/12 92/92/13 112/112/13 
f 92/92/13 113/113/14 112/112/13 
f 92/92/13 93/93/14 113/113/14 
f 93/93/14 114/114/15 113/113/14 
f 93/93/14 94/94/15 114/114/15 
f 94/94/15 115/115/16 114/114/15 
f 94/94/15 95/95/16 115/115/16 
f 95/95/16 116/116/17 115/115/16 
f 95/95/16 96/96/17 116/116/17 
f 96/96/17 117/117/18 116/116/17 
f 96/96/17 97/97/18 117/117/18 
f 97/97/18 118/118/19 117/117/18 
f 97/97/18 98/98/19 118/118/19 
f 98/98/19 119/119/20 118/118/19 
f 98/98/19 99/99/20 119/119/20 
f 99/99/20 120/120/21 119/119/20 
f 99/99/20 100/100/21 120/120/21 
s 4
f 100/100/22 102/102/22 120/120/22 
f 100/100/22 82/82/22 102/102/22 
s 1
f 102/102/23 101/101/23 103/103/23 
f 102/102/23 103/103/23 104/104/23 
f 102/102/23 104/104/23 105/105/23 
f 102/102/23 105/105/23 106/106/23 
f 102/102/23 106/106/23 107/107/23 
f 102/102/23 107/107/23 108/108/23 
f 102/102/23 108/108/23 109/109/23 
f 102/102/23 109/109/23 110/110/23 
f 102/102/23 110/110/23 111/111/23 
f 102/102/23 111/111/23 112/112/23 
f 102/102/23 112/112/23 113/113/23 
f 102/102/23 113/113/23 114/114/23 
f 102/102/23 114/114/23 115/115/23 
f 102/102/23 115/115/23 116/116/23 
f 102/102/23 116/116/23 117/117/23 
f 102/102/23 117/117/23 118/118/23 
f 102/102/23 118/118/23 119/119/23 
f 102/102/23 119/119/23 120/120/23 
# 236 faces

