# Max2Obj Version 4.0 Mar 10th, 2001
#
mtllib ./tire.mtl
g
# object Object02 to come ...
#
v  -0.0000 0.0884 0.3302
v  -0.1043 0.0884 0.3134
v  -0.1043 -0.0884 0.3134
v  -0.0000 -0.0884 0.3302
v  -0.0907 -0.1028 0.2725
v  -0.0000 -0.1028 0.2872
v  -0.0641 -0.1013 0.1926
v  -0.0000 -0.1013 0.2029
v  -0.0580 -0.0931 0.1745
v  -0.0000 -0.0931 0.1838
v  0.1838 0.0931 0.0000
v  0.1745 0.0931 0.0580
v  0.1926 0.1013 0.0641
v  0.2029 0.1013 0.0000
v  0.2725 0.1028 0.0907
v  0.2872 0.1028 0.0000
v  0.3134 0.0884 0.1043
v  0.3302 0.0884 0.0000
v  0.3134 -0.0884 0.1043
v  0.3302 -0.0884 0.0000
v  0.2725 -0.1028 0.0907
v  0.2872 -0.1028 0.0000
v  0.1926 -0.1013 0.0641
v  0.2029 -0.1013 0.0000
v  0.1745 -0.0931 0.0580
v  0.1838 -0.0931 0.0000
v  0.1485 0.0931 0.1084
v  0.1639 0.1013 0.1197
v  0.2318 0.1028 0.1695
v  0.2665 0.0884 0.1949
v  0.2665 -0.0884 0.1949
v  0.2318 -0.1028 0.1695
v  0.1639 -0.1013 0.1197
v  0.1485 -0.0931 0.1084
v  0.1084 0.0931 0.1485
v  0.1197 0.1013 0.1639
v  0.1695 0.1028 0.2318
v  0.1949 0.0884 0.2665
v  0.1949 -0.0884 0.2665
v  0.1695 -0.1028 0.2318
v  0.1197 -0.1013 0.1639
v  0.1084 -0.0931 0.1485
v  0.0580 0.0931 0.1745
v  0.0641 0.1013 0.1926
v  0.0907 0.1028 0.2725
v  0.1043 0.0884 0.3134
v  0.1043 -0.0884 0.3134
v  0.0907 -0.1028 0.2725
v  0.0641 -0.1013 0.1926
v  0.0580 -0.0931 0.1745
v  -0.0000 0.0931 0.1838
v  -0.0000 0.1013 0.2029
v  -0.0000 0.1028 0.2872
v  -0.0580 0.0931 0.1745
v  -0.0641 0.1013 0.1926
v  -0.0907 0.1028 0.2725
v  -0.1084 0.0931 0.1485
v  -0.1197 0.1013 0.1639
v  -0.1695 0.1028 0.2318
v  -0.1949 0.0884 0.2665
v  -0.1949 -0.0884 0.2665
v  -0.1695 -0.1028 0.2318
v  -0.1197 -0.1013 0.1639
v  -0.1084 -0.0931 0.1485
v  -0.1485 0.0931 0.1084
v  -0.1639 0.1013 0.1197
v  -0.2318 0.1028 0.1695
v  -0.2665 0.0884 0.1949
v  -0.2665 -0.0884 0.1949
v  -0.2318 -0.1028 0.1695
v  -0.1639 -0.1013 0.1197
v  -0.1485 -0.0931 0.1084
v  -0.1745 0.0931 0.0580
v  -0.1926 0.1013 0.0641
v  -0.2725 0.1028 0.0907
v  -0.3134 0.0884 0.1043
v  -0.3134 -0.0884 0.1043
v  -0.2725 -0.1028 0.0907
v  -0.1926 -0.1013 0.0641
v  -0.1745 -0.0931 0.0580
v  -0.1838 0.0931 -0.0000
v  -0.2029 0.1013 -0.0000
v  -0.2872 0.1028 -0.0000
v  -0.3302 0.0884 -0.0000
v  -0.3302 -0.0884 -0.0000
v  -0.2872 -0.1028 -0.0000
v  -0.2029 -0.1013 -0.0000
v  -0.1838 -0.0931 -0.0000
v  -0.1745 0.0931 -0.0580
v  -0.1926 0.1013 -0.0641
v  -0.2725 0.1028 -0.0907
v  -0.3134 0.0884 -0.1043
v  -0.3134 -0.0884 -0.1043
v  -0.2725 -0.1028 -0.0907
v  -0.1926 -0.1013 -0.0641
v  -0.1745 -0.0931 -0.0580
v  -0.1485 0.0931 -0.1084
v  -0.1639 0.1013 -0.1197
v  -0.2318 0.1028 -0.1695
v  -0.2665 0.0884 -0.1949
v  -0.2665 -0.0884 -0.1949
v  -0.2318 -0.1028 -0.1695
v  -0.1639 -0.1013 -0.1197
v  -0.1485 -0.0931 -0.1084
v  -0.1084 0.0931 -0.1485
v  -0.1197 0.1013 -0.1639
v  -0.1695 0.1028 -0.2318
v  -0.1949 0.0884 -0.2665
v  -0.1949 -0.0884 -0.2665
v  -0.1695 -0.1028 -0.2318
v  -0.1197 -0.1013 -0.1639
v  -0.1084 -0.0931 -0.1485
v  -0.0580 0.0931 -0.1745
v  -0.0641 0.1013 -0.1926
v  -0.0907 0.1028 -0.2725
v  -0.1043 0.0884 -0.3134
v  -0.1043 -0.0884 -0.3134
v  -0.0907 -0.1028 -0.2725
v  -0.0641 -0.1013 -0.1926
v  -0.0580 -0.0931 -0.1745
v  0.0000 0.0931 -0.1838
v  0.0000 0.1013 -0.2029
v  0.0000 0.1028 -0.2872
v  0.0000 0.0884 -0.3302
v  0.0000 -0.0884 -0.3302
v  0.0000 -0.1028 -0.2872
v  0.0000 -0.1013 -0.2029
v  0.0000 -0.0931 -0.1838
v  0.0580 0.0931 -0.1745
v  0.0641 0.1013 -0.1926
v  0.0907 0.1028 -0.2725
v  0.1043 0.0884 -0.3134
v  0.1043 -0.0884 -0.3134
v  0.0907 -0.1028 -0.2725
v  0.0641 -0.1013 -0.1926
v  0.0580 -0.0931 -0.1745
v  0.1084 0.0931 -0.1485
v  0.1197 0.1013 -0.1639
v  0.1695 0.1028 -0.2318
v  0.1949 0.0884 -0.2665
v  0.1949 -0.0884 -0.2665
v  0.1695 -0.1028 -0.2318
v  0.1197 -0.1013 -0.1639
v  0.1084 -0.0931 -0.1485
v  0.1485 0.0931 -0.1084
v  0.1639 0.1013 -0.1197
v  0.2318 0.1028 -0.1695
v  0.2665 0.0884 -0.1949
v  0.2665 -0.0884 -0.1949
v  0.2318 -0.1028 -0.1695
v  0.1639 -0.1013 -0.1197
v  0.1485 -0.0931 -0.1084
v  0.1745 0.0931 -0.0580
v  0.1926 0.1013 -0.0641
v  0.2725 0.1028 -0.0907
v  0.3134 0.0884 -0.1043
v  0.3134 -0.0884 -0.1043
v  0.2725 -0.1028 -0.0907
v  0.1926 -0.1013 -0.0641
v  0.1745 -0.0931 -0.0580
# 160 vertices

vt  1.4500 0.0708 0.9990
vt  1.3017 0.0708 0.9992
vt  1.3017 0.9293 0.9992
vt  1.4500 0.9293 0.9990
vt  1.3017 0.9995 0.8690
vt  1.4500 0.9995 0.8688
vt  1.3018 0.9921 0.6140
vt  1.4500 0.9921 0.6138
vt  1.3018 0.9521 0.5563
vt  1.4500 0.9521 0.5560
vt  2.1750 0.0479 0.5560
vt  2.0268 0.0479 0.5563
vt  2.0268 0.0079 0.6140
vt  2.1750 0.0079 0.6138
vt  2.0267 0.0005 0.8690
vt  2.1750 0.0005 0.8688
vt  2.0267 0.0708 0.9992
vt  2.1750 0.0708 0.9990
vt  2.0267 0.9293 0.9992
vt  2.1750 0.9293 0.9990
vt  2.0267 0.9995 0.8690
vt  2.1750 0.9995 0.8688
vt  2.0268 0.9921 0.6140
vt  2.1750 0.9921 0.6138
vt  2.0268 0.9521 0.5563
vt  2.1750 0.9521 0.5560
vt  1.8839 0.0479 0.5563
vt  1.8838 0.0079 0.6140
vt  1.8835 0.0005 0.8687
vt  1.8835 0.0708 0.9988
vt  1.8835 0.9293 0.9988
vt  1.8835 0.9995 0.8687
vt  1.8838 0.9921 0.6140
vt  1.8839 0.9521 0.5563
vt  1.7411 0.0479 0.5563
vt  1.7412 0.0079 0.6140
vt  1.7415 0.0005 0.8687
vt  1.7415 0.0708 0.9988
vt  1.7415 0.9293 0.9988
vt  1.7415 0.9995 0.8687
vt  1.7412 0.9921 0.6140
vt  1.7411 0.9521 0.5563
vt  1.5982 0.0479 0.5563
vt  1.5982 0.0079 0.6140
vt  1.5983 0.0005 0.8690
vt  1.5983 0.0708 0.9992
vt  1.5983 0.9293 0.9992
vt  1.5983 0.9995 0.8690
vt  1.5982 0.9921 0.6140
vt  1.5982 0.9521 0.5563
vt  1.4500 0.0479 0.5560
vt  1.4500 0.0079 0.6138
vt  1.4500 0.0005 0.8688
vt  1.3018 0.0479 0.5563
vt  1.3018 0.0079 0.6140
vt  1.3017 0.0005 0.8690
vt  1.1589 0.0479 0.5563
vt  1.1588 0.0079 0.6140
vt  1.1585 0.0005 0.8687
vt  1.1585 0.0708 0.9988
vt  1.1585 0.9293 0.9988
vt  1.1585 0.9995 0.8687
vt  1.1588 0.9921 0.6140
vt  1.1589 0.9521 0.5563
vt  1.0161 0.0479 0.5563
vt  1.0162 0.0079 0.6140
vt  1.0165 0.0005 0.8687
vt  1.0165 0.0708 0.9988
vt  1.0165 0.9293 0.9988
vt  1.0165 0.9995 0.8687
vt  1.0162 0.9921 0.6140
vt  1.0161 0.9521 0.5563
vt  0.8732 0.0479 0.5563
vt  0.8732 0.0079 0.6140
vt  0.8733 0.0005 0.8690
vt  0.8733 0.0708 0.9992
vt  0.8733 0.9293 0.9992
vt  0.8733 0.9995 0.8690
vt  0.8732 0.9921 0.6140
vt  0.8732 0.9521 0.5563
vt  0.7250 0.0479 0.5560
vt  0.7250 0.0079 0.6138
vt  0.7250 0.0005 0.8688
vt  0.7250 0.0708 0.9990
vt  0.7250 0.9293 0.9990
vt  0.7250 0.9995 0.8688
vt  0.7250 0.9921 0.6138
vt  0.7250 0.9521 0.5560
vt  0.5768 0.0479 0.5563
vt  0.5768 0.0079 0.6140
vt  0.5767 0.0005 0.8690
vt  0.5767 0.0708 0.9992
vt  0.5767 0.9293 0.9992
vt  0.5767 0.9995 0.8690
vt  0.5768 0.9921 0.6140
vt  0.5768 0.9521 0.5563
vt  0.4339 0.0479 0.5563
vt  0.4338 0.0079 0.6140
vt  0.4335 0.0005 0.8687
vt  0.4335 0.0708 0.9988
vt  0.4335 0.9293 0.9988
vt  0.4335 0.9995 0.8687
vt  0.4338 0.9921 0.6140
vt  0.4339 0.9521 0.5563
vt  0.2911 0.0479 0.5563
vt  0.2912 0.0079 0.6140
vt  0.2915 0.0005 0.8687
vt  0.2915 0.0708 0.9988
vt  0.2915 0.9293 0.9988
vt  0.2915 0.9995 0.8687
vt  0.2912 0.9921 0.6140
vt  0.2911 0.9521 0.5563
vt  0.1482 0.0479 0.5563
vt  0.1482 0.0079 0.6140
vt  0.1483 0.0005 0.8690
vt  0.1483 0.0708 0.9992
vt  0.1483 0.9293 0.9992
vt  0.1483 0.9995 0.8690
vt  0.1482 0.9921 0.6140
vt  0.1482 0.9521 0.5563
vt  2.9000 0.0479 0.5560
vt  2.9000 0.0079 0.6138
vt  2.9000 0.0005 0.8688
vt  2.9000 0.0708 0.9990
vt  2.9000 0.9293 0.9990
vt  2.9000 0.9995 0.8688
vt  2.9000 0.9921 0.6138
vt  2.9000 0.9521 0.5560
vt  2.7518 0.0479 0.5563
vt  2.7518 0.0079 0.6140
vt  2.7517 0.0005 0.8690
vt  2.7517 0.0708 0.9992
vt  2.7517 0.9293 0.9992
vt  2.7517 0.9995 0.8690
vt  2.7518 0.9921 0.6140
vt  2.7518 0.9521 0.5563
vt  2.6089 0.0479 0.5563
vt  2.6088 0.0079 0.6140
vt  2.6085 0.0005 0.8687
vt  2.6085 0.0708 0.9988
vt  2.6085 0.9293 0.9988
vt  2.6085 0.9995 0.8687
vt  2.6088 0.9921 0.6140
vt  2.6089 0.9521 0.5563
vt  2.4661 0.0479 0.5563
vt  2.4662 0.0079 0.6140
vt  2.4665 0.0005 0.8687
vt  2.4665 0.0708 0.9988
vt  2.4665 0.9293 0.9988
vt  2.4665 0.9995 0.8687
vt  2.4662 0.9921 0.6140
vt  2.4661 0.9521 0.5563
vt  2.3232 0.0479 0.5563
vt  2.3232 0.0079 0.6140
vt  2.3233 0.0005 0.8690
vt  2.3233 0.0708 0.9992
vt  2.3233 0.9293 0.9992
vt  2.3233 0.9995 0.8690
vt  2.3232 0.9921 0.6140
vt  2.3232 0.9521 0.5563
vt  -0.0000 0.0479 0.5560
vt  -0.0000 0.0079 0.6138
vt  -0.0000 0.0079 0.6138
vt  -0.0000 0.0079 0.6138
vt  -0.0000 0.0005 0.8688
vt  -0.0000 0.0005 0.8688
vt  -0.0000 0.0005 0.8688
vt  -0.0000 0.0708 0.9990
vt  -0.0000 0.0708 0.9990
vt  -0.0000 0.0708 0.9990
vt  -0.0000 0.9293 0.9990
vt  -0.0000 0.9293 0.9990
vt  -0.0000 0.9293 0.9990
vt  -0.0000 0.9995 0.8688
vt  -0.0000 0.9995 0.8688
vt  -0.0000 0.9995 0.8688
vt  -0.0000 0.9921 0.6138
vt  -0.0000 0.9921 0.6138
vt  -0.0000 0.9921 0.6138
vt  -0.0000 0.9521 0.5560
vt  -0.0000 0.9521 0.5560
# 181 texture vertices

vn  -0.0000 0.5572 0.8304
vn  -0.2603 0.5574 0.7884
vn  -0.2603 -0.5574 0.7884
vn  0.0000 -0.5572 0.8304
vn  -0.0845 -3.0409 0.5230
vn  -0.0860 -2.4461 0.5330
vn  0.0602 -0.9813 -0.1829
vn  -0.0000 -0.9813 -0.1925
vn  0.1237 -0.9179 -0.3769
vn  -0.0000 -0.9180 -0.3967
vn  -0.3967 0.9180 -0.0000
vn  -0.3770 0.9179 -0.1237
vn  -0.1829 0.9813 -0.0602
vn  -0.1925 0.9813 -0.0000
vn  0.5232 3.0409 0.0844
vn  0.1102 1.8142 0.0178
vn  0.7884 0.5574 0.2603
vn  0.8304 0.5572 0.0000
vn  0.7884 -0.5574 0.2603
vn  0.8304 -0.5572 -0.0000
vn  0.5230 -3.0409 0.0845
vn  0.5330 -2.4461 0.0860
vn  -0.1829 -0.9813 -0.0602
vn  -0.1925 -0.9813 0.0000
vn  -0.3769 -0.9179 -0.1237
vn  -0.3967 -0.9180 0.0000
vn  -0.3207 0.9178 -0.2340
vn  -0.1560 0.9812 -0.1139
vn  0.4688 3.0416 0.2425
vn  0.6698 0.5581 0.4899
vn  0.6697 -0.5581 0.4899
vn  0.4685 -3.0416 0.2424
vn  -0.1560 -0.9812 -0.1140
vn  -0.3206 -0.9178 -0.2340
vn  -0.2341 0.9178 -0.3206
vn  -0.1140 0.9812 -0.1560
vn  0.3724 3.0419 0.3724
vn  0.4899 0.5581 0.6698
vn  0.4899 -0.5581 0.6698
vn  0.3723 -3.0420 0.3723
vn  -0.1139 -0.9812 -0.1560
vn  -0.2340 -0.9178 -0.3207
vn  -0.1237 0.9179 -0.3769
vn  -0.0602 0.9813 -0.1829
vn  0.2423 3.0417 0.4685
vn  0.2603 0.5574 0.7884
vn  0.2603 -0.5574 0.7884
vn  0.2424 -3.0417 0.4684
vn  -0.0602 -0.9813 -0.1829
vn  -0.1237 -0.9179 -0.3770
vn  0.0000 0.9180 -0.3967
vn  0.0000 0.9813 -0.1925
vn  0.0843 3.0412 0.5224
vn  0.1237 0.9179 -0.3770
vn  0.0602 0.9813 -0.1829
vn  -0.0844 3.0409 0.5232
vn  0.2340 0.9178 -0.3207
vn  0.1139 0.9812 -0.1560
vn  -0.2425 3.0416 0.4688
vn  -0.4899 0.5581 0.6698
vn  -0.4899 -0.5581 0.6697
vn  -0.2424 -3.0416 0.4685
vn  0.1140 -0.9812 -0.1560
vn  0.2341 -0.9178 -0.3206
vn  0.3206 0.9178 -0.2340
vn  0.1560 0.9812 -0.1140
vn  -0.3724 3.0419 0.3724
vn  -0.6698 0.5581 0.4899
vn  -0.6698 -0.5581 0.4899
vn  -0.3723 -3.0420 0.3723
vn  0.1560 -0.9812 -0.1139
vn  0.3207 -0.9178 -0.2340
vn  0.3769 0.9179 -0.1237
vn  0.1829 0.9813 -0.0602
vn  -0.4685 3.0417 0.2423
vn  -0.7884 0.5574 0.2603
vn  -0.7884 -0.5574 0.2603
vn  -0.4684 -3.0417 0.2424
vn  0.1829 -0.9813 -0.0602
vn  0.3770 -0.9179 -0.1237
vn  0.3967 0.9180 0.0000
vn  0.1925 0.9813 0.0000
vn  -0.5224 3.0412 0.0843
vn  -0.8304 0.5572 -0.0000
vn  -0.8304 -0.5572 0.0000
vn  -0.5223 -3.0412 0.0843
vn  0.1925 -0.9813 -0.0000
vn  0.3967 -0.9180 -0.0000
vn  0.3770 0.9179 0.1237
vn  0.1829 0.9813 0.0602
vn  -0.5232 3.0409 -0.0844
vn  -0.7884 0.5574 -0.2603
vn  -0.7884 -0.5574 -0.2603
vn  -0.5230 -3.0409 -0.0845
vn  0.1829 -0.9813 0.0602
vn  0.3769 -0.9179 0.1237
vn  0.3207 0.9178 0.2340
vn  0.1560 0.9812 0.1139
vn  -0.4688 3.0416 -0.2425
vn  -0.6698 0.5581 -0.4899
vn  -0.6697 -0.5581 -0.4899
vn  -0.4685 -3.0416 -0.2424
vn  0.1560 -0.9812 0.1140
vn  0.3206 -0.9178 0.2340
vn  0.2340 0.9178 0.3206
vn  0.1140 0.9812 0.1560
vn  -0.3724 3.0419 -0.3724
vn  -0.4899 0.5581 -0.6698
vn  -0.4899 -0.5581 -0.6698
vn  -0.3723 -3.0420 -0.3723
vn  0.1139 -0.9812 0.1560
vn  0.2340 -0.9178 0.3207
vn  0.1237 0.9179 0.3769
vn  0.0602 0.9813 0.1829
vn  -0.2423 3.0417 -0.4685
vn  -0.2603 0.5574 -0.7884
vn  -0.2603 -0.5574 -0.7884
vn  -0.2424 -3.0417 -0.4684
vn  0.0602 -0.9813 0.1829
vn  0.1237 -0.9179 0.3770
vn  -0.0000 0.9180 0.3967
vn  -0.0000 0.9813 0.1925
vn  -0.0843 3.0412 -0.5224
vn  0.0000 0.5572 -0.8304
vn  -0.0000 -0.5572 -0.8304
vn  -0.0843 -3.0412 -0.5223
vn  0.0000 -0.9813 0.1925
vn  0.0000 -0.9180 0.3967
vn  -0.1237 0.9179 0.3770
vn  -0.0602 0.9813 0.1829
vn  0.0844 3.0409 -0.5232
vn  0.2603 0.5574 -0.7884
vn  0.2603 -0.5574 -0.7884
vn  0.0845 -3.0409 -0.5230
vn  -0.0602 -0.9813 0.1829
vn  -0.1237 -0.9179 0.3769
vn  -0.2340 0.9178 0.3207
vn  -0.1139 0.9812 0.1560
vn  0.2425 3.0416 -0.4688
vn  0.4899 0.5581 -0.6698
vn  0.4899 -0.5581 -0.6697
vn  0.2424 -3.0416 -0.4685
vn  -0.1140 -0.9812 0.1560
vn  -0.2340 -0.9178 0.3206
vn  -0.3206 0.9178 0.2340
vn  -0.1560 0.9812 0.1140
vn  0.3724 3.0419 -0.3724
vn  0.6698 0.5581 -0.4899
vn  0.6698 -0.5581 -0.4899
vn  0.3723 -3.0420 -0.3723
vn  -0.1560 -0.9812 0.1139
vn  -0.3207 -0.9178 0.2340
vn  -0.3769 0.9179 0.1237
vn  -0.1829 0.9813 0.0602
vn  0.4685 3.0417 -0.2423
vn  0.7884 0.5574 -0.2603
vn  0.7884 -0.5574 -0.2603
vn  0.4684 -3.0417 -0.2424
vn  -0.1829 -0.9813 0.0602
vn  -0.3770 -0.9179 0.1237
# 160 vertex normals

g Object02
usemtl Tread
s 3
f 1/1/1 2/2/2 3/3/3
f 3/3/3 4/4/4 1/1/1
f 4/4/4 3/3/3 5/5/5
f 5/5/5 6/6/6 4/4/4
usemtl tread_side
s 2
f 6/6/6 5/5/5 7/7/7
f 7/7/7 8/8/8 6/6/6
f 8/8/8 7/7/7 9/9/9
f 9/9/9 10/10/10 8/8/8
f 11/11/11 12/12/12 13/13/13
f 13/13/13 14/14/14 11/11/11
f 14/14/14 13/13/13 15/15/15
f 15/15/15 16/16/16 14/14/14
usemtl Tread
s 3
f 16/16/16 15/15/15 17/17/17
f 17/17/17 18/18/18 16/16/16
f 18/18/18 17/17/17 19/19/19
f 19/19/19 20/20/20 18/18/18
f 20/20/20 19/19/19 21/21/21
f 21/21/21 22/22/22 20/20/20
usemtl tread_side
s 2
f 22/22/22 21/21/21 23/23/23
f 23/23/23 24/24/24 22/22/22
f 24/24/24 23/23/23 25/25/25
f 25/25/25 26/26/26 24/24/24
f 12/12/12 27/27/27 28/28/28
f 28/28/28 13/13/13 12/12/12
f 13/13/13 28/28/28 29/29/29
f 29/29/29 15/15/15 13/13/13
usemtl Tread
s 3
f 15/15/15 29/29/29 30/30/30
f 30/30/30 17/17/17 15/15/15
f 17/17/17 30/30/30 31/31/31
f 31/31/31 19/19/19 17/17/17
f 19/19/19 31/31/31 32/32/32
f 32/32/32 21/21/21 19/19/19
usemtl tread_side
s 2
f 21/21/21 32/32/32 33/33/33
f 33/33/33 23/23/23 21/21/21
f 23/23/23 33/33/33 34/34/34
f 34/34/34 25/25/25 23/23/23
f 27/27/27 35/35/35 36/36/36
f 36/36/36 28/28/28 27/27/27
f 28/28/28 36/36/36 37/37/37
f 37/37/37 29/29/29 28/28/28
usemtl Tread
s 3
f 29/29/29 37/37/37 38/38/38
f 38/38/38 30/30/30 29/29/29
f 30/30/30 38/38/38 39/39/39
f 39/39/39 31/31/31 30/30/30
f 31/31/31 39/39/39 40/40/40
f 40/40/40 32/32/32 31/31/31
usemtl tread_side
s 2
f 32/32/32 40/40/40 41/41/41
f 41/41/41 33/33/33 32/32/32
f 33/33/33 41/41/41 42/42/42
f 42/42/42 34/34/34 33/33/33
f 35/35/35 43/43/43 44/44/44
f 44/44/44 36/36/36 35/35/35
f 36/36/36 44/44/44 45/45/45
f 45/45/45 37/37/37 36/36/36
usemtl Tread
s 3
f 37/37/37 45/45/45 46/46/46
f 46/46/46 38/38/38 37/37/37
f 38/38/38 46/46/46 47/47/47
f 47/47/47 39/39/39 38/38/38
f 39/39/39 47/47/47 48/48/48
f 48/48/48 40/40/40 39/39/39
usemtl tread_side
s 2
f 40/40/40 48/48/48 49/49/49
f 49/49/49 41/41/41 40/40/40
f 41/41/41 49/49/49 50/50/50
f 50/50/50 42/42/42 41/41/41
f 43/43/43 51/51/51 52/52/52
f 52/52/52 44/44/44 43/43/43
f 44/44/44 52/52/52 53/53/53
f 53/53/53 45/45/45 44/44/44
usemtl Tread
s 3
f 45/45/45 53/53/53 1/1/1
f 1/1/1 46/46/46 45/45/45
f 46/46/46 1/1/1 4/4/4
f 4/4/4 47/47/47 46/46/46
f 47/47/47 4/4/4 6/6/6
f 6/6/6 48/48/48 47/47/47
usemtl tread_side
s 2
f 48/48/48 6/6/6 8/8/8
f 8/8/8 49/49/49 48/48/48
f 49/49/49 8/8/8 10/10/10
f 10/10/10 50/50/50 49/49/49
f 51/51/51 54/54/54 55/55/55
f 55/55/55 52/52/52 51/51/51
f 52/52/52 55/55/55 56/56/56
f 56/56/56 53/53/53 52/52/52
usemtl Tread
s 3
f 53/53/53 56/56/56 2/2/2
f 2/2/2 1/1/1 53/53/53
usemtl tread_side
s 2
f 54/54/54 57/57/57 58/58/58
f 58/58/58 55/55/55 54/54/54
f 55/55/55 58/58/58 59/59/59
f 59/59/59 56/56/56 55/55/55
usemtl Tread
s 3
f 56/56/56 59/59/59 60/60/60
f 60/60/60 2/2/2 56/56/56
f 2/2/2 60/60/60 61/61/61
f 61/61/61 3/3/3 2/2/2
f 3/3/3 61/61/61 62/62/62
f 62/62/62 5/5/5 3/3/3
usemtl tread_side
s 2
f 5/5/5 62/62/62 63/63/63
f 63/63/63 7/7/7 5/5/5
f 7/7/7 63/63/63 64/64/64
f 64/64/64 9/9/9 7/7/7
f 57/57/57 65/65/65 66/66/66
f 66/66/66 58/58/58 57/57/57
f 58/58/58 66/66/66 67/67/67
f 67/67/67 59/59/59 58/58/58
usemtl Tread
s 3
f 59/59/59 67/67/67 68/68/68
f 68/68/68 60/60/60 59/59/59
f 60/60/60 68/68/68 69/69/69
f 69/69/69 61/61/61 60/60/60
f 61/61/61 69/69/69 70/70/70
f 70/70/70 62/62/62 61/61/61
usemtl tread_side
s 2
f 62/62/62 70/70/70 71/71/71
f 71/71/71 63/63/63 62/62/62
f 63/63/63 71/71/71 72/72/72
f 72/72/72 64/64/64 63/63/63
f 65/65/65 73/73/73 74/74/74
f 74/74/74 66/66/66 65/65/65
f 66/66/66 74/74/74 75/75/75
f 75/75/75 67/67/67 66/66/66
usemtl Tread
s 3
f 67/67/67 75/75/75 76/76/76
f 76/76/76 68/68/68 67/67/67
f 68/68/68 76/76/76 77/77/77
f 77/77/77 69/69/69 68/68/68
f 69/69/69 77/77/77 78/78/78
f 78/78/78 70/70/70 69/69/69
usemtl tread_side
s 2
f 70/70/70 78/78/78 79/79/79
f 79/79/79 71/71/71 70/70/70
f 71/71/71 79/79/79 80/80/80
f 80/80/80 72/72/72 71/71/71
f 73/73/73 81/81/81 82/82/82
f 82/82/82 74/74/74 73/73/73
f 74/74/74 82/82/82 83/83/83
f 83/83/83 75/75/75 74/74/74
usemtl Tread
s 3
f 75/75/75 83/83/83 84/84/84
f 84/84/84 76/76/76 75/75/75
f 76/76/76 84/84/84 85/85/85
f 85/85/85 77/77/77 76/76/76
f 77/77/77 85/85/85 86/86/86
f 86/86/86 78/78/78 77/77/77
usemtl tread_side
s 2
f 78/78/78 86/86/86 87/87/87
f 87/87/87 79/79/79 78/78/78
f 79/79/79 87/87/87 88/88/88
f 88/88/88 80/80/80 79/79/79
f 81/81/81 89/89/89 90/90/90
f 90/90/90 82/82/82 81/81/81
f 82/82/82 90/90/90 91/91/91
f 91/91/91 83/83/83 82/82/82
usemtl Tread
s 3
f 83/83/83 91/91/91 92/92/92
f 92/92/92 84/84/84 83/83/83
f 84/84/84 92/92/92 93/93/93
f 93/93/93 85/85/85 84/84/84
f 85/85/85 93/93/93 94/94/94
f 94/94/94 86/86/86 85/85/85
usemtl tread_side
s 2
f 86/86/86 94/94/94 95/95/95
f 95/95/95 87/87/87 86/86/86
f 87/87/87 95/95/95 96/96/96
f 96/96/96 88/88/88 87/87/87
f 89/89/89 97/97/97 98/98/98
f 98/98/98 90/90/90 89/89/89
f 90/90/90 98/98/98 99/99/99
f 99/99/99 91/91/91 90/90/90
usemtl Tread
s 3
f 91/91/91 99/99/99 100/100/100
f 100/100/100 92/92/92 91/91/91
f 92/92/92 100/100/100 101/101/101
f 101/101/101 93/93/93 92/92/92
f 93/93/93 101/101/101 102/102/102
f 102/102/102 94/94/94 93/93/93
usemtl tread_side
s 2
f 94/94/94 102/102/102 103/103/103
f 103/103/103 95/95/95 94/94/94
f 95/95/95 103/103/103 104/104/104
f 104/104/104 96/96/96 95/95/95
f 97/97/97 105/105/105 106/106/106
f 106/106/106 98/98/98 97/97/97
f 98/98/98 106/106/106 107/107/107
f 107/107/107 99/99/99 98/98/98
usemtl Tread
s 3
f 99/99/99 107/107/107 108/108/108
f 108/108/108 100/100/100 99/99/99
f 100/100/100 108/108/108 109/109/109
f 109/109/109 101/101/101 100/100/100
f 101/101/101 109/109/109 110/110/110
f 110/110/110 102/102/102 101/101/101
usemtl tread_side
s 2
f 102/102/102 110/110/110 111/111/111
f 111/111/111 103/103/103 102/102/102
f 103/103/103 111/111/111 112/112/112
f 112/112/112 104/104/104 103/103/103
f 105/105/105 113/113/113 114/114/114
f 114/114/114 106/106/106 105/105/105
f 106/106/106 114/114/114 115/115/115
f 115/115/115 107/107/107 106/106/106
usemtl Tread
s 3
f 107/107/107 115/115/115 116/116/116
f 116/116/116 108/108/108 107/107/107
f 108/108/108 116/116/116 117/117/117
f 117/117/117 109/109/109 108/108/108
f 109/109/109 117/117/117 118/118/118
f 118/118/118 110/110/110 109/109/109
usemtl tread_side
s 2
f 110/110/110 118/118/118 119/119/119
f 119/119/119 111/111/111 110/110/110
f 111/111/111 119/119/119 120/120/120
f 120/120/120 112/112/112 111/111/111
f 113/113/113 121/161/121 122/162/122
f 122/163/122 114/114/114 113/113/113
f 114/114/114 122/164/122 123/165/123
f 123/166/123 115/115/115 114/114/114
usemtl Tread
s 3
f 115/115/115 123/167/123 124/168/124
f 124/169/124 116/116/116 115/115/115
f 116/116/116 124/170/124 125/171/125
f 125/172/125 117/117/117 116/116/116
f 117/117/117 125/173/125 126/174/126
f 126/175/126 118/118/118 117/117/117
usemtl tread_side
s 2
f 118/118/118 126/176/126 127/177/127
f 127/178/127 119/119/119 118/118/118
f 119/119/119 127/179/127 128/180/128
f 128/181/128 120/120/120 119/119/119
f 121/121/121 129/129/129 130/130/130
f 130/130/130 122/122/122 121/121/121
f 122/122/122 130/130/130 131/131/131
f 131/131/131 123/123/123 122/122/122
usemtl Tread
s 3
f 123/123/123 131/131/131 132/132/132
f 132/132/132 124/124/124 123/123/123
f 124/124/124 132/132/132 133/133/133
f 133/133/133 125/125/125 124/124/124
f 125/125/125 133/133/133 134/134/134
f 134/134/134 126/126/126 125/125/125
usemtl tread_side
s 2
f 126/126/126 134/134/134 135/135/135
f 135/135/135 127/127/127 126/126/126
f 127/127/127 135/135/135 136/136/136
f 136/136/136 128/128/128 127/127/127
f 129/129/129 137/137/137 138/138/138
f 138/138/138 130/130/130 129/129/129
f 130/130/130 138/138/138 139/139/139
f 139/139/139 131/131/131 130/130/130
usemtl Tread
s 3
f 131/131/131 139/139/139 140/140/140
f 140/140/140 132/132/132 131/131/131
f 132/132/132 140/140/140 141/141/141
f 141/141/141 133/133/133 132/132/132
f 133/133/133 141/141/141 142/142/142
f 142/142/142 134/134/134 133/133/133
usemtl tread_side
s 2
f 134/134/134 142/142/142 143/143/143
f 143/143/143 135/135/135 134/134/134
f 135/135/135 143/143/143 144/144/144
f 144/144/144 136/136/136 135/135/135
f 137/137/137 145/145/145 146/146/146
f 146/146/146 138/138/138 137/137/137
f 138/138/138 146/146/146 147/147/147
f 147/147/147 139/139/139 138/138/138
usemtl Tread
s 3
f 139/139/139 147/147/147 148/148/148
f 148/148/148 140/140/140 139/139/139
f 140/140/140 148/148/148 149/149/149
f 149/149/149 141/141/141 140/140/140
f 141/141/141 149/149/149 150/150/150
f 150/150/150 142/142/142 141/141/141
usemtl tread_side
s 2
f 142/142/142 150/150/150 151/151/151
f 151/151/151 143/143/143 142/142/142
f 143/143/143 151/151/151 152/152/152
f 152/152/152 144/144/144 143/143/143
f 145/145/145 153/153/153 154/154/154
f 154/154/154 146/146/146 145/145/145
f 146/146/146 154/154/154 155/155/155
f 155/155/155 147/147/147 146/146/146
usemtl Tread
s 3
f 147/147/147 155/155/155 156/156/156
f 156/156/156 148/148/148 147/147/147
f 148/148/148 156/156/156 157/157/157
f 157/157/157 149/149/149 148/148/148
f 149/149/149 157/157/157 158/158/158
f 158/158/158 150/150/150 149/149/149
usemtl tread_side
s 2
f 150/150/150 158/158/158 159/159/159
f 159/159/159 151/151/151 150/150/150
f 151/151/151 159/159/159 160/160/160
f 160/160/160 152/152/152 151/151/151
f 153/153/153 11/11/11 14/14/14
f 14/14/14 154/154/154 153/153/153
f 154/154/154 14/14/14 16/16/16
f 16/16/16 155/155/155 154/154/154
usemtl Tread
s 3
f 155/155/155 16/16/16 18/18/18
f 18/18/18 156/156/156 155/155/155
f 156/156/156 18/18/18 20/20/20
f 20/20/20 157/157/157 156/156/156
f 157/157/157 20/20/20 22/22/22
f 22/22/22 158/158/158 157/157/157
usemtl tread_side
s 2
f 158/158/158 22/22/22 24/24/24
f 24/24/24 159/159/159 158/158/158
f 159/159/159 24/24/24 26/26/26
f 26/26/26 160/160/160 159/159/159
# 280 faces

g
