mtllib ./steering_wheel.mtl
g
v 0.200624 0.405401 0.810407
v 0.178603 0.388233 0.775335
v 0.178603 0.305413 0.775335
v 0.200624 0.288245 0.810407
v 0.184162 0.405401 0.820745
v 0.162141 0.388233 0.785674
v 0.162141 0.305413 0.785674
v 0.184162 0.288245 0.820745
v 0.154997 0.514519 0.77604
v 0.140202 0.502983 0.752484
v 0.140138 0.190663 0.752381
v 0.154933 0.179128 0.775946
v 0.150993 0.514519 0.778558
v 0.136197 0.502983 0.754994
v 0.136131 0.190663 0.754891
v 0.150927 0.179128 0.778455
v 0.231774 0.346823 0.860019
v 0.222645 0.388233 0.845478
v 0.169474 0.346823 0.760803
v 0.222645 0.305413 0.845478
v 0.215313 0.346823 0.870357
v 0.206182 0.388233 0.855816
v 0.153011 0.346823 0.771142
v 0.206182 0.305413 0.855816
v 0.411249 0.388233 0.657652
v 0.410802 0.346823 0.676034
v 0.410622 0.405401 0.613454
v 0.411361 0.388233 0.569144
v 0.411782 0.346823 0.550762
v 0.41033 0.305413 0.56923
v 0.410622 0.288245 0.613454
v 0.411249 0.305413 0.657652
v 0.277793 0.346819 0.987362
v 0.27167 0.417488 0.96849
v 0.250965 0.47521 0.935515
v 0.22027 0.514146 0.886634
v 0.182689 0.528434 0.826786
v 0.145108 0.514146 0.766931
v 0.114412 0.47521 0.718049
v 0.0937081 0.417488 0.685075
v 0.0861095 0.346819 0.672974
v 0.0937081 0.276149 0.685075
v 0.114412 0.218428 0.718049
v 0.145108 0.179493 0.766931
v 0.182689 0.165204 0.826786
v 0.22027 0.179493 0.886634
v 0.251504 0.217566 0.936375
v 0.269989 0.27424 0.974935
v 0.269579 0.346819 0.992518
v 0.261776 0.419399 0.980091
v 0.240502 0.478704 0.946214
v 0.208965 0.518708 0.895984
v 0.170368 0.533381 0.834521
v 0.131772 0.518708 0.773058
v 0.100234 0.478704 0.722827
v 0.0789611 0.419399 0.68895
v 0.071158 0.346819 0.676524
v 0.0789611 0.27424 0.68895
v 0.100234 0.214935 0.722827
v 0.131772 0.174931 0.773058
v 0.170368 0.160257 0.834521
v 0.208965 0.174931 0.895984
v 0.240502 0.214935 0.946214
v 0.261776 0.27424 0.980091
v 0.260481 0.28179 0.959793
v 0.247385 0.22516 0.929818
v 0.218517 0.188995 0.883841
v 0.182689 0.174715 0.826786
v 0.147092 0.18825 0.770093
v 0.117993 0.22516 0.723755
v 0.0983642 0.27988 0.692491
v 0.0911678 0.346819 0.681036
v 0.0983642 0.413758 0.692491
v 0.117993 0.468477 0.723755
v 0.147092 0.505388 0.770093
v 0.182689 0.518922 0.826786
v 0.218286 0.505388 0.883471
v 0.247385 0.468477 0.929818
v 0.267014 0.413758 0.961073
v 0.267472 0.346819 0.970922
v 0.252267 0.28179 0.964949
v 0.233207 0.228653 0.934596
v 0.20206 0.189744 0.89411
v 0.170368 0.179663 0.834521
v 0.135788 0.19281 0.779452
v 0.10753 0.228653 0.734446
v 0.0884702 0.28179 0.704093
v 0.0814774 0.346819 0.692964
v 0.0884702 0.411848 0.704093
v 0.10753 0.464985 0.734446
v 0.135788 0.500827 0.779452
v 0.170368 0.513975 0.834521
v 0.20495 0.500827 0.88959
v 0.233207 0.464985 0.934596
v 0.252267 0.411848 0.964949
v 0.259259 0.346819 0.976078
v 0.262841 0.346819 0.990902
v 0.255243 0.417488 0.978802
v 0.234538 0.47521 0.945828
v 0.203843 0.514146 0.896946
v 0.166261 0.528434 0.837099
v 0.128681 0.514146 0.777252
v 0.0979853 0.47521 0.72837
v 0.0772793 0.417488 0.695396
v 0.0696824 0.346819 0.683296
v 0.0772793 0.276149 0.695396
v 0.0979853 0.218428 0.72837
v 0.128681 0.179493 0.777252
v 0.166261 0.165204 0.837099
v 0.203843 0.179493 0.896946
v 0.234944 0.217237 0.946481
v 0.255243 0.276149 0.978802
v 0.250586 0.27988 0.971386
v 0.230957 0.22516 0.94013
v 0.20495 0.19281 0.88959
v 0.166261 0.174715 0.837099
v 0.130664 0.18825 0.780406
v 0.101565 0.22516 0.734068
v 0.0819372 0.27988 0.702812
v 0.074739 0.346819 0.691348
v 0.0819372 0.413758 0.702812
v 0.101565 0.468477 0.734068
v 0.130664 0.505388 0.780406
v 0.166261 0.518922 0.837099
v 0.201859 0.505388 0.893792
v 0.230957 0.468477 0.94013
v 0.250586 0.413758 0.971386
v 0.257783 0.346819 0.98285
v 0.279269 0.346819 0.98059
v 0.269989 0.419399 0.974935
v 0.248716 0.478704 0.94105
v 0.217179 0.518708 0.890827
v 0.178582 0.533381 0.829365
v 0.139986 0.518708 0.767893
v 0.108447 0.478704 0.717671
v 0.0871751 0.419399 0.683794
v 0.0793711 0.346819 0.671368
v 0.0871751 0.27424 0.683794
v 0.108447 0.214935 0.717671
v 0.139986 0.174931 0.767893
v 0.178582 0.160257 0.829365
v 0.217179 0.174931 0.890827
v 0.248716 0.214935 0.94105
v 0.27167 0.276149 0.96849
v 0.267014 0.27988 0.961073
v 0.241421 0.228653 0.929431
v 0.213164 0.19281 0.884434
v 0.178582 0.179663 0.829365
v 0.144 0.19281 0.774287
v 0.115743 0.228653 0.72929
v 0.0966833 0.28179 0.698936
v 0.0896922 0.346819 0.687799
v 0.0966833 0.411848 0.698936
v 0.115743 0.464985 0.72929
v 0.144 0.500827 0.774287
v 0.178582 0.513975 0.829365
v 0.213164 0.500827 0.884434
v 0.241421 0.464985 0.929431
v 0.260481 0.411848 0.959793
v 0.274211 0.346819 0.972537

vn 0.801399 0.15299 -0.578233
vn 0.801386 0.152968 -0.578257
vn 0.801437 0.153054 -0.578164
vn 0.801446 0.15307 -0.578147
vn 0.801475 -0.153015 -0.578121
vn 0.801477 -0.153016 -0.578118
vn 0.801469 -0.153014 -0.57813
vn 0.801467 -0.153014 -0.578133
vn 0.478123 0.439366 0.760498
vn 0.478159 0.439366 0.760475
vn 0.477771 0.439363 0.76072
vn 0.477762 0.439363 0.760726
vn -0.501729 -0.327354 -0.800692
vn -0.501642 -0.327333 -0.800755
vn -0.502467 -0.327532 -0.800156
vn -0.50249 -0.327537 -0.80014
vn -0.836479 -0.0430584 0.546304
vn -0.83648 -0.0430586 0.546303
vn -0.843045 -0.0167775 0.537581
vn -0.843047 -0.0167916 0.537577
vn -0.501471 0.328383 -0.800432
vn -0.501385 0.328382 -0.800486
vn -0.50231 0.32839 -0.799903
vn -0.502332 0.32839 -0.799889
vn 0.476825 -0.439988 0.760953
vn 0.476741 -0.439968 0.761016
vn 0.477533 -0.440152 0.760413
vn 0.477555 -0.440157 0.760397
vn -0.836482 0.0430467 0.546301
vn -0.836483 0.0430476 0.5463
vn -0.84305 0.01678 0.537573
vn -0.843032 0.0168064 0.5376
vn 0.376046 0.707113 0.598816
vn 0.531841 7.05522e-006 0.846844
vn 0.626148 3.65614e-006 0.779704
vn 0.453585 0.690593 0.563332
vn 0.203672 0.923765 0.324309
vn 0.0994635 0.985423 0.138015
vn -0.531826 0.0 -0.846854
vn -0.491305 0.382858 -0.78233
vn -0.484065 0.616882 -0.620595
vn -0.60082 0.000317502 -0.799384
vn -0.491305 -0.382858 -0.782329
vn -0.484424 -0.617185 -0.620013
vn 0.203665 -0.923764 0.324314
vn 0.203679 -0.923762 0.324312
vn 0.203674 -0.923763 0.324313
vn 0.20366 -0.923765 0.324315
vn 0.491252 -0.383012 0.782287
vn 0.525683 -0.575257 0.626687
vn -0.846888 4.12781e-006 0.531771
vn -0.846874 -1.30598e-005 0.531793
vn -0.846898 1.05903e-005 0.531755
vn -0.846893 -2.90474e-006 0.531764
vn 0.706655 0.0 0.707558
vn 0.478337 0.726764 0.492957
vn -0.142985 0.97559 -0.166671
vn -0.554898 0.535513 -0.636643
vn -0.654976 0.00903731 -0.755596
vn -0.556837 -0.531578 -0.638245
vn -0.13905 -0.97707 -0.161245
vn 0.0408132 -0.998588 0.0339914
vn 0.478338 -0.726764 0.492958
vn 0.141049 0.358545 0.922795
vn 0.179437 -2.87325e-006 0.98377
vn 0.80794 -1.66571e-006 0.589265
vn 0.769705 0.358596 0.52817
vn 0.0347013 0.656551 0.753483
vn 0.663595 0.656596 0.358502
vn -0.123461 0.856619 0.50096
vn 0.50486 0.856616 0.106425
vn -0.314088 0.928682 0.197227
vn 0.31409 0.928685 -0.197212
vn -0.504935 0.85659 -0.106276
vn 0.12334 0.856656 -0.500927
vn -0.66349 0.656581 -0.358723
vn -0.0349267 0.656617 -0.753415
vn -0.769664 0.3586 -0.528227
vn -0.141538 0.358631 -0.922687
vn -0.80795 -2.08417e-006 -0.589251
vn -0.180007 -7.10625e-007 -0.983665
vn -0.769648 -0.358594 -0.528254
vn -0.141562 -0.358634 -0.922682
vn -0.663459 -0.6566 -0.358744
vn -0.0349521 -0.65663 -0.753402
vn -0.50494 -0.856584 -0.106295
vn 0.123323 -0.856647 -0.500946
vn -0.314058 -0.928696 0.197211
vn 0.314066 -0.928698 -0.197188
vn -0.12347 -0.856631 0.500938
vn 0.502059 -0.85839 0.105375
vn 0.101534 -0.674794 0.730988
vn 0.618248 -0.671362 0.408708
vn 0.143608 -0.35616 0.923324
vn 0.769677 -0.358615 0.528197
vn -0.686776 0.64652 -0.332192
vn -0.791788 0.35296 -0.498489
vn -0.105156 0.352946 -0.929716
vn -0.000915439 0.647633 -0.761952
vn -0.475338 0.87119 -0.122812
vn 0.132303 0.855363 -0.500849
vn -0.343775 0.9139 0.215881
vn 0.343777 0.913902 -0.215873
vn -0.155945 0.843165 0.514542
vn 0.531245 0.843119 0.0832475
vn 0.0010447 0.646558 0.762864
vn 0.68662 0.646589 0.332379
vn 0.10518 0.352949 0.929712
vn 0.791857 0.352958 0.498381
vn 0.142172 5.68807e-005 0.989842
vn 0.82989 3.00362e-005 0.557927
vn 0.105169 -0.35301 0.92969
vn 0.791839 -0.352994 0.498383
vn 0.00106741 -0.646601 0.762827
vn 0.686597 -0.64661 0.332386
vn -0.155952 -0.843126 0.514603
vn 0.531291 -0.843091 0.0832325
vn -0.343787 -0.9139 0.215866
vn 0.343768 -0.913904 -0.215878
vn -0.531072 -0.843225 -0.0832712
vn 0.155758 -0.843166 -0.514598
vn -0.68677 -0.646505 -0.332232
vn -0.000790272 -0.646542 -0.762878
vn -0.791789 -0.352979 -0.498473
vn -0.105126 -0.353039 -0.929684
vn -0.829741 -2.81185e-006 -0.558149
vn -0.141876 3.58347e-005 -0.989884
vn 0.713306 0.330092 -0.61825
vn 0.924555 -0.34371 -0.164501
vn 0.853581 -0.384914 -0.351056
vn 0.79775 0.33546 -0.501061
vn 0.769476 -0.417701 -0.483149
vn 0.866618 0.310177 -0.390848
vn 0.68394 -0.384908 -0.619735
vn 0.924106 0.238732 -0.298389
vn 0.6132 -0.294609 -0.732933
vn 0.962492 0.129798 -0.238247
vn 0.564703 -0.161234 -0.809391
vn 0.976261 -4.71246e-006 -0.216598
vn 0.547201 -7.92093e-006 -0.837001
vn 0.962493 -0.129795 -0.238244
vn 0.564731 0.16121 -0.809376
vn 0.924108 -0.238747 -0.298371
vn 0.613225 0.294578 -0.732925
vn 0.866619 -0.31015 -0.390869
vn 0.683941 0.384911 -0.619732
vn 0.797798 -0.33549 -0.500964
vn 0.769491 0.417656 -0.483163
vn 0.728604 -0.310039 -0.610747
vn 0.855316 0.384946 -0.346773
vn 0.670436 -0.238427 -0.702615
vn 0.926546 0.294509 -0.234046
vn 0.632581 -0.129915 -0.763521
vn 0.974316 0.16113 -0.157307
vn 0.619521 2.35551e-005 -0.78498
vn 0.991565 3.01461e-007 -0.129607
vn 0.974364 -0.160965 -0.157176
vn 0.67126 0.238613 -0.701764
vn 0.632566 0.129864 -0.763542
vn -0.924018 0.238808 0.298598
vn -0.861827 0.36582 0.351325
vn -0.552169 -0.356951 0.753455
vn -0.962501 0.129842 0.238187
vn -0.565853 -0.156451 0.809527
vn -0.976185 -2.95593e-006 0.216941
vn -0.547582 -1.42052e-006 0.836752
vn -0.565199 0.161029 0.809086
vn -0.683971 -0.385153 0.619549
vn -0.797942 0.335428 0.500776
vn -0.769464 -0.4177 0.483168
vn -0.728589 0.31 0.610785
vn -0.855338 -0.38481 0.346871
vn -0.670182 0.238734 0.702753
vn -0.926528 -0.294544 0.23407
vn -0.632499 0.129888 0.763593
vn -0.974317 -0.161152 0.157275
vn -0.619587 2.58525e-005 0.784928
vn -0.991573 -2.58985e-006 0.129547
vn -0.632497 -0.129916 0.76359
vn -0.974315 0.161135 0.157311
vn -0.670183 -0.238746 0.702748
vn -0.926533 0.294515 0.234089
vn -0.728605 -0.30996 0.610786
vn -0.855343 0.384808 0.346859
vn -0.7978 -0.3355 0.500954
vn -0.769478 0.417662 0.48318
vn -0.866649 -0.309952 0.39096
vn -0.683813 0.385075 0.619772
vn -0.924083 -0.238574 0.298585
vn -0.613482 0.294401 0.732781
vn -0.962502 -0.129822 0.238193

g
g steering_wheel
usemtl steering_wheel
f 10//1 9//2 1//3
f 1//3 2//4 10//1
f 12//5 11//6 3//7
f 3//7 4//8 12//5
f 9//9 13//10 5//11
f 5//11 1//12 9//9
f 14//13 10//14 2//15
f 2//15 6//16 14//13
f 13//17 14//18 6//19
f 6//19 5//20 13//17
f 11//21 15//22 7//23
f 7//23 3//24 11//21
f 16//25 12//26 4//27
f 4//27 8//28 16//25
f 15//29 16//30 8//31
f 8//31 7//32 15//29
f 22//33 21//34 17//35
f 17//35 18//36 22//33
f 5//37 22//33 18//36
f 18//36 1//38 5//37
f 23//39 6//40 2//41
f 2//41 19//42 23//39
f 7//43 23//39 19//42
f 19//42 3//44 7//43
f 24//45 8//46 4//47
f 4//47 20//48 24//45
f 21//34 24//49 20//50
f 20//50 17//35 21//34
f 22//51 5//20 6//19
f 22//51 6//19 23//52
f 22//51 23//52 7//32
f 7//32 8//31 24//53
f 7//32 24//53 21//54
f 22//51 7//32 21//54
f 18//36 17//35 26//55
f 26//55 25//56 18//36
f 1//38 18//36 25//56
f 25//56 27//57 1//38
f 2//41 1//38 27//57
f 27//57 28//58 2//41
f 19//42 2//41 28//58
f 28//58 29//59 19//42
f 30//60 3//44 19//42
f 19//42 29//59 30//60
f 31//61 4//62 3//44
f 3//44 30//60 31//61
f 32//63 20//50 4//62
f 4//62 31//61 32//63
f 26//55 17//35 20//50
f 20//50 32//63 26//55
f 50//64 49//65 33//66
f 33//66 130//67 50//64
f 51//68 50//64 130//67
f 130//67 131//69 51//68
f 52//70 51//68 131//69
f 131//69 132//71 52//70
f 53//72 52//70 132//71
f 132//71 133//73 53//72
f 54//74 53//72 133//73
f 133//73 134//75 54//74
f 55//76 54//74 134//75
f 134//75 135//77 55//76
f 56//78 55//76 135//77
f 135//77 136//79 56//78
f 57//80 56//78 136//79
f 136//79 137//81 57//80
f 58//82 57//80 137//81
f 137//81 138//83 58//82
f 59//84 58//82 138//83
f 138//83 139//85 59//84
f 60//86 59//84 139//85
f 139//85 140//87 60//86
f 61//88 60//86 140//87
f 140//87 141//89 61//88
f 62//90 61//88 141//89
f 141//89 142//91 62//90
f 63//92 62//90 142//91
f 142//91 143//93 63//92
f 64//94 63//92 143//93
f 143//93 48//95 64//94
f 49//65 64//94 48//95
f 48//95 33//66 49//65
f 82//96 81//97 65//98
f 65//98 146//99 82//96
f 115//100 82//96 146//99
f 146//99 147//101 115//100
f 84//102 115//100 147//101
f 147//101 148//103 84//102
f 85//104 84//102 148//103
f 148//103 149//105 85//104
f 86//106 85//104 149//105
f 149//105 150//107 86//106
f 87//108 86//106 150//107
f 150//107 151//109 87//108
f 88//110 87//108 151//109
f 151//109 152//111 88//110
f 89//112 88//110 152//111
f 152//111 153//113 89//112
f 90//114 89//112 153//113
f 153//113 154//115 90//114
f 91//116 90//114 154//115
f 154//115 155//117 91//116
f 92//118 91//116 155//117
f 155//117 156//119 92//118
f 93//120 92//118 156//119
f 156//119 157//121 93//120
f 94//122 93//120 157//121
f 157//121 158//123 94//122
f 95//124 94//122 158//123
f 158//123 159//125 95//124
f 96//126 95//124 159//125
f 159//125 80//127 96//126
f 81//97 96//126 80//127
f 80//127 65//98 81//97
f 67//128 47//129 46//130
f 68//131 67//128 46//130
f 68//131 46//130 45//132
f 69//133 68//131 45//132
f 69//133 45//132 44//134
f 70//135 69//133 44//134
f 70//135 44//134 43//136
f 71//137 70//135 43//136
f 71//137 43//136 42//138
f 72//139 71//137 42//138
f 72//139 42//138 41//140
f 73//141 72//139 41//140
f 73//141 41//140 40//142
f 74//143 73//141 40//142
f 74//143 40//142 39//144
f 75//145 74//143 39//144
f 75//145 39//144 38//146
f 76//147 75//145 38//146
f 76//147 38//146 37//148
f 77//149 76//147 37//148
f 77//149 37//148 36//150
f 78//151 77//149 36//150
f 78//151 36//150 35//152
f 79//153 78//151 35//152
f 79//153 35//152 34//154
f 160//155 79//153 34//154
f 160//155 34//154 129//156
f 160//155 129//156 144//157
f 47//129 67//128 66//158
f 47//129 66//158 145//159
f 144//157 47//129 145//159
f 160//155 144//157 145//159
f 114//160 83//161 111//162
f 113//163 114//160 111//162
f 113//163 111//162 112//164
f 128//165 113//163 112//164
f 128//165 112//164 97//166
f 128//165 97//166 98//167
f 110//168 111//162 83//161
f 110//168 83//161 116//169
f 109//170 110//168 116//169
f 109//170 116//169 117//171
f 108//172 109//170 117//171
f 108//172 117//171 118//173
f 107//174 108//172 118//173
f 107//174 118//173 119//175
f 106//176 107//174 119//175
f 106//176 119//175 120//177
f 105//178 106//176 120//177
f 105//178 120//177 121//179
f 104//180 105//178 121//179
f 104//180 121//179 122//181
f 103//182 104//180 122//181
f 103//182 122//181 123//183
f 102//184 103//182 123//183
f 102//184 123//183 124//185
f 101//186 102//184 124//185
f 101//186 124//185 125//187
f 100//188 101//186 125//187
f 100//188 125//187 126//189
f 99//190 100//188 126//189
f 99//190 126//189 127//191
f 98//167 99//190 127//191
f 128//165 98//167 127//191
f 50//64 98//167 97//166
f 97//166 49//65 50//64
f 51//68 99//190 98//167
f 98//167 50//64 51//68
f 52//70 100//188 99//190
f 99//190 51//68 52//70
f 53//72 101//186 100//188
f 100//188 52//70 53//72
f 54//74 102//184 101//186
f 101//186 53//72 54//74
f 55//76 103//182 102//184
f 102//184 54//74 55//76
f 56//78 104//180 103//182
f 103//182 55//76 56//78
f 57//80 105//178 104//180
f 104//180 56//78 57//80
f 58//82 106//176 105//178
f 105//178 57//80 58//82
f 59//84 107//174 106//176
f 106//176 58//82 59//84
f 60//86 108//172 107//174
f 107//174 59//84 60//86
f 61//88 109//170 108//172
f 108//172 60//86 61//88
f 62//90 110//168 109//170
f 109//170 61//88 62//90
f 63//92 111//162 110//168
f 110//168 62//90 63//92
f 64//94 112//164 111//162
f 111//162 63//92 64//94
f 49//65 97//166 112//164
f 112//164 64//94 49//65
f 82//96 114//160 113//163
f 113//163 81//97 82//96
f 115//100 83//161 114//160
f 114//160 82//96 115//100
f 116//169 83//161 115//100
f 115//100 84//102 116//169
f 85//104 117//171 116//169
f 116//169 84//102 85//104
f 86//106 118//173 117//171
f 117//171 85//104 86//106
f 87//108 119//175 118//173
f 118//173 86//106 87//108
f 88//110 120//177 119//175
f 119//175 87//108 88//110
f 89//112 121//179 120//177
f 120//177 88//110 89//112
f 90//114 122//181 121//179
f 121//179 89//112 90//114
f 91//116 123//183 122//181
f 122//181 90//114 91//116
f 92//118 124//185 123//183
f 123//183 91//116 92//118
f 93//120 125//187 124//185
f 124//185 92//118 93//120
f 94//122 126//189 125//187
f 125//187 93//120 94//122
f 95//124 127//191 126//189
f 126//189 94//122 95//124
f 96//126 128//165 127//191
f 127//191 95//124 96//126
f 81//97 113//163 128//165
f 128//165 96//126 81//97
f 33//66 129//156 34//154
f 34//154 130//67 33//66
f 130//67 34//154 35//152
f 35//152 131//69 130//67
f 131//69 35//152 36//150
f 36//150 132//71 131//69
f 132//71 36//150 37//148
f 37//148 133//73 132//71
f 133//73 37//148 38//146
f 38//146 134//75 133//73
f 134//75 38//146 39//144
f 39//144 135//77 134//75
f 135//77 39//144 40//142
f 40//142 136//79 135//77
f 136//79 40//142 41//140
f 41//140 137//81 136//79
f 137//81 41//140 42//138
f 42//138 138//83 137//81
f 138//83 42//138 43//136
f 43//136 139//85 138//83
f 139//85 43//136 44//134
f 44//134 140//87 139//85
f 140//87 44//134 45//132
f 45//132 141//89 140//87
f 141//89 45//132 46//130
f 46//130 142//91 141//89
f 142//91 46//130 47//129
f 47//129 143//93 142//91
f 143//93 47//129 144//157
f 144//157 48//95 143//93
f 48//95 144//157 129//156
f 129//156 33//66 48//95
f 65//98 145//159 66//158
f 66//158 146//99 65//98
f 146//99 66//158 67//128
f 67//128 147//101 146//99
f 147//101 67//128 68//131
f 68//131 148//103 147//101
f 148//103 68//131 69//133
f 69//133 149//105 148//103
f 149//105 69//133 70//135
f 70//135 150//107 149//105
f 150//107 70//135 71//137
f 71//137 151//109 150//107
f 151//109 71//137 72//139
f 72//139 152//111 151//109
f 152//111 72//139 73//141
f 73//141 153//113 152//111
f 153//113 73//141 74//143
f 74//143 154//115 153//113
f 154//115 74//143 75//145
f 75//145 155//117 154//115
f 155//117 75//145 76//147
f 76//147 156//119 155//117
f 156//119 76//147 77//149
f 77//149 157//121 156//119
f 157//121 77//149 78//151
f 78//151 158//123 157//121
f 158//123 78//151 79//153
f 79//153 159//125 158//123
f 159//125 79//153 160//155
f 160//155 80//127 159//125
f 80//127 160//155 145//159
f 145//159 65//98 80//127
