mtllib ./windows.mtl
g
v -0.553662 0.0 1.05185
v 0.397107 -0.342415 1.04749
v -0.553662 -0.342495 1.05185
v 0.401262 0.0 1.0474
v 0.233017 0.0 1.2451
v 0.23019 -0.327943 1.24508
v 0.224575 -0.535126 1.24506
v 0.229155 -0.549687 1.23911
v 0.239504 -0.56311 1.22626
v 0.25158 -0.570156 1.21152
v 0.389113 -0.585751 1.04593
v 0.534806 -0.608372 0.805783
v 0.559513 -0.597718 0.766306
v 0.571501 -0.583741 0.747947
v 0.583531 -0.551561 0.731161
v 0.593872 -0.358055 0.731142
v -0.382711 -0.654615 1.23371
v -0.382711 -0.679557 1.05074
v -0.38271 -0.709219 0.737503
v 0.407937 -0.709218 0.737503
v 0.297296 -0.688093 0.96059
v 0.246403 -0.6809 1.03909
v 0.202875 -0.671989 1.10626
v 0.125587 -0.659246 1.19974
v 0.102415 -0.656805 1.21765
v 0.0815105 -0.655472 1.22742
v 0.0527577 -0.654603 1.2338
v -0.553662 0.0 0.901693
v -0.553662 -0.350021 0.901703
v -0.553662 -0.409304 0.901705
v -0.553662 -0.435249 0.916482
v -0.553662 -0.450823 0.9379
v -0.553662 -0.461563 0.973572
v -0.553662 -0.461543 1.05185
v -0.553662 -0.461512 1.16463
v -0.553662 -0.450758 1.2003
v -0.553662 -0.435158 1.22175
v -0.553662 -0.409208 1.23653
v -0.553662 -0.32925 1.23656
v 0.23019 0.327943 1.24508
v 0.397107 0.342415 1.04749
v 0.224575 0.535126 1.24506
v 0.229155 0.549687 1.23911
v 0.239504 0.563109 1.22626
v 0.25158 0.570155 1.21152
v 0.389113 0.585751 1.04593
v 0.599966 0.0 0.731126
v 0.593872 0.358055 0.731142
v 0.534806 0.608372 0.805783
v 0.559513 0.597718 0.766306
v 0.571501 0.583741 0.747947
v 0.583531 0.551561 0.731161
v 0.125587 0.659246 1.19974
v 0.102415 0.656805 1.21765
v 0.0815105 0.655472 1.22742
v 0.0527577 0.654603 1.2338
v -0.382711 0.654615 1.23371
v -0.382711 0.679557 1.05074
v 0.246403 0.6809 1.03909
v 0.202875 0.671989 1.10626
v 0.297296 0.688093 0.96059
v -0.38271 0.709219 0.737503
v 0.407937 0.709218 0.737503
v -0.553662 0.350021 0.901703
v -0.553662 0.342495 1.05185
v -0.553662 0.461512 1.16463
v -0.553662 0.450757 1.2003
v -0.553662 0.435158 1.22175
v -0.553662 0.409208 1.23653
v -0.553662 0.32925 1.23656
v -0.553662 0.461542 1.05185
v -0.553662 0.409304 0.901705
v -0.553662 0.435249 0.916482
v -0.553662 0.450823 0.937901
v -0.553662 0.461563 0.973572
v -0.553662 0.0 1.23669

vt -0.00698219 0.774928 0.996562
vt 0.737201 0.771807 1.22576
vt -0.00698219 0.774928 1.22582
vt 0.894567 0.545177 0.996562
vt 0.740423 0.771738 0.996562
vt 0.609908 0.913362 0.996562
vt 0.607715 0.913349 1.21608
vt 0.60336 0.913332 1.35476
vt 0.606912 0.909073 1.36451
vt 0.61494 0.899866 1.37349
vt 0.624309 0.889306 1.37821
vt 0.730999 0.770683 1.38865
vt 0.84402 0.598657 1.40379
vt 0.863187 0.570378 1.39666
vt 0.872486 0.557227 1.3873
vt 0.881818 0.545203 1.36576
vt 0.88984 0.545188 1.23623
vt 0.13226 0.905202 1.43474
vt 0.13226 0.774135 1.45144
vt 0.13226 0.549746 1.47129
vt 0.745602 0.549746 1.47129
vt 0.659773 0.709553 1.45715
vt 0.620292 0.765789 1.45234
vt 0.586526 0.813904 1.44637
vt 0.52657 0.88087 1.43784
vt 0.508594 0.893696 1.43621
vt 0.492378 0.900699 1.43532
vt 0.470073 0.905268 1.43473
vt -0.00698219 0.66019 0.996562
vt -0.00698219 0.661054 1.23086
vt -0.00698219 0.661207 1.27216
vt -0.00698219 0.672824 1.29144
vt -0.00698219 0.690018 1.3032
vt -0.00698219 0.71792 1.31092
vt -0.00698219 0.774928 1.31028
vt -0.00698218 0.857089 1.30935
vt -0.00698218 0.88517 1.30125
vt -0.00698218 0.902467 1.28948
vt -0.00698218 0.914103 1.27056
vt -0.00698219 0.914126 1.21695
vt -0.00698219 0.91422 0.996563
vt 0.740423 0.771738 0.996562
vt 0.609908 0.913362 0.996562
vt 0.607715 0.913349 1.21608
vt 0.737201 0.771807 1.22576
vt 0.60336 0.913332 1.35476
vt 0.606912 0.909073 1.36451
vt 0.61494 0.899866 1.37349
vt 0.624309 0.889306 1.37821
vt 0.730999 0.770683 1.38865
vt 0.894567 0.545177 0.996562
vt 0.88984 0.545188 1.23623
vt 0.84402 0.598657 1.40379
vt 0.863187 0.570378 1.39666
vt 0.872486 0.557227 1.3873
vt 0.881818 0.545203 1.36576
vt 0.52657 0.88087 1.43784
vt 0.508594 0.893696 1.43621
vt 0.492378 0.900699 1.43532
vt 0.470073 0.905268 1.43473
vt 0.13226 0.905202 1.43474
vt 0.13226 0.774135 1.45144
vt 0.620292 0.765789 1.45234
vt 0.586526 0.813904 1.44637
vt 0.659773 0.709553 1.45715
vt 0.13226 0.549746 1.47129
vt 0.745602 0.549746 1.47129
vt -0.00698219 0.661054 1.23086
vt -0.00698219 0.774928 1.22582
vt -0.00698219 0.774928 0.996562
vt -0.00698219 0.66019 0.996562
vt -0.00698218 0.857089 1.30935
vt -0.00698218 0.88517 1.30125
vt -0.00698218 0.902467 1.28948
vt -0.00698218 0.914103 1.27056
vt -0.00698219 0.914126 1.21695
vt -0.00698219 0.774928 1.31028
vt -0.00698219 0.661207 1.27216
vt -0.00698219 0.672824 1.29144
vt -0.00698219 0.690018 1.3032
vt -0.00698219 0.71792 1.31092
vt -0.00698219 0.91422 0.996563

vn 0.807201 0.0 0.590276
vn 0.761565 0.0 0.648089
vn 0.763205 -0.00786961 0.646108
vn 0.808585 -0.00998956 0.588295
vn 0.766848 -0.0110365 0.641733
vn 0.768232 -0.010959 0.640078
vn 0.76904 -0.0100798 0.639122
vn 0.766821 -0.0128627 0.641733
vn 0.813667 -0.0180661 0.58105
vn 0.849401 -0.0136466 0.527572
vn 0.846752 0.0 0.531989
vn 0.852836 -0.0237536 0.521639
vn 0.852817 -0.0245336 0.521633
vn 0.85304 -0.0248652 0.521254
vn 0.852777 -0.0242992 0.52171
vn -2.88017e-005 -0.968391 0.249436
vn -4.37465e-006 -0.968377 0.249493
vn -2.28579e-006 -0.968384 0.249464
vn -1.30648e-006 -0.968382 0.249473
vn -0.000327143 -0.976983 0.213315
vn 0.00107358 -0.980365 0.19719
vn 0.000401343 -0.969402 0.245478
vn -0.000129959 -0.968414 0.249349
vn -0.000504857 -0.984437 0.175736
vn 0.00105128 -0.984522 0.175258
vn 0.03736 -0.980299 0.193956
vn -1.0 0.0 0.0
vn -1.0 0.0 0.0
vn -1.0 0.0 0.0
vn -1.0 0.0 0.0
vn -1.0 0.0 0.0
vn -1.0 0.0 0.0
vn -1.0 0.0 0.0
vn -1.0 0.0 0.0
vn -1.0 0.0 0.0
vn -1.0 0.0 0.0
vn -1.0 0.0 0.0
vn -1.0 0.0 0.0
vn -1.0 0.0 0.0
vn -1.0 0.0 0.0
vn -1.0 0.0 0.0
vn 0.808585 0.00998951 0.588295
vn 0.763205 0.00786955 0.646108
vn 0.813667 0.018066 0.58105
vn 0.766821 0.0128626 0.641733
vn 0.76904 0.0100797 0.639122
vn 0.768232 0.0109589 0.640078
vn 0.766848 0.0110364 0.641733
vn 0.849401 0.0136466 0.527572
vn 0.852777 0.0242991 0.52171
vn 0.85304 0.0248651 0.521254
vn 0.852817 0.0245336 0.521633
vn 0.852836 0.0237535 0.521639
vn 0.000401343 0.969402 0.245479
vn 0.00107358 0.980365 0.19719
vn -0.000327143 0.976983 0.213315
vn -1.30648e-006 0.968382 0.249473
vn -2.28579e-006 0.968384 0.249464
vn -4.37465e-006 0.968377 0.249493
vn -2.88017e-005 0.968391 0.249436
vn -0.000129959 0.968414 0.249349
vn -0.000504857 0.984437 0.175736
vn 0.00105128 0.984522 0.175258
vn 0.03736 0.980299 0.193956
vn -1.0 0.0 0.0
vn -1.0 0.0 0.0
vn -1.0 0.0 0.0
vn -1.0 0.0 0.0
vn -1.0 0.0 0.0
vn -1.0 0.0 0.0
vn -1.0 0.0 0.0
vn -1.0 0.0 0.0
vn -1.0 0.0 0.0
vn -1.0 0.0 0.0
vn -1.0 0.0 0.0
vn -1.0 0.0 0.0

g
g window
usemtl window
f 4/5/1 5/6/2 6/7/3
f 6/7/3 2/2/4 4/5/1
f 6/7/3 7/8/5 8/9/6
f 8/9/6 9/10/7 10/11/8
f 6/7/3 8/9/6 10/11/8
f 2/2/4 6/7/3 10/11/8
f 2/2/4 10/11/8 11/12/9
f 4/5/1 2/2/4 16/17/10
f 16/17/10 47/4/11 4/5/1
f 16/17/10 2/2/4 11/12/9
f 11/12/9 12/13/12 13/14/13
f 13/14/13 14/15/14 15/16/15
f 11/12/9 13/14/13 15/16/15
f 16/17/10 11/12/9 15/16/15
f 25/26/16 26/27/17 27/28/18
f 27/28/18 17/18/19 18/19/20
f 18/19/20 22/23/21 23/24/22
f 27/28/18 18/19/20 23/24/22
f 25/26/16 27/28/18 23/24/22
f 24/25/23 25/26/16 23/24/22
f 22/23/21 18/19/20 19/20/24
f 22/23/21 19/20/24 20/21/25
f 21/22/26 22/23/21 20/21/25
f 3/3/27 1/1/28 28/29/29
f 28/29/29 29/30/30 3/3/27
f 36/37/31 37/38/32 38/39/33
f 38/39/33 39/40/34 3/3/27
f 38/39/33 3/3/27 34/35/35
f 36/37/31 38/39/33 34/35/35
f 35/36/36 36/37/31 34/35/35
f 34/35/35 3/3/27 29/30/30
f 29/30/30 30/31/37 31/32/38
f 31/32/38 32/33/39 33/34/40
f 29/30/30 31/32/38 33/34/40
f 34/35/35 29/30/30 33/34/40
f 1/1/28 3/3/27 39/40/34
f 39/40/34 76/41/41 1/1/28
f 4/42/1 41/45/42 40/44/43
f 40/44/43 5/43/2 4/42/1
f 41/45/42 46/50/44 45/49/45
f 45/49/45 44/48/46 43/47/47
f 43/47/47 42/46/48 40/44/43
f 45/49/45 43/47/47 40/44/43
f 41/45/42 45/49/45 40/44/43
f 4/42/1 47/51/11 48/52/49
f 48/52/49 41/45/42 4/42/1
f 52/56/50 51/55/51 50/54/52
f 50/54/52 49/53/53 46/50/44
f 52/56/50 50/54/52 46/50/44
f 48/52/49 52/56/50 46/50/44
f 48/52/49 46/50/44 41/45/42
f 60/64/54 59/63/55 58/62/56
f 58/62/56 57/61/57 56/60/58
f 60/64/54 58/62/56 56/60/58
f 56/60/58 55/59/59 54/58/60
f 60/64/54 56/60/58 54/58/60
f 53/57/61 60/64/54 54/58/60
f 62/66/62 58/62/56 59/63/55
f 63/67/63 62/66/62 59/63/55
f 61/65/64 63/67/63 59/63/55
f 65/69/65 64/68/66 28/71/29
f 28/71/29 1/70/28 65/69/65
f 65/69/65 70/76/67 69/75/68
f 71/77/69 65/69/65 69/75/68
f 69/75/68 68/74/70 67/73/71
f 71/77/69 69/75/68 67/73/71
f 66/72/72 71/77/69 67/73/71
f 75/81/73 74/80/74 73/79/75
f 73/79/75 72/78/76 64/68/66
f 75/81/73 73/79/75 64/68/66
f 71/77/69 75/81/73 64/68/66
f 71/77/69 64/68/66 65/69/65
f 1/70/28 76/82/41 70/76/67
f 70/76/67 65/69/65 1/70/28
