# 3ds Max Wavefront OBJ Exporter v0.94b - (c)2007 guruware
# File Created: 01.07.2009 10:37:12

#
# object _null_
#

v  -2.2956 -0.2733 0.7308
v  -2.4174 0.0000 0.6410
v  -2.4116 -0.2747 0.6411
v  -2.3790 -0.4723 0.6415
v  -2.2782 -0.4701 0.7307
v  -2.2895 -0.3555 0.7314
v  -2.3225 -0.5928 0.6413
v  -2.2478 -0.5860 0.7278
v  -2.2676 -0.6532 0.6399
v  -2.2070 -0.6360 0.7164
v  -2.1934 -0.6993 0.6273
v  -2.1481 -0.6752 0.6932
v  -2.1458 -0.7220 0.6172
v  -2.0158 -0.6939 0.7061
v  -2.0688 -0.7364 0.5932
v  -2.0000 -0.7222 0.6466
v  -1.8684 -0.7332 0.5823
v  -2.1719 -0.5794 0.8066
v  -2.1775 -0.4684 0.8123
v  -2.1451 -0.6195 0.7854
v  -2.1013 -0.6518 0.7519
v  -2.0631 0.0000 0.8866
v  -2.0802 0.0000 0.8764
v  -2.0781 -0.2716 0.8734
v  -2.0584 -0.5713 0.8674
v  -2.0619 -0.4671 0.8777
v  -2.0405 -0.6111 0.8392
v  -2.0110 -0.6396 0.8023
v  -1.8864 -0.6687 0.7459
v  -1.8830 -0.6988 0.6953
v  -1.9506 -0.2710 0.9275
v  -1.9507 0.0000 0.9327
v  -2.0627 -0.2715 0.8825
v  -1.9500 -0.4663 0.9202
v  -1.9484 -0.5637 0.9055
v  -1.9391 -0.6031 0.8703
v  -1.8716 -0.6206 0.8296
v  -1.8432 -0.2708 0.9424
v  -1.8432 0.0000 0.9488
v  -1.8428 -0.4658 0.9328
v  -1.8431 -0.5567 0.9137
v  -1.8422 -0.5956 0.8720
v  -1.6523 -0.2658 0.9413
v  -1.6525 0.0000 0.9475
v  -1.6516 -0.4609 0.9319
v  -1.6511 -0.5518 0.9133
v  -1.1547 0.0000 0.8996
v  -1.1697 -0.2619 0.8993
v  -1.2053 -0.4590 0.8944
v  -1.2225 -0.5510 0.8784
v  -1.3703 -0.5798 0.8626
v  -1.2207 -0.5860 0.8392
v  -1.6490 -0.5906 0.8727
v  -1.8419 -0.6045 0.8538
v  -2.1165 -0.3787 0.8496
v  -2.0786 -0.3424 0.8720
v  -2.2942 -0.3337 0.7288
v  -2.2655 -0.3791 0.7484
v  -2.2799 -0.3702 0.7379
v  -2.0993 -0.3738 0.8595
v  -2.0860 -0.3610 0.8674
v  -2.2974 0.0000 0.7333
v  -2.1787 -0.3793 0.8138
v  -1.5054 0.0000 0.9334
v  -2.2956 0.2733 0.7308
v  -2.4116 0.2747 0.6411
v  -2.2782 0.4702 0.7307
v  -2.3790 0.4723 0.6415
v  -2.2895 0.3555 0.7314
v  -2.2478 0.5860 0.7278
v  -2.3225 0.5928 0.6413
v  -2.2070 0.6360 0.7164
v  -2.2675 0.6532 0.6399
v  -2.1481 0.6752 0.6932
v  -2.1934 0.6993 0.6273
v  -2.0158 0.6939 0.7061
v  -2.1458 0.7220 0.6172
v  -2.0000 0.7222 0.6466
v  -2.0688 0.7364 0.5932
v  -1.8684 0.7332 0.5823
v  -2.1719 0.5794 0.8066
v  -2.1775 0.4684 0.8123
v  -2.1451 0.6195 0.7854
v  -2.1012 0.6518 0.7519
v  -2.0781 0.2716 0.8734
v  -2.0584 0.5713 0.8674
v  -2.0619 0.4671 0.8777
v  -2.0405 0.6111 0.8392
v  -2.0110 0.6396 0.8023
v  -1.8863 0.6687 0.7459
v  -1.8830 0.6988 0.6953
v  -1.9506 0.2710 0.9275
v  -2.0627 0.2715 0.8825
v  -1.9500 0.4663 0.9202
v  -1.9484 0.5637 0.9055
v  -1.9391 0.6031 0.8703
v  -1.8716 0.6206 0.8296
v  -1.8432 0.2708 0.9424
v  -1.8428 0.4658 0.9328
v  -1.8431 0.5567 0.9137
v  -1.8422 0.5956 0.8720
v  -1.6523 0.2658 0.9413
v  -1.6515 0.4609 0.9319
v  -1.6511 0.5518 0.9133
v  -1.1697 0.2619 0.8993
v  -1.2053 0.4590 0.8944
v  -1.2225 0.5510 0.8784
v  -1.3703 0.5798 0.8626
v  -1.2207 0.5860 0.8392
v  -1.6490 0.5906 0.8727
v  -1.8419 0.6045 0.8538
v  -2.1165 0.3787 0.8496
v  -2.0786 0.3424 0.8720
v  -2.2942 0.3337 0.7288
v  -2.2655 0.3791 0.7484
v  -2.2799 0.3702 0.7379
v  -2.0993 0.3738 0.8595
v  -2.0860 0.3610 0.8674
v  -2.1787 0.3793 0.8138
# 119 vertices

vn -0.6111 -0.0261 0.7911
vn -0.6102 0.0000 0.7923
vn -0.6219 -0.0416 0.7820
vn -0.6681 -0.1723 0.7238
vn -0.6460 -0.1210 0.7537
vn -0.6205 -0.0600 0.7819
vn -0.6620 -0.4282 0.6152
vn -0.6387 -0.4212 0.6439
vn -0.5069 -0.6529 0.5627
vn -0.4513 -0.7040 0.5483
vn -0.3058 -0.7873 0.5354
vn -0.2532 -0.8333 0.4914
vn -0.1911 -0.8262 0.5299
vn -0.0725 -0.8814 0.4667
vn -0.0450 -0.9497 0.3099
vn -0.0070 -0.9423 0.3347
vn 0.0551 -0.9595 0.2763
vn -0.5294 -0.3752 0.7609
vn -0.5554 -0.0549 0.8297
vn -0.3480 -0.7271 0.5918
vn -0.2064 -0.8387 0.5039
vn -0.4460 -0.0000 0.8951
vn -0.5121 -0.0000 0.8589
vn -0.5063 -0.0139 0.8622
vn -0.3497 -0.3815 0.8557
vn -0.4186 -0.0691 0.9056
vn -0.2083 -0.7376 0.6423
vn -0.0849 -0.8568 0.5087
vn 0.0166 -0.8655 0.5006
vn 0.0312 -0.9084 0.4170
vn -0.2555 -0.0290 0.9664
vn -0.2644 -0.0000 0.9644
vn -0.4376 -0.0189 0.8990
vn -0.2310 -0.0972 0.9681
vn -0.1583 -0.4246 0.8914
vn -0.0344 -0.7795 0.6254
vn 0.0478 -0.8745 0.4827
vn -0.0663 -0.0355 0.9972
vn -0.0707 -0.0000 0.9975
vn -0.0557 -0.1254 0.9905
vn -0.0203 -0.4786 0.8778
vn 0.0269 -0.8182 0.5743
vn 0.0484 -0.0341 0.9982
vn 0.0513 -0.0000 0.9987
vn 0.0465 -0.1232 0.9913
vn 0.0440 -0.4781 0.8772
vn 0.0896 -0.0000 0.9960
vn 0.0859 -0.0226 0.9961
vn 0.0827 -0.1058 0.9909
vn 0.0797 -0.4784 0.8745
vn 0.0549 -0.6803 0.7308
vn 0.0738 -0.7421 0.6662
vn 0.0382 -0.7283 0.6842
vn 0.0484 -0.8909 0.4517
vn -0.4948 -0.0259 0.8686
vn -0.4800 -0.0229 0.8770
vn -0.6111 -0.0402 0.7905
vn -0.6162 -0.0576 0.7854
vn -0.6260 -0.0671 0.7769
vn -0.4916 -0.0270 0.8704
vn -0.4867 -0.0251 0.8732
vn -0.6094 -0.0000 0.7929
vn -0.5510 -0.0210 0.8342
vn 0.0957 -0.0000 0.9954
vn -0.6111 0.0261 0.7911
vn -0.6219 0.0416 0.7820
vn -0.6460 0.1210 0.7537
vn -0.6681 0.1723 0.7238
vn -0.6205 0.0600 0.7819
vn -0.6387 0.4213 0.6439
vn -0.6620 0.4282 0.6152
vn -0.4513 0.7041 0.5483
vn -0.5069 0.6530 0.5627
vn -0.2532 0.8333 0.4914
vn -0.3058 0.7873 0.5354
vn -0.0725 0.8814 0.4667
vn -0.1911 0.8262 0.5299
vn -0.0071 0.9423 0.3347
vn -0.0450 0.9497 0.3099
vn 0.0551 0.9595 0.2763
vn -0.5294 0.3752 0.7609
vn -0.5554 0.0549 0.8297
vn -0.3480 0.7271 0.5918
vn -0.2064 0.8387 0.5039
vn -0.5063 0.0139 0.8622
vn -0.3497 0.3815 0.8557
vn -0.4186 0.0691 0.9056
vn -0.2083 0.7376 0.6423
vn -0.0849 0.8568 0.5087
vn 0.0166 0.8655 0.5006
vn 0.0312 0.9084 0.4170
vn -0.2555 0.0290 0.9664
vn -0.4376 0.0189 0.8990
vn -0.2310 0.0972 0.9681
vn -0.1583 0.4246 0.8914
vn -0.0344 0.7795 0.6254
vn 0.0478 0.8745 0.4827
vn -0.0663 0.0355 0.9972
vn -0.0557 0.1254 0.9905
vn -0.0203 0.4786 0.8778
vn 0.0269 0.8182 0.5743
vn 0.0484 0.0341 0.9982
vn 0.0465 0.1232 0.9913
vn 0.0440 0.4781 0.8772
vn 0.0859 0.0226 0.9961
vn 0.0827 0.1058 0.9909
vn 0.0797 0.4783 0.8746
vn 0.0550 0.6804 0.7308
vn 0.0738 0.7420 0.6663
vn 0.0382 0.7283 0.6842
vn 0.0484 0.8909 0.4517
vn -0.4947 0.0258 0.8687
vn -0.4800 0.0229 0.8770
vn -0.6111 0.0402 0.7905
vn -0.6163 0.0575 0.7854
vn -0.6260 0.0671 0.7769
vn -0.4916 0.0270 0.8704
vn -0.4868 0.0251 0.8731
vn -0.5510 0.0210 0.8342
# 119 vertex normals

g _null_
f -119//-119 -118//-118 -117//-117 
f -117//-117 -116//-116 -115//-115 
f -115//-115 -114//-114 -117//-117 
f -116//-116 -113//-113 -112//-112 
f -112//-112 -115//-115 -116//-116 
f -113//-113 -111//-111 -110//-110 
f -110//-110 -112//-112 -113//-113 
f -111//-111 -109//-109 -108//-108 
f -108//-108 -110//-110 -111//-111 
f -109//-109 -107//-107 -106//-106 
f -106//-106 -108//-108 -109//-109 
f -107//-107 -105//-105 -104//-104 
f -104//-104 -106//-106 -107//-107 
f -103//-103 -104//-104 -105//-105 
f -115//-115 -112//-112 -102//-102 
f -102//-102 -101//-101 -115//-115 
f -112//-112 -110//-110 -100//-100 
f -100//-100 -102//-102 -112//-112 
f -110//-110 -108//-108 -99//-99 
f -99//-99 -100//-100 -110//-110 
f -106//-106 -99//-99 -108//-108 
f -98//-98 -97//-97 -96//-96 
f -101//-101 -102//-102 -95//-95 
f -95//-95 -94//-94 -101//-101 
f -102//-102 -100//-100 -93//-93 
f -93//-93 -95//-95 -102//-102 
f -100//-100 -99//-99 -92//-92 
f -92//-92 -93//-93 -100//-100 
f -99//-99 -106//-106 -92//-92 
f -91//-91 -92//-92 -106//-106 
f -106//-106 -104//-104 -90//-90 
f -90//-90 -91//-91 -106//-106 
f -103//-103 -90//-90 -104//-104 
f -89//-89 -88//-88 -98//-98 
f -87//-87 -94//-94 -86//-86 
f -86//-86 -89//-89 -87//-87 
f -94//-94 -95//-95 -85//-85 
f -85//-85 -86//-86 -94//-94 
f -95//-95 -93//-93 -84//-84 
f -84//-84 -85//-85 -95//-95 
f -93//-93 -92//-92 -84//-84 
f -83//-83 -84//-84 -92//-92 
f -91//-91 -83//-83 -92//-92 
f -82//-82 -81//-81 -88//-88 
f -89//-89 -86//-86 -80//-80 
f -80//-80 -82//-82 -89//-89 
f -86//-86 -85//-85 -79//-79 
f -79//-79 -80//-80 -86//-86 
f -85//-85 -84//-84 -78//-78 
f -78//-78 -79//-79 -85//-85 
f -77//-77 -76//-76 -81//-81 
f -75//-75 -77//-77 -82//-82 
f -82//-82 -80//-80 -75//-75 
f -74//-74 -75//-75 -80//-80 
f -80//-80 -79//-79 -74//-74 
f -73//-73 -77//-77 -72//-72 
f -72//-72 -75//-75 -71//-71 
f -75//-75 -72//-72 -77//-77 
f -71//-71 -74//-74 -70//-70 
f -74//-74 -71//-71 -75//-75 
f -69//-69 -68//-68 -70//-70 
f -70//-70 -67//-67 -69//-69 
f -67//-67 -70//-70 -74//-74 
f -67//-67 -74//-74 -79//-79 
f -79//-79 -78//-78 -67//-67 
f -78//-78 -66//-66 -67//-67 
f -66//-66 -78//-78 -84//-84 
f -83//-83 -66//-66 -84//-84 
f -65//-65 -101//-101 -94//-94 
f -87//-87 -96//-96 -64//-64 
f -114//-114 -63//-63 -117//-117 
f -62//-62 -61//-61 -115//-115 
f -60//-60 -65//-65 -94//-94 
f -64//-64 -59//-59 -94//-94 
f -62//-62 -115//-115 -101//-101 
f -64//-64 -94//-94 -87//-87 
f -59//-59 -60//-60 -94//-94 
f -118//-118 -119//-119 -58//-58 
f -119//-119 -117//-117 -63//-63 
f -114//-114 -115//-115 -61//-61 
f -101//-101 -57//-57 -62//-62 
f -57//-57 -101//-101 -65//-65 
f -98//-98 -87//-87 -89//-89 
f -88//-88 -89//-89 -82//-82 
f -81//-81 -82//-82 -77//-77 
f -77//-77 -56//-56 -76//-76 
f -77//-77 -73//-73 -56//-56 
f -96//-96 -87//-87 -98//-98 
f -55//-55 -54//-54 -118//-118 
f -54//-54 -53//-53 -52//-52 
f -53//-53 -54//-54 -51//-51 
f -52//-52 -50//-50 -49//-49 
f -50//-50 -52//-52 -53//-53 
f -49//-49 -48//-48 -47//-47 
f -48//-48 -49//-49 -50//-50 
f -47//-47 -46//-46 -45//-45 
f -46//-46 -47//-47 -48//-48 
f -45//-45 -44//-44 -43//-43 
f -44//-44 -45//-45 -46//-46 
f -43//-43 -42//-42 -41//-41 
f -42//-42 -43//-43 -44//-44 
f -40//-40 -41//-41 -42//-42 
f -53//-53 -39//-39 -50//-50 
f -39//-39 -53//-53 -38//-38 
f -50//-50 -37//-37 -48//-48 
f -37//-37 -50//-50 -39//-39 
f -48//-48 -36//-36 -46//-46 
f -36//-36 -48//-48 -37//-37 
f -44//-44 -46//-46 -36//-36 
f -98//-98 -35//-35 -97//-97 
f -38//-38 -34//-34 -39//-39 
f -34//-34 -38//-38 -33//-33 
f -39//-39 -32//-32 -37//-37 
f -32//-32 -39//-39 -34//-34 
f -37//-37 -31//-31 -36//-36 
f -31//-31 -37//-37 -32//-32 
f -36//-36 -31//-31 -44//-44 
f -30//-30 -44//-44 -31//-31 
f -44//-44 -29//-29 -42//-42 
f -29//-29 -44//-44 -30//-30 
f -40//-40 -42//-42 -29//-29 
f -28//-28 -98//-98 -88//-88 
f -27//-27 -26//-26 -33//-33 
f -26//-26 -27//-27 -28//-28 
f -33//-33 -25//-25 -34//-34 
f -25//-25 -33//-33 -26//-26 
f -34//-34 -24//-24 -32//-32 
f -24//-24 -34//-34 -25//-25 
f -32//-32 -24//-24 -31//-31 
f -23//-23 -31//-31 -24//-24 
f -30//-30 -31//-31 -23//-23 
f -22//-22 -88//-88 -81//-81 
f -28//-28 -21//-21 -26//-26 
f -21//-21 -28//-28 -22//-22 
f -26//-26 -20//-20 -25//-25 
f -20//-20 -26//-26 -21//-21 
f -25//-25 -19//-19 -24//-24 
f -19//-19 -25//-25 -20//-20 
f -18//-18 -81//-81 -76//-76 
f -17//-17 -22//-22 -18//-18 
f -22//-22 -17//-17 -21//-21 
f -16//-16 -21//-21 -17//-17 
f -21//-21 -16//-16 -20//-20 
f -73//-73 -15//-15 -18//-18 
f -15//-15 -14//-14 -17//-17 
f -17//-17 -18//-18 -15//-15 
f -14//-14 -13//-13 -16//-16 
f -16//-16 -17//-17 -14//-14 
f -12//-12 -13//-13 -11//-11 
f -13//-13 -12//-12 -10//-10 
f -10//-10 -16//-16 -13//-13 
f -10//-10 -20//-20 -16//-16 
f -20//-20 -10//-10 -19//-19 
f -19//-19 -10//-10 -9//-9 
f -9//-9 -24//-24 -19//-19 
f -23//-23 -24//-24 -9//-9 
f -8//-8 -33//-33 -38//-38 
f -27//-27 -7//-7 -35//-35 
f -51//-51 -54//-54 -6//-6 
f -5//-5 -53//-53 -4//-4 
f -3//-3 -33//-33 -8//-8 
f -7//-7 -33//-33 -2//-2 
f -5//-5 -38//-38 -53//-53 
f -7//-7 -27//-27 -33//-33 
f -2//-2 -33//-33 -3//-3 
f -118//-118 -58//-58 -55//-55 
f -55//-55 -6//-6 -54//-54 
f -51//-51 -4//-4 -53//-53 
f -38//-38 -5//-5 -1//-1 
f -1//-1 -8//-8 -38//-38 
f -98//-98 -28//-28 -27//-27 
f -88//-88 -22//-22 -28//-28 
f -81//-81 -18//-18 -22//-22 
f -18//-18 -76//-76 -56//-56 
f -18//-18 -56//-56 -73//-73 
f -35//-35 -98//-98 -27//-27 
# 176 faces

