mtllib ./windows_convertible.mtl
g
v -0.648129 -2.44467e-007 0.565277
v -1.06541 -0.252986 0.833787
v -1.1123 -0.482787 0.828151
v -1.14776 -0.583405 0.813518
v -0.89004 -0.23768 0.717286
v -0.961246 -0.524936 0.701819
v -1.02715 -0.639096 0.683015
v -0.666929 -0.215991 0.557325
v -0.768313 -0.575592 0.530452
v -0.872593 -0.695454 0.517971
v -1.16743 -0.468631 0.867429
v -1.12914 -0.258455 0.87381
v -1.17859 -0.516774 0.858744
v -1.1776 -0.541579 0.849427
v -1.16309 -0.576734 0.826824
v -0.873297 -2.05098e-007 0.722049
v -1.11226 -1.67365e-007 0.87351
v -1.05037 -1.78187e-007 0.835407
v -1.06541 0.252986 0.833787
v -1.12914 0.258455 0.87381
v -1.1123 0.482786 0.828151
v -1.16743 0.46863 0.867429
v -1.14776 0.583405 0.813518
v -1.16309 0.576733 0.826824
v -0.89004 0.237679 0.717286
v -0.961246 0.524936 0.701819
v -1.02715 0.639096 0.683015
v -0.768312 0.575591 0.530452
v -0.666929 0.21599 0.557325
v -0.872592 0.695453 0.517971
v -1.17859 0.516773 0.858744
v -1.1776 0.541579 0.849427
v -0.648129 -2.44467e-007 0.565277
v -1.06541 -0.252986 0.833787
v -1.1123 -0.482787 0.828151
v -1.14776 -0.583405 0.813518
v -0.89004 -0.23768 0.717286
v -0.961246 -0.524936 0.701819
v -1.02715 -0.639096 0.683015
v -0.666929 -0.215991 0.557325
v -0.768313 -0.575592 0.530452
v -0.872593 -0.695454 0.517971
v -1.16743 -0.468631 0.867429
v -1.12914 -0.258455 0.87381
v -1.17859 -0.516774 0.858744
v -1.1776 -0.541579 0.849427
v -1.16309 -0.576734 0.826824
v -0.873297 -2.05098e-007 0.722049
v -1.11226 -1.67365e-007 0.87351
v -1.05037 -1.78187e-007 0.835407
v -1.06541 0.252986 0.833787
v -1.12914 0.258455 0.87381
v -1.1123 0.482786 0.828151
v -1.16743 0.46863 0.867429
v -1.14776 0.583405 0.813518
v -1.16309 0.576733 0.826824
v -0.89004 0.237679 0.717286
v -0.961246 0.524936 0.701819
v -1.02715 0.639096 0.683015
v -0.768312 0.575591 0.530452
v -0.666929 0.21599 0.557325
v -0.872592 0.695453 0.517971
v -1.17859 0.516773 0.858744
v -1.1776 0.541579 0.849427

vn 0.526137 0.8504 0.0
vn 0.551962 0.827564 0.102349
vn 0.536164 0.844114 0.0
vn 0.536712 0.838435 0.0946963
vn 0.562707 0.787058 0.252786
vn 0.538738 0.812702 0.221984
vn 0.578465 0.74585 0.330282
vn 0.556821 0.776483 0.294997
vn 0.573765 0.80748 0.137004
vn 0.560648 0.828054 0.0
vn 0.567814 0.749425 0.340513
vn 0.549766 0.704006 0.449593
vn 0.556646 0.743536 0.370539
vn 0.579538 0.801104 0.149559
vn 0.505859 0.686377 0.522487
vn 0.557415 0.776087 0.294919
vn 0.557072 0.776329 0.294932
vn 0.571394 0.820676 0.0
vn 0.551963 0.827564 -0.102349
vn 0.562708 0.787057 -0.252786
vn 0.536712 0.838434 -0.0946962
vn 0.538739 0.812701 -0.221985
vn 0.578463 0.745851 -0.330283
vn 0.556814 0.776487 -0.295002
vn 0.573765 0.80748 -0.137004
vn 0.567814 0.749425 -0.340513
vn 0.549766 0.704005 -0.449593
vn 0.556647 0.743536 -0.370539
vn 0.579538 0.801104 -0.149559
vn 0.505859 0.686377 -0.522487
vn 0.557408 0.776091 -0.294921
vn 0.557073 0.776327 -0.294934
vn -0.551962 -0.827564 -0.102349
vn -0.526137 -0.8504 0.0
vn -0.536164 -0.844114 0.0
vn -0.562707 -0.787058 -0.252786
vn -0.536712 -0.838435 -0.0946963
vn -0.538738 -0.812702 -0.221984
vn -0.578465 -0.74585 -0.330282
vn -0.556821 -0.776483 -0.294997
vn -0.573765 -0.80748 -0.137004
vn -0.560648 -0.828054 0.0
vn -0.567814 -0.749425 -0.340513
vn -0.549766 -0.704006 -0.449593
vn -0.556647 -0.743536 -0.370539
vn -0.579538 -0.801104 -0.149559
vn -0.505859 -0.686377 -0.522487
vn -0.557415 -0.776087 -0.294919
vn -0.557072 -0.776329 -0.294932
vn -0.571394 -0.820676 0.0
vn -0.551963 -0.827564 0.102349
vn -0.536712 -0.838434 0.0946962
vn -0.562708 -0.787057 0.252786
vn -0.538739 -0.812701 0.221985
vn -0.578463 -0.745851 0.330284
vn -0.556814 -0.776487 0.295002
vn -0.573765 -0.80748 0.137004
vn -0.567814 -0.749425 0.340513
vn -0.549766 -0.704005 0.449593
vn -0.556646 -0.743536 0.370539
vn -0.579538 -0.801104 0.149559
vn -0.505859 -0.686377 0.522487
vn -0.557408 -0.776091 0.294921
vn -0.557073 -0.776327 0.294934

g
g window_front
usemtl window_front
f 17//1 2//2 18//3
f 12//4 3//5 2//2
f 3//5 12//4 11//6
f 11//6 4//7 3//5
f 4//7 11//6 15//8
f 18//3 5//9 16//10
f 2//2 6//11 5//9
f 6//11 2//2 3//5
f 3//5 7//12 6//11
f 7//12 3//5 4//7
f 5//9 9//13 8//14
f 9//13 5//9 6//11
f 6//11 10//15 9//13
f 10//15 6//11 7//12
f 11//6 13//16 14//17
f 11//6 14//17 15//8
f 2//2 17//1 12//4
f 5//9 18//3 2//2
f 16//10 8//14 1//18
f 8//14 16//10 5//9
f 19//19 17//1 18//3
f 21//20 20//21 19//19
f 20//21 21//20 22//22
f 23//23 22//22 21//20
f 22//22 23//23 24//24
f 25//25 18//3 16//10
f 26//26 19//19 25//25
f 19//19 26//26 21//20
f 27//27 21//20 26//26
f 21//20 27//27 23//23
f 28//28 25//25 29//29
f 25//25 28//28 26//26
f 30//30 26//26 28//28
f 26//26 30//30 27//27
f 31//31 22//22 32//32
f 32//32 22//22 24//24
f 17//1 19//19 20//21
f 18//3 25//25 19//19
f 29//29 16//10 1//18
f 16//10 29//29 25//25
g window_back
usemtl window_back
f 34//33 49//34 50//35
f 35//36 44//37 34//33
f 44//37 35//36 43//38
f 36//39 43//38 35//36
f 43//38 36//39 47//40
f 37//41 50//35 48//42
f 38//43 34//33 37//41
f 34//33 38//43 35//36
f 39//44 35//36 38//43
f 35//36 39//44 36//39
f 41//45 37//41 40//46
f 37//41 41//45 38//43
f 42//47 38//43 41//45
f 38//43 42//47 39//44
f 45//48 43//38 46//49
f 46//49 43//38 47//40
f 49//34 34//33 44//37
f 50//35 37//41 34//33
f 40//46 48//42 33//50
f 48//42 40//46 37//41
f 49//34 51//51 50//35
f 52//52 53//53 51//51
f 53//53 52//52 54//54
f 54//54 55//55 53//53
f 55//55 54//54 56//56
f 50//35 57//57 48//42
f 51//51 58//58 57//57
f 58//58 51//51 53//53
f 53//53 59//59 58//58
f 59//59 53//53 55//55
f 57//57 60//60 61//61
f 60//60 57//57 58//58
f 58//58 62//62 60//60
f 62//62 58//58 59//59
f 54//54 63//63 64//64
f 54//54 64//64 56//56
f 51//51 49//34 52//52
f 57//57 50//35 51//51
f 48//42 61//61 33//50
f 61//61 48//42 57//57
