# Max2Obj Version 4.0 Mar 10th, 2001
#
mtllib ./tire.mtl
g
# object Object01 to come ...
#
v  -0.2040 0.0856 0.0008
v  -0.2576 0.0970 -0.0003
v  -0.2444 0.0970 0.0811
v  -0.1936 0.0856 0.0653
v  -0.2910 0.0830 -0.0000
v  -0.2761 0.0830 0.0919
v  -0.2910 -0.0842 0.0000
v  -0.2761 -0.0842 0.0919
v  -0.2576 -0.0978 -0.0003
v  -0.2444 -0.0978 0.0811
v  -0.2040 -0.0863 0.0008
v  -0.1936 -0.0863 0.0653
v  -0.2079 0.0970 0.1518
v  -0.1647 0.0856 0.1213
v  -0.2348 0.0830 0.1718
v  -0.2348 -0.0842 0.1718
v  -0.2079 -0.0978 0.1518
v  -0.1647 -0.0863 0.1213
v  -0.1521 0.0970 0.2076
v  -0.1204 0.0856 0.1656
v  -0.1718 0.0830 0.2348
v  -0.1718 -0.0842 0.2348
v  -0.1521 -0.0978 0.2076
v  -0.1204 -0.0863 0.1656
v  -0.0814 0.0970 0.2442
v  -0.0644 0.0856 0.1945
v  -0.0919 0.0830 0.2761
v  -0.0919 -0.0842 0.2761
v  -0.0814 -0.0978 0.2442
v  -0.0644 -0.0863 0.1945
v  -0.0000 0.0970 0.2573
v  0.0001 0.0856 0.2050
v  0.0000 0.0830 0.2910
v  0.0000 -0.0842 0.2910
v  -0.0000 -0.0978 0.2573
v  0.0001 -0.0863 0.2050
v  0.0813 -0.0978 0.2442
v  0.0919 -0.0842 0.2761
v  0.0646 -0.0863 0.1945
v  0.0646 0.0856 0.1945
v  0.0813 0.0970 0.2442
v  0.1520 0.0970 0.2076
v  0.1207 0.0856 0.1656
v  0.0919 0.0830 0.2761
v  0.1718 0.0830 0.2348
v  0.1718 -0.0842 0.2348
v  0.1520 -0.0978 0.2076
v  0.1207 -0.0863 0.1656
v  0.2078 0.0970 0.1518
v  0.1649 0.0856 0.1213
v  0.2348 0.0830 0.1718
v  0.2348 -0.0842 0.1718
v  0.2078 -0.0978 0.1518
v  0.1649 -0.0863 0.1213
v  0.2444 0.0970 0.0811
v  0.1939 0.0856 0.0653
v  0.2761 0.0830 0.0919
v  0.2761 -0.0842 0.0919
v  0.2444 -0.0978 0.0811
v  0.1939 -0.0863 0.0653
v  0.2575 0.0970 -0.0003
v  0.2043 0.0856 0.0008
v  0.2910 0.0830 -0.0000
v  0.2910 -0.0842 -0.0000
v  0.2575 -0.0978 -0.0003
v  0.2043 -0.0863 0.0008
v  0.2444 0.0970 -0.0816
v  0.1939 0.0856 -0.0637
v  0.2761 0.0830 -0.0919
v  0.2761 -0.0842 -0.0919
v  0.2444 -0.0978 -0.0816
v  0.1939 -0.0863 -0.0637
v  0.2078 0.0970 -0.1523
v  0.1649 0.0856 -0.1197
v  0.2348 0.0830 -0.1718
v  0.2348 -0.0842 -0.1718
v  0.2078 -0.0978 -0.1523
v  0.1649 -0.0863 -0.1197
v  0.1520 0.0970 -0.2081
v  0.1207 0.0856 -0.1640
v  0.1718 0.0830 -0.2348
v  0.1718 -0.0842 -0.2348
v  0.1520 -0.0978 -0.2081
v  0.1207 -0.0863 -0.1640
v  0.0813 0.0970 -0.2447
v  0.0646 0.0856 -0.1930
v  0.0919 0.0830 -0.2761
v  0.0919 -0.0842 -0.2761
v  0.0813 -0.0978 -0.2447
v  0.0646 -0.0863 -0.1930
v  -0.0000 0.0970 -0.2578
v  0.0001 0.0856 -0.2034
v  -0.0000 0.0830 -0.2910
v  -0.0000 -0.0842 -0.2910
v  -0.0000 -0.0978 -0.2578
v  0.0001 -0.0863 -0.2034
v  -0.0814 0.0970 -0.2447
v  -0.0644 0.0856 -0.1930
v  -0.0919 0.0830 -0.2761
v  -0.0919 -0.0842 -0.2761
v  -0.0814 -0.0978 -0.2447
v  -0.0644 -0.0863 -0.1930
v  -0.1521 0.0970 -0.2081
v  -0.1204 0.0856 -0.1640
v  -0.1718 0.0830 -0.2348
v  -0.1718 -0.0842 -0.2348
v  -0.1521 -0.0978 -0.2081
v  -0.1204 -0.0863 -0.1640
v  -0.2079 0.0970 -0.1523
v  -0.1647 0.0856 -0.1197
v  -0.2348 0.0830 -0.1718
v  -0.2348 -0.0842 -0.1718
v  -0.2079 -0.0978 -0.1523
v  -0.1647 -0.0863 -0.1197
v  -0.2444 0.0970 -0.0816
v  -0.1936 0.0856 -0.0637
v  -0.2761 0.0830 -0.0919
v  -0.2761 -0.0842 -0.0919
v  -0.2444 -0.0978 -0.0816
v  -0.1936 -0.0863 -0.0637
# 120 vertices

vt  0.7794 0.0588 0.7005
vt  0.7770 0.0005 0.8843
vt  0.9361 0.0005 0.8842
vt  0.9384 0.0588 0.7015
vt  0.7775 0.0722 0.9990
vt  0.9366 0.0722 0.9991
vt  0.7775 0.9296 0.9990
vt  0.9366 0.9296 0.9991
vt  0.7770 0.9995 0.8843
vt  0.9361 0.9995 0.8842
vt  0.7794 0.9402 0.7005
vt  0.9384 0.9402 0.7015
vt  1.0897 0.0005 0.8836
vt  1.0918 0.0588 0.7021
vt  1.0902 0.0722 0.9987
vt  1.0902 0.9296 0.9987
vt  1.0897 0.9995 0.8836
vt  1.0918 0.9402 0.7021
vt  1.2420 0.0005 0.8834
vt  1.2438 0.0588 0.7028
vt  1.2423 0.0722 0.9987
vt  1.2423 0.9296 0.9987
vt  1.2420 0.9995 0.8834
vt  1.2438 0.9402 0.7028
vt  1.3957 0.0005 0.8836
vt  1.3969 0.0588 0.7035
vt  1.3959 0.0722 0.9991
vt  1.3959 0.9296 0.9991
vt  1.3957 0.9995 0.8836
vt  1.3969 0.9402 0.7035
vt  1.5549 0.0005 0.8833
vt  1.5553 0.0588 0.7036
vt  1.5550 0.0722 0.9990
vt  1.5550 0.9296 0.9990
vt  1.5549 0.9995 0.8833
vt  1.5553 0.9402 0.7036
vt  1.7141 0.9995 0.8835
vt  1.7141 0.9296 0.9991
vt  1.7137 0.9402 0.7038
vt  1.7137 0.0588 0.7038
vt  1.7141 0.0005 0.8835
vt  1.8679 0.0005 0.8832
vt  1.8667 0.0588 0.7033
vt  1.7141 0.0722 0.9991
vt  1.8677 0.0722 0.9987
vt  1.8677 0.9296 0.9987
vt  1.8679 0.9995 0.8832
vt  1.8667 0.9402 0.7033
vt  2.0202 0.0005 0.8834
vt  2.0186 0.0588 0.7028
vt  2.0198 0.0722 0.9987
vt  2.0198 0.9296 0.9987
vt  2.0202 0.9995 0.8834
vt  2.0186 0.9402 0.7028
vt  2.1739 0.0005 0.8839
vt  2.1718 0.0588 0.7024
vt  2.1734 0.0722 0.9991
vt  2.1734 0.9296 0.9991
vt  2.1739 0.9995 0.8839
vt  2.1718 0.9402 0.7024
vt  2.3330 0.0005 0.8840
vt  2.3306 0.0588 0.7014
vt  2.3325 0.0722 0.9990
vt  2.3325 0.9296 0.9990
vt  2.3330 0.9995 0.8840
vt  2.3306 0.9402 0.7014
vt  2.4920 0.0005 0.8845
vt  2.4896 0.0588 0.7007
vt  2.4916 0.0722 0.9991
vt  2.4916 0.9296 0.9991
vt  2.4920 0.9995 0.8845
vt  2.4896 0.9402 0.7007
vt  2.6456 0.0005 0.8844
vt  2.6434 0.0588 0.6997
vt  2.6452 0.0722 0.9987
vt  2.6452 0.9296 0.9987
vt  2.6456 0.9995 0.8844
vt  2.6434 0.9402 0.6997
vt  2.7977 0.0005 0.8846
vt  2.7961 0.0588 0.6990
vt  2.7973 0.0722 0.9987
vt  2.7973 0.9296 0.9987
vt  2.7977 0.9995 0.8846
vt  2.7961 0.9402 0.6990
vt  2.9512 0.0005 0.8851
vt  2.9501 0.0588 0.6987
vt  2.9509 0.0722 0.9991
vt  2.9509 0.9296 0.9991
vt  2.9512 0.9995 0.8851
vt  2.9501 0.9402 0.6987
vt  0.0001 0.0005 0.8851
vt  -0.0003 0.0588 0.6983
vt  0.0000 0.0722 0.9990
vt  0.0000 0.9296 0.9990
vt  0.0001 0.9995 0.8851
vt  3.1097 0.9402 0.6983
vt  0.1590 0.0005 0.8852
vt  0.1593 0.0588 0.6984
vt  0.1591 0.0722 0.9991
vt  0.1591 0.9296 0.9991
vt  0.1590 0.9995 0.8852
vt  0.1593 0.9402 0.6984
vt  0.3124 0.0005 0.8848
vt  0.3135 0.0588 0.6985
vt  0.3127 0.0722 0.9987
vt  0.3127 0.9296 0.9987
vt  0.3124 0.9995 0.8848
vt  0.3135 0.9402 0.6985
vt  0.4645 0.0005 0.8846
vt  0.4663 0.0588 0.6990
vt  0.4648 0.0722 0.9987
vt  0.4648 0.9296 0.9987
vt  0.4645 0.9995 0.8846
vt  0.4663 0.9402 0.6990
vt  0.6180 0.0005 0.8847
vt  0.6202 0.0588 0.6998
vt  0.6184 0.0722 0.9991
vt  0.6184 0.9296 0.9991
vt  0.6180 0.9995 0.8847
vt  0.6202 0.9402 0.6998
vt  -0.1599 0.0588 0.6987
vt  -0.1588 0.0005 0.8851
vt  -0.0003 0.0588 0.6983
vt  -0.1599 0.0588 0.6987
vt  -0.1588 0.0005 0.8851
vt  -0.1591 0.0722 0.9991
vt  -0.1588 0.0005 0.8851
vt  -0.1591 0.0722 0.9991
vt  -0.1591 0.9296 0.9991
vt  -0.1591 0.0722 0.9991
vt  -0.1591 0.9296 0.9991
vt  -0.1588 0.9995 0.8851
vt  -0.1591 0.9296 0.9991
vt  -0.0003 0.9402 0.6983
vt  -0.1588 0.9995 0.8851
vt  -0.0003 0.0588 0.6983
vt  -0.0003 0.9402 0.6983
# 137 texture vertices

vn  0.2077 0.9782 -0.0005
vn  -0.2193 2.5841 0.0355
vn  -0.3665 2.9898 0.0593
vn  0.1983 0.9779 -0.0659
vn  -0.8483 0.5295 0.0002
vn  -0.8051 0.5301 0.2662
vn  -0.8461 -0.5330 0.0001
vn  -0.8031 -0.5335 0.2655
vn  -0.4816 -2.3358 0.0778
vn  -0.3476 -2.9953 0.0563
vn  0.2112 -0.9774 -0.0005
vn  0.2016 -0.9772 -0.0669
vn  -0.3238 2.9889 0.1676
vn  0.1695 0.9777 -0.1244
vn  -0.6838 0.5310 0.5004
vn  -0.6821 -0.5344 0.4992
vn  -0.3067 -2.9943 0.1589
vn  0.1723 -0.9769 -0.1265
vn  -0.2549 2.9839 0.2549
vn  0.1244 0.9774 -0.1707
vn  -0.5002 0.5313 0.6838
vn  -0.4989 -0.5347 0.6821
vn  -0.2415 -2.9892 0.2415
vn  0.1265 -0.9767 -0.1736
vn  -0.1657 2.9779 0.3199
vn  0.0661 0.9773 -0.2013
vn  -0.2659 0.5308 0.8047
vn  -0.2652 -0.5343 0.8027
vn  -0.1571 -2.9831 0.3032
vn  0.0672 -0.9765 -0.2046
vn  -0.0577 2.9699 0.3571
vn  -0.0001 0.9772 -0.2123
vn  0.0000 0.5307 0.8475
vn  0.0000 -0.5341 0.8454
vn  -0.0548 -2.9752 0.3385
vn  -0.0001 -0.9764 -0.2158
vn  0.0549 -2.9670 0.3392
vn  0.2652 -0.5343 0.8026
vn  -0.0675 -0.9764 -0.2050
vn  -0.0664 0.9772 -0.2016
vn  0.0936 2.5991 0.1806
vn  0.1655 2.9552 0.3197
vn  -0.1249 0.9773 -0.1713
vn  0.2659 0.5310 0.8046
vn  0.5001 0.5315 0.6837
vn  0.4989 -0.5349 0.6819
vn  0.1569 -2.9606 0.3028
vn  -0.1270 -0.9765 -0.1741
vn  0.2547 2.9480 0.2547
vn  -0.1703 0.9774 -0.1250
vn  0.6837 0.5313 0.5003
vn  0.6819 -0.5347 0.4990
vn  0.2414 -2.9533 0.2414
vn  -0.1732 -0.9767 -0.1270
vn  0.3235 2.9434 0.1675
vn  -0.1994 0.9777 -0.0662
vn  0.8049 0.5304 0.2661
vn  0.8029 -0.5338 0.2654
vn  0.3069 -2.9487 0.1590
vn  -0.2028 -0.9769 -0.0673
vn  0.3650 2.9403 0.0590
vn  -0.2090 0.9779 -0.0005
vn  0.8481 0.5299 0.0001
vn  0.8459 -0.5333 0.0001
vn  0.3465 -2.9456 0.0561
vn  -0.2124 -0.9772 -0.0005
vn  0.3690 2.9400 -0.0597
vn  -0.1974 0.9782 0.0646
vn  0.8054 0.5298 -0.2660
vn  0.8033 -0.5332 -0.2653
vn  0.3503 -2.9455 -0.0567
vn  -0.2007 -0.9774 0.0657
vn  0.3314 2.9433 -0.1716
vn  -0.1671 0.9784 0.1217
vn  0.6844 0.5301 -0.5006
vn  0.6827 -0.5335 -0.4993
vn  0.3145 -2.9488 -0.1629
vn  -0.1698 -0.9777 0.1237
vn  0.2645 2.9468 -0.2645
vn  -0.1217 0.9786 0.1659
vn  0.5009 0.5298 -0.6844
vn  0.4996 -0.5332 -0.6827
vn  0.2512 -2.9523 -0.2512
vn  -0.1237 -0.9779 0.1687
vn  0.1736 2.9530 -0.3353
vn  -0.0643 0.9788 0.1945
vn  0.2663 0.5290 -0.8058
vn  0.2657 -0.5324 -0.8037
vn  0.1651 -2.9584 -0.3187
vn  -0.0654 -0.9781 0.1978
vn  0.0608 2.9600 -0.3763
vn  -0.0001 0.9789 0.2045
vn  0.0000 0.5287 -0.8488
vn  0.0000 -0.5321 -0.8467
vn  0.0579 -2.9656 -0.3577
vn  -0.0001 -0.9781 0.2079
vn  -0.0610 2.9679 -0.3774
vn  0.0641 0.9789 0.1942
vn  -0.2663 0.5289 -0.8058
vn  -0.2656 -0.5323 -0.8038
vn  -0.0580 -2.9735 -0.3586
vn  0.0652 -0.9781 0.1975
vn  -0.1737 2.9764 -0.3356
vn  0.1211 0.9788 0.1654
vn  -0.5009 0.5296 -0.6846
vn  -0.4997 -0.5330 -0.6828
vn  -0.1650 -2.9820 -0.3186
vn  0.1232 -0.9780 0.1681
vn  -0.2649 2.9820 -0.2649
vn  0.1662 0.9786 0.1211
vn  -0.6845 0.5298 -0.5007
vn  -0.6828 -0.5332 -0.4994
vn  -0.2515 -2.9875 -0.2515
vn  0.1690 -0.9779 0.1232
vn  -0.3320 2.9870 -0.1719
vn  0.1963 0.9784 0.0643
vn  -0.8056 0.5294 -0.2661
vn  -0.8035 -0.5329 -0.2654
vn  -0.3153 -2.9925 -0.1633
vn  0.1996 -0.9777 0.0654
# 120 vertex normals

g Object01
usemtl tread_side
s 1
f 1/1/1 2/2/2 3/3/3
f 3/3/3 4/4/4 1/1/1
usemtl Tread
f 2/2/2 5/5/5 6/6/6
f 6/6/6 3/3/3 2/2/2
f 5/5/5 7/7/7 8/8/8
f 8/8/8 6/6/6 5/5/5
f 7/7/7 9/9/9 10/10/10
f 10/10/10 8/8/8 7/7/7
usemtl tread_side
f 9/9/9 11/11/11 12/12/12
f 12/12/12 10/10/10 9/9/9
f 4/4/4 3/3/3 13/13/13
f 13/13/13 14/14/14 4/4/4
usemtl Tread
f 3/3/3 6/6/6 15/15/15
f 15/15/15 13/13/13 3/3/3
f 6/6/6 8/8/8 16/16/16
f 16/16/16 15/15/15 6/6/6
f 8/8/8 10/10/10 17/17/17
f 17/17/17 16/16/16 8/8/8
usemtl tread_side
f 10/10/10 12/12/12 18/18/18
f 18/18/18 17/17/17 10/10/10
f 14/14/14 13/13/13 19/19/19
f 19/19/19 20/20/20 14/14/14
usemtl Tread
f 13/13/13 15/15/15 21/21/21
f 21/21/21 19/19/19 13/13/13
f 15/15/15 16/16/16 22/22/22
f 22/22/22 21/21/21 15/15/15
f 16/16/16 17/17/17 23/23/23
f 23/23/23 22/22/22 16/16/16
usemtl tread_side
f 17/17/17 18/18/18 24/24/24
f 24/24/24 23/23/23 17/17/17
f 20/20/20 19/19/19 25/25/25
f 25/25/25 26/26/26 20/20/20
usemtl Tread
f 19/19/19 21/21/21 27/27/27
f 27/27/27 25/25/25 19/19/19
f 21/21/21 22/22/22 28/28/28
f 28/28/28 27/27/27 21/21/21
f 22/22/22 23/23/23 29/29/29
f 29/29/29 28/28/28 22/22/22
usemtl tread_side
f 23/23/23 24/24/24 30/30/30
f 30/30/30 29/29/29 23/23/23
f 26/26/26 25/25/25 31/31/31
f 31/31/31 32/32/32 26/26/26
usemtl Tread
f 25/25/25 27/27/27 33/33/33
f 33/33/33 31/31/31 25/25/25
f 27/27/27 28/28/28 34/34/34
f 34/34/34 33/33/33 27/27/27
f 28/28/28 29/29/29 35/35/35
f 35/35/35 34/34/34 28/28/28
usemtl tread_side
f 29/29/29 30/30/30 36/36/36
f 36/36/36 35/35/35 29/29/29
usemtl Tread
f 34/34/34 35/35/35 37/37/37
f 37/37/37 38/38/38 34/34/34
usemtl tread_side
f 35/35/35 36/36/36 39/39/39
f 39/39/39 37/37/37 35/35/35
f 40/40/40 41/41/41 42/42/42
f 42/42/42 43/43/43 40/40/40
usemtl Tread
f 41/41/41 44/44/44 45/45/45
f 45/45/45 42/42/42 41/41/41
f 44/44/44 38/38/38 46/46/46
f 46/46/46 45/45/45 44/44/44
f 38/38/38 37/37/37 47/47/47
f 47/47/47 46/46/46 38/38/38
usemtl tread_side
f 37/37/37 39/39/39 48/48/48
f 48/48/48 47/47/47 37/37/37
f 43/43/43 42/42/42 49/49/49
f 49/49/49 50/50/50 43/43/43
usemtl Tread
f 42/42/42 45/45/45 51/51/51
f 51/51/51 49/49/49 42/42/42
f 45/45/45 46/46/46 52/52/52
f 52/52/52 51/51/51 45/45/45
f 46/46/46 47/47/47 53/53/53
f 53/53/53 52/52/52 46/46/46
usemtl tread_side
f 47/47/47 48/48/48 54/54/54
f 54/54/54 53/53/53 47/47/47
f 50/50/50 49/49/49 55/55/55
f 55/55/55 56/56/56 50/50/50
usemtl Tread
f 49/49/49 51/51/51 57/57/57
f 57/57/57 55/55/55 49/49/49
f 51/51/51 52/52/52 58/58/58
f 58/58/58 57/57/57 51/51/51
f 52/52/52 53/53/53 59/59/59
f 59/59/59 58/58/58 52/52/52
usemtl tread_side
f 53/53/53 54/54/54 60/60/60
f 60/60/60 59/59/59 53/53/53
f 56/56/56 55/55/55 61/61/61
f 61/61/61 62/62/62 56/56/56
usemtl Tread
f 55/55/55 57/57/57 63/63/63
f 63/63/63 61/61/61 55/55/55
f 57/57/57 58/58/58 64/64/64
f 64/64/64 63/63/63 57/57/57
f 58/58/58 59/59/59 65/65/65
f 65/65/65 64/64/64 58/58/58
usemtl tread_side
f 59/59/59 60/60/60 66/66/66
f 66/66/66 65/65/65 59/59/59
f 62/62/62 61/61/61 67/67/67
f 67/67/67 68/68/68 62/62/62
usemtl Tread
f 61/61/61 63/63/63 69/69/69
f 69/69/69 67/67/67 61/61/61
f 63/63/63 64/64/64 70/70/70
f 70/70/70 69/69/69 63/63/63
f 64/64/64 65/65/65 71/71/71
f 71/71/71 70/70/70 64/64/64
usemtl tread_side
f 65/65/65 66/66/66 72/72/72
f 72/72/72 71/71/71 65/65/65
f 68/68/68 67/67/67 73/73/73
f 73/73/73 74/74/74 68/68/68
usemtl Tread
f 67/67/67 69/69/69 75/75/75
f 75/75/75 73/73/73 67/67/67
f 69/69/69 70/70/70 76/76/76
f 76/76/76 75/75/75 69/69/69
f 70/70/70 71/71/71 77/77/77
f 77/77/77 76/76/76 70/70/70
usemtl tread_side
f 71/71/71 72/72/72 78/78/78
f 78/78/78 77/77/77 71/71/71
f 74/74/74 73/73/73 79/79/79
f 79/79/79 80/80/80 74/74/74
usemtl Tread
f 73/73/73 75/75/75 81/81/81
f 81/81/81 79/79/79 73/73/73
f 75/75/75 76/76/76 82/82/82
f 82/82/82 81/81/81 75/75/75
f 76/76/76 77/77/77 83/83/83
f 83/83/83 82/82/82 76/76/76
usemtl tread_side
f 77/77/77 78/78/78 84/84/84
f 84/84/84 83/83/83 77/77/77
f 80/80/80 79/79/79 85/85/85
f 85/85/85 86/86/86 80/80/80
usemtl Tread
f 79/79/79 81/81/81 87/87/87
f 87/87/87 85/85/85 79/79/79
f 81/81/81 82/82/82 88/88/88
f 88/88/88 87/87/87 81/81/81
f 82/82/82 83/83/83 89/89/89
f 89/89/89 88/88/88 82/82/82
usemtl tread_side
f 83/83/83 84/84/84 90/90/90
f 90/90/90 89/89/89 83/83/83
f 86/121/86 85/122/85 91/91/91
f 91/91/91 92/123/92 86/124/86
usemtl Tread
f 85/125/85 87/126/87 93/93/93
f 93/93/93 91/91/91 85/127/85
f 87/128/87 88/129/88 94/94/94
f 94/94/94 93/93/93 87/130/87
f 88/131/88 89/132/89 95/95/95
f 95/95/95 94/94/94 88/133/88
usemtl tread_side
f 89/89/89 90/90/90 96/96/96
f 96/134/96 95/95/95 89/135/89
f 92/136/92 91/91/91 97/97/97
f 97/97/97 98/98/98 92/92/92
usemtl Tread
f 91/91/91 93/93/93 99/99/99
f 99/99/99 97/97/97 91/91/91
f 93/93/93 94/94/94 100/100/100
f 100/100/100 99/99/99 93/93/93
f 94/94/94 95/95/95 101/101/101
f 101/101/101 100/100/100 94/94/94
usemtl tread_side
f 95/95/95 96/137/96 102/102/102
f 102/102/102 101/101/101 95/95/95
f 98/98/98 97/97/97 103/103/103
f 103/103/103 104/104/104 98/98/98
usemtl Tread
f 97/97/97 99/99/99 105/105/105
f 105/105/105 103/103/103 97/97/97
f 99/99/99 100/100/100 106/106/106
f 106/106/106 105/105/105 99/99/99
f 100/100/100 101/101/101 107/107/107
f 107/107/107 106/106/106 100/100/100
usemtl tread_side
f 101/101/101 102/102/102 108/108/108
f 108/108/108 107/107/107 101/101/101
f 104/104/104 103/103/103 109/109/109
f 109/109/109 110/110/110 104/104/104
usemtl Tread
f 103/103/103 105/105/105 111/111/111
f 111/111/111 109/109/109 103/103/103
f 105/105/105 106/106/106 112/112/112
f 112/112/112 111/111/111 105/105/105
f 106/106/106 107/107/107 113/113/113
f 113/113/113 112/112/112 106/106/106
usemtl tread_side
f 107/107/107 108/108/108 114/114/114
f 114/114/114 113/113/113 107/107/107
f 110/110/110 109/109/109 115/115/115
f 115/115/115 116/116/116 110/110/110
usemtl Tread
f 109/109/109 111/111/111 117/117/117
f 117/117/117 115/115/115 109/109/109
f 111/111/111 112/112/112 118/118/118
f 118/118/118 117/117/117 111/111/111
f 112/112/112 113/113/113 119/119/119
f 119/119/119 118/118/118 112/112/112
usemtl tread_side
f 113/113/113 114/114/114 120/120/120
f 120/120/120 119/119/119 113/113/113
f 116/116/116 115/115/115 2/2/2
f 2/2/2 1/1/1 116/116/116
usemtl Tread
f 115/115/115 117/117/117 5/5/5
f 5/5/5 2/2/2 115/115/115
f 117/117/117 118/118/118 7/7/7
f 7/7/7 5/5/5 117/117/117
f 118/118/118 119/119/119 9/9/9
f 9/9/9 7/7/7 118/118/118
usemtl tread_side
f 119/119/119 120/120/120 11/11/11
f 11/11/11 9/9/9 119/119/119
f 32/32/32 31/31/31 41/41/41
f 41/41/41 40/40/40 32/32/32
usemtl Tread
f 31/31/31 33/33/33 44/44/44
f 44/44/44 41/41/41 31/31/31
f 33/33/33 34/34/34 38/38/38
f 38/38/38 44/44/44 33/33/33
# 200 faces

g
