# 3ds Max Wavefront OBJ Exporter v0.94b - (c)2007 guruware
# File Created: 06.02.2009 09:40:50

mtllib brakes_on.mtl

#
# object brakes_on
#

v  -3.3684 -0.6765 0.7863
v  -3.3422 -0.7449 0.7857
v  -3.3286 -0.7077 1.0819
v  -3.3543 -0.6493 1.0916
v  -3.3642 -0.6824 0.4456
v  -3.3525 -0.7119 0.4456
v  -3.3350 -0.7480 0.4547
v  -3.3209 -0.7615 0.4699
v  -3.3050 -0.7711 0.4877
v  -3.2988 -0.7718 0.7853
v  -3.2882 -0.7515 0.9616
v  -3.2924 -0.7442 1.0029
v  -3.3001 -0.7349 1.0408
v  -3.2841 -0.7692 0.8415
v  -3.2841 -0.7769 0.7846
v  -3.2818 -0.7792 0.6031
v  -3.2817 -0.7786 0.6809
v  -3.2829 -0.7793 0.5483
v  -3.2877 -0.7780 0.5106
v  -3.3684 0.6765 0.7863
v  -3.3543 0.6493 1.0916
v  -3.3286 0.7077 1.0819
v  -3.3422 0.7449 0.7857
v  -3.3350 0.7480 0.4547
v  -3.3525 0.7119 0.4456
v  -3.3642 0.6824 0.4456
v  -3.2988 0.7718 0.7853
v  -3.3050 0.7711 0.4877
v  -3.3209 0.7615 0.4699
v  -3.2841 0.7692 0.8415
v  -3.2841 0.7769 0.7846
v  -3.3001 0.7349 1.0408
v  -3.2924 0.7442 1.0029
v  -3.2882 0.7515 0.9616
v  -3.2817 0.7786 0.6809
v  -3.2818 0.7792 0.6031
v  -3.2829 0.7793 0.5483
v  -3.2877 0.7780 0.5106
# 38 vertices

vn -0.9312 -0.3621 0.0421
vn -0.7680 -0.6381 0.0550
vn -0.8408 -0.5328 0.0959
vn -0.9073 -0.4131 0.0786
vn -0.9301 -0.3672 -0.0071
vn -0.9168 -0.3991 -0.0108
vn -0.8379 -0.5456 -0.0129
vn -0.6426 -0.7662 -0.0030
vn -0.4908 -0.8712 0.0096
vn -0.4259 -0.9023 0.0664
vn -0.4686 -0.8761 0.1130
vn -0.5335 -0.8404 0.0957
vn -0.5682 -0.8132 0.1260
vn -0.3416 -0.9306 0.1319
vn -0.3244 -0.9439 0.0627
vn -0.3610 -0.9325 0.0072
vn -0.3096 -0.9508 0.0080
vn -0.3702 -0.9289 0.0096
vn -0.3891 -0.9210 0.0176
vn -0.9312 0.3621 0.0421
vn -0.9073 0.4131 0.0786
vn -0.8408 0.5328 0.0959
vn -0.7680 0.6381 0.0550
vn -0.8379 0.5456 -0.0129
vn -0.9168 0.3991 -0.0108
vn -0.9301 0.3672 -0.0071
vn -0.4259 0.9023 0.0664
vn -0.4908 0.8712 0.0096
vn -0.6426 0.7662 -0.0030
vn -0.3416 0.9306 0.1319
vn -0.3244 0.9439 0.0627
vn -0.5682 0.8132 0.1260
vn -0.5335 0.8404 0.0957
vn -0.4686 0.8761 0.1130
vn -0.3096 0.9508 0.0080
vn -0.3610 0.9325 0.0072
vn -0.3702 0.9289 0.0096
vn -0.3891 0.9210 0.0176
# 38 vertex normals

vt 0.0199 0.5305 0.0000
vt 0.5068 0.5238 0.0000
vt 0.4434 0.9750 0.0000
vt 0.0107 0.9944 0.0000
vt 0.0165 0.0157 0.0000
vt 0.2282 0.0133 0.0000
vt 0.5070 0.0241 0.0000
vt 0.6544 0.0462 0.0000
vt 0.7925 0.0726 0.0000
vt 0.8790 0.5221 0.0000
vt 0.8642 0.7905 0.0000
vt 0.8112 0.8534 0.0000
vt 0.7287 0.9111 0.0000
vt 0.9552 0.6075 0.0000
vt 0.9846 0.5209 0.0000
vt 0.9787 0.2467 0.0000
vt 0.9892 0.3643 0.0000
vt 0.9640 0.1640 0.0000
vt 0.9248 0.1071 0.0000
# 19 texture coords

g brakes_on
usemtl brakes_on
s 4194304
f -38/-19/-38 -37/-18/-37 -36/-17/-36 
f -36/-17/-36 -35/-16/-35 -38/-19/-38 
f -37/-18/-37 -38/-19/-38 -34/-15/-34 
f -37/-18/-37 -34/-15/-34 -33/-14/-33 
f -37/-18/-37 -33/-14/-33 -32/-13/-32 
f -37/-18/-37 -32/-13/-32 -31/-12/-31 
f -31/-12/-31 -30/-11/-30 -29/-10/-29 
f -37/-18/-37 -31/-12/-31 -29/-10/-29 
f -28/-9/-28 -27/-8/-27 -26/-7/-26 
f -25/-6/-25 -28/-9/-28 -26/-7/-26 
f -25/-6/-25 -26/-7/-26 -29/-10/-29 
f -25/-6/-25 -29/-10/-29 -24/-5/-24 
f -23/-4/-23 -22/-3/-22 -24/-5/-24 
f -24/-5/-24 -29/-10/-29 -30/-11/-30 
f -23/-4/-23 -24/-5/-24 -30/-11/-30 
f -21/-2/-21 -23/-4/-23 -30/-11/-30 
f -20/-1/-20 -21/-2/-21 -30/-11/-30 
f -37/-18/-37 -29/-10/-29 -26/-7/-26 
f -26/-7/-26 -36/-17/-36 -37/-18/-37 
f -19/-19/-19 -18/-16/-18 -17/-17/-17 
f -17/-17/-17 -16/-18/-16 -19/-19/-19 
f -16/-18/-16 -15/-13/-15 -14/-14/-14 
f -16/-18/-16 -14/-14/-14 -13/-15/-13 
f -16/-18/-16 -13/-15/-13 -19/-19/-19 
f -12/-10/-12 -11/-11/-11 -10/-12/-10 
f -16/-18/-16 -12/-10/-12 -10/-12/-10 
f -16/-18/-16 -10/-12/-10 -15/-13/-15 
f -9/-6/-9 -8/-5/-8 -12/-10/-12 
f -9/-6/-9 -12/-10/-12 -7/-7/-7 
f -7/-7/-7 -6/-8/-6 -5/-9/-5 
f -9/-6/-9 -7/-7/-7 -5/-9/-5 
f -11/-11/-11 -12/-10/-12 -8/-5/-8 
f -8/-5/-8 -4/-3/-4 -3/-4/-3 
f -11/-11/-11 -8/-5/-8 -3/-4/-3 
f -11/-11/-11 -3/-4/-3 -2/-2/-2 
f -1/-1/-1 -11/-11/-11 -2/-2/-2 
f -16/-18/-16 -17/-17/-17 -7/-7/-7 
f -7/-7/-7 -12/-10/-12 -16/-18/-16 
# 38 faces

