# 3ds Max Wavefront OBJ Exporter v0.94b - (c)2007 guruware
# File Created: 06.02.2009 09:16:55

mtllib windows.mtl

#
# object windows
#

v  -0.5553 -0.6903 1.0583
v  -0.4589 -0.3237 1.0535
v  -0.7076 -0.3433 1.2722
v  -0.7626 -0.6634 1.2471
v  -0.5952 -0.7844 0.8307
v  -0.6068 -0.7676 0.9250
v  -0.9852 -0.7819 0.9398
v  -0.9851 -0.8036 0.7806
v  -0.5941 -0.7892 0.7894
v  -0.5933 -0.7908 0.7735
v  -1.3875 -0.8007 0.8633
v  -1.3736 -0.8049 0.8259
v  -1.3662 -0.8066 0.8166
v  -1.2595 -0.8058 0.8065
v  -1.2684 -0.7869 0.9496
v  -1.4034 -0.7903 0.9545
v  -0.1963 -0.3006 0.8010
v  -0.1788 0.0000 0.8010
v  -0.3349 0.0000 0.9612
v  -0.3632 -0.3169 0.9612
v  -1.3426 -0.8087 0.7917
v  -1.2547 -0.8101 0.7484
v  -1.3046 -0.8098 0.7671
v  -0.4597 -0.7073 0.9651
v  -0.8914 -0.7364 1.1927
v  -0.9389 -0.7346 1.2148
v  -0.9878 -0.7334 1.2291
v  -1.0309 -0.7306 1.2372
v  -1.0090 -0.7477 1.1494
v  -0.8436 -0.7390 1.1587
v  -0.6714 0.0000 1.2827
v  -0.4249 0.0000 1.0532
v  -0.9726 -0.8103 0.6996
v  -0.6016 -0.7962 0.6927
v  -0.5958 -0.7953 0.6981
v  -1.4150 -0.7615 1.1258
v  -1.2786 -0.7549 1.1335
v  -1.2849 -0.7228 1.2705
v  -1.3407 -0.7232 1.2742
v  -1.4036 -0.7240 1.2745
v  -1.4211 -0.7244 1.2720
v  -0.2866 -0.7267 0.7965
v  -1.1781 -0.8103 0.7256
v  -1.1009 -0.8105 0.7120
v  -1.0284 -0.8106 0.7024
v  -1.4117 -0.7738 1.0617
v  -1.2752 -0.7723 1.0595
v  -0.9853 -0.7662 1.0546
v  -0.6902 -0.7580 1.0207
v  -0.7300 -0.7541 1.0596
v  -0.7828 -0.7472 1.1062
v  -0.8292 -0.7408 1.1463
v  -0.6555 -0.7618 0.9836
v  -0.5553 0.6903 1.0583
v  -0.7626 0.6634 1.2471
v  -0.7076 0.3433 1.2722
v  -0.4589 0.3237 1.0535
v  -0.5941 0.7892 0.7894
v  -0.5933 0.7908 0.7735
v  -0.9851 0.8036 0.7806
v  -0.9852 0.7819 0.9398
v  -0.6068 0.7676 0.9250
v  -0.5952 0.7844 0.8307
v  -1.3662 0.8066 0.8166
v  -1.3736 0.8049 0.8259
v  -1.3875 0.8007 0.8633
v  -1.2595 0.8058 0.8065
v  -1.2684 0.7869 0.9496
v  -1.4034 0.7903 0.9545
v  -0.1963 0.3006 0.8010
v  -0.3632 0.3169 0.9612
v  -1.3426 0.8087 0.7917
v  -1.2547 0.8101 0.7484
v  -1.3046 0.8098 0.7671
v  -0.4597 0.7073 0.9651
v  -1.0090 0.7477 1.1494
v  -1.0309 0.7306 1.2372
v  -0.9878 0.7334 1.2291
v  -0.9389 0.7346 1.2148
v  -0.8914 0.7364 1.1927
v  -0.8436 0.7390 1.1587
v  -0.5958 0.7953 0.6981
v  -0.6016 0.7962 0.6927
v  -0.9726 0.8103 0.6996
v  -1.4036 0.7240 1.2745
v  -1.3407 0.7232 1.2742
v  -1.2849 0.7228 1.2705
v  -1.4211 0.7244 1.2720
v  -1.4150 0.7615 1.1258
v  -1.2786 0.7549 1.1335
v  -0.2866 0.7267 0.7965
v  -1.0284 0.8106 0.7024
v  -1.1009 0.8105 0.7120
v  -1.1781 0.8103 0.7256
v  -1.2752 0.7723 1.0595
v  -1.4117 0.7738 1.0617
v  -0.9853 0.7662 1.0546
v  -0.8292 0.7408 1.1463
v  -0.7828 0.7472 1.1062
v  -0.7300 0.7541 1.0596
v  -0.6902 0.7580 1.0207
v  -0.6555 0.7618 0.9836
# 102 vertices

vn 0.6634 -0.1671 0.7294
vn 0.6794 -0.1207 0.7238
vn 0.6588 -0.1324 0.7406
vn 0.6513 -0.1699 0.7395
vn 0.0377 -0.9890 0.1431
vn 0.0438 -0.9853 0.1652
vn 0.0298 -0.9902 0.1367
vn 0.0247 -0.9939 0.1077
vn 0.0343 -0.9934 0.1093
vn 0.0358 -0.9959 0.0833
vn 0.0188 -0.9919 0.1254
vn -0.1735 -0.9838 0.0456
vn 0.0041 -0.9927 0.1202
vn 0.0199 -0.9943 0.1049
vn 0.0245 -0.9911 0.1311
vn 0.0248 -0.9909 0.1324
vn 0.6988 -0.0989 0.7085
vn 0.7159 0.0000 0.6982
vn 0.7111 0.0000 0.7031
vn 0.6939 -0.1133 0.7111
vn 0.0189 -0.9952 0.0956
vn 0.0203 -0.9969 0.0758
vn 0.0300 -0.9954 0.0914
vn 0.6779 -0.1639 0.7167
vn 0.0405 -0.9887 0.1444
vn -0.0053 -0.9977 0.0674
vn 0.0015 -0.9847 0.1741
vn -0.0040 -0.9803 0.1972
vn 0.0233 -0.9813 0.1910
vn 0.0418 -0.9828 0.1800
vn 0.6729 0.0000 0.7397
vn 0.6968 0.0000 0.7172
vn 0.0265 -0.9959 0.0862
vn 0.0571 -0.9964 0.0633
vn 0.1093 -0.9925 0.0554
vn 0.0222 -0.9752 0.2203
vn 0.0208 -0.9735 0.2276
vn 0.0126 -0.9728 0.2312
vn 0.0130 -0.9972 0.0730
vn 0.0124 -0.9984 0.0544
vn 0.0140 -0.9732 0.2296
vn 0.6836 -0.1586 0.7125
vn 0.0146 -0.9972 0.0730
vn -0.0002 -0.9999 0.0119
vn 0.0105 -0.9965 0.0829
vn 0.0136 -0.9849 0.1725
vn 0.0222 -0.9836 0.1790
vn 0.0335 -0.9854 0.1669
vn 0.0390 -0.9890 0.1429
vn -0.3638 -0.8880 -0.2811
vn 0.0423 -0.9825 0.1812
vn 0.0412 -0.9788 0.2005
vn 0.0424 -0.9899 0.1350
vn 0.6634 0.1671 0.7294
vn 0.6513 0.1699 0.7395
vn 0.6588 0.1324 0.7406
vn 0.6794 0.1207 0.7238
vn 0.0343 0.9934 0.1093
vn 0.0358 0.9959 0.0833
vn 0.0247 0.9939 0.1077
vn 0.0298 0.9902 0.1367
vn 0.0438 0.9853 0.1652
vn 0.0377 0.9890 0.1431
vn 0.0041 0.9927 0.1202
vn -0.1735 0.9838 0.0456
vn 0.0188 0.9919 0.1254
vn 0.0199 0.9943 0.1049
vn 0.0245 0.9911 0.1311
vn 0.0248 0.9909 0.1324
vn 0.6988 0.0989 0.7085
vn 0.6939 0.1133 0.7111
vn 0.0189 0.9952 0.0956
vn 0.0203 0.9969 0.0758
vn 0.0300 0.9954 0.0914
vn 0.6779 0.1639 0.7167
vn 0.0233 0.9813 0.1910
vn -0.0040 0.9803 0.1972
vn 0.0015 0.9847 0.1741
vn -0.0053 0.9977 0.0674
vn 0.0405 0.9887 0.1444
vn 0.0418 0.9828 0.1800
vn 0.1093 0.9925 0.0554
vn 0.0571 0.9964 0.0633
vn 0.0265 0.9959 0.0862
vn 0.0124 0.9984 0.0544
vn 0.0130 0.9972 0.0730
vn 0.0126 0.9728 0.2312
vn 0.0140 0.9732 0.2296
vn 0.0222 0.9752 0.2203
vn 0.0208 0.9735 0.2276
vn 0.6836 0.1586 0.7125
vn 0.0105 0.9965 0.0829
vn -0.0002 0.9999 0.0119
vn 0.0146 0.9972 0.0730
vn 0.0222 0.9836 0.1790
vn 0.0136 0.9849 0.1725
vn 0.0335 0.9854 0.1669
vn 0.0412 0.9788 0.2005
vn 0.0423 0.9825 0.1812
vn -0.3638 0.8880 -0.2811
vn 0.0390 0.9890 0.1429
vn 0.0424 0.9899 0.1350
# 102 vertex normals

vt 0.4994 0.1302 0.0000
vt 0.5101 0.2987 0.0000
vt 0.3743 0.2987 0.0000
vt 0.3731 0.0839 0.0000
vt 0.5723 0.9261 0.0000
vt 0.5183 0.9462 0.0000
vt 0.3333 0.6836 0.0000
vt 0.3333 0.5687 0.0000
vt 0.5840 0.9117 0.0000
vt 0.5881 0.8984 0.0000
vt 0.2690 0.6150 0.0000
vt 0.2713 0.5811 0.0000
vt 0.2732 0.5687 0.0000
vt 0.2900 0.5687 0.0000
vt 0.2891 0.6764 0.0000
vt 0.2673 0.6818 0.0000
vt 0.6667 0.2987 0.0000
vt 0.6667 0.5000 0.0000
vt 0.5648 0.5000 0.0000
vt 0.5628 0.2987 0.0000
vt 0.2772 0.5478 0.0000
vt 0.2916 0.5131 0.0000
vt 0.2838 0.5272 0.0000
vt 0.5547 0.1295 0.0000
vt 0.3700 0.9555 0.0000
vt 0.3474 0.9448 0.0000
vt 0.3387 0.8726 0.0000
vt 0.3315 0.8123 0.0000
vt 0.3324 0.7903 0.0000
vt 0.3929 0.9557 0.0000
vt 0.3740 0.5000 0.0000
vt 0.5132 0.5000 0.0000
vt 0.3333 0.4793 0.0000
vt 0.5836 0.7824 0.0000
vt 0.5875 0.8107 0.0000
vt 0.2667 0.8005 0.0000
vt 0.2905 0.8250 0.0000
vt 0.2946 0.9468 0.0000
vt 0.2865 0.9424 0.0000
vt 0.2775 0.9417 0.0000
vt 0.2704 0.9276 0.0000
vt 0.6657 0.0899 0.0000
vt 0.3029 0.4972 0.0000
vt 0.3143 0.4878 0.0000
vt 0.3250 0.4812 0.0000
vt 0.3296 0.9359 0.0000
vt 0.3314 0.8545 0.0000
vt 0.2671 0.7557 0.0000
vt 0.2883 0.7592 0.0000
vt 0.3333 0.7665 0.0000
vt 0.4656 0.9295 0.0000
vt 0.4470 0.9409 0.0000
vt 0.4217 0.9474 0.0000
vt 0.3999 0.9537 0.0000
vt 0.4850 0.9475 0.0000
# 55 texture coords

g windows
usemtl Material__38
s 1073741824
f -102/-55/-102 -101/-54/-101 -100/-53/-100 
f -100/-53/-100 -99/-52/-99 -102/-55/-102 
s 134217728
f -98/-51/-98 -97/-50/-97 -96/-49/-96 
f -98/-51/-98 -96/-49/-96 -95/-48/-95 
f -94/-47/-94 -98/-51/-98 -95/-48/-95 
f -94/-47/-94 -95/-48/-95 -93/-46/-93 
f -92/-45/-92 -91/-44/-91 -90/-43/-90 
f -92/-45/-92 -90/-43/-90 -89/-42/-89 
f -92/-45/-92 -89/-42/-89 -88/-41/-88 
f -87/-40/-87 -92/-45/-92 -88/-41/-88 
s 1073741824
f -86/-39/-86 -85/-38/-85 -84/-37/-84 
f -84/-37/-84 -83/-36/-83 -86/-39/-86 
s 134217728
f -89/-42/-89 -90/-43/-90 -82/-35/-82 
f -81/-34/-81 -89/-42/-89 -82/-35/-82 
f -80/-33/-80 -81/-34/-81 -82/-35/-82 
s 1073741824
f -79/-32/-79 -83/-36/-83 -101/-54/-101 
f -101/-54/-101 -102/-55/-102 -79/-32/-79 
s 134217728
f -78/-31/-78 -77/-30/-77 -76/-29/-76 
f -76/-29/-76 -75/-28/-75 -74/-27/-74 
f -78/-31/-78 -76/-29/-76 -74/-27/-74 
f -73/-26/-73 -78/-31/-78 -74/-27/-74 
s 1073741824
f -72/-25/-72 -100/-53/-100 -101/-54/-101 
f -101/-54/-101 -71/-24/-71 -72/-25/-72 
s 134217728
f -95/-48/-95 -70/-23/-70 -69/-22/-69 
f -93/-46/-93 -95/-48/-95 -69/-22/-69 
f -93/-46/-93 -69/-22/-69 -68/-21/-68 
f -67/-20/-67 -66/-19/-66 -65/-18/-65 
f -65/-18/-65 -64/-17/-64 -63/-16/-63 
f -65/-18/-65 -63/-16/-63 -62/-15/-62 
f -67/-20/-67 -65/-18/-65 -62/-15/-62 
s 1073741824
f -71/-24/-71 -101/-54/-101 -83/-36/-83 
f -83/-36/-83 -84/-37/-84 -71/-24/-71 
f -61/-14/-61 -86/-39/-86 -83/-36/-83 
f -83/-36/-83 -79/-32/-79 -61/-14/-61 
s 134217728
f -60/-13/-60 -59/-12/-59 -58/-11/-58 
f -58/-11/-58 -70/-23/-70 -95/-48/-95 
f -60/-13/-60 -58/-11/-58 -95/-48/-95 
f -60/-13/-60 -95/-48/-95 -89/-42/-89 
f -81/-34/-81 -60/-13/-60 -89/-42/-89 
f -89/-42/-89 -95/-48/-95 -96/-49/-96 
f -96/-49/-96 -88/-41/-88 -89/-42/-89 
f -75/-10/-75 -65/-18/-65 -66/-19/-66 
f -66/-19/-66 -74/-9/-74 -75/-10/-75 
f -67/-20/-67 -57/-8/-57 -56/-7/-56 
f -56/-7/-56 -66/-19/-66 -67/-20/-67 
f -56/-7/-56 -55/-6/-55 -74/-9/-74 
f -74/-9/-74 -66/-19/-66 -56/-7/-56 
f -54/-5/-54 -53/-4/-53 -52/-3/-52 
f -55/-6/-55 -54/-5/-54 -52/-3/-52 
f -74/-27/-74 -55/-6/-55 -52/-3/-52 
f -74/-27/-74 -52/-3/-52 -51/-2/-51 
f -74/-27/-74 -51/-2/-51 -73/-26/-73 
f -54/-5/-54 -55/-6/-55 -96/-49/-96 
f -50/-1/-50 -54/-5/-54 -96/-49/-96 
f -97/-50/-97 -50/-1/-50 -96/-49/-96 
f -55/-6/-55 -56/-7/-56 -88/-41/-88 
f -88/-41/-88 -96/-49/-96 -55/-6/-55 
f -56/-7/-56 -57/-8/-57 -87/-40/-87 
f -87/-40/-87 -88/-41/-88 -56/-7/-56 
s 1073741824
f -49/-55/-49 -48/-52/-48 -47/-53/-47 
f -47/-53/-47 -46/-54/-46 -49/-55/-49 
s 134217728
f -45/-47/-45 -44/-46/-44 -43/-48/-43 
f -42/-49/-42 -41/-50/-41 -40/-51/-40 
f -43/-48/-43 -42/-49/-42 -40/-51/-40 
f -45/-47/-45 -43/-48/-43 -40/-51/-40 
f -39/-43/-39 -38/-44/-38 -37/-45/-37 
f -36/-42/-36 -39/-43/-39 -37/-45/-37 
f -35/-41/-35 -36/-42/-36 -37/-45/-37 
f -34/-40/-34 -35/-41/-35 -37/-45/-37 
s 1073741824
f -33/-39/-33 -32/-36/-32 -84/-37/-84 
f -84/-37/-84 -85/-38/-85 -33/-39/-33 
s 134217728
f -31/-35/-31 -39/-43/-39 -36/-42/-36 
f -31/-35/-31 -36/-42/-36 -30/-34/-30 
f -29/-33/-29 -31/-35/-31 -30/-34/-30 
s 1073741824
f -28/-32/-28 -49/-55/-49 -46/-54/-46 
f -46/-54/-46 -32/-36/-32 -28/-32/-28 
s 134217728
f -27/-27/-27 -26/-28/-26 -25/-29/-25 
f -25/-29/-25 -24/-30/-24 -23/-31/-23 
f -27/-27/-27 -25/-29/-25 -23/-31/-23 
f -22/-26/-22 -27/-27/-27 -23/-31/-23 
s 1073741824
f -72/-25/-72 -71/-24/-71 -46/-54/-46 
f -46/-54/-46 -47/-53/-47 -72/-25/-72 
s 134217728
f -44/-46/-44 -21/-21/-21 -20/-22/-20 
f -20/-22/-20 -19/-23/-19 -43/-48/-43 
f -44/-46/-44 -20/-22/-20 -43/-48/-43 
f -18/-16/-18 -17/-17/-17 -16/-18/-16 
f -15/-15/-15 -18/-16/-18 -16/-18/-16 
f -14/-20/-14 -15/-15/-15 -16/-18/-16 
f -14/-20/-14 -16/-18/-16 -13/-19/-13 
s 1073741824
f -71/-24/-71 -84/-37/-84 -32/-36/-32 
f -32/-36/-32 -46/-54/-46 -71/-24/-71 
f -12/-14/-12 -28/-32/-28 -32/-36/-32 
f -32/-36/-32 -33/-39/-33 -12/-14/-12 
s 134217728
f -43/-48/-43 -19/-23/-19 -11/-11/-11 
f -11/-11/-11 -10/-12/-10 -9/-13/-9 
f -43/-48/-43 -11/-11/-11 -9/-13/-9 
f -36/-42/-36 -43/-48/-43 -9/-13/-9 
f -30/-34/-30 -36/-42/-36 -9/-13/-9 
f -36/-42/-36 -35/-41/-35 -42/-49/-42 
f -42/-49/-42 -43/-48/-43 -36/-42/-36 
f -26/-10/-26 -27/-9/-27 -13/-19/-13 
f -13/-19/-13 -16/-18/-16 -26/-10/-26 
f -14/-20/-14 -13/-19/-13 -8/-7/-8 
f -8/-7/-8 -7/-8/-7 -14/-20/-14 
f -8/-7/-8 -13/-19/-13 -27/-9/-27 
f -27/-9/-27 -6/-6/-6 -8/-7/-8 
f -27/-27/-27 -22/-26/-22 -5/-2/-5 
f -27/-27/-27 -5/-2/-5 -4/-3/-4 
f -4/-3/-4 -3/-4/-3 -2/-5/-2 
f -4/-3/-4 -2/-5/-2 -6/-6/-6 
f -27/-27/-27 -4/-3/-4 -6/-6/-6 
f -42/-49/-42 -6/-6/-6 -2/-5/-2 
f -42/-49/-42 -2/-5/-2 -1/-1/-1 
f -41/-50/-41 -42/-49/-42 -1/-1/-1 
f -6/-6/-6 -42/-49/-42 -35/-41/-35 
f -35/-41/-35 -8/-7/-8 -6/-6/-6 
f -8/-7/-8 -35/-41/-35 -34/-40/-34 
f -34/-40/-34 -7/-8/-7 -8/-7/-8 
# 118 faces

