# Max2Obj Version 4.0 Mar 10th, 2001
#
mtllib ./tire.mtl
g
# object Object02 to come ...
#
v  -0.0000 -0.0938 0.4115
v  -0.0000 0.1076 0.4115
v  -0.1300 0.1076 0.3905
v  -0.1300 -0.0938 0.3905
v  -0.0000 0.1275 0.3684
v  -0.1164 0.1275 0.3496
v  -0.0000 0.0961 0.2240
v  -0.0707 0.0961 0.2127
v  0.0000 -0.0824 0.2240
v  0.0000 -0.1138 0.3684
v  -0.1164 -0.1138 0.3496
v  -0.0707 -0.0824 0.2127
v  0.2240 -0.0824 0.0000
v  0.3684 -0.1138 0.0000
v  0.3496 -0.1138 0.1164
v  0.2127 -0.0824 0.0707
v  0.4115 -0.0938 0.0000
v  0.3905 -0.0938 0.1300
v  0.4115 0.1076 0.0000
v  0.3905 0.1076 0.1300
v  0.3684 0.1275 0.0000
v  0.3496 0.1275 0.1164
v  0.2240 0.0961 0.0000
v  0.2127 0.0961 0.0707
v  0.2973 -0.1138 0.2175
v  0.1810 -0.0824 0.1322
v  0.3320 -0.0938 0.2429
v  0.3320 0.1076 0.2429
v  0.2973 0.1275 0.2175
v  0.1810 0.0961 0.1322
v  0.2175 -0.1138 0.2973
v  0.1322 -0.0824 0.1810
v  0.2429 -0.0938 0.3320
v  0.2429 0.1076 0.3320
v  0.2175 0.1275 0.2973
v  0.1322 0.0961 0.1810
v  0.1164 -0.1138 0.3496
v  0.0707 -0.0824 0.2127
v  0.1300 -0.0938 0.3905
v  0.1300 0.1076 0.3905
v  0.1164 0.1275 0.3496
v  0.0707 0.0961 0.2127
v  -0.2175 -0.1138 0.2973
v  -0.1322 -0.0824 0.1810
v  -0.2429 -0.0938 0.3320
v  -0.2429 0.1076 0.3320
v  -0.2175 0.1275 0.2973
v  -0.1322 0.0961 0.1810
v  -0.2973 -0.1138 0.2175
v  -0.1810 -0.0824 0.1322
v  -0.3320 -0.0938 0.2429
v  -0.3320 0.1076 0.2429
v  -0.2973 0.1275 0.2175
v  -0.1810 0.0961 0.1322
v  -0.3496 -0.1138 0.1164
v  -0.2127 -0.0824 0.0707
v  -0.3905 -0.0938 0.1300
v  -0.3905 0.1076 0.1300
v  -0.3496 0.1275 0.1164
v  -0.2127 0.0961 0.0707
v  -0.3684 -0.1138 -0.0000
v  -0.2240 -0.0824 -0.0000
v  -0.4115 -0.0938 -0.0000
v  -0.4115 0.1076 -0.0000
v  -0.3684 0.1275 -0.0000
v  -0.2240 0.0961 -0.0000
v  -0.3496 -0.1138 -0.1164
v  -0.2127 -0.0824 -0.0707
v  -0.3905 -0.0938 -0.1300
v  -0.3905 0.1076 -0.1300
v  -0.3496 0.1275 -0.1164
v  -0.2127 0.0961 -0.0707
v  -0.2973 -0.1138 -0.2175
v  -0.1810 -0.0824 -0.1322
v  -0.3320 -0.0938 -0.2429
v  -0.3320 0.1076 -0.2429
v  -0.2973 0.1275 -0.2175
v  -0.1810 0.0961 -0.1322
v  -0.2175 -0.1138 -0.2973
v  -0.1322 -0.0824 -0.1810
v  -0.2429 -0.0938 -0.3320
v  -0.2429 0.1076 -0.3320
v  -0.2175 0.1275 -0.2973
v  -0.1322 0.0961 -0.1810
v  -0.1164 -0.1138 -0.3496
v  -0.0707 -0.0824 -0.2127
v  -0.1300 -0.0938 -0.3905
v  -0.1300 0.1076 -0.3905
v  -0.1164 0.1275 -0.3496
v  -0.0707 0.0961 -0.2127
v  -0.0000 -0.1138 -0.3684
v  -0.0000 -0.0824 -0.2240
v  -0.0000 -0.0938 -0.4115
v  -0.0000 0.1076 -0.4115
v  -0.0000 0.1275 -0.3684
v  -0.0000 0.0961 -0.2240
v  0.1164 -0.1138 -0.3496
v  0.0707 -0.0824 -0.2127
v  0.1300 -0.0938 -0.3905
v  0.1300 0.1076 -0.3905
v  0.1164 0.1275 -0.3496
v  0.0707 0.0961 -0.2127
v  0.2175 -0.1138 -0.2973
v  0.1322 -0.0824 -0.1810
v  0.2429 -0.0938 -0.3320
v  0.2429 0.1076 -0.3320
v  0.2175 0.1275 -0.2973
v  0.1322 0.0961 -0.1810
v  0.2973 -0.1138 -0.2175
v  0.1810 -0.0824 -0.1322
v  0.3320 -0.0938 -0.2429
v  0.3320 0.1076 -0.2429
v  0.2973 0.1275 -0.2175
v  0.1810 0.0961 -0.1322
v  0.3496 -0.1138 -0.1164
v  0.2127 -0.0824 -0.0707
v  0.3905 -0.0938 -0.1300
v  0.3905 0.1076 -0.1300
v  0.3496 0.1275 -0.1164
v  0.2127 0.0961 -0.0707
# 120 vertices

vt  1.5850 0.0833 0.9990
vt  1.5850 0.9169 0.9990
vt  1.4229 0.9169 0.9992
vt  1.4229 0.0833 0.9992
vt  1.5850 0.9995 0.8945
vt  1.4229 0.9995 0.8947
vt  1.5850 0.8695 0.5439
vt  1.4230 0.8695 0.5442
vt  1.5850 0.1305 0.5439
vt  1.5850 0.0005 0.8945
vt  1.4229 0.0005 0.8947
vt  1.4231 0.1305 0.5442
vt  2.3775 0.1305 0.5439
vt  2.3775 0.0005 0.8945
vt  2.2154 0.0005 0.8947
vt  2.2155 0.1305 0.5442
vt  2.3775 0.0833 0.9990
vt  2.2154 0.0833 0.9992
vt  2.3775 0.9169 0.9990
vt  2.2154 0.9169 0.9992
vt  2.3775 0.9995 0.8945
vt  2.2154 0.9995 0.8947
vt  2.3775 0.8695 0.5439
vt  2.2155 0.8695 0.5442
vt  2.0589 0.0005 0.8944
vt  2.0593 0.1305 0.5442
vt  2.0588 0.0833 0.9988
vt  2.0588 0.9169 0.9988
vt  2.0589 0.9995 0.8944
vt  2.0593 0.8695 0.5442
vt  1.9036 0.0005 0.8944
vt  1.9032 0.1305 0.5442
vt  1.9037 0.0833 0.9988
vt  1.9037 0.9169 0.9988
vt  1.9036 0.9995 0.8944
vt  1.9032 0.8695 0.5442
vt  1.7471 0.0005 0.8947
vt  1.7469 0.1305 0.5442
vt  1.7471 0.0833 0.9992
vt  1.7471 0.9169 0.9992
vt  1.7471 0.9995 0.8947
vt  1.7469 0.8695 0.5442
vt  1.2664 0.0005 0.8944
vt  1.2668 0.1305 0.5442
vt  1.2663 0.0833 0.9988
vt  1.2663 0.9169 0.9988
vt  1.2664 0.9995 0.8944
vt  1.2668 0.8695 0.5442
vt  1.1111 0.0005 0.8944
vt  1.1107 0.1305 0.5442
vt  1.1112 0.0833 0.9988
vt  1.1112 0.9169 0.9988
vt  1.1111 0.9995 0.8944
vt  1.1107 0.8695 0.5442
vt  0.9546 0.0005 0.8947
vt  0.9545 0.1305 0.5442
vt  0.9546 0.0833 0.9992
vt  0.9546 0.9169 0.9992
vt  0.9546 0.9995 0.8947
vt  0.9545 0.8695 0.5442
vt  0.7925 0.0005 0.8945
vt  0.7925 0.1305 0.5439
vt  0.7925 0.0833 0.9990
vt  0.7925 0.9169 0.9990
vt  0.7925 0.9995 0.8945
vt  0.7925 0.8695 0.5439
vt  0.6304 0.0005 0.8947
vt  0.6305 0.1305 0.5442
vt  0.6304 0.0833 0.9992
vt  0.6304 0.9169 0.9992
vt  0.6304 0.9995 0.8947
vt  0.6305 0.8695 0.5442
vt  0.4739 0.0005 0.8944
vt  0.4743 0.1305 0.5442
vt  0.4738 0.0833 0.9988
vt  0.4738 0.9169 0.9988
vt  0.4739 0.9995 0.8944
vt  0.4743 0.8695 0.5442
vt  0.3186 0.0005 0.8944
vt  0.3182 0.1305 0.5442
vt  0.3187 0.0833 0.9988
vt  0.3187 0.9169 0.9988
vt  0.3186 0.9995 0.8944
vt  0.3182 0.8695 0.5442
vt  0.1621 0.0005 0.8947
vt  0.1620 0.1305 0.5442
vt  0.1621 0.0833 0.9992
vt  0.1621 0.9169 0.9992
vt  0.1621 0.9995 0.8947
vt  0.1620 0.8695 0.5442
vt  3.1700 0.0005 0.8945
vt  0.0000 0.1305 0.5439
vt  3.1700 0.0833 0.9990
vt  3.1700 0.9169 0.9990
vt  3.1700 0.9995 0.8945
vt  3.1700 0.8695 0.5439
vt  3.0079 0.0005 0.8947
vt  3.0081 0.1305 0.5442
vt  3.0079 0.0833 0.9992
vt  3.0079 0.9169 0.9992
vt  3.0079 0.9995 0.8947
vt  3.0081 0.8695 0.5442
vt  2.8514 0.0005 0.8944
vt  2.8518 0.1305 0.5442
vt  2.8513 0.0833 0.9988
vt  2.8513 0.9169 0.9988
vt  2.8514 0.9995 0.8944
vt  2.8518 0.8695 0.5442
vt  2.6961 0.0005 0.8944
vt  2.6957 0.1305 0.5442
vt  2.6962 0.0833 0.9988
vt  2.6962 0.9169 0.9988
vt  2.6961 0.9995 0.8944
vt  2.6957 0.8695 0.5442
vt  2.5396 0.0005 0.8947
vt  2.5395 0.1305 0.5442
vt  2.5396 0.0833 0.9992
vt  2.5396 0.9169 0.9992
vt  2.5396 0.9995 0.8947
vt  2.5395 0.8695 0.5442
vt  0.0000 0.0005 0.8945
vt  0.0000 0.0005 0.8945
vt  -0.0000 0.0833 0.9990
vt  -0.0000 0.0833 0.9990
vt  0.0000 0.0005 0.8945
vt  -0.0000 0.9169 0.9990
vt  -0.0000 0.9169 0.9990
vt  -0.0000 0.0833 0.9990
vt  -0.0000 0.9995 0.8945
vt  -0.0000 0.9995 0.8945
vt  -0.0000 0.9169 0.9990
vt  -0.0000 0.8695 0.5439
vt  -0.0000 0.8695 0.5439
vt  -0.0000 0.9995 0.8945
vt  0.0000 0.0005 0.8945
vt  -0.1621 0.0005 0.8947
vt  -0.1621 0.0005 0.8947
vt  -0.1619 0.1305 0.5442
# 138 texture vertices

vn  -0.0000 -0.5145 0.8575
vn  0.0000 0.5148 0.8573
vn  -0.2688 0.5150 0.8140
vn  -0.2688 -0.5147 0.8141
vn  -0.1019 1.9625 0.6308
vn  -0.0679 2.9342 0.4205
vn  -0.0001 0.9771 -0.2126
vn  0.0663 0.9772 -0.2019
vn  0.0001 -0.9771 -0.2126
vn  -0.0436 -2.6083 0.2694
vn  -0.0682 -2.9336 0.4219
vn  0.0663 -0.9771 -0.2020
vn  -0.2126 -0.9771 -0.0001
vn  0.2694 -2.6084 0.0436
vn  0.4219 -2.9335 0.0682
vn  -0.2020 -0.9771 -0.0663
vn  0.8575 -0.5145 0.0000
vn  0.8141 -0.5147 0.2688
vn  0.8573 0.5148 -0.0000
vn  0.8140 0.5150 0.2688
vn  0.6308 1.9625 0.1019
vn  0.4205 2.9342 0.0679
vn  -0.2126 0.9771 0.0001
vn  -0.2019 0.9772 -0.0663
vn  0.3761 -2.9345 0.1947
vn  -0.1718 -0.9771 -0.1254
vn  0.6918 -0.5153 0.5060
vn  0.6916 0.5156 0.5059
vn  0.3748 2.9352 0.1940
vn  -0.1717 0.9771 -0.1254
vn  0.2982 -2.9350 0.2982
vn  -0.1254 -0.9771 -0.1717
vn  0.5060 -0.5152 0.6917
vn  0.5058 0.5156 0.6916
vn  0.2973 2.9356 0.2973
vn  -0.1254 0.9771 -0.1718
vn  0.1945 -2.9347 0.3758
vn  -0.0663 -0.9772 -0.2019
vn  0.2688 -0.5147 0.8142
vn  0.2688 0.5150 0.8140
vn  0.1941 2.9353 0.3749
vn  -0.0663 0.9771 -0.2020
vn  -0.1947 -2.9345 0.3762
vn  0.1254 -0.9771 -0.1718
vn  -0.5060 -0.5153 0.6918
vn  -0.5059 0.5156 0.6916
vn  -0.1940 2.9352 0.3748
vn  0.1254 0.9771 -0.1717
vn  -0.2982 -2.9350 0.2982
vn  0.1717 -0.9771 -0.1254
vn  -0.6918 -0.5152 0.5060
vn  -0.6916 0.5156 0.5058
vn  -0.2973 2.9356 0.2973
vn  0.1718 0.9771 -0.1254
vn  -0.3758 -2.9346 0.1945
vn  0.2019 -0.9772 -0.0663
vn  -0.8142 -0.5147 0.2688
vn  -0.8139 0.5150 0.2688
vn  -0.3749 2.9353 0.1941
vn  0.2020 0.9771 -0.0663
vn  -0.4205 -2.9339 0.0680
vn  0.2126 -0.9771 0.0001
vn  -0.8575 -0.5145 -0.0000
vn  -0.8573 0.5148 0.0000
vn  -0.4194 2.9346 0.0678
vn  0.2126 0.9771 -0.0001
vn  -0.4219 -2.9335 -0.0682
vn  0.2020 -0.9771 0.0663
vn  -0.8141 -0.5147 -0.2688
vn  -0.8140 0.5150 -0.2688
vn  -0.4205 2.9342 -0.0679
vn  0.2019 0.9772 0.0663
vn  -0.3761 -2.9345 -0.1947
vn  0.1718 -0.9771 0.1254
vn  -0.6918 -0.5153 -0.5060
vn  -0.6916 0.5156 -0.5059
vn  -0.3748 2.9352 -0.1940
vn  0.1717 0.9771 0.1254
vn  -0.2982 -2.9350 -0.2982
vn  0.1254 -0.9771 0.1717
vn  -0.5060 -0.5152 -0.6917
vn  -0.5058 0.5156 -0.6916
vn  -0.2973 2.9356 -0.2973
vn  0.1254 0.9771 0.1718
vn  -0.1945 -2.9346 -0.3758
vn  0.0663 -0.9772 0.2019
vn  -0.2688 -0.5147 -0.8142
vn  -0.2688 0.5150 -0.8139
vn  -0.1941 2.9353 -0.3749
vn  0.0663 0.9771 0.2020
vn  -0.0680 -2.9339 -0.4205
vn  -0.0001 -0.9771 0.2126
vn  0.0000 -0.5145 -0.8575
vn  -0.0000 0.5148 -0.8573
vn  -0.0678 2.9346 -0.4194
vn  0.0001 0.9771 0.2126
vn  0.0682 -2.9335 -0.4219
vn  -0.0663 -0.9771 0.2020
vn  0.2688 -0.5147 -0.8141
vn  0.2688 0.5150 -0.8140
vn  0.0679 2.9342 -0.4205
vn  -0.0663 0.9772 0.2019
vn  0.1947 -2.9345 -0.3761
vn  -0.1254 -0.9771 0.1718
vn  0.5060 -0.5153 -0.6918
vn  0.5059 0.5156 -0.6916
vn  0.1940 2.9352 -0.3748
vn  -0.1254 0.9771 0.1717
vn  0.2982 -2.9350 -0.2982
vn  -0.1717 -0.9771 0.1254
vn  0.6918 -0.5152 -0.5060
vn  0.6916 0.5156 -0.5058
vn  0.2973 2.9356 -0.2973
vn  -0.1718 0.9771 0.1254
vn  0.3758 -2.9346 -0.1945
vn  -0.2019 -0.9772 0.0663
vn  0.8142 -0.5147 -0.2688
vn  0.8139 0.5150 -0.2688
vn  0.3749 2.9353 -0.1941
vn  -0.2020 0.9771 0.0663
# 120 vertex normals

g Object02
usemtl Tread
s 1
f 1/1/1 2/2/2 3/3/3
f 3/3/3 4/4/4 1/1/1
f 2/2/2 5/5/5 6/6/6
f 6/6/6 3/3/3 2/2/2
usemtl tread_side
f 5/5/5 7/7/7 8/8/8
f 8/8/8 6/6/6 5/5/5
f 9/9/9 10/10/10 11/11/11
f 11/11/11 12/12/12 9/9/9
usemtl Tread
f 10/10/10 1/1/1 4/4/4
f 4/4/4 11/11/11 10/10/10
usemtl tread_side
f 13/13/13 14/14/14 15/15/15
f 15/15/15 16/16/16 13/13/13
usemtl Tread
f 14/14/14 17/17/17 18/18/18
f 18/18/18 15/15/15 14/14/14
f 17/17/17 19/19/19 20/20/20
f 20/20/20 18/18/18 17/17/17
f 19/19/19 21/21/21 22/22/22
f 22/22/22 20/20/20 19/19/19
usemtl tread_side
f 21/21/21 23/23/23 24/24/24
f 24/24/24 22/22/22 21/21/21
f 16/16/16 15/15/15 25/25/25
f 25/25/25 26/26/26 16/16/16
usemtl Tread
f 15/15/15 18/18/18 27/27/27
f 27/27/27 25/25/25 15/15/15
f 18/18/18 20/20/20 28/28/28
f 28/28/28 27/27/27 18/18/18
f 20/20/20 22/22/22 29/29/29
f 29/29/29 28/28/28 20/20/20
usemtl tread_side
f 22/22/22 24/24/24 30/30/30
f 30/30/30 29/29/29 22/22/22
f 26/26/26 25/25/25 31/31/31
f 31/31/31 32/32/32 26/26/26
usemtl Tread
f 25/25/25 27/27/27 33/33/33
f 33/33/33 31/31/31 25/25/25
f 27/27/27 28/28/28 34/34/34
f 34/34/34 33/33/33 27/27/27
f 28/28/28 29/29/29 35/35/35
f 35/35/35 34/34/34 28/28/28
usemtl tread_side
f 29/29/29 30/30/30 36/36/36
f 36/36/36 35/35/35 29/29/29
f 32/32/32 31/31/31 37/37/37
f 37/37/37 38/38/38 32/32/32
usemtl Tread
f 31/31/31 33/33/33 39/39/39
f 39/39/39 37/37/37 31/31/31
f 33/33/33 34/34/34 40/40/40
f 40/40/40 39/39/39 33/33/33
f 34/34/34 35/35/35 41/41/41
f 41/41/41 40/40/40 34/34/34
usemtl tread_side
f 35/35/35 36/36/36 42/42/42
f 42/42/42 41/41/41 35/35/35
f 38/38/38 37/37/37 10/10/10
f 10/10/10 9/9/9 38/38/38
usemtl Tread
f 37/37/37 39/39/39 1/1/1
f 1/1/1 10/10/10 37/37/37
f 39/39/39 40/40/40 2/2/2
f 2/2/2 1/1/1 39/39/39
f 40/40/40 41/41/41 5/5/5
f 5/5/5 2/2/2 40/40/40
usemtl tread_side
f 41/41/41 42/42/42 7/7/7
f 7/7/7 5/5/5 41/41/41
f 12/12/12 11/11/11 43/43/43
f 43/43/43 44/44/44 12/12/12
usemtl Tread
f 11/11/11 4/4/4 45/45/45
f 45/45/45 43/43/43 11/11/11
f 4/4/4 3/3/3 46/46/46
f 46/46/46 45/45/45 4/4/4
f 3/3/3 6/6/6 47/47/47
f 47/47/47 46/46/46 3/3/3
usemtl tread_side
f 6/6/6 8/8/8 48/48/48
f 48/48/48 47/47/47 6/6/6
f 44/44/44 43/43/43 49/49/49
f 49/49/49 50/50/50 44/44/44
usemtl Tread
f 43/43/43 45/45/45 51/51/51
f 51/51/51 49/49/49 43/43/43
f 45/45/45 46/46/46 52/52/52
f 52/52/52 51/51/51 45/45/45
f 46/46/46 47/47/47 53/53/53
f 53/53/53 52/52/52 46/46/46
usemtl tread_side
f 47/47/47 48/48/48 54/54/54
f 54/54/54 53/53/53 47/47/47
f 50/50/50 49/49/49 55/55/55
f 55/55/55 56/56/56 50/50/50
usemtl Tread
f 49/49/49 51/51/51 57/57/57
f 57/57/57 55/55/55 49/49/49
f 51/51/51 52/52/52 58/58/58
f 58/58/58 57/57/57 51/51/51
f 52/52/52 53/53/53 59/59/59
f 59/59/59 58/58/58 52/52/52
usemtl tread_side
f 53/53/53 54/54/54 60/60/60
f 60/60/60 59/59/59 53/53/53
f 56/56/56 55/55/55 61/61/61
f 61/61/61 62/62/62 56/56/56
usemtl Tread
f 55/55/55 57/57/57 63/63/63
f 63/63/63 61/61/61 55/55/55
f 57/57/57 58/58/58 64/64/64
f 64/64/64 63/63/63 57/57/57
f 58/58/58 59/59/59 65/65/65
f 65/65/65 64/64/64 58/58/58
usemtl tread_side
f 59/59/59 60/60/60 66/66/66
f 66/66/66 65/65/65 59/59/59
f 62/62/62 61/61/61 67/67/67
f 67/67/67 68/68/68 62/62/62
usemtl Tread
f 61/61/61 63/63/63 69/69/69
f 69/69/69 67/67/67 61/61/61
f 63/63/63 64/64/64 70/70/70
f 70/70/70 69/69/69 63/63/63
f 64/64/64 65/65/65 71/71/71
f 71/71/71 70/70/70 64/64/64
usemtl tread_side
f 65/65/65 66/66/66 72/72/72
f 72/72/72 71/71/71 65/65/65
f 68/68/68 67/67/67 73/73/73
f 73/73/73 74/74/74 68/68/68
usemtl Tread
f 67/67/67 69/69/69 75/75/75
f 75/75/75 73/73/73 67/67/67
f 69/69/69 70/70/70 76/76/76
f 76/76/76 75/75/75 69/69/69
f 70/70/70 71/71/71 77/77/77
f 77/77/77 76/76/76 70/70/70
usemtl tread_side
f 71/71/71 72/72/72 78/78/78
f 78/78/78 77/77/77 71/71/71
f 74/74/74 73/73/73 79/79/79
f 79/79/79 80/80/80 74/74/74
usemtl Tread
f 73/73/73 75/75/75 81/81/81
f 81/81/81 79/79/79 73/73/73
f 75/75/75 76/76/76 82/82/82
f 82/82/82 81/81/81 75/75/75
f 76/76/76 77/77/77 83/83/83
f 83/83/83 82/82/82 76/76/76
usemtl tread_side
f 77/77/77 78/78/78 84/84/84
f 84/84/84 83/83/83 77/77/77
f 80/80/80 79/79/79 85/85/85
f 85/85/85 86/86/86 80/80/80
usemtl Tread
f 79/79/79 81/81/81 87/87/87
f 87/87/87 85/85/85 79/79/79
f 81/81/81 82/82/82 88/88/88
f 88/88/88 87/87/87 81/81/81
f 82/82/82 83/83/83 89/89/89
f 89/89/89 88/88/88 82/82/82
usemtl tread_side
f 83/83/83 84/84/84 90/90/90
f 90/90/90 89/89/89 83/83/83
f 86/86/86 85/85/85 91/121/91
f 91/122/91 92/92/92 86/86/86
usemtl Tread
f 85/85/85 87/87/87 93/123/93
f 93/124/93 91/125/91 85/85/85
f 87/87/87 88/88/88 94/126/94
f 94/127/94 93/128/93 87/87/87
f 88/88/88 89/89/89 95/129/95
f 95/130/95 94/131/94 88/88/88
usemtl tread_side
f 89/89/89 90/90/90 96/132/96
f 96/133/96 95/134/95 89/89/89
f 92/92/92 91/135/91 97/136/97
f 97/137/97 98/138/98 92/92/92
usemtl Tread
f 91/91/91 93/93/93 99/99/99
f 99/99/99 97/97/97 91/91/91
f 93/93/93 94/94/94 100/100/100
f 100/100/100 99/99/99 93/93/93
f 94/94/94 95/95/95 101/101/101
f 101/101/101 100/100/100 94/94/94
usemtl tread_side
f 95/95/95 96/96/96 102/102/102
f 102/102/102 101/101/101 95/95/95
f 98/98/98 97/97/97 103/103/103
f 103/103/103 104/104/104 98/98/98
usemtl Tread
f 97/97/97 99/99/99 105/105/105
f 105/105/105 103/103/103 97/97/97
f 99/99/99 100/100/100 106/106/106
f 106/106/106 105/105/105 99/99/99
f 100/100/100 101/101/101 107/107/107
f 107/107/107 106/106/106 100/100/100
usemtl tread_side
f 101/101/101 102/102/102 108/108/108
f 108/108/108 107/107/107 101/101/101
f 104/104/104 103/103/103 109/109/109
f 109/109/109 110/110/110 104/104/104
usemtl Tread
f 103/103/103 105/105/105 111/111/111
f 111/111/111 109/109/109 103/103/103
f 105/105/105 106/106/106 112/112/112
f 112/112/112 111/111/111 105/105/105
f 106/106/106 107/107/107 113/113/113
f 113/113/113 112/112/112 106/106/106
usemtl tread_side
f 107/107/107 108/108/108 114/114/114
f 114/114/114 113/113/113 107/107/107
f 110/110/110 109/109/109 115/115/115
f 115/115/115 116/116/116 110/110/110
usemtl Tread
f 109/109/109 111/111/111 117/117/117
f 117/117/117 115/115/115 109/109/109
f 111/111/111 112/112/112 118/118/118
f 118/118/118 117/117/117 111/111/111
f 112/112/112 113/113/113 119/119/119
f 119/119/119 118/118/118 112/112/112
usemtl tread_side
f 113/113/113 114/114/114 120/120/120
f 120/120/120 119/119/119 113/113/113
f 116/116/116 115/115/115 14/14/14
f 14/14/14 13/13/13 116/116/116
usemtl Tread
f 115/115/115 117/117/117 17/17/17
f 17/17/17 14/14/14 115/115/115
f 117/117/117 118/118/118 19/19/19
f 19/19/19 17/17/17 117/117/117
f 118/118/118 119/119/119 21/21/21
f 21/21/21 19/19/19 118/118/118
usemtl tread_side
f 119/119/119 120/120/120 23/23/23
f 23/23/23 21/21/21 119/119/119
# 200 faces

g
