mtllib ./windows.mtl
g
v -3.25793 0.715397 1.15019
v -3.25837 0.63357 1.36155
v -3.25793 0.775437 0.934968
v -3.50533 0.760137 0.931848
v -3.50631 0.702247 1.13149
v -3.50545 0.80824 0.79945
v -3.25956 0.82788 0.78314
v -2.56893 0.734217 1.1644
v -1.4529 0.750319 1.13118
v -2.27509 0.63995 1.38954
v -1.45275 0.794158 0.934341
v -2.56893 0.790107 0.942431
v -1.4524 0.838151 0.762749
v -1.74532 0.6465 1.37743
v -3.61306 0.70109 1.12586
v -3.68002 0.732537 0.937386
v -3.66498 0.72074 1.00005
v -3.52578 0.65172 1.26894
v -3.63254 0.76765 0.83526
v -3.58327 0.78607 0.81643
v -3.48882 0.63832 1.30896
v -2.90006 0.63376 1.3882
v -3.66673 0.75314 0.85688
v -3.68444 0.7397 0.89753
v -3.39419 0.6313 1.34212
v -3.45043 0.6332 1.32772
v -2.56854 0.843067 0.778321
v -1.45306 0.64815 1.35361
v -2.57003 0.637029 1.38891
v -2.58749 0.790107 0.942431
v -2.58749 0.734217 1.1644
v -2.58736 0.842664 0.778449
v -2.58789 0.636852 1.38887
v -0.636984 0.0 1.15381
v -0.192324 0.0 0.89172
v -0.636724 0.370402 1.14033
v -0.213694 0.450842 0.89168
v -1.35932 0.645405 1.32906
v -1.25872 0.647875 1.31622
v -1.13716 0.649509 1.29367
v -1.11276 0.651854 1.28525
v -0.637506 0.75575 1.0355
v -0.55805 0.766131 0.988224
v -0.580193 0.820539 0.753159
v -1.35583 0.824317 0.770858
v -1.35764 0.783126 0.930957
v -1.35852 0.738848 1.12753
v -0.0951743 0.0 0.836418
v -0.0968087 0.479023 0.824624
v -0.104392 0.543098 0.824045
v -0.122998 0.679165 0.824419
v -0.133769 0.727473 0.827021
v -0.247823 0.717073 0.891698
v -0.634235 0.667185 1.11886
v -0.985054 0.581465 1.29721
v -1.00644 0.561514 1.30921
v -1.01887 0.281896 1.33634
v -1.01306 0.0 1.34569
v -1.35932 -0.645405 1.32906
v -1.25872 -0.647875 1.31622
v -1.35852 -0.738848 1.12753
v -2.58749 -0.790107 0.942431
v -3.25793 -0.715397 1.15019
v -2.58749 -0.734217 1.1644
v -3.50533 -0.760137 0.931848
v -3.50631 -0.702247 1.13149
v -3.25793 -0.775437 0.934968
v -3.50545 -0.80824 0.79945
v -2.58736 -0.842664 0.778449
v -1.4529 -0.750319 1.13118
v -2.56893 -0.734217 1.1644
v -2.27509 -0.63995 1.38954
v -1.45275 -0.794158 0.934341
v -2.56893 -0.790107 0.942431
v -1.4524 -0.838151 0.762749
v -1.35764 -0.783126 0.930957
v -0.637506 -0.75575 1.0355
v -3.61306 -0.70109 1.12586
v -3.52578 -0.65172 1.26894
v -3.58327 -0.78607 0.81643
v -3.63254 -0.76765 0.83526
v -3.68002 -0.732537 0.937386
v -3.48882 -0.63832 1.30896
v -3.25837 -0.63357 1.36155
v -2.90006 -0.63376 1.3882
v -3.66673 -0.75314 0.85688
v -0.55805 -0.766131 0.988224
v -3.25956 -0.82788 0.78314
v -3.68444 -0.7397 0.89753
v -3.45043 -0.6332 1.32772
v -3.39419 -0.6313 1.34212
v -1.45306 -0.64815 1.35361
v -1.74532 -0.6465 1.37743
v -1.13716 -0.649509 1.29367
v -1.11276 -0.651854 1.28525
v -3.66498 -0.72074 1.00005
v -2.56854 -0.843067 0.778321
v -2.58789 -0.636852 1.38887
v -2.57003 -0.637029 1.38891
v -0.580193 -0.820539 0.753159
v -1.35583 -0.824317 0.770858
v -1.01887 -0.281896 1.33634
v -0.636724 -0.370402 1.14033
v -0.213694 -0.450842 0.89168
v -0.247823 -0.717073 0.891698
v -0.0968087 -0.479023 0.824624
v -1.00644 -0.561514 1.30921
v -0.634235 -0.667185 1.11886
v -0.104392 -0.543098 0.824045
v -0.985054 -0.581465 1.29721
v -0.122998 -0.679165 0.824419
v -0.133769 -0.727473 0.827021
v -3.63521 0.0 1.32961
v -3.62904 0.255812 1.31186
v -3.61109 0.490763 1.2928
v -4.04086 0.0 0.750094
v -4.01951 0.278447 0.754174
v -3.91652 0.649561 0.856023
v -3.75222 0.619509 1.12811
v -3.6273 0.571823 1.25589
v -3.60936 0.562936 1.2762
v -3.60316 0.536607 1.28913
v -4.02844 0.234585 0.74886
v -3.80201 0.255107 1.13071
v -3.93848 0.254362 0.924338
v -3.95901 0.0 0.919698
v -3.81929 0.0 1.13394
v -3.93863 0.624393 0.825927
v -3.92888 0.641596 0.837027
v -3.86859 0.640794 0.935397
v -3.62904 -0.255812 1.31186
v -3.61109 -0.490763 1.2928
v -4.02844 -0.234585 0.74886
v -3.91652 -0.649561 0.856023
v -3.86859 -0.640794 0.935397
v -3.6273 -0.571823 1.25589
v -3.75222 -0.619509 1.12811
v -3.60936 -0.562936 1.2762
v -3.60316 -0.536607 1.28913
v -4.01951 -0.278447 0.754174
v -3.80201 -0.255107 1.13071
v -3.93848 -0.254362 0.924338
v -3.93863 -0.624393 0.825927
v -3.92888 -0.641596 0.837027

vn -0.042973 0.961028 0.27309
vn -0.0340629 0.959913 0.27822
vn -0.0619607 0.952014 0.299717
vn -0.0156618 0.967161 0.253682
vn -0.0130084 0.964221 0.264779
vn -0.0491586 0.96216 0.268015
vn -0.0260681 0.95992 0.27906
vn -0.046734 0.966226 0.253424
vn -0.0681826 0.962933 0.260979
vn -0.0704141 -0.953356 0.293521
vn -0.093681 -0.949855 0.298329
vn -0.105467 -0.964675 0.24141
vn -0.117165 -0.956355 0.267689
vn -0.124158 -0.963173 0.238502
vn -0.128547 -0.966374 0.222704
vn -0.130034 -0.967728 0.215857
vn -0.109326 -0.965355 0.236935
vn -0.747837 0.163289 0.643488
vn -0.747837 0.163289 0.643488
vn -0.750809 -0.137515 0.646046
vn -0.750809 -0.137515 0.646046
vn -0.750809 -0.137515 0.646046
vn -0.750809 -0.137515 0.646046
vn -0.747837 0.163289 0.643488
vn -0.892374 0.0880436 0.442625
vn -0.892374 -0.0880436 0.442625
vn 0.0313856 0.906724 0.420554
vn 0.050286 0.909781 0.412031
vn 0.0252791 0.942502 0.333243
vn -0.0274752 0.960438 0.277135
vn -0.0497793 0.947448 0.316012
vn -0.0263145 0.948299 0.316285
vn -0.0475004 0.948718 0.312534
vn -0.0406895 0.953664 0.298111
vn -0.0233663 0.950985 0.308352
vn 0.00325885 0.950763 0.309901
vn -0.00438847 0.947467 0.319825
vn -0.00365171 0.920828 0.389953
vn -0.00427057 0.972058 0.234703
vn 0.00282536 0.962103 0.272671
vn -0.000714534 0.967161 0.254165
vn 0.0073336 0.972478 0.232881
vn 0.00868649 0.968163 0.250169
vn -0.0287402 0.939517 0.341293
vn -0.0390711 0.938872 0.342041
vn -0.0481046 0.93234 0.358369
vn -0.027568 0.926961 0.374144
vn 0.00465503 0.974532 0.2242
vn -0.0356446 0.944484 0.32662
vn -0.0526208 0.937216 0.344758
vn -0.0631685 0.935138 0.348607
vn 0.0288783 0.908335 0.417245
vn 0.00417212 0.919664 0.392684
vn 0.0579077 0.909402 0.411867
vn 0.0418954 0.901033 0.431724
vn 0.00847598 0.951632 0.307122
vn -0.00994216 0.917377 0.397896
vn -0.00993721 0.917676 0.397204
vn 0.00532662 0.973608 0.228163
vn 0.0104049 0.968379 0.249268
vn 0.445695 0.0497748 0.8938
vn 0.451623 0.0 0.892209
vn 0.474296 0.0468135 0.87912
vn 0.479607 0.0 0.877484
vn 0.495414 0.0441006 0.867537
vn 0.493098 0.0620893 0.867755
vn 0.500963 0.0 0.865469
vn 0.488702 0.0465613 0.871207
vn 0.43897 0.0676643 0.89595
vn 0.475469 0.0605506 0.877646
vn 0.485224 0.0644139 0.872014
vn 0.438717 0.0686447 0.895999
vn 0.487631 0.0625784 0.870804
vn 0.488056 0.0619059 0.870614
vn 0.494701 0.0 0.869063
vn 0.050286 -0.909781 0.412031
vn 0.0313856 -0.906724 0.420554
vn 0.0252791 -0.942502 0.333243
vn -0.0497793 -0.947448 0.316012
vn -0.0274752 -0.960438 0.277135
vn -0.0263145 -0.948299 0.316285
vn -0.0475004 -0.948718 0.312534
vn -0.0406895 -0.953664 0.298111
vn -0.0233663 -0.950985 0.308352
vn -0.00438847 -0.947467 0.319825
vn 0.00325885 -0.950763 0.309901
vn -0.00365171 -0.920828 0.389953
vn -0.00427057 -0.972058 0.234703
vn 0.00282536 -0.962103 0.272671
vn -0.000714534 -0.967161 0.254165
vn 0.0073336 -0.972478 0.232881
vn 0.00868649 -0.968163 0.250169
vn -0.062338 -0.957811 0.280555
vn -0.0287402 -0.939517 0.341293
vn -0.0390711 -0.938872 0.342041
vn -0.0481046 -0.93234 0.358369
vn -0.027568 -0.926961 0.374144
vn 0.00465503 -0.974532 0.2242
vn -0.0356446 -0.944484 0.32662
vn -0.0631685 -0.935138 0.348607
vn -0.0526208 -0.937216 0.344758
vn 0.0288783 -0.908335 0.417245
vn 0.00417212 -0.919664 0.392684
vn 0.0579077 -0.909402 0.411867
vn 0.0418954 -0.901033 0.431724
vn 0.00847598 -0.951632 0.307122
vn -0.00994216 -0.917377 0.397896
vn -0.00993721 -0.917676 0.397204
vn 0.0104049 -0.968379 0.249268
vn 0.00532662 -0.973608 0.228163
vn 0.445695 -0.0497748 0.8938
vn 0.474296 -0.0468135 0.87912
vn 0.495414 -0.0441006 0.867537
vn 0.493098 -0.0620893 0.867755
vn 0.488702 -0.0465613 0.871207
vn 0.43897 -0.0676643 0.89595
vn 0.475469 -0.0605506 0.877646
vn 0.485224 -0.0644139 0.872014
vn 0.438717 -0.0686447 0.895999
vn 0.487631 -0.0625784 0.870804
vn 0.488056 -0.0619059 0.870614
vn -0.725908 0.0 0.687792
vn -0.720636 0.087703 0.687744
vn -0.779108 0.0891727 0.620515
vn -0.786214 0.0 0.617955
vn -0.747837 0.163289 0.643488
vn -0.774825 0.116708 0.62131
vn -0.86188 0.0935199 0.498415
vn -0.850484 0.134867 0.508417
vn -0.870027 0.0 0.493005
vn -0.892374 0.0880436 0.442625
vn -0.900608 0.0 0.434633
vn -0.850577 0.135654 0.508051
vn -0.841163 0.137163 0.523098
vn -0.848391 0.135596 0.51171
vn -0.720636 -0.087703 0.687744
vn -0.779108 -0.0891727 0.620515
vn -0.774825 -0.116708 0.62131
vn -0.86188 -0.0935199 0.498415
vn -0.850484 -0.134867 0.508417
vn -0.892374 -0.0880436 0.442625
vn -0.850577 -0.135654 0.508051
vn -0.841163 -0.137163 0.523098
vn -0.848391 -0.135596 0.51171

g
g lightwindows
usemtl lightwindows
f 38//27 39//28 47//29
g darkwindows
usemtl darkwindows
f 30//30 1//31 31//32
f 1//31 4//1 5//33
f 1//31 3//34 4//1
f 3//34 6//2 4//1
f 3//34 30//30 32//35
f 9//36 8//37 10//38
f 8//37 11//39 12//40
f 11//39 8//37 9//36
f 11//39 13//41 12//40
g lightwindows
usemtl lightwindows
f 46//42 47//29 42//43
g darkwindows
usemtl darkwindows
f 4//1 15//3 5//33
f 18//44 5//33 15//3
f 20//4 19//5 16//6
f 18//44 21//45 5//33
f 1//31 2//46 22//47
f 19//5 23//7 16//6
g lightwindows
usemtl lightwindows
f 46//42 42//43 43//48
g darkwindows
usemtl darkwindows
f 3//34 7//49 6//2
f 24//8 16//6 23//7
f 26//50 25//51 5//33
f 28//52 9//36 14//53
f 5//33 21//45 26//50
f 14//53 9//36 10//38
g lightwindows
usemtl lightwindows
f 47//29 40//54 41//55
g darkwindows
usemtl darkwindows
f 17//9 15//3 4//1
f 17//9 4//1 16//6
f 5//33 25//51 2//46
g lightwindows
usemtl lightwindows
f 42//43 47//29 41//55
g darkwindows
usemtl darkwindows
f 27//56 12//40 13//41
f 20//4 4//1 6//2
f 4//1 20//4 16//6
f 1//31 5//33 2//46
f 22//47 33//57 31//32
g lightwindows
usemtl lightwindows
f 40//54 47//29 39//28
g darkwindows
usemtl darkwindows
f 29//58 10//38 8//37
f 1//31 30//30 3//34
f 32//35 7//49 3//34
f 31//32 1//31 22//47
g lightwindows
usemtl lightwindows
f 44//59 45//60 46//42
f 46//42 43//48 44//59
f 57//61 58//62 36//63
f 34//64 37//65 36//63
f 34//64 36//63 58//62
f 53//66 36//63 37//65
f 34//64 35//67 37//65
f 37//65 35//67 49//68
f 56//69 57//61 54//70
f 50//71 37//65 49//68
f 54//70 55//72 56//69
f 50//71 51//73 37//65
f 51//73 53//66 37//65
f 54//70 36//63 53//66
f 52//74 53//66 51//73
f 48//75 49//68 35//67
f 54//70 57//61 36//63
f 60//76 59//77 61//78
g darkwindows
usemtl darkwindows
f 63//79 62//80 64//81
f 65//10 63//79 66//82
f 67//83 63//79 65//10
f 68//11 67//83 65//10
f 62//80 67//83 69//84
f 71//85 70//86 72//87
f 73//88 71//85 74//89
f 71//85 73//88 70//86
f 75//90 73//88 74//89
g lightwindows
usemtl lightwindows
f 61//78 76//91 77//92
g darkwindows
usemtl darkwindows
f 78//93 65//10 66//82
f 66//82 79//94 78//93
f 81//12 80//13 82//14
f 83//95 79//94 66//82
f 84//96 63//79 85//97
f 86//15 81//12 82//14
g lightwindows
usemtl lightwindows
f 77//92 76//91 87//98
g darkwindows
usemtl darkwindows
f 88//99 67//83 68//11
f 82//14 89//16 86//15
f 91//100 90//101 66//82
f 70//86 92//102 93//103
f 83//95 66//82 90//101
f 70//86 93//103 72//87
g lightwindows
usemtl lightwindows
f 94//104 61//78 95//105
g darkwindows
usemtl darkwindows
f 78//93 96//17 65//10
f 65//10 96//17 82//14
f 91//100 66//82 84//96
g lightwindows
usemtl lightwindows
f 61//78 77//92 95//105
g darkwindows
usemtl darkwindows
f 74//89 97//106 75//90
f 65//10 80//13 68//11
f 80//13 65//10 82//14
f 66//82 63//79 84//96
f 98//107 85//97 64//81
g lightwindows
usemtl lightwindows
f 61//78 94//104 60//76
g darkwindows
usemtl darkwindows
f 72//87 99//108 71//85
f 62//80 63//79 67//83
f 88//99 69//84 67//83
f 63//79 64//81 85//97
g lightwindows
usemtl lightwindows
f 101//109 100//110 76//91
f 87//98 76//91 100//110
f 58//62 102//111 103//112
f 104//113 34//64 103//112
f 103//112 34//64 58//62
f 103//112 105//114 104//113
f 35//67 34//64 104//113
f 35//67 104//113 106//115
f 102//111 107//116 108//117
f 104//113 109//118 106//115
f 110//119 108//117 107//116
f 111//120 109//118 104//113
f 105//114 111//120 104//113
f 103//112 108//117 105//114
f 105//114 112//121 111//120
f 106//115 48//75 35//67
f 102//111 108//117 103//112
g darkwindows
usemtl darkwindows
f 113//122 114//123 124//124
f 124//124 127//125 113//122
f 124//124 114//123 115//126
f 124//124 115//126 122//24
f 124//124 122//24 121//18
f 124//124 121//18 120//19
f 124//124 120//19 119//127
f 125//128 124//124 119//127
f 128//129 117//25 125//128
f 127//125 124//124 125//128
f 125//128 126//130 127//125
f 126//130 125//128 123//131
f 123//131 116//132 126//130
f 123//131 125//128 117//25
f 125//128 129//133 128//129
f 125//128 130//134 118//135
f 125//128 118//135 129//133
f 125//128 119//127 130//134
f 131//136 113//122 141//137
f 127//125 141//137 113//122
f 131//136 141//137 132//20
f 132//20 141//137 139//21
f 139//21 141//137 138//22
f 138//22 141//137 136//23
f 136//23 141//137 137//138
f 141//137 142//139 137//138
f 140//26 143//140 142//139
f 141//137 127//125 142//139
f 126//130 142//139 127//125
f 142//139 126//130 133//141
f 116//132 133//141 126//130
f 142//139 133//141 140//26
f 144//142 142//139 143//140
f 135//143 142//139 134//144
f 134//144 142//139 144//142
f 137//138 142//139 135//143
