# Max2Obj Version 4.0 Mar 10th, 2001
#
# object Object01 to come ...
#
v  -4.3467 0.9085 1.1948
v  -3.7190 0.9085 1.1948
v  -4.7612 0.9085 1.1948
v  -4.2490 0.9085 0.6865
v  -3.7190 0.9085 0.6865
v  -4.7612 0.9085 0.6865
v  -4.4678 0.9085 0.6865
v  -1.3471 -0.0002 0.7804
v  -1.3471 -0.0002 1.1948
v  -1.3471 -0.0002 0.6865
v  -1.9262 0.9085 1.1948
v  -1.5117 0.9085 1.1948
v  -1.3471 0.7449 1.1948
v  -1.3471 0.5367 1.1948
v  -2.7742 0.9085 0.6865
v  -1.5117 0.9085 0.6865
v  -1.3471 0.2682 0.6865
v  -2.5554 0.9085 0.6865
v  -1.3471 0.7449 0.6865
v  -1.3471 0.6350 0.6865
v  -4.3467 -0.9089 1.1948
v  -3.7190 -0.9089 1.1948
v  -4.7612 -0.9089 1.1948
v  -4.2490 -0.9089 0.6865
v  -3.7190 -0.9089 0.6865
v  -4.7612 -0.9089 0.6865
v  -4.4678 -0.9089 0.6865
v  -1.9262 -0.9089 1.1948
v  -1.5117 -0.9089 1.1948
v  -1.3471 -0.7453 1.1948
v  -1.3471 -0.5371 1.1948
v  -2.7742 -0.9089 0.6865
v  -1.5117 -0.9089 0.6865
v  -1.3471 -0.2686 0.6865
v  -2.5554 -0.9089 0.6865
v  -1.3471 -0.7453 0.6865
v  -1.3471 -0.6353 0.6865
# 37 vertices

vn  0.0000 1.0000 0.0000
vn  0.0000 1.0000 0.0000
vn  0.0000 1.0000 0.0000
vn  0.0000 1.0000 0.0000
vn  0.0000 1.0000 0.0000
vn  0.0000 1.0000 0.0000
vn  0.0000 1.0000 0.0000
vn  1.0000 -0.0000 0.0000
vn  1.0000 -0.0000 0.0000
vn  1.0000 -0.0000 0.0000
vn  0.0000 1.0000 0.0000
vn  0.0000 1.0000 0.0000
vn  1.0000 -0.0000 0.0000
vn  1.0000 -0.0000 0.0000
vn  0.0000 1.0000 0.0000
vn  0.0000 1.0000 0.0000
vn  1.0000 -0.0000 0.0000
vn  0.0000 1.0000 0.0000
vn  1.0000 -0.0000 0.0000
vn  1.0000 -0.0000 0.0000
vn  -0.0000 -1.0000 0.0000
vn  -0.0000 -1.0000 0.0000
vn  -0.0000 -1.0000 0.0000
vn  -0.0000 -1.0000 0.0000
vn  -0.0000 -1.0000 0.0000
vn  -0.0000 -1.0000 0.0000
vn  -0.0000 -1.0000 0.0000
vn  -0.0000 -1.0000 0.0000
vn  -0.0000 -1.0000 0.0000
vn  1.0000 -0.0000 0.0000
vn  1.0000 -0.0000 0.0000
vn  -0.0000 -1.0000 0.0000
vn  -0.0000 -1.0000 0.0000
vn  1.0000 -0.0000 0.0000
vn  -0.0000 -1.0000 0.0000
vn  1.0000 -0.0000 0.0000
vn  1.0000 -0.0000 0.0000
# 37 vertex normals

g Object01
s 1
f 3//3 7//7 6//6
f 1//1 5//5 4//4
f 1//1 2//2 5//5
f 4//4 7//7 3//3
f 1//1 4//4 3//3
f 8//8 10//10 17//17
f 9//9 8//8 14//14
f 12//12 16//16 18//18
f 11//11 15//15 5//5
f 11//11 5//5 2//2
f 15//15 12//12 18//18
f 11//11 12//12 15//15
f 14//14 20//20 19//19
f 14//14 19//19 13//13
f 8//8 17//17 20//20
f 8//8 20//20 14//14
f 23//23 26//26 27//27
f 21//21 24//24 25//25
f 21//21 25//25 22//22
f 24//24 23//23 27//27
f 21//21 23//23 24//24
f 8//8 34//34 10//10
f 9//9 31//31 8//8
f 29//29 35//35 33//33
f 28//28 25//25 32//32
f 28//28 22//22 25//25
f 32//32 35//35 29//29
f 28//28 32//32 29//29
f 31//31 36//36 37//37
f 31//31 30//30 36//36
f 8//8 37//37 34//34
f 8//8 31//31 37//37
# 32 faces

g
