# Max2Obj Version 4.0 Mar 10th, 2001
#
# object default to come ...
#
v  -4.28900 -0.81900 0.29400
v  -4.15000 -0.81900 0.29400
v  -3.89200 -0.81900 0.29400
v  -2.68500 -0.81900 0.29400
v  -2.30700 -0.81900 0.29400
v  -1.88700 -0.81900 0.29400
v  -1.46800 -0.81900 0.29400
v  -0.65900 -0.81900 0.29400
v  -4.28900 -0.29200 0.29400
v  -3.89200 -0.49600 0.29400
v  -2.68500 -0.49600 0.29400
v  -1.88700 0.01000 0.29400
v  -0.65900 -0.29200 0.29400
v  -2.68500 0.01000 0.29400
v  -4.06600 -0.59500 1.54100
v  -3.91100 -0.61800 1.58400
v  -3.40000 -0.59500 1.58000
v  -2.75200 -0.59500 1.58000
v  -2.49800 -0.59500 1.58000
v  -1.81200 -0.59500 1.58000
v  -1.68200 -0.59500 1.57300
v  -0.99500 -0.65500 1.51600
v  -4.08400 -0.22300 1.54600
v  -2.64400 0.01000 1.58000
v  -1.04900 -0.29200 1.54200
v  -3.98400 0.01000 1.57600
v  -1.00700 0.01000 1.53900
v  -4.33800 -0.71700 1.11000
v  -4.29500 -0.80100 1.06300
v  -3.40000 -0.80600 1.05800
v  -2.92600 -0.80200 1.06000
v  -2.63000 -0.80200 1.02200
v  -1.85000 -0.80200 1.01600
v  -1.67300 -0.80200 1.01600
v  -0.60900 -0.79900 1.01600
v  -0.66400 -0.29200 1.01600
v  -0.66400 0.01000 1.01600
v  -4.33100 0.01000 1.11000
v  -4.33100 -0.29200 1.11000
v  -4.27200 -0.72800 1.22500
v  -4.20400 -0.73700 1.22500
v  -2.81800 -0.73000 1.36000
v  -2.61100 -0.73000 1.34800
v  -1.82800 -0.73000 1.28600
v  -1.67400 -0.73000 1.28600
v  -0.75000 -0.78100 1.22500
v  -0.94600 -0.70800 1.47300
v  -1.00300 -0.25200 1.53800
v  -0.47800 -0.81000 1.04200
v  -0.37502 -0.37929 1.03987
v  -0.36442 -0.00001 1.03987
v  -0.70400 -0.76600 1.26700
v  -1.67800 -0.70800 1.57400
v  -1.20600 -0.71900 1.54000
v  -1.66200 -0.87500 1.01800
v  -0.64100 -0.87500 1.01800
v  -1.66700 -0.81400 1.27100
v  -0.89900 -0.79500 1.32000
v  -2.49200 -0.70500 1.57800
v  -1.81200 -0.70500 1.57800
v  -2.63100 -0.87500 1.01800
v  -1.85300 -0.87500 1.01800
v  -2.61600 -0.81300 1.27200
v  -1.84100 -0.81300 1.27200
v  -3.89000 -0.67100 1.58800
v  -3.21200 -0.65400 1.60700
v  -2.74600 -0.65600 1.60500
v  -4.28100 -0.86200 1.07100
v  -3.44500 -0.86100 1.07100
v  -2.93800 -0.85700 1.08300
v  -4.12000 -0.78500 1.36900
v  -2.85000 -0.81300 1.27100
v  -4.08200 -0.63600 1.54400
v  -4.08400 -0.42800 1.54600
v  -4.08400 0.01000 1.54600
v  -4.41900 -0.70400 1.11300
v  -4.42900 0.01000 1.12300
v  -4.43000 -0.37800 1.12100
v  -4.25600 -0.68700 1.36900
v  -4.19100 -0.66700 1.45200
v  -4.32800 -0.70400 1.27100
v  -4.06300 -0.75500 1.45300
v  -3.96400 -0.71100 1.54000
v  -4.18700 -0.81600 1.27100
v  -2.74563 -0.70354 1.57750
v  -2.78800 -0.75600 1.45300
v  -2.84300 -0.65400 1.60600
v  -2.56400 -0.75700 1.45400
v  -2.59600 -0.78200 1.36900
v  -2.90500 -0.84400 1.13500
v  -3.01200 -0.81500 1.05700
v  -3.02900 -0.86100 1.07100
v  -1.28500 -0.71000 1.56100
v  -1.13000 -0.72900 1.51500
v  -0.95900 -0.77700 1.38500
v  -1.07000 -0.74500 1.47400
v  -0.41477 -0.72421 1.03987
v  -0.84500 -0.73500 1.39300
v  -0.99800 -0.45900 1.53400
v  -3.89200 -0.81900 0.74900
v  -2.68500 -0.81900 0.74900
v  -3.89200 -0.49600 0.74900
v  -2.68500 -0.49600 0.74900
v  -2.68500 -0.81900 0.74900
v  -3.89200 -0.81900 0.74900
v  -4.28900 0.01000 0.29400
v  -0.65900 0.01000 0.29400
v  -3.89200 0.84000 0.29400
v  -3.89200 0.51600 0.29400
v  -4.15000 0.84000 0.29400
v  -3.89200 0.51600 0.74900
v  -3.89200 0.84000 0.74900
v  -2.68500 0.51600 0.74900
v  -2.68500 0.84000 0.74900
v  -2.68500 0.51600 0.29400
v  -2.68500 0.84000 0.29400
v  -2.30700 0.84000 0.29400
v  -1.88700 0.84000 0.29400
v  -1.46800 0.84000 0.29400
v  -0.65900 0.31300 0.29400
v  -0.65900 0.84000 0.29400
v  -3.91100 0.63900 1.58400
v  -4.06600 0.61600 1.54100
v  -4.08400 0.22300 1.54600
v  -3.40000 0.61600 1.58000
v  -2.75200 0.61600 1.58000
v  -2.49800 0.61600 1.58000
v  -1.81200 0.61600 1.58000
v  -1.68200 0.61600 1.57300
v  -0.99500 0.67600 1.51600
v  -1.04900 0.31300 1.54200
v  -4.28900 0.84000 0.29400
v  -4.29500 0.82200 1.06300
v  -4.33800 0.73700 1.11000
v  -3.89200 0.84000 0.74900
v  -3.40000 0.82700 1.05800
v  -2.68500 0.84000 0.74900
v  -2.92600 0.82300 1.06000
v  -2.63000 0.82300 1.02200
v  -1.85000 0.82300 1.01600
v  -1.67300 0.82300 1.01600
v  -0.60900 0.82000 1.01600
v  -4.20400 0.75800 1.22500
v  -4.27200 0.74900 1.22500
v  -2.61100 0.75100 1.34800
v  -2.81800 0.75100 1.36000
v  -1.67400 0.75100 1.28600
v  -1.82800 0.75100 1.28600
v  -4.19100 0.66700 1.45200
v  -4.08200 0.63600 1.54400
v  -0.66400 0.31300 1.01600
v  -4.33100 0.31300 1.11000
v  -4.28900 0.31300 0.29400
v  -1.00300 0.27300 1.53800
v  -0.75000 0.80100 1.22500
v  -0.47800 0.81000 1.04200
v  -0.70400 0.76600 1.26700
v  -0.94600 0.70800 1.47300
v  -0.37502 0.37928 1.03987
v  -0.41477 0.72420 1.03987
v  -1.67800 0.70800 1.57400
v  -1.20600 0.71900 1.54000
v  -1.28500 0.71000 1.56100
v  -0.64300 0.87500 1.01800
v  -1.66200 0.87500 1.01800
v  -1.66700 0.81400 1.27100
v  -0.89900 0.79500 1.32000
v  -2.49200 0.70500 1.57800
v  -1.81200 0.70500 1.57800
v  -1.85300 0.87500 1.01800
v  -2.63100 0.87500 1.01800
v  -2.61600 0.81300 1.27200
v  -1.84100 0.81300 1.27200
v  -2.56400 0.75700 1.45400
v  -3.89000 0.67100 1.58800
v  -3.21200 0.65400 1.60700
v  -2.84300 0.65400 1.60600
v  -3.44500 0.86100 1.07100
v  -4.28100 0.86200 1.07100
v  -3.01200 0.83600 1.05700
v  -4.12000 0.78400 1.36900
v  -4.18700 0.81600 1.27100
v  -2.78800 0.75600 1.45300
v  -2.74600 0.70400 1.57700
v  -2.74600 0.65600 1.60500
v  -2.93800 0.85700 1.08300
v  -2.91500 0.85000 1.11200
v  -3.96400 0.71100 1.54000
v  -4.06300 0.75500 1.45300
v  -2.85000 0.81300 1.27100
v  -4.08400 0.42800 1.54600
v  -4.32800 0.70400 1.27100
v  -4.41900 0.70400 1.11300
v  -4.43000 0.37800 1.12100
v  -4.25600 0.68700 1.36900
v  -2.59600 0.78200 1.36900
v  -3.02900 0.86100 1.07100
v  -1.07000 0.74500 1.47400
v  -1.13000 0.72900 1.51500
v  -0.95900 0.77700 1.38500
v  -0.84300 0.72600 1.39500
v  -0.99800 0.48000 1.53400
# 202 vertices

vn  0.55788 0.58862 0.58506
vn  0.00493 0.71210 0.70206
vn  -0.57735 0.57735 0.57735
vn  0.57735 0.57735 0.57735
vn  -0.00382 0.71387 0.70027
vn  0.00000 0.71538 0.69873
vn  -0.00074 0.71581 0.69830
vn  -0.57091 0.58269 0.57839
vn  0.99852 -0.00251 0.05437
vn  -0.30151 0.30151 0.90453
vn  0.30151 0.30151 0.90453
vn  0.00000 0.00000 1.00000
vn  -0.70955 0.00000 0.70465
vn  0.00000 0.00000 1.00000
vn  0.05744 -0.03711 -0.99766
vn  0.23317 0.08539 -0.96868
vn  0.01142 -0.15809 -0.98736
vn  -0.25538 0.16539 -0.95259
vn  0.15859 0.17772 -0.97122
vn  -0.23079 0.22716 -0.94612
vn  0.15253 0.25688 -0.95433
vn  -0.16212 0.26899 -0.94940
vn  0.25060 0.01547 -0.96797
vn  -0.00737 -0.00000 -0.99997
vn  -0.06348 0.01461 -0.99788
vn  0.19929 -0.00012 -0.97994
vn  -0.03122 -0.00001 -0.99951
vn  0.72459 0.68236 0.09670
vn  0.73825 0.67313 -0.04332
vn  0.00095 0.79104 0.61176
vn  -0.26840 0.93002 0.25105
vn  0.34675 0.91647 0.19964
vn  -0.34479 0.91273 0.21921
vn  0.33267 0.92854 0.16477
vn  -0.52401 0.74139 0.41923
vn  -0.74008 -0.02401 0.67209
vn  -0.73700 0.00000 0.67589
vn  0.73379 0.00007 0.67937
vn  0.72896 -0.00816 0.68451
vn  0.17527 0.97348 -0.14704
vn  0.65962 0.53991 -0.52288
vn  -0.73814 0.67462 -0.00516
vn  0.59915 0.67116 -0.43654
vn  -0.68059 0.70697 -0.19230
vn  0.69753 0.67804 -0.23177
vn  -0.25703 0.86719 -0.42652
vn  -0.23915 0.78082 -0.57717
vn  -0.09220 0.00646 -0.99572
vn  -0.13546 0.54497 0.82744
vn  -0.08914 -0.00120 0.99602
vn  -0.08056 0.00002 0.99675
vn  -0.04839 0.95933 -0.27812
vn  0.74967 -0.00084 -0.66181
vn  -0.21164 0.34932 -0.91279
vn  0.62220 0.10696 0.77552
vn  -0.69682 0.39977 0.59550
vn  0.99687 0.07911 -0.00105
vn  -0.43899 0.67898 -0.58845
vn  0.52774 0.04421 -0.84825
vn  -0.79473 0.02670 -0.60637
vn  0.65092 -0.05042 0.75747
vn  -0.62815 0.04350 0.77687
vn  0.99561 0.02292 -0.09073
vn  -0.98958 0.13805 0.04086
vn  0.23345 0.00858 -0.97233
vn  0.00368 -0.40540 -0.91413
vn  -0.91372 -0.27984 -0.29462
vn  0.79096 0.20779 0.57551
vn  0.00656 0.22483 0.97438
vn  -0.49777 0.41171 0.76336
vn  0.80038 -0.27555 -0.53241
vn  -0.92549 -0.04629 0.37593
vn  0.02096 0.74751 -0.66392
vn  -0.26559 0.00024 -0.96409
vn  0.28735 0.00000 -0.95783
vn  0.12848 0.53560 0.83464
vn  0.13150 0.00015 0.99132
vn  0.12455 -0.01494 0.99210
vn  0.08037 0.95628 -0.28120
vn  -0.06453 0.96926 -0.23743
vn  0.21601 0.95576 -0.19968
vn  0.77790 -0.50326 -0.37629
vn  0.63994 -0.00114 -0.76842
vn  0.86797 -0.09683 -0.48708
vn  -0.88403 -0.23917 0.40162
vn  -0.95173 -0.02451 0.30596
vn  -0.00546 -0.39618 -0.91815
vn  0.90402 -0.00442 -0.42748
vn  0.93633 0.14006 -0.32199
vn  -0.92366 0.14808 0.35344
vn  -0.04250 0.07723 0.99611
vn  -0.05406 0.30897 0.94953
vn  -0.04947 -0.46317 -0.88489
vn  -0.24727 0.42896 -0.86882
vn  -0.59883 0.15340 -0.78605
vn  -0.25427 0.75685 -0.60210
vn  -0.13935 0.04617 0.98917
vn  0.50018 0.78443 0.36673
vn  0.12760 0.08630 -0.98806
vn  -0.70711 0.00000 0.70711
vn  0.70711 0.00000 0.70711
vn  -0.57735 0.57735 0.57735
vn  0.57735 0.57735 0.57735
vn  -0.03014 0.99851 -0.04547
vn  0.01300 0.99940 -0.03208
vn  0.68869 0.00000 0.72505
vn  -0.70955 0.00000 0.70465
vn  -0.57735 -0.57735 0.57735
vn  -0.30151 -0.30151 0.90453
vn  0.00493 -0.71210 0.70206
vn  -0.57735 -0.57735 0.57735
vn  -0.70711 0.00000 0.70711
vn  0.57735 -0.57735 0.57735
vn  0.70711 0.00000 0.70711
vn  0.30151 -0.30151 0.90453
vn  0.57735 -0.57735 0.57735
vn  -0.00382 -0.71387 0.70027
vn  0.00000 -0.71538 0.69873
vn  -0.00074 -0.71581 0.69830
vn  -0.70955 0.00000 0.70465
vn  -0.57091 -0.58269 0.57839
vn  0.24709 -0.09968 -0.96385
vn  0.07278 0.09483 -0.99283
vn  0.25316 -0.01529 -0.96730
vn  0.01320 0.22775 -0.97363
vn  -0.29365 -0.12009 -0.94834
vn  0.15808 -0.18101 -0.97069
vn  -0.22999 -0.22836 -0.94602
vn  0.15291 -0.25818 -0.95392
vn  -0.15958 -0.40605 -0.89981
vn  -0.06349 -0.01461 -0.99788
vn  0.55789 -0.58863 0.58504
vn  0.71545 -0.69618 -0.05877
vn  0.77927 -0.62660 0.01030
vn  0.01300 -0.99940 -0.03208
vn  0.00231 -0.82807 0.56062
vn  -0.03014 -0.99851 -0.04547
vn  -0.22990 -0.95303 0.19717
vn  0.35332 -0.91351 0.20167
vn  -0.34053 -0.91588 0.21261
vn  0.32170 -0.93545 0.14644
vn  -0.55105 -0.76387 0.33593
vn  0.67065 -0.53226 -0.51665
vn  0.27126 -0.94003 -0.20679
vn  0.57090 -0.69904 -0.43060
vn  -0.73237 -0.68087 -0.00781
vn  0.68466 -0.68931 -0.23682
vn  -0.65936 -0.72503 -0.19894
vn  0.05301 -0.93300 -0.35595
vn  0.09681 -0.62981 -0.77070
vn  -0.74004 0.02415 0.67213
vn  0.72876 0.00872 0.68472
vn  0.99852 0.00251 0.05437
vn  -0.09220 -0.00645 -0.99572
vn  -0.25487 -0.85917 -0.44370
vn  -0.22632 -0.55383 0.80128
vn  -0.23525 -0.85667 -0.45910
vn  -0.24153 -0.78244 -0.57399
vn  -0.08877 0.00105 0.99605
vn  -0.14368 -0.04495 0.98860
vn  0.74600 -0.00362 -0.66593
vn  -0.19288 -0.43698 -0.87855
vn  -0.04138 0.65062 -0.75828
vn  -0.61909 -0.49680 0.60821
vn  0.61015 -0.15023 0.77791
vn  0.99411 -0.10786 -0.01008
vn  -0.27173 -0.83475 -0.47891
vn  0.52284 -0.05436 -0.85069
vn  -0.79494 -0.02901 -0.60599
vn  -0.62764 -0.06248 0.77599
vn  0.64481 0.07094 0.76105
vn  0.99619 -0.02273 -0.08420
vn  -0.98134 -0.19055 0.02557
vn  0.90553 0.01887 -0.42386
vn  0.19337 0.00614 -0.98111
vn  0.00282 0.56909 -0.82227
vn  -0.00490 0.55666 -0.83073
vn  0.00756 -0.34884 0.93715
vn  0.77488 -0.32501 0.54215
vn  -0.05075 -0.19453 0.97958
vn  0.78857 0.35322 -0.50339
vn  0.86581 0.12954 -0.48331
vn  -0.95075 0.03227 0.30828
vn  -0.88754 0.23215 0.39797
vn  -0.88478 0.38002 -0.26972
vn  -0.43217 -0.60127 0.67209
vn  -0.90190 -0.26592 0.34040
vn  0.64640 0.00958 -0.76294
vn  0.72965 0.61233 -0.30440
vn  -0.91785 0.08334 0.38807
vn  -0.26559 -0.00021 -0.96409
vn  0.40128 -0.86025 -0.31455
vn  0.24070 -0.48573 0.84031
vn  0.12111 0.01422 0.99254
vn  0.26654 -0.87415 -0.40598
vn  0.91461 -0.20744 -0.34708
vn  -0.04477 -0.51112 0.85834
vn  -0.24482 -0.75666 -0.60624
vn  -0.24727 -0.42896 -0.86882
vn  -0.57870 -0.21148 -0.78765
vn  -0.27556 -0.79089 -0.54640
vn  0.12760 -0.08630 -0.98806
# 202 vertex normals

g default
s 2
f 2//2 3//3 10//10 106//106
f 103//103 102//102 100//100 101//101
f 12//12 11//11 4//4 5//5
f 13//13 12//12 7//7 8//8
f 10//10 11//11 14//14 106//106
f 25//25 22//22 21//21 24//24
f 29//29 2//2 1//1 28//28
f 2//2 29//29 105//105 3//3
f 5//5 4//4 104//104 32//32
f 33//33 6//6 5//5 32//32
f 34//34 7//7 6//6 33//33
f 35//35 8//8 7//7 34//34
f 41//41 29//29 28//28 40//40
f 43//43 32//32 31//31 42//42
f 45//45 34//34 33//33 44//44
f 16//16 41//41 40//40 73//73
f 80//80 73//73 40//40 79//79
f 19//19 43//43 42//42 18//18
f 21//21 45//45 44//44 20//20
f 36//36 13//13 8//8 35//35
f 13//13 36//36 37//37 107//107
f 106//106 38//38 39//39 9//9
f 28//28 1//1 9//9 39//39
f 49//49 35//35 46//46 52//52
f 52//52 46//46 47//47 98//98
f 50//50 36//36 35//35 97//97
f 51//51 37//37 36//36 50//50
f 53//53 21//21 22//22 93//93
f 56//56 35//35 34//34 55//55
f 55//55 34//34 45//45 57//57
f 46//46 35//35 56//56 58//58
f 57//57 45//45 21//21 53//53
f 59//59 19//19 20//20 60//60
f 62//62 33//33 32//32 61//61
f 32//32 43//43 63//63 61//61
f 64//64 44//44 33//33 62//62
f 43//43 19//19 88//88 89//89
f 60//60 20//20 44//44 64//64
f 65//65 16//16 17//17 66//66
f 66//66 17//17 18//18 87//87
f 69//69 30//30 29//29 68//68
f 91//91 31//31 30//30 69//69
f 68//68 29//29 41//41 84//84
f 86//86 85//85 67//67 18//18
f 31//31 70//70 90//90 42//42
f 71//71 41//41 16//16 82//82
f 83//83 82//82 16//16 65//65
f 74//74 23//23 15//15 73//73
f 23//23 74//74 75//75 26//26
f 23//23 26//26 16//16 15//15
f 28//28 76//76 81//81 40//40
f 78//78 39//39 38//38 77//77
f 76//76 28//28 39//39 78//78
f 86//86 18//18 42//42 72//72
f 70//70 31//31 91//91 92//92
f 96//96 94//94 47//47 46//46
f 46//46 58//58 95//95 96//96
f 25//25 48//48 99//99 22//22
f 10//10 3//3 100//100 102//102
f 11//11 10//10 102//102 103//103
f 4//4 11//11 103//103 101//101
f 31//31 104//104 105//105 30//30
f 106//106 9//9 1//1 2//2
f 109//109 108//108 110//110 106//106
f 112//112 111//111 113//113 114//114
f 116//116 115//115 12//12 117//117
f 119//119 12//12 120//120 121//121
f 14//14 115//115 109//109 106//106
f 129//129 130//130 131//131 24//24
f 132//132 110//110 133//133 134//134
f 135//135 133//133 110//110 108//108
f 137//137 116//116 117//117 139//139
f 117//117 118//118 140//140 139//139
f 118//118 119//119 141//141 140//140
f 119//119 121//121 142//142 141//141
f 134//134 133//133 143//143 144//144
f 138//138 139//139 145//145 146//146
f 140//140 141//141 147//147 148//148
f 144//144 143//143 122//122 150//150
f 144//144 150//150 149//149 195//195
f 146//146 145//145 127//127 126//126
f 148//148 147//147 129//129 128//128
f 121//121 120//120 151//151 142//142
f 37//37 151//151 120//120 107//107
f 152//152 38//38 106//106 153//153
f 153//153 132//132 134//134 152//152
f 155//155 142//142 156//156 157//157
f 158//158 155//155 157//157 201//201
f 142//142 151//151 159//159 160//160
f 151//151 37//37 51//51 159//159
f 130//130 129//129 161//161 163//163
f 141//141 142//142 164//164 165//165
f 147//147 141//141 165//165 166//166
f 164//164 142//142 155//155 167//167
f 129//129 147//147 166//166 161//161
f 128//128 127//127 168//168 169//169
f 139//139 140//140 170//170 171//171
f 172//172 145//145 139//139 171//171
f 140//140 148//148 173//173 170//170
f 174//174 127//127 145//145 196//196
f 148//148 128//128 169//169 173//173
f 125//125 122//122 175//175 176//176
f 126//126 125//125 176//176 177//177
f 133//133 136//136 178//178 179//179
f 180//180 136//136 138//138 186//186
f 178//178 136//136 180//180 197//197
f 143//143 133//133 179//179 182//182
f 185//185 184//184 183//183 126//126
f 187//187 186//186 138//138 146//146
f 122//122 143//143 181//181 189//189
f 122//122 189//189 188//188 175//175
f 123//123 124//124 191//191 150//150
f 75//75 191//191 124//124 26//26
f 124//124 123//123 122//122 26//26
f 192//192 193//193 134//134 144//144
f 38//38 152//152 194//194 77//77
f 152//152 134//134 193//193 194//194
f 146//146 126//126 183//183 190//190
f 158//158 199//199 198//198 155//155
f 200//200 167//167 155//155 198//198
f 202//202 154//154 131//131 130//130
f 112//112 108//108 109//109 111//111
f 111//111 109//109 115//115 113//113
f 113//113 115//115 116//116 114//114
f 135//135 137//137 138//138 136//136
f 132//132 153//153 106//106 110//110
f 24//24 16//16 122//122
f 6//6 12//12 5//5
f 7//7 12//12 6//6
f 14//14 11//11 12//12
f 13//13 107//107 12//12
f 17//17 16//16 24//24
f 18//18 17//17 24//24
f 19//19 18//18 24//24
f 20//20 19//19 24//24
f 21//21 20//20 24//24
f 26//26 122//122 16//16
f 25//25 24//24 27//27
f 29//29 30//30 105//105
f 31//31 32//32 104//104
f 25//25 27//27 48//48
f 54//54 93//93 22//22
f 22//22 47//47 54//54
f 59//59 88//88 19//19
f 71//71 84//84 41//41
f 72//72 42//42 90//90
f 16//16 73//73 15//15
f 81//81 79//79 40//40
f 67//67 87//87 18//18
f 63//63 43//43 89//89
f 69//69 92//92 91//91
f 49//49 97//97 35//35
f 47//47 94//94 54//54
f 12//12 118//118 117//117
f 12//12 119//119 118//118
f 115//115 14//14 12//12
f 107//107 120//120 12//12
f 122//122 125//125 24//24
f 125//125 126//126 24//24
f 126//126 127//127 24//24
f 127//127 128//128 24//24
f 128//128 129//129 24//24
f 24//24 131//131 27//27
f 136//136 133//133 135//135
f 139//139 138//138 137//137
f 27//27 131//131 154//154
f 163//163 162//162 130//130
f 158//158 130//130 162//162
f 174//174 168//168 127//127
f 182//182 181//181 143//143
f 146//146 190//190 187//187
f 150//150 122//122 123//123
f 195//195 192//192 144//144
f 177//177 185//185 126//126
f 145//145 172//172 196//196
f 186//186 197//197 180//180
f 160//160 156//156 142//142
f 199//199 158//158 162//162
# 178 faces

g
