mtllib ./brakes_on.mtl
g
v -3.78252 -0.93846 0.40134
v -3.78304 -0.93887 0.48759
v -3.8117 -0.93682 0.48514
v -3.81554 -0.927112 0.394303
v -3.84945 -0.9053 0.48067
v -3.83274 -0.91022 0.390639
v -3.8546 -0.88406 0.47999
v -3.84483 -0.88322 0.38806
v -3.78473 -0.8945 0.74361
v -3.80962 -0.88167 0.749002
v -3.80718 -0.91038 0.68073
v -3.82622 -0.8629 0.752524
v -3.83654 -0.83699 0.75461
v -3.85294 -0.86542 0.6453
v -3.84469 -0.88029 0.67459
v -3.78197 -0.91827 0.65392
v -3.77501 -0.92071 0.64281
v -3.77271 -0.93214 0.5707
v -3.78153 -0.93214 0.57146
v -3.81206 -0.93044 0.57372
v -3.85157 -0.89853 0.57051
v -3.85678 -0.87754 0.56663
v -3.77479 -0.93878 0.48855
v -3.59847 -0.22726 1.42235
v -3.57247 -0.2215 1.44453
v -3.62102 -0.23277 1.39768
v -3.6199 0.0 1.39881
v -3.59847 0.0 1.4223
v -3.57247 0.0 1.44448
v -3.8117 0.93682 0.48514
v -3.81554 0.927112 0.394303
v -3.78252 0.93846 0.40134
v -3.84945 0.9053 0.48067
v -3.83274 0.91022 0.390639
v -3.8546 0.88406 0.47999
v -3.84483 0.88322 0.38806
v -3.80962 0.88167 0.749002
v -3.80718 0.91038 0.68073
v -3.78473 0.8945 0.74361
v -3.83654 0.83699 0.75461
v -3.84469 0.88029 0.67459
v -3.82622 0.8629 0.752524
v -3.85294 0.86542 0.6453
v -3.78197 0.91827 0.65392
v -3.77501 0.92071 0.64281
v -3.78153 0.93214 0.57146
v -3.77271 0.93214 0.5707
v -3.81206 0.93044 0.57372
v -3.85157 0.89853 0.57051
v -3.85678 0.87754 0.56663
v -3.78304 0.93887 0.48759
v -3.77479 0.93878 0.48855
v -3.59847 0.22726 1.42235
v -3.57247 0.2215 1.44453
v -3.62102 0.23277 1.39768

vt 0.748968 0.0296623 0.514372
vt 0.743045 0.25845 0.543509
vt 0.811362 0.249592 0.579313
vt 0.84085 0.0110175 0.533858
vt 0.942642 0.24344 0.560565
vt 0.904393 0.00466983 0.519037
vt 0.984774 0.247597 0.519478
vt 0.970698 0.00482417 0.474243
vt 0.79097 0.951502 0.526584
vt 0.865521 0.967152 0.534949
vt 0.824093 0.777382 0.574971
vt 0.929859 0.980518 0.517294
vt 0.990223 0.992907 0.473914
vt 0.99515 0.692319 0.527342
vt 0.952909 0.766384 0.558596
vt 0.757488 0.706418 0.548092
vt 0.739006 0.676902 0.540086
vt 0.722883 0.482215 0.539802
vt 0.742891 0.483315 0.552737
vt 0.814606 0.486659 0.593526
vt 0.950351 0.483788 0.576825
vt 0.992506 0.479367 0.535375
vt 0.724333 0.261885 0.531738
vt 0.587358 0.0999225 0.508907
vt 0.572679 0.202576 0.499786
vt 0.601399 -0.000474299 0.500037
vt 0.00890165 0.00417621 0.500396
vt 0.00890165 0.00417618 0.500396
vt 0.00888712 0.0996865 0.508932
vt 0.00888709 0.0996865 0.508932
vt 0.00886944 0.202342 0.499808
vt 0.811362 0.249592 0.579313
vt 0.84085 0.0110175 0.533858
vt 0.748968 0.0296623 0.514372
vt 0.942642 0.24344 0.560565
vt 0.904393 0.00466983 0.519037
vt 0.984774 0.247597 0.519478
vt 0.970698 0.00482417 0.474243
vt 0.865521 0.967152 0.534949
vt 0.824093 0.777382 0.574971
vt 0.79097 0.951502 0.526584
vt 0.990223 0.992907 0.473914
vt 0.952909 0.766384 0.558596
vt 0.929859 0.980518 0.517294
vt 0.99515 0.692319 0.527342
vt 0.757488 0.706418 0.548092
vt 0.739006 0.676902 0.540086
vt 0.742891 0.483315 0.552737
vt 0.722883 0.482215 0.539802
vt 0.814606 0.486659 0.593526
vt 0.950351 0.483788 0.576825
vt 0.992506 0.479367 0.535375
vt 0.743045 0.25845 0.543509
vt 0.724333 0.261885 0.531738
vt 0.00890165 0.00417621 0.500396
vt 0.587358 0.0999225 0.508907
vt 0.00888709 0.0996865 0.508932
vt 0.00886944 0.202342 0.499808
vt 0.00888712 0.0996865 0.508932
vt 0.572679 0.202576 0.499786
vt 0.00890165 0.00417618 0.500396
vt 0.601399 -0.000474299 0.500037

vn -0.37818 -0.925672 0.0105502
vn -0.532958 -0.841898 -0.0846368
vn -0.250838 -0.965503 -0.0698842
vn -0.847627 -0.529286 -0.0372029
vn -0.805451 -0.580842 -0.117777
vn -0.969947 -0.236944 -0.0553164
vn -0.910464 -0.389763 -0.138348
vn -0.564653 -0.759179 0.32375
vn -0.364121 -0.897715 0.24804
vn -0.296481 -0.89503 0.333196
vn -0.900685 -0.337076 0.274129
vn -0.84165 -0.496116 0.213293
vn -0.803832 -0.51099 0.304537
vn -0.948358 -0.294618 0.117549
vn -0.0304062 -0.97644 0.213636
vn -0.0753313 -0.982792 0.168654
vn -0.0204215 -0.99163 0.127487
vn 0.00749251 -0.992684 0.120508
vn -0.35757 -0.924723 0.130507
vn -0.843812 -0.529594 0.0866679
vn -0.97003 -0.238516 0.0463777
vn -0.0324856 -0.998847 0.0353414
vn 0.00614727 -0.99908 0.0424426
vn -0.738569 0.0 0.674178
vn -0.699619 0.00020935 0.714516
vn -0.695168 0.0 0.718848
vn -0.649009 0.0 0.760781
vn -0.649026 0.00016941 0.760767
vn -0.738136 0.000249183 0.674652
vn -0.532958 0.841898 -0.0846367
vn -0.37818 0.925672 0.0105502
vn -0.250838 0.965503 -0.0698842
vn -0.805451 0.580842 -0.117777
vn -0.847627 0.529286 -0.0372029
vn -0.910464 0.389763 -0.138348
vn -0.969947 0.236944 -0.0553164
vn -0.364121 0.897715 0.24804
vn -0.564653 0.759179 0.32375
vn -0.296481 0.89503 0.333196
vn -0.84165 0.496116 0.213293
vn -0.900685 0.337076 0.274129
vn -0.803832 0.51099 0.304537
vn -0.948358 0.294618 0.117549
vn -0.0753313 0.982792 0.168654
vn -0.0304062 0.97644 0.213636
vn -0.0204215 0.99163 0.127487
vn 0.00749251 0.992684 0.120508
vn -0.35757 0.924723 0.130507
vn -0.843812 0.529594 0.0866679
vn -0.97003 0.238516 0.0463777
vn -0.0324856 0.998847 0.0353414
vn 0.00614727 0.99908 0.0424426
vn -0.699619 -0.00020935 0.714516
vn -0.649026 -0.00016941 0.760767
vn -0.738136 -0.000249183 0.674652

g
g 23_-_Default
usemtl 23_-_Default
f 3/3/1 4/4/2 1/1/3
f 5/5/4 6/6/5 4/4/2
f 7/7/6 8/8/7 5/5/4
f 10/10/8 11/11/9 9/9/10
f 13/13/11 15/15/12 12/12/13
f 14/14/14 15/15/12 13/13/11
f 16/16/15 17/17/16 9/9/10
f 16/16/15 19/19/17 18/18/18
f 11/11/9 20/20/19 19/19/17
f 15/15/12 21/21/20 20/20/19
f 15/15/12 22/22/21 21/21/20
f 19/19/17 2/2/22 23/23/23
f 20/20/19 3/3/1 2/2/22
f 21/21/20 5/5/4 3/3/1
f 22/22/21 7/7/6 5/5/4
f 1/1/3 23/23/23 2/2/22
f 1/1/3 2/2/22 3/3/1
f 4/4/2 3/3/1 5/5/4
f 6/6/5 5/5/4 8/8/7
f 11/11/9 10/10/8 15/15/12
f 15/15/12 10/10/8 12/12/13
f 16/16/15 9/9/10 11/11/9
f 18/18/18 17/17/16 16/16/15
f 19/19/17 16/16/15 11/11/9
f 20/20/19 11/11/9 15/15/12
f 22/22/21 15/15/12 14/14/14
f 23/23/23 18/18/18 19/19/17
f 2/2/22 19/19/17 20/20/19
f 3/3/1 20/20/19 21/21/20
f 5/5/4 21/21/20 22/22/21
g 23_-_Default
usemtl 23_-_Default
f 27/27/24 24/24/25 28/30/26
f 29/31/27 28/29/26 25/25/28
f 26/26/29 24/24/25 27/28/24
f 25/25/28 28/30/26 24/24/25
g 23_-_Default
usemtl 23_-_Default
f 31/33/30 30/32/31 32/34/32
f 34/36/33 33/35/34 31/33/30
f 36/38/35 35/37/36 33/35/34
f 38/40/37 37/39/38 39/41/39
f 41/43/40 40/42/41 42/44/42
f 41/43/40 43/45/43 40/42/41
f 45/47/44 44/46/45 39/41/39
f 46/48/46 44/46/45 47/49/47
f 48/50/48 38/40/37 46/48/46
f 49/51/49 41/43/40 48/50/48
f 50/52/50 41/43/40 49/51/49
f 51/53/51 46/48/46 52/54/52
f 30/32/31 48/50/48 51/53/51
f 33/35/34 49/51/49 30/32/31
f 35/37/36 50/52/50 33/35/34
f 52/54/52 32/34/32 51/53/51
f 51/53/51 32/34/32 30/32/31
f 30/32/31 31/33/30 33/35/34
f 33/35/34 34/36/33 36/38/35
f 37/39/38 38/40/37 41/43/40
f 37/39/38 41/43/40 42/44/42
f 39/41/39 44/46/45 38/40/37
f 45/47/44 47/49/47 44/46/45
f 44/46/45 46/48/46 38/40/37
f 38/40/37 48/50/48 41/43/40
f 41/43/40 50/52/50 43/45/43
f 47/49/47 52/54/52 46/48/46
f 46/48/46 51/53/51 48/50/48
f 48/50/48 30/32/31 49/51/49
f 49/51/49 33/35/34 50/52/50
g 23_-_Default
usemtl 23_-_Default
f 53/56/53 27/55/24 28/57/26
f 28/59/26 29/58/27 54/60/54
f 53/56/53 55/62/55 27/61/24
f 28/57/26 54/60/54 53/56/53
