# 3ds Max Wavefront OBJ Exporter v0.94b - (c)2007 guruware
# File Created: 25.06.2009 11:09:47

mtllib Sensor90.mtl

#
# object 90deg01
#

v  0.9699 0.1296 0.1674
v  0.9699 0.1296 -0.1659
v  0.9197 0.2600 -0.1659
v  0.9197 0.2600 0.1674
v  -0.0000 -0.0008 0.0009
v  0.7070 0.4992 0.1675
v  0.7070 0.4992 -0.1658
v  0.9699 0.1296 0.5007
v  0.9197 0.2600 0.5008
v  0.7070 -0.5008 -0.1658
v  0.7070 -0.5008 0.1675
v  0.9699 -0.1313 -0.4993
v  0.9197 -0.2619 -0.4992
v  0.9699 -0.1313 -0.1659
v  0.9197 -0.2619 -0.1659
v  0.7070 0.4992 0.5009
v  0.7070 0.4992 -0.4991
v  0.7070 -0.5008 -0.4991
v  0.7070 -0.5008 0.5009
v  0.8340 -0.3748 0.1675
v  0.8340 -0.3748 -0.1659
v  0.9197 -0.2619 0.1674
v  0.9699 -0.1313 0.1674
v  1.0000 -0.0008 -0.1658
v  1.0000 -0.0008 0.1675
v  0.8340 0.3731 -0.1659
v  0.8340 0.3731 0.1675
v  0.8340 -0.3748 0.5008
v  0.9197 -0.2619 0.5008
v  0.9699 -0.1313 0.5007
v  1.0000 -0.0008 0.5009
v  0.8340 0.3731 0.5008
v  0.8340 0.3731 -0.4992
v  0.9197 0.2600 -0.4992
v  0.9699 0.1296 -0.4993
v  1.0000 -0.0008 -0.4991
v  0.8340 -0.3748 -0.4992
# 37 vertices

vn 0.9562 0.2928 -0.0000
vn 0.9562 0.2928 0.0000
vn 0.8737 0.4865 -0.0000
vn -0.5774 0.8165 0.0000
vn -0.4167 -0.0000 0.9090
vn -0.4401 -0.1314 0.8883
vn -0.4159 -0.2230 0.8816
vn -0.5774 -0.8165 0.0000
vn -0.5774 -0.8165 -0.0000
vn -0.4169 -0.0000 -0.9089
vn -0.4402 0.1321 -0.8881
vn -0.4162 0.2227 -0.8816
vn 0.9563 -0.2925 -0.0000
vn 0.8736 -0.4866 -0.0000
vn 0.7524 -0.6587 -0.0000
vn 0.8736 -0.4866 0.0000
vn 0.9563 -0.2925 0.0000
vn 1.0000 0.0001 0.0000
vn 1.0000 0.0001 -0.0000
vn 0.7526 0.6585 -0.0000
vn -0.3761 0.3225 0.8686
vn -0.4159 0.2230 0.8816
vn -0.4401 0.1313 0.8883
vn -0.4472 -0.0001 0.8944
vn -0.3762 -0.3223 0.8687
vn -0.3766 -0.3218 -0.8687
vn -0.4162 -0.2227 -0.8816
vn -0.4402 -0.1323 -0.8881
vn -0.4472 -0.0001 -0.8944
vn -0.3765 0.3220 -0.8687
vn 0.7524 -0.6588 0.0000
vn 0.8736 -0.4867 0.0000
vn 0.7526 0.6584 0.0000
vn 0.8737 0.4865 0.0000
vn 0.9562 0.2929 0.0000
vn 0.7045 -0.7097 -0.0000
vn 0.7045 0.7097 0.0000
vn 0.7045 0.7097 -0.0000
vn 0.7045 -0.7097 0.0000
vn -0.3565 -0.3587 -0.8627
vn -0.3565 0.3587 -0.8627
vn -0.3561 0.3592 0.8627
vn -0.3561 -0.3591 0.8627
# 43 vertex normals

vt 0.6667 0.3750 0.0000
vt 0.3333 0.3750 0.0000
vt 0.3333 0.2500 0.0000
vt 0.6667 0.2500 0.0000
vt 0.5000 0.0000 0.0000
vt 0.6667 1.0000 0.0000
vt 0.3333 1.0000 0.0000
vt 0.3333 0.0000 0.0000
vt 0.3750 1.0000 0.0000
vt 0.2500 1.0000 0.0000
vt 1.0000 0.3750 0.0000
vt 1.0000 0.2500 0.0000
vt 0.0000 0.6250 0.0000
vt 0.3333 0.6250 0.0000
vt 0.3333 0.7500 0.0000
vt 0.0000 0.7500 0.0000
vt 1.0000 1.0000 0.0000
vt 0.0000 1.0000 0.0000
vt 0.6667 0.8750 0.0000
vt 0.3333 0.8750 0.0000
vt 0.6667 0.7500 0.0000
vt 0.6667 0.6250 0.0000
vt 0.3333 0.5000 0.0000
vt 0.6667 0.5000 0.0000
vt 0.3333 0.1250 0.0000
vt 0.6667 0.1250 0.0000
vt 0.8750 1.0000 0.0000
vt 0.7500 1.0000 0.0000
vt 0.6250 1.0000 0.0000
vt 0.5000 1.0000 0.0000
vt 0.1250 1.0000 0.0000
vt 1.0000 0.8750 0.0000
vt 1.0000 0.7500 0.0000
vt 1.0000 0.6250 0.0000
vt 1.0000 0.5000 0.0000
vt 1.0000 0.1250 0.0000
vt 0.0000 0.1250 0.0000
vt 0.0000 0.2500 0.0000
vt 0.0000 0.3750 0.0000
vt 0.0000 0.5000 0.0000
vt 0.0000 0.8750 0.0000
vt 0.6667 0.0000 0.0000
vt 1.0000 0.0000 0.0000
vt 0.0000 0.0000 0.0000
# 44 texture coords

g 90deg01
usemtl 11___Default
s 524288
f -37/-44/-43 -36/-43/-42 -35/-42/-41 
f -35/-42/-41 -34/-41/-41 -37/-44/-43 
s 16777216
f -33/-40/-40 -32/-39/-40 -31/-38/-40 
s 65536
f -33/-37/-39 -30/-36/-38 -29/-35/-37 
s 256
f -33/-40/-36 -28/-39/-36 -27/-38/-35 
s 1
f -33/-40/-34 -26/-36/-33 -25/-35/-32 
s 524288
f -30/-34/-43 -37/-44/-43 -34/-41/-41 
f -34/-41/-41 -29/-33/-41 -30/-34/-43 
f -26/-32/-31 -24/-31/-31 -23/-30/-30 
f -23/-30/-30 -25/-29/-30 -26/-32/-31 
s 16777216
f -33/-40/-40 -22/-28/-40 -32/-39/-40 
f -31/-38/-40 -21/-27/-40 -33/-40/-40 
s 256
f -33/-40/-36 -20/-28/-36 -28/-39/-36 
f -27/-38/-35 -19/-27/-35 -33/-40/-36 
s 524288
f -18/-26/-29 -17/-25/-29 -23/-30/-30 
f -23/-30/-30 -16/-24/-28 -18/-26/-29 
f -15/-23/-27 -24/-31/-31 -14/-22/-26 
f -14/-22/-26 -13/-21/-25 -15/-23/-27 
f -12/-20/-24 -11/-19/-24 -34/-41/-41 
f -34/-41/-41 -35/-42/-41 -12/-20/-24 
s 65536
f -33/-37/-39 -10/-18/-23 -9/-17/-22 
f -33/-37/-39 -8/-16/-21 -7/-15/-20 
f -29/-35/-37 -6/-14/-19 -33/-37/-39 
s 1
f -33/-40/-34 -5/-18/-18 -4/-17/-17 
f -33/-40/-34 -3/-16/-16 -2/-15/-15 
f -25/-35/-32 -1/-14/-14 -33/-40/-34 
s 524288
f -10/-13/-13 -18/-26/-29 -16/-24/-28 
f -16/-24/-28 -9/-12/-12 -10/-13/-13 
f -8/-11/-31 -15/-23/-27 -13/-21/-25 
f -13/-21/-25 -7/-10/-26 -8/-11/-31 
f -11/-19/-24 -6/-9/-24 -29/-33/-41 
f -29/-33/-41 -34/-41/-41 -11/-19/-24 
f -5/-8/-11 -12/-20/-24 -35/-42/-41 
f -35/-42/-41 -4/-7/-10 -5/-8/-11 
f -3/-6/-9 -36/-43/-42 -14/-22/-26 
f -14/-22/-26 -2/-5/-26 -3/-6/-9 
f -17/-25/-29 -1/-4/-29 -25/-29/-30 
f -25/-29/-30 -23/-30/-30 -17/-25/-29 
f -13/-21/-25 -14/-22/-26 -36/-43/-42 
f -36/-43/-42 -37/-44/-43 -13/-21/-25 
f -7/-10/-26 -13/-21/-25 -37/-44/-43 
f -37/-44/-43 -30/-34/-43 -7/-10/-26 
f -2/-5/-26 -14/-22/-26 -24/-31/-31 
f -24/-31/-31 -26/-32/-31 -2/-5/-26 
f -27/-39/-8 -28/-38/-8 -17/-25/-29 
f -17/-25/-29 -18/-26/-29 -27/-39/-8 
f -16/-24/-28 -23/-30/-30 -24/-31/-31 
f -24/-31/-31 -15/-23/-27 -16/-24/-28 
f -31/-37/-7 -32/-3/-6 -11/-19/-24 
f -11/-19/-24 -12/-20/-24 -31/-37/-7 
f -19/-28/-5 -27/-39/-8 -18/-26/-29 
f -18/-26/-29 -10/-13/-13 -19/-28/-5 
f -9/-12/-12 -16/-24/-28 -15/-23/-27 
f -15/-23/-27 -8/-11/-31 -9/-12/-12 
f -32/-3/-6 -22/-2/-6 -6/-9/-24 
f -6/-9/-24 -11/-19/-24 -32/-3/-6 
f -21/-1/-6 -31/-37/-7 -12/-20/-24 
f -12/-20/-24 -5/-8/-11 -21/-1/-6 
f -4/-7/-10 -35/-42/-41 -36/-43/-42 
f -36/-43/-42 -3/-6/-9 -4/-7/-10 
f -28/-38/-8 -20/-27/-8 -1/-4/-29 
f -1/-4/-29 -17/-25/-29 -28/-38/-8 
s 1
f -33/-40/-34 -21/-28/-4 -5/-18/-18 
f -33/-40/-34 -2/-15/-15 -26/-36/-33 
f -33/-40/-34 -4/-17/-17 -3/-16/-16 
f -1/-14/-14 -20/-27/-3 -33/-40/-34 
s 65536
f -33/-37/-39 -7/-15/-20 -30/-36/-38 
f -33/-37/-39 -19/-28/-2 -10/-18/-23 
f -33/-37/-39 -9/-17/-22 -8/-16/-21 
f -6/-14/-19 -22/-27/-1 -33/-37/-39 
# 70 faces

