# 3ds Max Wavefront OBJ Exporter v0.94b - (c)2007 guruware
# File Created: 25.06.2009 11:10:07

mtllib Sensor20.mtl

#
# object 20deg
#

v  1.0000 -0.0003 0.5009
v  1.0000 -0.0003 0.2509
v  0.9925 0.2483 0.2509
v  0.9925 0.2483 0.5009
v  0.0000 -0.0008 0.0009
v  0.9840 -0.5008 0.0009
v  0.9840 -0.5008 0.2509
v  0.9840 -0.5008 0.5009
v  1.0000 -0.0003 -0.4991
v  0.9925 -0.2489 -0.4991
v  0.9840 0.4992 0.0009
v  0.9840 0.4992 -0.2491
v  0.9840 0.4992 -0.4991
v  0.9925 -0.2489 0.2509
v  0.9925 -0.2489 0.5009
v  0.9925 0.2483 -0.2491
v  0.9925 0.2483 -0.4991
v  0.9840 0.4992 0.5009
v  0.9840 -0.5008 -0.4991
v  1.0000 -0.0003 -0.2491
v  0.9925 0.2483 0.0009
v  1.0000 -0.0003 0.0009
v  0.9840 -0.5008 -0.2491
v  0.9840 0.4992 0.2509
v  0.9925 -0.2489 -0.2491
v  0.9925 -0.2489 0.0009
# 26 vertices

vn 1.0000 0.0000 0.0000
vn 0.9995 0.0321 0.0000
vn -0.4470 0.0000 0.8945
vn -0.4472 -0.0000 0.8944
vn -0.4470 -0.0145 0.8944
vn -0.4530 -0.8915 -0.0000
vn -0.4470 0.0000 -0.8945
vn -0.4472 -0.0000 -0.8944
vn -0.4470 0.0144 -0.8944
vn -0.4530 0.8915 0.0000
vn 0.9994 -0.0340 0.0000
vn 0.9995 -0.0320 0.0000
vn 0.9994 0.0341 0.0000
vn -0.4468 0.0152 0.8945
vn -0.4470 0.0144 0.8944
vn -0.4468 -0.0153 0.8945
vn -0.4468 -0.0153 -0.8945
vn -0.4470 -0.0145 -0.8944
vn -0.4468 0.0152 -0.8945
vn 0.9995 0.0321 -0.0000
vn 1.0000 0.0000 -0.0000
vn 0.9994 -0.0340 -0.0000
vn 0.9995 -0.0320 -0.0000
vn 0.9994 0.0341 -0.0000
# 24 vertex normals

vt 0.5000 0.0000 0.0000
vt 0.5000 0.2500 0.0000
vt 0.2500 0.2500 0.0000
vt 0.2500 0.0000 0.0000
vt 0.3125 0.0000 0.0000
vt 0.5000 1.0000 0.0000
vt 0.2500 1.0000 0.0000
vt 0.3750 0.0000 0.0000
vt 0.0000 1.0000 0.0000
vt 1.0000 0.0000 0.0000
vt 1.0000 0.2500 0.0000
vt 0.7500 0.2500 0.0000
vt 0.7500 0.0000 0.0000
vt 0.0000 0.7500 0.0000
vt 0.2500 0.7500 0.0000
vt 1.0000 1.0000 0.0000
vt 0.7500 1.0000 0.0000
vt 0.5000 0.7500 0.0000
vt 0.2500 0.5000 0.0000
vt 0.5000 0.5000 0.0000
vt 1.0000 0.5000 0.0000
vt 1.0000 0.7500 0.0000
vt 0.7500 0.7500 0.0000
vt 0.7500 0.5000 0.0000
vt 0.0000 0.5000 0.0000
vt 0.0000 0.2500 0.0000
vt 0.0000 0.0000 0.0000
# 27 texture coords

g 20deg
usemtl 11___Default
s 524288
f -26/-27/-24 -25/-26/-24 -24/-25/-23 
f -24/-25/-23 -23/-24/-23 -26/-27/-24 
s 65536
f -22/-23/-22 -26/-22/-21 -23/-21/-20 
s 256
f -22/-20/-19 -21/-22/-19 -20/-21/-19 
f -20/-21/-19 -19/-19/-19 -22/-20/-19 
s 1
f -22/-27/-18 -18/-22/-17 -17/-21/-16 
s 16777216
f -22/-20/-15 -16/-22/-15 -15/-21/-15 
f -15/-21/-15 -14/-19/-15 -22/-20/-15 
s 524288
f -19/-18/-14 -20/-17/-14 -13/-16/-13 
f -13/-16/-13 -12/-15/-13 -19/-18/-14 
f -26/-27/-24 -12/-15/-13 -13/-16/-13 
f -13/-16/-13 -25/-26/-24 -26/-27/-24 
f -14/-19/-12 -15/-14/-12 -11/-13/-23 
f -11/-13/-23 -10/-21/-23 -14/-19/-12 
s 65536
f -22/-23/-22 -19/-12/-11 -12/-11/-10 
f -22/-23/-22 -12/-11/-10 -26/-22/-21 
f -23/-21/-20 -9/-19/-9 -22/-23/-22 
s 1
f -22/-27/-18 -14/-12/-8 -10/-11/-7 
f -22/-27/-18 -10/-11/-7 -18/-22/-17 
f -17/-21/-16 -8/-19/-6 -22/-27/-18 
s 524288
f -7/-10/-24 -11/-13/-23 -6/-9/-5 
f -6/-9/-5 -5/-8/-4 -7/-10/-24 
s 256
f -22/-20/-19 -8/-12/-19 -4/-11/-19 
f -4/-11/-19 -21/-22/-19 -22/-20/-19 
s 16777216
f -22/-20/-15 -9/-12/-15 -3/-11/-15 
f -3/-11/-15 -16/-22/-15 -22/-20/-15 
s 524288
f -21/-7/-3 -4/-6/-14 -2/-5/-13 
f -2/-5/-13 -1/-4/-2 -21/-7/-3 
f -1/-4/-2 -2/-5/-13 -7/-10/-24 
f -7/-10/-24 -5/-8/-4 -1/-4/-2 
f -16/-3/-1 -3/-2/-12 -24/-25/-23 
f -24/-25/-23 -6/-9/-5 -16/-3/-1 
f -16/-3/-1 -6/-9/-5 -11/-13/-23 
f -11/-13/-23 -15/-14/-12 -16/-3/-1 
f -18/-22/-24 -10/-21/-23 -11/-13/-23 
f -11/-13/-23 -7/-10/-24 -18/-22/-24 
f -8/-12/-14 -17/-11/-13 -2/-5/-13 
f -2/-5/-13 -4/-6/-14 -8/-12/-14 
f -2/-5/-13 -17/-11/-13 -18/-22/-24 
f -18/-22/-24 -7/-10/-24 -2/-5/-13 
f -25/-26/-24 -5/-8/-4 -6/-9/-5 
f -6/-9/-5 -24/-25/-23 -25/-26/-24 
f -21/-7/-3 -1/-4/-2 -13/-16/-13 
f -13/-16/-13 -20/-17/-14 -21/-7/-3 
f -1/-4/-2 -5/-8/-4 -25/-26/-24 
f -25/-26/-24 -13/-16/-13 -1/-4/-2 
f -9/-1/-12 -23/-24/-23 -24/-25/-23 
f -24/-25/-23 -3/-2/-12 -9/-1/-12 
# 48 faces

