# Max2Obj Version 4.0 Mar 10th, 2001
#
# object NGon01 to come ...
#
v  0.328 -0.021 -0.150
v  0.326 0.019 -0.150
v  0.318 0.059 -0.150
v  0.305 0.098 -0.150
v  0.288 0.134 -0.150
v  0.266 0.169 -0.150
v  0.240 0.200 -0.150
v  0.211 0.228 -0.150
v  0.178 0.252 -0.150
v  0.142 0.271 -0.150
v  0.105 0.286 -0.150
v  0.065 0.296 -0.150
v  0.025 0.301 -0.150
v  -0.016 0.301 -0.150
v  -0.056 0.296 -0.150
v  -0.095 0.286 -0.150
v  -0.133 0.271 -0.150
v  -0.168 0.252 -0.150
v  -0.201 0.228 -0.150
v  -0.231 0.200 -0.150
v  -0.257 0.169 -0.150
v  -0.279 0.134 -0.150
v  -0.296 0.098 -0.150
v  -0.308 0.059 -0.150
v  -0.316 0.019 -0.150
v  -0.319 -0.021 -0.150
v  -0.316 -0.062 -0.150
v  -0.308 -0.102 -0.150
v  -0.296 -0.140 -0.150
v  -0.279 -0.177 -0.150
v  -0.257 -0.211 -0.150
v  -0.231 -0.243 -0.150
v  -0.201 -0.270 -0.150
v  -0.168 -0.294 -0.150
v  -0.133 -0.314 -0.150
v  -0.095 -0.329 -0.150
v  -0.056 -0.339 -0.150
v  -0.016 -0.344 -0.150
v  0.025 -0.344 -0.150
v  0.065 -0.339 -0.150
v  0.105 -0.329 -0.150
v  0.142 -0.314 -0.150
v  0.178 -0.294 -0.150
v  0.211 -0.270 -0.150
v  0.240 -0.243 -0.150
v  0.266 -0.211 -0.150
v  0.288 -0.177 -0.150
v  0.305 -0.140 -0.150
v  0.318 -0.102 -0.150
v  0.326 -0.062 -0.150
v  0.472 -0.019 0.000
v  0.469 0.040 0.000
v  0.458 0.097 0.000
v  0.440 0.153 0.000
v  0.415 0.205 0.000
v  0.383 0.255 0.000
v  0.346 0.300 0.000
v  0.304 0.340 0.000
v  0.256 0.374 0.000
v  0.205 0.402 0.000
v  0.151 0.424 0.000
v  0.094 0.438 0.000
v  0.036 0.446 0.000
v  -0.022 0.446 0.000
v  -0.080 0.438 0.000
v  -0.137 0.424 0.000
v  -0.191 0.402 0.000
v  -0.242 0.374 0.000
v  -0.290 0.340 0.000
v  -0.332 0.300 0.000
v  -0.370 0.255 0.000
v  -0.401 0.205 0.000
v  -0.426 0.153 0.000
v  -0.444 0.097 0.000
v  -0.455 0.040 0.000
v  -0.458 -0.019 0.000
v  -0.455 -0.077 0.000
v  -0.444 -0.134 0.000
v  -0.426 -0.190 0.000
v  -0.401 -0.243 0.000
v  -0.370 -0.292 0.000
v  -0.332 -0.337 0.000
v  -0.290 -0.377 0.000
v  -0.242 -0.412 0.000
v  -0.191 -0.440 0.000
v  -0.137 -0.461 0.000
v  -0.080 -0.476 0.000
v  -0.022 -0.483 0.000
v  0.036 -0.483 0.000
v  0.094 -0.476 0.000
v  0.151 -0.461 0.000
v  0.205 -0.440 0.000
v  0.256 -0.412 0.000
v  0.304 -0.377 0.000
v  0.346 -0.337 0.000
v  0.383 -0.292 0.000
v  0.415 -0.243 0.000
v  0.440 -0.190 0.000
v  0.458 -0.134 0.000
v  0.469 -0.077 0.000
# 100 vertices

vn  -1.153 -0.073 1.110
vn  -1.170 -0.074 1.126
vn  -1.149 -0.219 1.126
vn  -1.110 -0.361 1.126
vn  -1.055 -0.496 1.126
vn  -0.982 -0.623 1.125
vn  -0.895 -0.741 1.124
vn  -0.794 -0.846 1.123
vn  -0.681 -0.937 1.121
vn  -0.558 -1.014 1.120
vn  -0.426 -1.075 1.118
vn  -0.287 -1.119 1.116
vn  -0.145 -1.146 1.114
vn  0.000 -1.155 1.112
vn  0.145 -1.146 1.110
vn  0.287 -1.119 1.107
vn  0.426 -1.075 1.105
vn  0.557 -1.014 1.103
vn  0.681 -0.937 1.101
vn  0.794 -0.845 1.099
vn  0.895 -0.740 1.097
vn  0.982 -0.623 1.096
vn  1.054 -0.496 1.094
vn  1.110 -0.361 1.093
vn  1.148 -0.219 1.092
vn  1.169 -0.074 1.091
vn  1.171 0.074 1.091
vn  1.155 0.220 1.091
vn  1.120 0.364 1.091
vn  1.068 0.503 1.091
vn  0.998 0.634 1.092
vn  0.912 0.755 1.093
vn  0.812 0.864 1.094
vn  0.698 0.961 1.096
vn  0.573 1.042 1.097
vn  0.438 1.106 1.099
vn  0.296 1.153 1.101
vn  0.149 1.182 1.103
vn  0.000 1.191 1.105
vn  -0.149 1.182 1.108
vn  -0.296 1.153 1.110
vn  -0.438 1.106 1.112
vn  -0.573 1.042 1.114
vn  -0.698 0.961 1.116
vn  -0.812 0.865 1.118
vn  -0.913 0.755 1.120
vn  -0.999 0.634 1.122
vn  -1.068 0.503 1.123
vn  -1.121 0.364 1.124
vn  -1.156 0.220 1.125
vn  -1.108 -0.070 1.067
vn  -1.091 -0.069 1.051
vn  -1.074 -0.205 1.053
vn  -1.040 -0.338 1.055
vn  -0.990 -0.466 1.057
vn  -0.925 -0.587 1.059
vn  -0.845 -0.699 1.060
vn  -0.751 -0.800 1.062
vn  -0.646 -0.889 1.063
vn  -0.530 -0.964 1.065
vn  -0.406 -1.025 1.066
vn  -0.275 -1.070 1.066
vn  -0.139 -1.098 1.067
vn  0.000 -1.108 1.067
vn  0.139 -1.102 1.067
vn  0.277 -1.078 1.066
vn  0.410 -1.037 1.066
vn  0.538 -0.979 1.065
vn  0.658 -0.905 1.063
vn  0.767 -0.817 1.062
vn  0.865 -0.715 1.060
vn  0.949 -0.602 1.059
vn  1.018 -0.479 1.057
vn  1.071 -0.348 1.055
vn  1.107 -0.211 1.052
vn  1.125 -0.071 1.050
vn  1.125 0.071 1.048
vn  1.107 0.211 1.046
vn  1.072 0.348 1.044
vn  1.019 0.480 1.042
vn  0.950 0.603 1.040
vn  0.866 0.717 1.038
vn  0.769 0.819 1.036
vn  0.659 0.907 1.035
vn  0.539 0.981 1.034
vn  0.411 1.039 1.033
vn  0.277 1.081 1.032
vn  0.140 1.105 1.032
vn  0.000 1.112 1.032
vn  -0.139 1.101 1.032
vn  -0.275 1.073 1.032
vn  -0.407 1.028 1.033
vn  -0.532 0.967 1.034
vn  -0.647 0.891 1.035
vn  -0.753 0.802 1.037
vn  -0.846 0.700 1.038
vn  -0.926 0.588 1.040
vn  -0.991 0.466 1.042
vn  -1.041 0.338 1.044
vn  -1.075 0.205 1.046
# 100 vertex normals

g NGon01
s 1
f 1//1 51//51 52//52 2//2
s 4
f 2//2 52//52 53//53 3//3
s 2
f 3//3 53//53 54//54 4//4
s 4
f 4//4 54//54 55//55 5//5
s 2
f 5//5 55//55 56//56 6//6
s 4
f 6//6 56//56 57//57 7//7
s 2
f 7//7 57//57 58//58 8//8
s 4
f 8//8 58//58 59//59 9//9
s 2
f 9//9 59//59 60//60 10//10
s 4
f 10//10 60//60 61//61 11//11
s 2
f 11//11 61//61 62//62 12//12
s 4
f 12//12 62//62 63//63 13//13
s 2
f 13//13 63//63 64//64 14//14
s 4
f 14//14 64//64 65//65 15//15
s 2
f 15//15 65//65 66//66 16//16
s 4
f 16//16 66//66 67//67 17//17
s 2
f 17//17 67//67 68//68 18//18
s 4
f 18//18 68//68 69//69 19//19
s 2
f 19//19 69//69 70//70 20//20
s 4
f 20//20 70//70 71//71 21//21
s 2
f 21//21 71//71 72//72 22//22
s 4
f 22//22 72//72 73//73 23//23
s 2
f 23//23 73//73 74//74 24//24
s 4
f 24//24 74//74 75//75 25//25
s 2
f 25//25 75//75 76//76 26//26
s 4
f 26//26 76//76 77//77 27//27
s 2
f 27//27 77//77 78//78 28//28
s 4
f 28//28 78//78 79//79 29//29
s 2
f 29//29 79//79 80//80 30//30
s 4
f 30//30 80//80 81//81 31//31
s 2
f 31//31 81//81 82//82 32//32
s 4
f 32//32 82//82 83//83 33//33
s 2
f 33//33 83//83 84//84 34//34
s 4
f 34//34 84//84 85//85 35//35
s 2
f 35//35 85//85 86//86 36//36
s 4
f 36//36 86//86 87//87 37//37
s 2
f 37//37 87//87 88//88 38//38
s 4
f 38//38 88//88 89//89 39//39
s 2
f 39//39 89//89 90//90 40//40
s 4
f 40//40 90//90 91//91 41//41
s 2
f 41//41 91//91 92//92 42//42
s 4
f 42//42 92//92 93//93 43//43
s 2
f 43//43 93//93 94//94 44//44
s 4
f 44//44 94//94 95//95 45//45
s 2
f 45//45 95//95 96//96 46//46
s 4
f 46//46 96//96 97//97 47//47
s 2
f 47//47 97//97 98//98 48//48
s 4
f 48//48 98//98 99//99 49//49
s 2
f 49//49 99//99 100//100 50//50
s 4
f 50//50 100//100 51//51 1//1
s 16
f 50//50 47//47 48//48 49//49
f 50//50 45//45 46//46 47//47
f 50//50 1//1 44//44 45//45
f 2//2 3//3 44//44 1//1
f 4//4 43//43 44//44 3//3
f 4//4 41//41 42//42 43//43
f 4//4 39//39 40//40 41//41
f 4//4 5//5 38//38 39//39
f 6//6 37//37 38//38 5//5
f 6//6 35//35 36//36 37//37
f 6//6 33//33 34//34 35//35
f 7//7 8//8 33//33 6//6
f 9//9 10//10 33//33 8//8
f 10//10 31//31 32//32 33//33
f 10//10 29//29 30//30 31//31
f 10//10 27//27 28//28 29//29
f 10//10 25//25 26//26 27//27
f 10//10 23//23 24//24 25//25
f 10//10 21//21 22//22 23//23
f 10//10 19//19 20//20 21//21
f 10//10 17//17 18//18 19//19
f 10//10 15//15 16//16 17//17
f 10//10 13//13 14//14 15//15
f 11//11 12//12 13//13 10//10
# 74 faces

g
