# Max2Obj Version 4.0 Mar 10th, 2001
#
# object bowl to come ...
#
v  -0.000 100.000 -0.000
v  -50.000 86.603 -0.000
v  -86.603 50.000 -0.000
v  -100.000 -0.000 -0.000
v  -86.603 -50.000 -0.000
v  -50.000 -86.603 -0.000
v  0.000 -100.000 -0.000
v  50.000 -86.603 -0.000
v  86.603 -50.000 -0.000
v  100.000 0.000 -0.000
v  86.603 50.000 -0.000
v  50.000 86.603 -0.000
v  -0.000 86.603 -20.000
v  -43.301 75.000 -20.000
v  -75.000 43.301 -20.000
v  -86.603 -0.000 -20.000
v  -75.000 -43.301 -20.000
v  -43.301 -75.000 -20.000
v  0.000 -86.603 -20.000
v  43.301 -75.000 -20.000
v  75.000 -43.301 -20.000
v  86.603 0.000 -20.000
v  75.000 43.301 -20.000
v  43.301 75.000 -20.000
# 24 vertices

vn  0.000 -0.831 0.557
vn  0.415 -0.720 0.557
vn  0.720 -0.415 0.557
vn  0.831 0.000 0.557
vn  0.720 0.415 0.557
vn  0.415 0.720 0.557
vn  -0.000 0.831 0.557
vn  -0.415 0.720 0.557
vn  -0.720 0.415 0.557
vn  -0.831 -0.000 0.557
vn  -0.720 -0.415 0.557
vn  -0.415 -0.720 0.557
vn  0.000 -0.527 0.850
vn  0.264 -0.457 0.850
vn  0.457 -0.264 0.850
vn  0.527 0.000 0.850
vn  0.457 0.264 0.850
vn  0.264 0.457 0.850
vn  -0.000 0.527 0.850
vn  -0.264 0.457 0.850
vn  -0.457 0.264 0.850
vn  -0.527 -0.000 0.850
vn  -0.457 -0.264 0.850
vn  -0.264 -0.457 0.850
# 24 vertex normals

g bowl
s 1
f 1//1 2//2 14//14 13//13
f 2//2 3//3 15//15 14//14
f 3//3 4//4 16//16 15//15
f 4//4 5//5 17//17 16//16
f 5//5 6//6 18//18 17//17
f 6//6 7//7 19//19 18//18
f 7//7 8//8 20//20 19//19
f 8//8 9//9 21//21 20//20
f 9//9 10//10 22//22 21//21
f 10//10 11//11 23//23 22//22
f 11//11 12//12 24//24 23//23
f 12//12 1//1 13//13 24//24
f 17//17 13//13 14//14
f 17//17 14//14 15//15
f 17//17 15//15 16//16
f 17//17 18//18 19//19
f 17//17 19//19 20//20
f 17//17 20//20 21//21
f 17//17 21//21 22//22
f 17//17 22//22 23//23
f 17//17 23//23 24//24
f 17//17 24//24 13//13
# 22 faces

g
