# 3ds Max Wavefront OBJ Exporter v0.94b - (c)2007 guruware
# File Created: 28.07.2008 14:12:42

mtllib callipers.mtl

#
# object Box01
#

v  0.1197 0.0247 0.1089
v  0.1207 0.0247 0.1142
v  0.1237 0.0247 0.1200
v  0.1449 0.0247 0.1421
v  0.1531 0.0247 0.1453
v  0.1633 0.0247 0.1445
v  0.1710 0.0247 0.1402
v  0.1939 0.0247 0.1082
v  0.1318 0.0247 0.0740
v  0.1203 0.0247 0.1023
v  0.2158 0.0247 0.0542
v  0.1473 0.0247 0.0356
v  0.2216 0.0247 0.0153
v  0.2191 0.0247 0.0068
v  0.2123 0.0247 -0.0007
v  0.2042 0.0247 -0.0042
v  0.1736 0.0247 -0.0031
v  0.1674 0.0247 -0.0010
v  0.1629 0.0247 0.0021
v  0.1588 0.0247 0.0072
v  0.1207 -0.0247 0.1142
v  0.1197 -0.0247 0.1089
v  0.1203 -0.0247 0.1023
v  0.1318 -0.0247 0.0740
v  0.1939 -0.0247 0.1082
v  0.1710 -0.0247 0.1402
v  0.1633 -0.0247 0.1445
v  0.1531 -0.0247 0.1453
v  0.1449 -0.0247 0.1421
v  0.1237 -0.0247 0.1200
v  0.1473 -0.0247 0.0356
v  0.2158 -0.0247 0.0542
v  0.1588 -0.0247 0.0072
v  0.1629 -0.0247 0.0021
v  0.1674 -0.0247 -0.0010
v  0.1736 -0.0247 -0.0031
v  0.2042 -0.0247 -0.0042
v  0.2123 -0.0247 -0.0007
v  0.2191 -0.0247 0.0068
v  0.2216 -0.0247 0.0153
# 40 vertices

vn -0.0000 1.0000 -0.0000
vn 0.0000 1.0000 -0.0000
vn 0.0000 1.0000 0.0000
vn -0.0000 1.0000 0.0000
vn 0.0000 -1.0000 -0.0000
vn -0.0000 -1.0000 -0.0000
vn 0.0000 -1.0000 0.0000
vn -0.9711 0.0000 -0.2388
vn -0.9269 0.0000 -0.3754
vn -0.8636 0.0000 -0.5042
vn -0.1792 0.0000 -0.9838
vn 0.1820 0.0000 -0.9833
vn 0.9975 -0.0000 -0.0706
vn 0.9646 -0.0000 0.2637
vn 0.8763 -0.0000 0.4818
vn 0.6673 -0.0000 0.7448
vn -0.5535 0.0000 0.8329
vn -0.8133 0.0000 0.5819
vn 0.5827 -0.0000 -0.8127
vn 0.8729 -0.0000 -0.4879
vn 0.2874 -0.0000 0.9578
vn -0.1470 -0.0000 0.9891
vn -0.9989 0.0000 0.0463
vn -0.9448 0.0000 0.3275
vn -0.6852 0.0000 -0.7283
vn -0.4507 0.0000 -0.8927
# 26 vertex normals

vt 0.9574 0.0329 0.0000
vt 0.9836 0.0855 0.0000
vt 1.0000 0.1737 0.0000
vt 1.0000 0.6684 0.0000
vt 0.9787 0.8092 0.0000
vt 0.9343 0.9382 0.0000
vt 0.8859 1.0000 0.0000
vt 0.6667 1.0000 0.0000
vt 0.6667 0.0000 0.0000
vt 0.9135 0.0000 0.0000
vt 0.3333 1.0000 0.0000
vt 0.3333 0.0000 0.0000
vt 0.1141 1.0000 0.0000
vt 0.0657 0.9382 0.0000
vt 0.0213 0.8092 0.0000
vt -0.0000 0.6684 0.0000
vt -0.0000 0.1737 0.0000
vt 0.0164 0.0855 0.0000
vt 0.0426 0.0329 0.0000
vt 0.0865 0.0000 0.0000
vt 0.0000 0.6684 0.0000
vt 0.0000 0.1737 0.0000
vt 0.0865 1.0000 0.0000
vt 0.9135 1.0000 0.0000
vt 0.1737 0.0000 0.0000
vt 0.6684 0.0000 0.0000
vt 0.6684 1.0000 0.0000
vt 0.1737 1.0000 0.0000
vt 0.1141 0.0000 0.0000
vt 0.8859 0.0000 0.0000
vt 0.3316 0.0000 0.0000
vt 0.8263 0.0000 0.0000
vt 0.8263 1.0000 0.0000
vt 0.3316 1.0000 0.0000
# 34 texture coords

g Box01
usemtl 01___Default
s 1
f 1/1/1 2/2/2 3/3/2 
f 3/3/2 4/4/3 5/5/3 
f 5/5/3 6/6/3 7/7/2 
f 3/3/2 5/5/3 7/7/2 
f 3/3/2 7/7/2 8/8/2 
f 3/3/2 8/8/2 9/9/3 
f 1/1/1 3/3/2 9/9/3 
f 10/10/3 1/1/1 9/9/3 
f 9/9/3 8/8/2 11/11/3 
f 11/11/3 12/12/3 9/9/3 
f 11/11/3 13/13/4 14/14/3 
f 14/14/3 15/15/3 16/16/3 
f 11/11/3 14/14/3 16/16/3 
f 12/12/3 11/11/3 16/16/3 
f 16/16/3 17/17/3 18/18/3 
f 18/18/3 19/19/1 20/20/4 
f 16/16/3 18/18/3 20/20/4 
f 12/12/3 16/16/3 20/20/4 
f 21/18/5 22/19/6 23/20/7 
f 23/20/7 24/12/7 25/11/7 
f 25/11/7 26/13/6 27/14/6 
f 27/14/6 28/15/6 29/21/7 
f 25/11/7 27/14/6 29/21/7 
f 23/20/7 25/11/7 29/21/7 
f 21/18/5 23/20/7 29/21/7 
f 30/22/5 21/18/5 29/21/7 
f 24/12/7 31/9/7 32/8/7 
f 32/8/7 25/11/7 24/12/7 
f 31/9/7 33/10/6 34/1/6 
f 34/1/6 35/2/6 36/3/7 
f 31/9/7 34/1/6 36/3/7 
f 36/3/7 37/4/5 38/5/5 
f 38/5/5 39/6/6 40/7/5 
f 36/3/7 38/5/5 40/7/5 
f 31/9/7 36/3/7 40/7/5 
f 31/9/7 40/7/5 32/8/7 
s 2
f 10/20/8 9/12/9 24/11/9 
f 24/11/9 23/23/8 10/20/8 
f 9/12/9 12/9/9 31/8/9 
f 31/8/9 24/11/9 9/12/9 
f 12/9/9 20/10/10 33/24/10 
f 33/24/10 31/8/9 12/9/9 
f 17/25/11 16/26/12 37/27/12 
f 37/27/12 36/28/11 17/25/11 
f 13/29/13 11/12/14 32/11/14 
f 32/11/14 40/13/13 13/29/13 
f 11/12/14 8/9/15 25/8/15 
f 25/8/15 32/11/14 11/12/14 
f 8/9/15 7/30/16 26/7/16 
f 26/7/16 25/8/15 8/9/15 
f 4/31/17 3/32/18 30/33/18 
f 30/33/18 29/34/17 4/31/17 
f 15/15/19 14/14/20 39/6/20 
f 39/6/20 38/5/19 15/15/19 
f 6/6/21 5/5/22 28/15/22 
f 28/15/22 27/14/21 6/6/21 
f 16/16/12 15/15/19 38/5/19 
f 38/5/19 37/4/12 16/16/12 
f 7/7/16 6/6/21 27/14/21 
f 27/14/21 26/13/16 7/7/16 
f 14/14/20 13/13/13 40/7/13 
f 40/7/13 39/6/20 14/14/20 
f 5/5/22 4/4/17 29/21/17 
f 29/21/17 28/15/22 5/5/22 
f 22/19/23 21/18/24 2/2/24 
f 2/2/24 1/1/23 22/19/23 
f 19/19/25 18/18/26 35/2/26 
f 35/2/26 34/1/25 19/19/25 
f 23/20/8 22/19/23 1/1/23 
f 1/1/23 10/10/8 23/20/8 
f 20/20/10 19/19/25 34/1/25 
f 34/1/25 33/10/10 20/20/10 
f 21/18/24 30/22/18 3/3/18 
f 3/3/18 2/2/24 21/18/24 
f 18/18/26 17/17/11 36/3/11 
f 36/3/11 35/2/26 18/18/26 
# 76 faces

#
# object Loft01
#

v  0.1627 -0.0000 0.1505
v  0.1528 -0.0000 0.1453
v  0.1528 0.0254 0.1453
v  0.1476 -0.0000 0.1552
v  0.1575 -0.0000 0.1604
v  0.1575 0.0254 0.1604
v  0.1476 0.0254 0.1552
v  0.1627 0.0254 0.1505
v  0.1528 0.0194 0.1453
v  0.1627 0.0300 0.1505
v  0.1476 0.0227 0.1552
v  0.1575 0.0333 0.1603
v  0.1185 0.0202 0.1130
v  0.1218 0.0287 0.1112
v  0.1112 0.0240 0.1172
v  0.1144 0.0324 0.1153
v  0.1190 0.0202 0.1133
v  0.1234 0.0287 0.1124
v  0.1090 0.0240 0.1154
v  0.1134 0.0324 0.1145
v  0.1660 0.0202 -0.0031
v  0.1688 0.0287 -0.0006
v  0.1596 0.0240 -0.0086
v  0.1624 0.0324 -0.0062
v  0.1659 0.0202 -0.0026
v  0.1685 0.0287 0.0011
v  0.1602 0.0240 -0.0109
v  0.1627 0.0325 -0.0072
v  0.2118 0.0199 -0.0019
v  0.2228 0.0309 -0.0003
v  0.2133 0.0218 -0.0129
v  0.2243 0.0328 -0.0114
v  0.2118 0.0260 -0.0019
v  0.2228 0.0260 -0.0003
v  0.2133 0.0260 -0.0129
v  0.2243 0.0260 -0.0114
v  0.2118 -0.0000 -0.0020
v  0.2228 -0.0000 -0.0004
v  0.2133 -0.0000 -0.0130
v  0.2244 -0.0000 -0.0115
v  0.1502 -0.0000 0.1503
v  0.2235 -0.0000 -0.0048
v  0.1528 -0.0254 0.1453
v  0.1575 -0.0254 0.1604
v  0.1476 -0.0254 0.1552
v  0.1627 -0.0254 0.1505
v  0.1528 -0.0194 0.1453
v  0.1627 -0.0300 0.1505
v  0.1476 -0.0227 0.1552
v  0.1575 -0.0333 0.1603
v  0.1185 -0.0202 0.1130
v  0.1218 -0.0287 0.1112
v  0.1112 -0.0240 0.1172
v  0.1144 -0.0324 0.1153
v  0.1190 -0.0202 0.1133
v  0.1234 -0.0287 0.1124
v  0.1090 -0.0240 0.1154
v  0.1134 -0.0324 0.1145
v  0.1660 -0.0202 -0.0031
v  0.1688 -0.0287 -0.0006
v  0.1596 -0.0240 -0.0086
v  0.1624 -0.0324 -0.0062
v  0.1659 -0.0202 -0.0026
v  0.1685 -0.0287 0.0011
v  0.1602 -0.0240 -0.0109
v  0.1627 -0.0325 -0.0072
v  0.2118 -0.0199 -0.0019
v  0.2228 -0.0309 -0.0003
v  0.2133 -0.0218 -0.0129
v  0.2243 -0.0328 -0.0114
v  0.2118 -0.0260 -0.0019
v  0.2228 -0.0260 -0.0003
v  0.2133 -0.0260 -0.0129
v  0.2243 -0.0260 -0.0114
# 74 vertices

vn 0.4627 -0.0000 -0.8865
vn 0.4627 -0.0013 -0.8865
vn -0.4628 0.0000 0.8865
vn -0.4628 0.0022 0.8865
vn -0.4628 0.0018 0.8865
vn 0.8865 0.0018 0.4628
vn 0.8866 0.0011 0.4625
vn 0.8865 -0.0000 0.4627
vn -0.4628 0.0038 0.8865
vn 0.6411 -0.2440 -0.7276
vn 0.5674 -0.1466 -0.8103
vn 0.4599 0.0022 -0.8880
vn 0.8868 0.0029 0.4621
vn 0.8865 0.0062 0.4628
vn 0.8866 0.0051 0.4625
vn 0.8869 0.0023 0.4619
vn -0.4628 0.0032 0.8865
vn 0.4580 0.0044 -0.8890
vn 0.8866 0.0030 0.4625
vn 0.8868 0.0018 0.4621
vn 0.6463 -0.3766 -0.6637
vn 0.6439 -0.3923 -0.6569
vn -0.2450 -0.9473 0.2066
vn -0.2391 -0.9507 0.1973
vn -0.2820 -0.9097 0.3048
vn -0.2957 -0.9084 0.2957
vn -0.6845 0.3288 0.6507
vn -0.6866 0.3234 0.6511
vn -0.6370 0.3862 0.6672
vn -0.6265 0.3904 0.6745
vn 0.2001 0.9512 -0.2349
vn 0.1873 0.9559 -0.2261
vn 0.2832 0.9136 -0.2918
vn 0.2937 0.9080 -0.2989
vn -0.5775 0.3783 0.7235
vn -0.5423 0.3739 0.7524
vn -0.5464 0.3745 0.7491
vn -0.5787 0.3784 0.7224
vn -0.2771 -0.9043 0.3248
vn 0.2629 0.8932 -0.3648
vn -0.6070 0.3866 0.6943
vn -0.5986 0.3866 0.7015
vn -0.2695 -0.9023 0.3364
vn 0.3731 0.9188 0.1288
vn 0.3387 0.9376 -0.0780
vn 0.2779 0.9070 -0.3165
vn 0.8478 -0.4050 0.3423
vn 0.8475 -0.4058 0.3422
vn 0.8553 -0.3877 0.3438
vn 0.8557 -0.3867 0.3439
vn -0.3767 -0.9135 -0.1536
vn -0.3762 -0.9138 -0.1534
vn -0.4184 -0.8995 -0.1261
vn -0.3979 -0.9044 -0.1538
vn -0.8473 0.4044 -0.3442
vn -0.8470 0.4054 -0.3440
vn -0.8745 0.3809 -0.3003
vn -0.8823 0.3784 -0.2798
vn 0.3926 0.9058 0.1594
vn 0.3933 0.9054 0.1597
vn -0.9193 0.3538 -0.1725
vn -0.9352 0.3411 -0.0953
vn -0.9339 0.3424 -0.1027
vn -0.9187 0.3541 -0.1747
vn -0.4343 -0.8946 -0.1052
vn 0.4768 0.8766 0.0648
vn -0.8977 0.3705 -0.2385
vn -0.9025 0.3695 -0.2213
vn -0.4497 -0.8892 -0.0838
vn -0.0080 0.9086 0.4176
vn 0.1880 0.9440 0.2711
vn 0.4154 0.9018 0.1191
vn -0.0111 -0.3663 0.9304
vn -0.0175 -0.3939 0.9190
vn 0.0276 -0.1932 0.9808
vn 0.0319 -0.1731 0.9844
vn -0.0473 -0.9317 -0.3601
vn -0.0523 -0.9227 -0.3819
vn -0.0111 -0.9794 -0.2014
vn -0.0047 -0.9850 -0.1724
vn -0.0591 0.3830 -0.9218
vn -0.0632 0.4136 -0.9082
vn 0.0505 0.1116 -0.9925
vn -0.0050 0.1467 -0.9892
vn 0.0033 0.9806 0.1958
vn 0.0061 0.9850 0.1726
vn 0.1366 0.0047 -0.9906
vn -0.1376 -0.0035 0.9905
vn -0.1376 -0.0031 0.9905
vn -0.1376 -0.0025 0.9905
vn 0.9905 0.0020 0.1376
vn 0.9905 0.0019 0.1376
vn 0.1367 0.0046 -0.9906
vn -0.1376 -0.0023 0.9905
vn 0.9905 0.0018 0.1376
vn 0.9905 0.0013 0.1376
vn -0.1373 -0.0000 0.9905
vn -0.9905 -0.0008 -0.1375
vn -0.9905 -0.0008 -0.1376
vn -0.9905 0.0000 -0.1372
vn 0.1376 0.0037 -0.9905
vn 0.1376 0.0000 -0.9905
vn 0.4628 -0.0012 -0.8865
vn -0.8865 0.0000 -0.4628
vn -0.8865 -0.0000 -0.4628
vn -0.9906 0.0000 -0.1371
vn 0.9905 -0.0000 0.1376
vn 0.4627 0.0013 -0.8865
vn -0.4628 -0.0022 0.8865
vn -0.4628 -0.0018 0.8865
vn 0.8866 -0.0011 0.4625
vn 0.8865 -0.0018 0.4628
vn -0.4628 -0.0038 0.8865
vn 0.5674 0.1466 -0.8103
vn 0.6411 0.2440 -0.7276
vn 0.4599 -0.0022 -0.8880
vn 0.8865 -0.0062 0.4628
vn 0.8868 -0.0029 0.4621
vn 0.8866 -0.0051 0.4625
vn 0.8869 -0.0023 0.4619
vn -0.4628 -0.0032 0.8865
vn 0.4580 -0.0044 -0.8890
vn 0.8866 -0.0030 0.4625
vn 0.8868 -0.0018 0.4621
vn 0.6463 0.3766 -0.6637
vn 0.6439 0.3923 -0.6569
vn -0.2391 0.9507 0.1973
vn -0.2450 0.9473 0.2066
vn -0.2820 0.9097 0.3048
vn -0.2957 0.9084 0.2957
vn -0.6866 -0.3234 0.6511
vn -0.6845 -0.3288 0.6507
vn -0.6370 -0.3862 0.6672
vn -0.6265 -0.3904 0.6745
vn 0.1873 -0.9559 -0.2261
vn 0.2001 -0.9512 -0.2349
vn 0.2832 -0.9136 -0.2918
vn 0.2937 -0.9080 -0.2989
vn -0.5423 -0.3739 0.7524
vn -0.5775 -0.3783 0.7235
vn -0.5464 -0.3745 0.7491
vn -0.5787 -0.3784 0.7224
vn -0.2771 0.9043 0.3248
vn 0.2629 -0.8932 -0.3648
vn -0.6070 -0.3866 0.6943
vn -0.5986 -0.3866 0.7015
vn -0.2695 0.9023 0.3364
vn 0.3387 -0.9376 -0.0780
vn 0.3731 -0.9188 0.1288
vn 0.2779 -0.9070 -0.3165
vn 0.8475 0.4058 0.3422
vn 0.8478 0.4050 0.3423
vn 0.8553 0.3877 0.3438
vn 0.8557 0.3867 0.3439
vn -0.3762 0.9138 -0.1534
vn -0.3767 0.9135 -0.1536
vn -0.4184 0.8995 -0.1261
vn -0.3979 0.9044 -0.1538
vn -0.8470 -0.4054 -0.3440
vn -0.8473 -0.4044 -0.3442
vn -0.8745 -0.3809 -0.3003
vn -0.8823 -0.3784 -0.2798
vn 0.3926 -0.9058 0.1594
vn 0.3933 -0.9054 0.1597
vn -0.9352 -0.3411 -0.0953
vn -0.9193 -0.3538 -0.1725
vn -0.9339 -0.3424 -0.1027
vn -0.9187 -0.3541 -0.1747
vn -0.4343 0.8946 -0.1052
vn 0.4768 -0.8766 0.0648
vn -0.8977 -0.3705 -0.2385
vn -0.9025 -0.3695 -0.2213
vn -0.4497 0.8892 -0.0838
vn 0.1880 -0.9440 0.2711
vn -0.0080 -0.9086 0.4176
vn 0.4154 -0.9018 0.1191
vn -0.0175 0.3939 0.9190
vn -0.0111 0.3663 0.9304
vn 0.0276 0.1932 0.9808
vn 0.0319 0.1731 0.9844
vn -0.0523 0.9227 -0.3819
vn -0.0473 0.9317 -0.3601
vn -0.0111 0.9794 -0.2014
vn -0.0047 0.9850 -0.1724
vn -0.0632 -0.4136 -0.9082
vn -0.0591 -0.3830 -0.9218
vn 0.0505 -0.1116 -0.9925
vn -0.0050 -0.1467 -0.9892
vn 0.0033 -0.9806 0.1958
vn 0.0061 -0.9850 0.1726
vn 0.1366 -0.0047 -0.9906
vn -0.1376 0.0031 0.9905
vn -0.1376 0.0035 0.9905
vn -0.1376 0.0025 0.9905
vn 0.9905 -0.0019 0.1376
vn 0.9905 -0.0020 0.1376
vn 0.1367 -0.0046 -0.9906
vn -0.1376 0.0023 0.9905
vn 0.9905 -0.0018 0.1376
vn 0.9905 -0.0013 0.1376
vn -0.9905 0.0008 -0.1376
vn -0.9905 0.0008 -0.1375
vn 0.1376 -0.0037 -0.9905
vn 0.4628 0.0012 -0.8865
# 204 vertex normals

g Loft01
usemtl 02___Default
s 1
f 41//27 42//27 43//28 
f 44//29 45//29 46//30 
f 46//30 47//31 44//29 
s 2
f 48//32 46//33 45//34 
s 4
f 48//35 43//35 49//35 
s 8
f 49//36 50//37 48//38 
s 2
f 43//39 47//40 51//41 
f 51//41 49//42 43//39 
s 1
f 47//31 46//30 52//43 
s 4
f 52//44 51//44 47//44 
s 2
f 46//33 48//32 50//45 
f 50//45 52//46 46//33 
s 8
f 50//37 49//36 53//47 
f 53//47 54//48 50//37 
s 1
f 49//49 51//50 55//51 
f 55//51 53//52 49//49 
s 8
f 51//53 52//54 56//55 
f 56//55 55//56 51//53 
s 16
f 52//57 50//58 54//59 
f 54//59 56//60 52//57 
s 2
f 54//61 53//62 57//63 
f 57//63 58//64 54//61 
s 1
f 53//52 55//51 59//65 
s 4
f 59//66 57//66 53//66 
s 8
f 55//56 56//55 60//67 
f 60//67 59//68 55//56 
s 1
f 56//69 54//69 58//69 
s 4
f 58//70 60//71 56//72 
s 8
f 58//73 57//74 61//75 
f 61//75 62//76 58//73 
s 16
f 57//77 59//78 63//79 
f 63//79 61//80 57//77 
s 2
f 59//81 60//82 64//83 
f 64//83 63//84 59//81 
s 4
f 60//71 58//70 62//85 
f 62//85 64//86 60//71 
s 1
f 62//87 61//88 65//89 
f 65//89 66//90 62//87 
s 16
f 61//80 63//79 67//91 
s 4
f 67//92 65//92 61//92 
s 2
f 63//84 64//83 68//93 
f 68//93 67//94 63//84 
s 16
f 64//95 62//95 66//95 
s 8
f 66//96 68//97 64//98 
s 2
f 66//99 65//100 69//101 
f 69//101 70//102 66//99 
s 8
f 65//103 67//104 71//105 
f 71//105 69//106 65//103 
s 1
f 67//107 68//108 72//109 
f 72//109 71//110 67//107 
s 8
f 68//97 66//96 70//111 
f 70//111 72//112 68//97 
s 1
f 70//113 69//113 73//113 
s 4
f 73//114 74//115 70//116 
s 16
f 69//117 71//118 75//117 
f 75//117 73//117 69//117 
s 1
f 71//110 72//109 76//119 
s 2
f 76//120 75//120 71//120 
s 16
f 72//118 70//121 74//122 
f 74//122 76//122 72//118 
s 4
f 77//123 78//123 74//115 
s 8
f 73//124 75//125 79//126 
s 4
f 75//127 76//127 80//128 
f 80//128 79//128 75//127 
s 1
f 43//28 48//129 41//27 
s 8
f 42//130 81//130 47//131 
f 81//130 44//130 47//131 
f 47//131 43//131 42//130 
s 2
f 45//34 41//34 48//32 
s 4
f 74//115 73//114 77//123 
s 8
f 79//126 77//132 73//124 
s 16
f 76//122 74//122 78//133 
f 78//133 82//133 76//122 
f 82//133 80//133 76//122 
s 1
f 42//27 41//27 83//134 
f 45//29 44//29 84//135 
f 85//136 84//135 44//29 
s 2
f 84//137 86//138 45//34 
s 4
f 83//139 86//139 87//139 
s 8
f 88//140 87//141 86//142 
s 2
f 85//143 83//144 89//145 
f 87//146 89//145 83//144 
s 1
f 84//135 85//136 90//147 
s 4
f 89//148 90//148 85//148 
s 2
f 86//138 84//137 88//149 
f 90//150 88//149 84//137 
s 8
f 87//141 88//140 91//151 
f 92//152 91//151 88//140 
s 1
f 89//153 87//154 93//155 
f 91//156 93//155 87//154 
s 8
f 90//157 89//158 94//159 
f 93//160 94//159 89//158 
s 16
f 88//161 90//162 92//163 
f 94//164 92//163 90//162 
s 2
f 91//165 92//166 95//167 
f 96//168 95//167 92//166 
s 1
f 93//155 91//156 97//169 
s 4
f 95//170 97//170 91//170 
s 8
f 94//159 93//160 98//171 
f 97//172 98//171 93//160 
s 1
f 92//173 94//173 96//173 
s 4
f 98//174 96//175 94//176 
s 8
f 95//177 96//178 99//179 
f 100//180 99//179 96//178 
s 16
f 97//181 95//182 101//183 
f 99//184 101//183 95//182 
s 2
f 98//185 97//186 102//187 
f 101//188 102//187 97//186 
s 4
f 96//175 98//174 100//189 
f 102//190 100//189 98//174 
s 1
f 99//191 100//192 103//193 
f 104//194 103//193 100//192 
s 16
f 101//183 99//184 105//195 
s 4
f 103//196 105//196 99//196 
s 2
f 102//187 101//188 106//197 
f 105//198 106//197 101//188 
s 16
f 100//199 102//199 104//199 
s 8
f 106//200 104//201 102//202 
s 2
f 103//203 104//204 107//205 
f 108//206 107//205 104//204 
s 8
f 105//207 103//208 109//209 
f 107//210 109//209 103//208 
s 1
f 106//211 105//212 110//213 
f 109//214 110//213 105//212 
s 8
f 104//201 106//200 108//215 
f 110//216 108//215 106//200 
s 1
f 107//217 108//217 111//217 
s 4
f 112//218 111//219 108//220 
s 16
f 109//221 107//222 113//222 
f 111//222 113//222 107//222 
s 1
f 110//213 109//214 114//223 
s 2
f 113//224 114//224 109//224 
s 16
f 108//225 110//221 112//226 
f 114//226 112//226 110//221 
s 4
f 78//123 77//123 112//218 
s 8
f 113//227 111//228 79//126 
s 4
f 114//229 113//229 80//128 
f 79//128 80//128 113//229 
s 1
f 86//230 83//134 41//27 
s 8
f 81//130 42//130 85//130 
f 44//130 81//130 85//130 
f 83//130 85//130 42//130 
s 2
f 41//34 45//34 86//138 
s 4
f 111//219 112//218 77//123 
s 8
f 77//132 79//126 111//228 
s 16
f 112//226 114//226 78//133 
f 82//133 78//133 114//226 
f 80//133 82//133 114//226 
# 148 faces

