# 3ds Max Wavefront OBJ Exporter v0.94b - (c)2007 guruware
# File Created: 27.03.2009 17:14:27

mtllib railroad_crossing.mtl

#
# object Plane01
#

v  0.0000 -0.2500 1.9500
v  -0.0000 -0.2500 -0.0500
v  0.0000 0.2500 1.9500
v  -0.0000 0.2500 -0.0500
# 4 vertices

vn 1.0000 0.0000 -0.0000
# 1 vertex normals

vt 0.0000 1.0000 0.0000
vt 0.0000 0.0000 0.0000
vt 1.0000 1.0000 0.0000
vt 1.0000 0.0000 0.0000
# 4 texture coords

g Plane01
usemtl 01___Default
s 1
f -4/-4/-1 -3/-3/-1 -2/-2/-1 
f -1/-1/-1 -2/-2/-1 -3/-3/-1 
# 2 faces

#
# object Plane02
#

v  -0.0000 0.2500 1.9500
v  0.0000 0.2500 -0.0500
v  -0.0000 -0.2500 1.9500
v  0.0000 -0.2500 -0.0500
# 4 vertices

vn -1.0000 -0.0000 -0.0000
# 1 vertex normals

vt 0.0000 1.0000 0.0000
vt 0.0000 0.0000 0.0000
vt 1.0000 1.0000 0.0000
vt 1.0000 0.0000 0.0000
# 4 texture coords

g Plane02
usemtl bak
s 1
f -4/-4/-1 -3/-3/-1 -2/-2/-1 
f -1/-1/-1 -2/-2/-1 -3/-3/-1 
# 2 faces

