mtllib ./brakes_on.mtl
g
v -8.7366 -0.803883 0.454802
v -8.7366 -0.787628 0.494046
v -8.7366 -0.748384 0.510301
v -8.7366 -0.709141 0.494046
v -8.7366 -0.692885 0.454802
v -8.7366 -0.709141 0.415559
v -8.7366 -0.748384 0.399303
v -8.7366 -0.787628 0.415559
v -8.7366 -0.748384 0.454802
v -8.7366 -0.976556 0.454802
v -8.7366 -0.960301 0.494046
v -8.7366 -0.921057 0.510301
v -8.7366 -0.881814 0.494046
v -8.7366 -0.865559 0.454802
v -8.7366 -0.881814 0.415559
v -8.7366 -0.921057 0.399303
v -8.7366 -0.960301 0.415559
v -8.7366 -0.921057 0.454802
v -8.7366 0.787628 0.494046
v -8.7366 0.803883 0.454802
v -8.7366 0.748384 0.510301
v -8.7366 0.709141 0.494046
v -8.7366 0.692885 0.454802
v -8.7366 0.709141 0.415559
v -8.7366 0.748384 0.399303
v -8.7366 0.787628 0.415559
v -8.7366 0.748384 0.454802
v -8.7366 0.960301 0.494046
v -8.7366 0.976556 0.454802
v -8.7366 0.921057 0.510301
v -8.7366 0.881814 0.494046
v -8.7366 0.865559 0.454802
v -8.7366 0.881814 0.415559
v -8.7366 0.921057 0.399303
v -8.7366 0.960301 0.415559
v -8.7366 0.921057 0.454802

vt 0.936622 0.50091 0.5
vt 0.943797 0.503302 0.5
vt 0.811877 0.821783 0.5
vt 0.493396 0.953703 0.5
vt 0.174915 0.821783 0.5
vt 0.0429956 0.503302 0.5
vt 0.174915 0.184821 0.5
vt 0.493396 0.0529016 0.5
vt 0.811877 0.184821 0.5
vt 0.493396 0.503302 0.5
vt 0.806103 0.816008 0.5
vt 0.491004 0.946527 0.5
vt 0.175906 0.816008 0.5
vt 0.0453874 0.50091 0.5
vt 0.175906 0.185811 0.5
vt 0.491004 0.0552931 0.5
vt 0.806103 0.185812 0.5
vt 0.491004 0.50091 0.5
vt 0.491004 0.50091 0.5
vt 0.936622 0.50091 0.5
vt 0.806103 0.816008 0.5
vt 0.491004 0.946527 0.5
vt 0.175906 0.816008 0.5
vt 0.0453874 0.50091 0.5
vt 0.175906 0.185811 0.5
vt 0.491004 0.0552931 0.5
vt 0.806103 0.185812 0.5
vt 0.493396 0.503302 0.5
vt 0.943797 0.503302 0.5
vt 0.811877 0.821783 0.5
vt 0.493396 0.953703 0.5
vt 0.174915 0.821783 0.5
vt 0.0429956 0.503302 0.5
vt 0.174915 0.184821 0.5
vt 0.493396 0.0529016 0.5
vt 0.811877 0.184821 0.5

vn -1.0 1.62921e-007 0.0
vn -1.0 1.62921e-007 0.0
vn -1.0 1.62921e-007 0.0
vn -1.0 1.62921e-007 0.0
vn -1.0 1.62921e-007 0.0
vn -1.0 1.62921e-007 0.0
vn -1.0 1.62921e-007 0.0
vn -1.0 1.62921e-007 0.0
vn -1.0 1.62921e-007 0.0
vn -1.0 1.62921e-007 0.0
vn -1.0 1.62921e-007 0.0
vn -1.0 1.62921e-007 0.0
vn -1.0 1.62921e-007 0.0
vn -1.0 1.62921e-007 0.0
vn -1.0 1.62921e-007 0.0
vn -1.0 1.62921e-007 0.0
vn -1.0 1.62921e-007 0.0
vn -1.0 1.62921e-007 0.0
vn -1.0 1.62921e-007 0.0
vn -1.0 1.62921e-007 0.0
vn -1.0 1.62921e-007 0.0
vn -1.0 1.62921e-007 0.0
vn -1.0 1.62921e-007 0.0
vn -1.0 1.62921e-007 0.0
vn -1.0 1.62921e-007 0.0
vn -1.0 1.62921e-007 0.0
vn -1.0 1.62921e-007 0.0
vn -1.0 1.62921e-007 0.0
vn -1.0 1.62921e-007 0.0
vn -1.0 1.62921e-007 0.0
vn -1.0 1.62921e-007 0.0
vn -1.0 1.62921e-007 0.0
vn -1.0 1.62921e-007 0.0
vn -1.0 1.62921e-007 0.0
vn -1.0 1.62921e-007 0.0
vn -1.0 1.62921e-007 0.0

g
g brake_lights_on
usemtl brake_lights_on
f 9/18/1 1/1/2 2/11/3
f 9/18/1 2/11/3 3/12/4
f 9/18/1 3/12/4 4/13/5
f 9/18/1 4/13/5 5/14/6
f 9/18/1 5/14/6 6/15/7
f 9/18/1 6/15/7 7/16/8
f 9/18/1 7/16/8 8/17/9
f 9/18/1 8/17/9 1/1/2
f 18/10/10 10/2/11 11/3/12
f 18/10/10 11/3/12 12/4/13
f 18/10/10 12/4/13 13/5/14
f 18/10/10 13/5/14 14/6/15
f 18/10/10 14/6/15 15/7/16
f 18/10/10 15/7/16 16/8/17
f 18/10/10 16/8/17 17/9/18
f 18/10/10 17/9/18 10/2/11
f 20/20/19 27/19/20 19/21/21
f 19/21/21 27/19/20 21/22/22
f 21/22/22 27/19/20 22/23/23
f 22/23/23 27/19/20 23/24/24
f 23/24/24 27/19/20 24/25/25
f 24/25/25 27/19/20 25/26/26
f 25/26/26 27/19/20 26/27/27
f 26/27/27 27/19/20 20/20/19
f 29/29/28 36/28/29 28/30/30
f 28/30/30 36/28/29 30/31/31
f 30/31/31 36/28/29 31/32/32
f 31/32/32 36/28/29 32/33/33
f 32/33/33 36/28/29 33/34/34
f 33/34/34 36/28/29 34/35/35
f 34/35/35 36/28/29 35/36/36
f 35/36/36 36/28/29 29/29/28
