# Max2Obj Version 4.0 Mar 10th, 2001
#
mtllib ./dash.mtl
g
# object Plane01 to come ...
#
v  -1.0000 -0.5000 0.0000
v  1.0000 -0.5000 0.0000
v  -1.0000 0.5000 0.0000
v  1.0000 0.5000 0.0000
# 4 vertices

vt  0.0005 0.0005 0.5000
vt  0.9995 0.0005 0.5000
vt  0.0005 0.9995 0.5000
vt  0.9995 0.9995 0.5000
# 4 texture vertices

vn  0.0000 0.0000 1.0000
vn  0.0000 0.0000 1.0000
vn  0.0000 0.0000 1.0000
vn  0.0000 0.0000 1.0000
# 4 vertex normals

g Plane01
usemtl Dashboard
s 1
f 1/1/1 2/2/2 4/4/4 3/3/3
# 1 faces

g
