# Max2Obj Version 4.0 Mar 10th, 2001
#
mtllib ./tire.mtl
g
# object Object02 to come ...
#
v  -0.0000 0.0921 0.1858
v  -0.0000 0.1022 0.2606
v  0.0823 0.1022 0.2473
v  0.0587 0.0921 0.1764
v  -0.0000 0.0872 0.2999
v  0.0948 0.0872 0.2846
v  -0.0000 -0.0876 0.2999
v  0.0948 -0.0876 0.2846
v  -0.1858 0.0920 0.0000
v  -0.2606 0.1022 0.0000
v  -0.2473 0.1022 0.0823
v  -0.1764 0.0920 0.0587
v  -0.2999 0.0872 0.0000
v  -0.2846 0.0872 0.0948
v  -0.2999 -0.0876 0.0000
v  -0.2846 -0.0876 0.0948
v  -0.2606 -0.1027 0.0000
v  -0.2473 -0.1027 0.0823
v  -0.1858 -0.0926 0.0000
v  -0.1764 -0.0926 0.0587
v  -0.2103 0.1022 0.1539
v  -0.1500 0.0920 0.1097
v  -0.2420 0.0872 0.1771
v  -0.2420 -0.0876 0.1771
v  -0.2103 -0.1027 0.1539
v  -0.1500 -0.0926 0.1097
v  -0.1539 0.1022 0.2103
v  -0.1097 0.0920 0.1500
v  -0.1771 0.0872 0.2420
v  -0.1771 -0.0876 0.2420
v  -0.1539 -0.1027 0.2103
v  -0.1097 -0.0926 0.1500
v  -0.0823 0.1022 0.2473
v  -0.0587 0.0920 0.1764
v  -0.0948 0.0872 0.2846
v  -0.0948 -0.0876 0.2846
v  -0.0823 -0.1027 0.2473
v  -0.0587 -0.0926 0.1764
v  -0.0000 -0.1027 0.2606
v  -0.0000 -0.0926 0.1858
v  0.0823 -0.1027 0.2473
v  0.0587 -0.0926 0.1764
v  0.1539 0.1022 0.2103
v  0.1097 0.0920 0.1500
v  0.1771 0.0872 0.2420
v  0.1771 -0.0876 0.2420
v  0.1539 -0.1027 0.2103
v  0.1097 -0.0926 0.1500
v  0.2103 0.1022 0.1539
v  0.1500 0.0920 0.1097
v  0.2420 0.0872 0.1771
v  0.2420 -0.0876 0.1771
v  0.2103 -0.1027 0.1539
v  0.1500 -0.0926 0.1097
v  0.2473 0.1022 0.0823
v  0.1764 0.0920 0.0587
v  0.2846 0.0872 0.0948
v  0.2846 -0.0876 0.0948
v  0.2473 -0.1027 0.0823
v  0.1764 -0.0926 0.0587
v  0.2606 0.1022 0.0000
v  0.1858 0.0920 0.0000
v  0.2999 0.0872 0.0000
v  0.2999 -0.0876 0.0000
v  0.2606 -0.1027 0.0000
v  0.1858 -0.0926 0.0000
v  0.2473 0.1022 -0.0823
v  0.1764 0.0920 -0.0587
v  0.2846 0.0872 -0.0948
v  0.2846 -0.0876 -0.0948
v  0.2473 -0.1027 -0.0823
v  0.1764 -0.0926 -0.0587
v  0.2103 0.1022 -0.1539
v  0.1500 0.0920 -0.1097
v  0.2420 0.0872 -0.1771
v  0.2420 -0.0876 -0.1771
v  0.2103 -0.1027 -0.1539
v  0.1500 -0.0926 -0.1097
v  0.1539 0.1022 -0.2103
v  0.1097 0.0920 -0.1500
v  0.1771 0.0872 -0.2420
v  0.1771 -0.0876 -0.2420
v  0.1539 -0.1027 -0.2103
v  0.1097 -0.0926 -0.1500
v  0.0823 0.1022 -0.2473
v  0.0587 0.0920 -0.1764
v  0.0948 0.0872 -0.2846
v  0.0948 -0.0876 -0.2846
v  0.0823 -0.1027 -0.2473
v  0.0587 -0.0926 -0.1764
v  -0.0000 0.1022 -0.2606
v  -0.0000 0.0920 -0.1858
v  -0.0000 0.0872 -0.2999
v  -0.0000 -0.0876 -0.2999
v  -0.0000 -0.1027 -0.2606
v  -0.0000 -0.0926 -0.1858
v  -0.0823 0.1022 -0.2473
v  -0.0587 0.0920 -0.1764
v  -0.0948 0.0872 -0.2846
v  -0.0948 -0.0876 -0.2846
v  -0.0823 -0.1027 -0.2473
v  -0.0587 -0.0926 -0.1764
v  -0.1539 0.1022 -0.2103
v  -0.1097 0.0920 -0.1500
v  -0.1771 0.0872 -0.2420
v  -0.1771 -0.0876 -0.2420
v  -0.1539 -0.1027 -0.2103
v  -0.1097 -0.0926 -0.1500
v  -0.2103 0.1022 -0.1539
v  -0.1500 0.0920 -0.1097
v  -0.2420 0.0872 -0.1771
v  -0.2420 -0.0876 -0.1771
v  -0.2103 -0.1027 -0.1539
v  -0.1500 -0.0926 -0.1097
v  -0.2473 0.1022 -0.0823
v  -0.1764 0.0920 -0.0587
v  -0.2846 0.0872 -0.0948
v  -0.2846 -0.0876 -0.0948
v  -0.2473 -0.1027 -0.0823
v  -0.1764 -0.0926 -0.0587
# 120 vertices

vt  1.1550 0.0500 0.6189
vt  1.1550 0.0005 0.8682
vt  1.2731 0.0005 0.8683
vt  1.2731 0.0500 0.6191
vt  1.1550 0.0737 0.9990
vt  1.2732 0.0737 0.9991
vt  1.1550 0.9261 0.9990
vt  1.2732 0.9261 0.9991
vt  0.5775 0.0500 0.6189
vt  0.5775 0.0005 0.8682
vt  0.6956 0.0005 0.8683
vt  0.6956 0.0500 0.6191
vt  0.5775 0.0737 0.9990
vt  0.6957 0.0737 0.9991
vt  0.5775 0.9261 0.9990
vt  0.6957 0.9261 0.9991
vt  0.5775 0.9995 0.8682
vt  0.6956 0.9995 0.8683
vt  0.5775 0.9501 0.6189
vt  0.6956 0.9501 0.6191
vt  0.8097 0.0005 0.8680
vt  0.8096 0.0500 0.6189
vt  0.8098 0.0737 0.9987
vt  0.8098 0.9261 0.9987
vt  0.8097 0.9995 0.8680
vt  0.8096 0.9501 0.6189
vt  0.9228 0.0005 0.8680
vt  0.9229 0.0500 0.6189
vt  0.9227 0.0737 0.9987
vt  0.9227 0.9261 0.9987
vt  0.9228 0.9995 0.8680
vt  0.9229 0.9501 0.6189
vt  1.0369 0.0005 0.8683
vt  1.0369 0.0500 0.6191
vt  1.0368 0.0737 0.9991
vt  1.0368 0.9261 0.9991
vt  1.0369 0.9995 0.8683
vt  1.0369 0.9501 0.6191
vt  1.1550 0.9995 0.8682
vt  1.1550 0.9501 0.6189
vt  1.2731 0.9995 0.8683
vt  1.2731 0.9501 0.6191
vt  1.3872 0.0005 0.8680
vt  1.3871 0.0500 0.6189
vt  1.3873 0.0737 0.9987
vt  1.3873 0.9261 0.9987
vt  1.3872 0.9995 0.8680
vt  1.3871 0.9501 0.6189
vt  1.5003 0.0005 0.8680
vt  1.5004 0.0500 0.6189
vt  1.5002 0.0737 0.9987
vt  1.5002 0.9261 0.9987
vt  1.5003 0.9995 0.8680
vt  1.5004 0.9501 0.6189
vt  1.6144 0.0005 0.8683
vt  1.6144 0.0500 0.6191
vt  1.6143 0.0737 0.9991
vt  1.6143 0.9261 0.9991
vt  1.6144 0.9995 0.8683
vt  1.6144 0.9501 0.6191
vt  1.7325 0.0005 0.8682
vt  1.7325 0.0500 0.6189
vt  1.7325 0.0737 0.9990
vt  1.7325 0.9261 0.9990
vt  1.7325 0.9995 0.8682
vt  1.7325 0.9501 0.6189
vt  1.8506 0.0005 0.8683
vt  1.8506 0.0500 0.6191
vt  1.8507 0.0737 0.9991
vt  1.8507 0.9261 0.9991
vt  1.8506 0.9995 0.8683
vt  1.8506 0.9501 0.6191
vt  1.9647 0.0005 0.8680
vt  1.9646 0.0500 0.6189
vt  1.9648 0.0737 0.9987
vt  1.9648 0.9261 0.9987
vt  1.9647 0.9995 0.8680
vt  1.9646 0.9501 0.6189
vt  2.0778 0.0005 0.8680
vt  2.0779 0.0500 0.6189
vt  2.0777 0.0737 0.9987
vt  2.0777 0.9261 0.9987
vt  2.0778 0.9995 0.8680
vt  2.0779 0.9501 0.6189
vt  2.1919 0.0005 0.8683
vt  2.1919 0.0500 0.6191
vt  2.1918 0.0737 0.9991
vt  2.1918 0.9261 0.9991
vt  2.1919 0.9995 0.8683
vt  2.1919 0.9501 0.6191
vt  2.3100 0.0005 0.8682
vt  2.3100 0.0500 0.6189
vt  0.0000 0.0737 0.9990
vt  0.0000 0.9261 0.9990
vt  0.0000 0.9995 0.8682
vt  2.3100 0.9501 0.6189
vt  0.1181 0.0005 0.8683
vt  0.1181 0.0500 0.6191
vt  0.1182 0.0737 0.9991
vt  0.1182 0.9261 0.9991
vt  0.1181 0.9995 0.8683
vt  0.1181 0.9501 0.6191
vt  0.2322 0.0005 0.8680
vt  0.2321 0.0500 0.6189
vt  0.2323 0.0737 0.9987
vt  0.2323 0.9261 0.9987
vt  0.2322 0.9995 0.8680
vt  0.2321 0.9501 0.6189
vt  0.3453 0.0005 0.8680
vt  0.3454 0.0500 0.6189
vt  0.3452 0.0737 0.9987
vt  0.3452 0.9261 0.9987
vt  0.3453 0.9995 0.8680
vt  0.3454 0.9501 0.6189
vt  0.4594 0.0005 0.8683
vt  0.4594 0.0500 0.6191
vt  0.4593 0.0737 0.9991
vt  0.4593 0.9261 0.9991
vt  0.4594 0.9995 0.8683
vt  0.4594 0.9501 0.6191
vt  -0.1181 0.0005 0.8683
vt  -0.1182 0.0737 0.9991
vt  0.0000 0.0005 0.8682
vt  -0.1181 0.0005 0.8683
vt  -0.1182 0.0737 0.9991
vt  -0.1182 0.9261 0.9991
vt  -0.1182 0.0737 0.9991
vt  -0.1182 0.9261 0.9991
vt  -0.1181 0.9995 0.8683
vt  -0.1182 0.9261 0.9991
vt  -0.0000 0.9501 0.6189
vt  -0.1181 0.9995 0.8683
vt  -0.0000 0.0500 0.6189
vt  0.0000 0.0005 0.8682
vt  -0.0000 0.0500 0.6189
vt  0.0000 0.0005 0.8682
vt  0.0000 0.0005 0.8682
vt  -0.0000 0.9501 0.6189
# 138 texture vertices

vn  -0.0001 0.9909 -0.1343
vn  0.0435 2.5987 0.2690
vn  0.0686 3.0030 0.4245
vn  -0.0420 0.9909 -0.1276
vn  0.0000 0.5415 0.8407
vn  0.2637 0.5418 0.7981
vn  -0.0000 -0.5412 0.8409
vn  0.2638 -0.5414 0.7983
vn  0.1343 0.9909 -0.0000
vn  -0.2690 2.5987 0.0435
vn  -0.4245 3.0030 0.0686
vn  0.1276 0.9909 -0.0420
vn  -0.8407 0.5415 0.0000
vn  -0.7981 0.5418 0.2637
vn  -0.8409 -0.5412 -0.0000
vn  -0.7983 -0.5414 0.2638
vn  -0.5334 -2.2029 0.0862
vn  -0.4257 -3.0024 0.0689
vn  0.1343 -0.9909 0.0000
vn  0.1276 -0.9909 -0.0420
vn  -0.3791 3.0038 0.1963
vn  0.1085 0.9909 -0.0793
vn  -0.6780 0.5424 0.4961
vn  -0.6782 -0.5421 0.4962
vn  -0.3801 -3.0032 0.1969
vn  0.1085 -0.9909 -0.0793
vn  -0.3009 3.0041 0.3009
vn  0.0793 0.9909 -0.1085
vn  -0.4961 0.5424 0.6780
vn  -0.4962 -0.5421 0.6782
vn  -0.3019 -3.0035 0.3019
vn  0.0793 -0.9909 -0.1085
vn  -0.1963 3.0038 0.3791
vn  0.0420 0.9909 -0.1276
vn  -0.2637 0.5417 0.7981
vn  -0.2638 -0.5414 0.7983
vn  -0.1971 -3.0032 0.3805
vn  0.0420 -0.9909 -0.1276
vn  -0.0688 -3.0026 0.4251
vn  0.0000 -0.9909 -0.1343
vn  0.0689 -3.0024 0.4258
vn  -0.0420 -0.9909 -0.1276
vn  0.1964 3.0038 0.3790
vn  -0.0793 0.9909 -0.1086
vn  0.4961 0.5424 0.6780
vn  0.4962 -0.5421 0.6782
vn  0.1969 -3.0032 0.3802
vn  -0.0793 -0.9909 -0.1085
vn  0.3009 3.0041 0.3009
vn  -0.1085 0.9909 -0.0793
vn  0.6780 0.5424 0.4961
vn  0.6782 -0.5421 0.4962
vn  0.3019 -3.0035 0.3019
vn  -0.1085 -0.9909 -0.0793
vn  0.3791 3.0038 0.1963
vn  -0.1276 0.9909 -0.0420
vn  0.7981 0.5417 0.2637
vn  0.7983 -0.5414 0.2638
vn  0.3805 -3.0032 0.1971
vn  -0.1276 -0.9909 -0.0420
vn  0.4236 3.0032 0.0685
vn  -0.1343 0.9909 0.0000
vn  0.8407 0.5415 -0.0000
vn  0.8409 -0.5412 0.0000
vn  0.4251 -3.0026 0.0688
vn  -0.1343 -0.9909 -0.0000
vn  0.4245 3.0030 -0.0686
vn  -0.1276 0.9909 0.0420
vn  0.7981 0.5418 -0.2637
vn  0.7983 -0.5414 -0.2638
vn  0.4257 -3.0024 -0.0689
vn  -0.1276 -0.9909 0.0420
vn  0.3791 3.0038 -0.1963
vn  -0.1085 0.9909 0.0793
vn  0.6780 0.5424 -0.4961
vn  0.6782 -0.5421 -0.4962
vn  0.3801 -3.0032 -0.1969
vn  -0.1085 -0.9909 0.0793
vn  0.3009 3.0041 -0.3009
vn  -0.0793 0.9909 0.1085
vn  0.4961 0.5424 -0.6780
vn  0.4962 -0.5421 -0.6782
vn  0.3019 -3.0035 -0.3019
vn  -0.0793 -0.9909 0.1085
vn  0.1963 3.0038 -0.3791
vn  -0.0420 0.9909 0.1276
vn  0.2637 0.5417 -0.7981
vn  0.2638 -0.5414 -0.7983
vn  0.1971 -3.0032 -0.3805
vn  -0.0420 -0.9909 0.1276
vn  0.0685 3.0032 -0.4236
vn  0.0000 0.9909 0.1343
vn  -0.0000 0.5415 -0.8407
vn  0.0000 -0.5412 -0.8409
vn  0.0688 -3.0026 -0.4251
vn  -0.0000 -0.9909 0.1343
vn  -0.0686 3.0030 -0.4245
vn  0.0420 0.9909 0.1276
vn  -0.2637 0.5418 -0.7981
vn  -0.2638 -0.5414 -0.7983
vn  -0.0689 -3.0024 -0.4257
vn  0.0420 -0.9909 0.1276
vn  -0.1963 3.0038 -0.3791
vn  0.0793 0.9909 0.1085
vn  -0.4961 0.5424 -0.6780
vn  -0.4962 -0.5421 -0.6782
vn  -0.1969 -3.0032 -0.3801
vn  0.0793 -0.9909 0.1085
vn  -0.3009 3.0041 -0.3009
vn  0.1085 0.9909 0.0793
vn  -0.6780 0.5424 -0.4961
vn  -0.6782 -0.5421 -0.4962
vn  -0.3019 -3.0035 -0.3019
vn  0.1085 -0.9909 0.0793
vn  -0.3791 3.0038 -0.1963
vn  0.1276 0.9909 0.0420
vn  -0.7981 0.5417 -0.2637
vn  -0.7983 -0.5414 -0.2638
vn  -0.3805 -3.0032 -0.1971
vn  0.1276 -0.9909 0.0420
# 120 vertex normals

g Object02
usemtl tread_side
s 1
f 1/1/1 2/2/2 3/3/3
f 3/3/3 4/4/4 1/1/1
usemtl Tread
f 2/2/2 5/5/5 6/6/6
f 6/6/6 3/3/3 2/2/2
f 5/5/5 7/7/7 8/8/8
f 8/8/8 6/6/6 5/5/5
usemtl tread_side
f 9/9/9 10/10/10 11/11/11
f 11/11/11 12/12/12 9/9/9
usemtl Tread
f 10/10/10 13/13/13 14/14/14
f 14/14/14 11/11/11 10/10/10
f 13/13/13 15/15/15 16/16/16
f 16/16/16 14/14/14 13/13/13
f 15/15/15 17/17/17 18/18/18
f 18/18/18 16/16/16 15/15/15
usemtl tread_side
f 17/17/17 19/19/19 20/20/20
f 20/20/20 18/18/18 17/17/17
f 12/12/12 11/11/11 21/21/21
f 21/21/21 22/22/22 12/12/12
usemtl Tread
f 11/11/11 14/14/14 23/23/23
f 23/23/23 21/21/21 11/11/11
f 14/14/14 16/16/16 24/24/24
f 24/24/24 23/23/23 14/14/14
f 16/16/16 18/18/18 25/25/25
f 25/25/25 24/24/24 16/16/16
usemtl tread_side
f 18/18/18 20/20/20 26/26/26
f 26/26/26 25/25/25 18/18/18
f 22/22/22 21/21/21 27/27/27
f 27/27/27 28/28/28 22/22/22
usemtl Tread
f 21/21/21 23/23/23 29/29/29
f 29/29/29 27/27/27 21/21/21
f 23/23/23 24/24/24 30/30/30
f 30/30/30 29/29/29 23/23/23
f 24/24/24 25/25/25 31/31/31
f 31/31/31 30/30/30 24/24/24
usemtl tread_side
f 25/25/25 26/26/26 32/32/32
f 32/32/32 31/31/31 25/25/25
f 28/28/28 27/27/27 33/33/33
f 33/33/33 34/34/34 28/28/28
usemtl Tread
f 27/27/27 29/29/29 35/35/35
f 35/35/35 33/33/33 27/27/27
f 29/29/29 30/30/30 36/36/36
f 36/36/36 35/35/35 29/29/29
f 30/30/30 31/31/31 37/37/37
f 37/37/37 36/36/36 30/30/30
usemtl tread_side
f 31/31/31 32/32/32 38/38/38
f 38/38/38 37/37/37 31/31/31
f 34/34/34 33/33/33 2/2/2
f 2/2/2 1/1/1 34/34/34
usemtl Tread
f 33/33/33 35/35/35 5/5/5
f 5/5/5 2/2/2 33/33/33
f 35/35/35 36/36/36 7/7/7
f 7/7/7 5/5/5 35/35/35
f 36/36/36 37/37/37 39/39/39
f 39/39/39 7/7/7 36/36/36
usemtl tread_side
f 37/37/37 38/38/38 40/40/40
f 40/40/40 39/39/39 37/37/37
usemtl Tread
f 7/7/7 39/39/39 41/41/41
f 41/41/41 8/8/8 7/7/7
usemtl tread_side
f 39/39/39 40/40/40 42/42/42
f 42/42/42 41/41/41 39/39/39
f 4/4/4 3/3/3 43/43/43
f 43/43/43 44/44/44 4/4/4
usemtl Tread
f 3/3/3 6/6/6 45/45/45
f 45/45/45 43/43/43 3/3/3
f 6/6/6 8/8/8 46/46/46
f 46/46/46 45/45/45 6/6/6
f 8/8/8 41/41/41 47/47/47
f 47/47/47 46/46/46 8/8/8
usemtl tread_side
f 41/41/41 42/42/42 48/48/48
f 48/48/48 47/47/47 41/41/41
f 44/44/44 43/43/43 49/49/49
f 49/49/49 50/50/50 44/44/44
usemtl Tread
f 43/43/43 45/45/45 51/51/51
f 51/51/51 49/49/49 43/43/43
f 45/45/45 46/46/46 52/52/52
f 52/52/52 51/51/51 45/45/45
f 46/46/46 47/47/47 53/53/53
f 53/53/53 52/52/52 46/46/46
usemtl tread_side
f 47/47/47 48/48/48 54/54/54
f 54/54/54 53/53/53 47/47/47
f 50/50/50 49/49/49 55/55/55
f 55/55/55 56/56/56 50/50/50
usemtl Tread
f 49/49/49 51/51/51 57/57/57
f 57/57/57 55/55/55 49/49/49
f 51/51/51 52/52/52 58/58/58
f 58/58/58 57/57/57 51/51/51
f 52/52/52 53/53/53 59/59/59
f 59/59/59 58/58/58 52/52/52
usemtl tread_side
f 53/53/53 54/54/54 60/60/60
f 60/60/60 59/59/59 53/53/53
f 56/56/56 55/55/55 61/61/61
f 61/61/61 62/62/62 56/56/56
usemtl Tread
f 55/55/55 57/57/57 63/63/63
f 63/63/63 61/61/61 55/55/55
f 57/57/57 58/58/58 64/64/64
f 64/64/64 63/63/63 57/57/57
f 58/58/58 59/59/59 65/65/65
f 65/65/65 64/64/64 58/58/58
usemtl tread_side
f 59/59/59 60/60/60 66/66/66
f 66/66/66 65/65/65 59/59/59
f 62/62/62 61/61/61 67/67/67
f 67/67/67 68/68/68 62/62/62
usemtl Tread
f 61/61/61 63/63/63 69/69/69
f 69/69/69 67/67/67 61/61/61
f 63/63/63 64/64/64 70/70/70
f 70/70/70 69/69/69 63/63/63
f 64/64/64 65/65/65 71/71/71
f 71/71/71 70/70/70 64/64/64
usemtl tread_side
f 65/65/65 66/66/66 72/72/72
f 72/72/72 71/71/71 65/65/65
f 68/68/68 67/67/67 73/73/73
f 73/73/73 74/74/74 68/68/68
usemtl Tread
f 67/67/67 69/69/69 75/75/75
f 75/75/75 73/73/73 67/67/67
f 69/69/69 70/70/70 76/76/76
f 76/76/76 75/75/75 69/69/69
f 70/70/70 71/71/71 77/77/77
f 77/77/77 76/76/76 70/70/70
usemtl tread_side
f 71/71/71 72/72/72 78/78/78
f 78/78/78 77/77/77 71/71/71
f 74/74/74 73/73/73 79/79/79
f 79/79/79 80/80/80 74/74/74
usemtl Tread
f 73/73/73 75/75/75 81/81/81
f 81/81/81 79/79/79 73/73/73
f 75/75/75 76/76/76 82/82/82
f 82/82/82 81/81/81 75/75/75
f 76/76/76 77/77/77 83/83/83
f 83/83/83 82/82/82 76/76/76
usemtl tread_side
f 77/77/77 78/78/78 84/84/84
f 84/84/84 83/83/83 77/77/77
f 80/80/80 79/79/79 85/85/85
f 85/85/85 86/86/86 80/80/80
usemtl Tread
f 79/79/79 81/81/81 87/87/87
f 87/87/87 85/85/85 79/79/79
f 81/81/81 82/82/82 88/88/88
f 88/88/88 87/87/87 81/81/81
f 82/82/82 83/83/83 89/89/89
f 89/89/89 88/88/88 82/82/82
usemtl tread_side
f 83/83/83 84/84/84 90/90/90
f 90/90/90 89/89/89 83/83/83
f 86/86/86 85/85/85 91/91/91
f 91/91/91 92/92/92 86/86/86
usemtl Tread
f 85/121/85 87/122/87 93/93/93
f 93/93/93 91/123/91 85/124/85
f 87/125/87 88/126/88 94/94/94
f 94/94/94 93/93/93 87/127/87
f 88/128/88 89/129/89 95/95/95
f 95/95/95 94/94/94 88/130/88
usemtl tread_side
f 89/89/89 90/90/90 96/96/96
f 96/131/96 95/95/95 89/132/89
f 92/133/92 91/134/91 97/97/97
f 97/97/97 98/98/98 92/135/92
usemtl Tread
f 91/136/91 93/93/93 99/99/99
f 99/99/99 97/97/97 91/137/91
f 93/93/93 94/94/94 100/100/100
f 100/100/100 99/99/99 93/93/93
f 94/94/94 95/95/95 101/101/101
f 101/101/101 100/100/100 94/94/94
usemtl tread_side
f 95/95/95 96/138/96 102/102/102
f 102/102/102 101/101/101 95/95/95
f 98/98/98 97/97/97 103/103/103
f 103/103/103 104/104/104 98/98/98
usemtl Tread
f 97/97/97 99/99/99 105/105/105
f 105/105/105 103/103/103 97/97/97
f 99/99/99 100/100/100 106/106/106
f 106/106/106 105/105/105 99/99/99
f 100/100/100 101/101/101 107/107/107
f 107/107/107 106/106/106 100/100/100
usemtl tread_side
f 101/101/101 102/102/102 108/108/108
f 108/108/108 107/107/107 101/101/101
f 104/104/104 103/103/103 109/109/109
f 109/109/109 110/110/110 104/104/104
usemtl Tread
f 103/103/103 105/105/105 111/111/111
f 111/111/111 109/109/109 103/103/103
f 105/105/105 106/106/106 112/112/112
f 112/112/112 111/111/111 105/105/105
f 106/106/106 107/107/107 113/113/113
f 113/113/113 112/112/112 106/106/106
usemtl tread_side
f 107/107/107 108/108/108 114/114/114
f 114/114/114 113/113/113 107/107/107
f 110/110/110 109/109/109 115/115/115
f 115/115/115 116/116/116 110/110/110
usemtl Tread
f 109/109/109 111/111/111 117/117/117
f 117/117/117 115/115/115 109/109/109
f 111/111/111 112/112/112 118/118/118
f 118/118/118 117/117/117 111/111/111
f 112/112/112 113/113/113 119/119/119
f 119/119/119 118/118/118 112/112/112
usemtl tread_side
f 113/113/113 114/114/114 120/120/120
f 120/120/120 119/119/119 113/113/113
f 116/116/116 115/115/115 10/10/10
f 10/10/10 9/9/9 116/116/116
usemtl Tread
f 115/115/115 117/117/117 13/13/13
f 13/13/13 10/10/10 115/115/115
f 117/117/117 118/118/118 15/15/15
f 15/15/15 13/13/13 117/117/117
f 118/118/118 119/119/119 17/17/17
f 17/17/17 15/15/15 118/118/118
usemtl tread_side
f 119/119/119 120/120/120 19/19/19
f 19/19/19 17/17/17 119/119/119
# 200 faces

g
