mtllib ./fan_blades.mtl
g
v -0.985673 -1.93536e-007 0.981401
v -0.696976 -1.8041e-007 0.284425
v 0.0 0.0 -0.00427175
v 0.696976 0.0 0.284425
v 0.985673 0.0 0.981401
v 0.696976 0.0 1.67838
v 0.0 0.0 1.96707
v -0.696976 -1.19478e-007 1.67838

vt 1.0372 0.5 0.5
vt 0.879858 0.120141 0.5
vt 0.5 -0.0372012 0.5
vt 0.120141 0.120142 0.5
vt -0.0372012 0.5 0.5
vt 0.120142 0.879859 0.5
vt 0.5 1.0372 0.5
vt 0.879859 0.879859 0.5

vn -1.50996e-007 1.0 0.0
vn -1.50996e-007 1.0 0.0
vn -1.50996e-007 1.0 0.0
vn -1.50996e-007 1.0 0.0
vn -1.50996e-007 1.0 0.0
vn -1.50996e-007 1.0 0.0
vn -1.50996e-007 1.0 0.0
vn -1.50996e-007 1.0 0.0

g
g fan_spinning
usemtl fan_spinning
f 7/7/1 6/6/2 5/5/3
f 5/5/3 4/4/4 3/3/5
f 3/3/5 2/2/6 1/1/7
f 5/5/3 3/3/5 1/1/7
f 7/7/1 5/5/3 1/1/7
f 8/8/8 7/7/1 1/1/7
g
v 0.985673 0.0 0.981401
v 0.696976 0.0 0.284425
v 0.0 0.0 -0.00427175
v -0.696976 0.0 0.284425
v -0.985673 0.0 0.981401
v -0.696976 0.0 1.67838
v 0.0 0.0 1.96707
v 0.696976 0.0 1.67838

vt 1.0372 0.5 0.5
vt 0.879858 0.120141 0.5
vt 0.5 -0.0372012 0.5
vt 0.120141 0.120142 0.5
vt -0.0372012 0.5 0.5
vt 0.120142 0.879859 0.5
vt 0.5 1.0372 0.5
vt 0.879859 0.879859 0.5

vn 0.0 -1.0 0.0
vn 0.0 -1.0 0.0
vn 0.0 -1.0 0.0
vn 0.0 -1.0 0.0
vn 0.0 -1.0 0.0
vn 0.0 -1.0 0.0
vn 0.0 -1.0 0.0
vn 0.0 -1.0 0.0

g
g fan_spinning
usemtl fan_spinning
f 15/15/9 14/14/10 13/13/11
f 13/13/11 12/12/12 11/11/13
f 11/11/13 10/10/14 9/9/15
f 13/13/11 11/11/13 9/9/15
f 15/15/9 13/13/11 9/9/15
f 16/16/16 15/15/9 9/9/15
