mtllib ./brakes_on.mtl
g
v -3.61291 -0.26109 0.78548
v -3.61903 -0.2609 0.83749
v -3.61636 -0.27246 0.81352
v -3.61821 -0.26909 0.82934
v -3.61416 -0.26919 0.79506
v -3.61903 0.0 0.83749
v -3.62284 0.0 0.822925
v -3.62019 0.0 0.801477
v -3.61291 0.0 0.78548
v -3.61291 0.26109 0.78548
v -3.61903 0.2609 0.83749
v -3.61636 0.27246 0.81352
v -3.61821 0.26909 0.82934
v -3.61416 0.26919 0.79506

vt 0.57918 0.89391 0.45597
vt 0.73714 0.89961 0.52318
vt 0.73214 0.90554 0.52255
vt 0.57945 0.90474 0.45192
vt 0.73812 0.87459 0.51573
vt 0.73953 0.88807 0.52066
vt 0.57977 0.87826 0.45113
vt 0.73214 0.90554 0.52255
vt 0.73714 0.89961 0.52318
vt 0.57918 0.89391 0.45597
vt 0.57945 0.90474 0.45192
vt 0.73953 0.88807 0.52066
vt 0.73812 0.87459 0.51573
vt 0.57977 0.87826 0.45113
vt 0.73366 0.86758 0.51129
vt 0.58086 0.86678 0.44061
vt 0.73366 0.86758 0.51129
vt 0.58086 0.86678 0.44061

vn -0.998177 0.0 0.0603534
vn -0.994565 -0.0195679 -0.102265
vn -0.997157 -0.0186552 -0.0730029
vn -0.967372 0.0 0.253362
vn -0.991367 -0.0191728 -0.129707
vn -0.992935 -0.0195937 -0.117031
vn -0.96404 0.0 -0.265756
vn -0.997157 0.0186552 -0.0730029
vn -0.994565 0.0195679 -0.102265
vn -0.992935 0.0195937 -0.117031
vn -0.991367 0.0191728 -0.129707
vn -0.988052 -0.0181754 -0.153043
vn -0.910166 0.0 -0.414244
vn -0.988052 0.0181754 -0.153043

g
g all
usemtl all
f 7/1/1 4/2/2 2/3/3
f 7/1/1 2/3/3 6/4/4
f 5/5/5 3/6/6 7/1/1
f 5/5/5 7/1/1 8/7/7
f 11/8/8 13/9/9 7/10/1
f 11/8/8 7/10/1 6/11/4
f 7/10/1 12/12/10 14/13/11
f 7/10/1 14/13/11 8/14/7
f 3/6/6 4/2/2 7/1/1
f 1/15/12 5/5/5 8/7/7
f 1/15/12 8/7/7 9/16/13
f 13/9/9 12/12/10 7/10/1
f 14/13/11 10/17/14 8/14/7
f 8/14/7 10/17/14 9/18/13
g
v -3.59637 -0.44553 0.69305
v -3.5997 -0.44518 0.67462
v -3.59473 -0.48708 0.76107
v -3.59568 -0.44544 0.71351
v -3.58797 -0.5594 0.78161
v -3.56485 -0.66827 0.78156
v -3.57662 -0.66714 0.67462
v -3.54157 -0.73717 0.72807
v -3.54467 -0.74898 0.67462
v -3.542 -0.74474 0.70277
v -3.56254 -0.71401 0.67462
v -3.55856 -0.68573 0.77815
v -3.55423 -0.69902 0.77143
v -3.54671 -0.71698 0.75833
v -3.54158 -0.73904 0.72184
v -3.54865 -0.75211 0.63923
v -3.54664 -0.75093 0.65488
v -3.54525 -0.7499 0.66848
v -3.60511 -0.55648 0.57654
v -3.55424 -0.75298 0.60216
v -3.58752 -0.66611 0.57562
v -3.55923 -0.75307 0.57612
v -3.59691 -0.55794 0.67462
v -3.61687 -0.444656 0.58617
v -3.61523 -0.44426 0.59527
v -3.60625 -0.4445 0.63841
v -3.57104 -0.72937 0.57551
v -3.59637 0.44553 0.69305
v -3.5997 0.44518 0.67462
v -3.59473 0.48708 0.76107
v -3.59568 0.44544 0.71351
v -3.58797 0.5594 0.78161
v -3.56485 0.66827 0.78156
v -3.57662 0.66714 0.67462
v -3.54157 0.73717 0.72807
v -3.54467 0.74898 0.67462
v -3.542 0.74474 0.70277
v -3.56254 0.71401 0.67462
v -3.55856 0.68573 0.77815
v -3.55423 0.69902 0.77143
v -3.54671 0.71698 0.75833
v -3.54158 0.73904 0.72184
v -3.54865 0.75211 0.63923
v -3.54664 0.75093 0.65488
v -3.54525 0.7499 0.66848
v -3.60511 0.55648 0.57654
v -3.55424 0.75298 0.60216
v -3.58752 0.66611 0.57562
v -3.55923 0.75307 0.57612
v -3.59691 0.55794 0.67462
v -3.61687 0.444656 0.58617
v -3.61523 0.44426 0.59527
v -3.60625 0.4445 0.63841
v -3.57104 0.72937 0.57551

vt 0.6347 0.26022 0.40652
vt 0.63538 0.24535 0.40853
vt 0.56541 0.24349 0.51137
vt 0.63485 0.27642 0.41285
vt 0.56392 0.32872 0.53035
vt 0.49413 0.24349 0.55809
vt 0.49228 0.32898 0.56822
vt 0.46246 0.24404 0.562
vt 0.43736 0.24521 0.54278
vt 0.43975 0.26775 0.54226
vt 0.60956 0.31321 0.47081
vt 0.48023 0.3266 0.56512
vt 0.47111 0.3215 0.56243
vt 0.4584 0.3116 0.5521
vt 0.4446 0.28789 0.544
vt 0.44338 0.28294 0.54329
vt 0.43583 0.21684 0.54314
vt 0.43684 0.24029 0.54288
vt 0.436 0.18703 0.54541
vt 0.43633 0.22941 0.54243
vt 0.49584 0.16435 0.54874
vt 0.56686 0.16536 0.49386
vt 0.4536 0.16475 0.56156
vt 0.43665 0.16599 0.54969
vt 0.63817 0.18122 0.42136
vt 0.63815 0.17387 0.42291
vt 0.5669 0.16543 0.4938
vt 0.6367 0.21615 0.41252
vt 0.63538 0.24535 0.40853
vt 0.6347 0.26022 0.40652
vt 0.56541 0.24349 0.51137
vt 0.63485 0.27642 0.41285
vt 0.56392 0.32872 0.53035
vt 0.49413 0.24349 0.55809
vt 0.49228 0.32898 0.56822
vt 0.46246 0.24404 0.562
vt 0.43975 0.26775 0.54226
vt 0.43736 0.24521 0.54278
vt 0.60956 0.31321 0.47081
vt 0.48023 0.3266 0.56512
vt 0.47111 0.3215 0.56243
vt 0.4584 0.3116 0.5521
vt 0.4446 0.28789 0.544
vt 0.44338 0.28294 0.54329
vt 0.43684 0.24029 0.54288
vt 0.43583 0.21684 0.54314
vt 0.436 0.18703 0.54541
vt 0.43633 0.22941 0.54243
vt 0.49584 0.16435 0.54874
vt 0.56686 0.16536 0.49386
vt 0.4536 0.16475 0.56156
vt 0.43665 0.16599 0.54969
vt 0.63815 0.17387 0.42291
vt 0.63817 0.18122 0.42136
vt 0.5669 0.16543 0.4938
vt 0.6367 0.21615 0.41252

vn -0.995045 -0.0114096 0.0987703
vn -0.983836 -0.0243422 0.177412
vn -0.98937 -0.113649 0.090727
vn -0.999599 0.00114909 0.028303
vn -0.986368 -0.139211 0.087741
vn -0.966576 -0.23409 0.104557
vn -0.955939 -0.270348 0.114424
vn -0.917898 -0.373809 0.133157
vn -0.880282 -0.449823 0.150872
vn -0.880544 -0.448707 0.152656
vn -0.998319 -0.0298819 0.0496696
vn -0.922525 -0.361818 0.134296
vn -0.906252 -0.399032 0.139573
vn -0.872185 -0.466124 0.148395
vn -0.878606 -0.454048 0.14796
vn -0.875637 -0.460887 0.144375
vn -0.879098 -0.454101 0.144842
vn -0.879098 -0.454101 0.144842
vn -0.859953 -0.484194 0.161357
vn -0.879098 -0.454101 0.144842
vn -0.972622 -0.210441 0.0985953
vn -0.987795 -0.131625 0.0832879
vn -0.925058 -0.357339 0.12875
vn -0.87939 -0.451963 0.149674
vn -0.983017 -0.0833491 0.163496
vn -0.976333 -0.118271 0.181066
vn -0.980941 -0.0190369 0.193373
vn -0.983836 0.0243422 0.177412
vn -0.995045 0.0114096 0.0987703
vn -0.98937 0.113649 0.090727
vn -0.999599 -0.00114909 0.028303
vn -0.986368 0.139211 0.087741
vn -0.966576 0.23409 0.104557
vn -0.955939 0.270348 0.114424
vn -0.917898 0.373809 0.133157
vn -0.880544 0.448707 0.152656
vn -0.880282 0.449823 0.150872
vn -0.998319 0.0298819 0.0496696
vn -0.922525 0.361818 0.134296
vn -0.906252 0.399032 0.139573
vn -0.872185 0.466124 0.148395
vn -0.878606 0.454048 0.14796
vn -0.875637 0.460887 0.144375
vn -0.879098 0.454101 0.144842
vn -0.879098 0.454101 0.144842
vn -0.859953 0.484194 0.161357
vn -0.879098 0.454101 0.144842
vn -0.972622 0.210441 0.0985953
vn -0.987795 0.131625 0.0832879
vn -0.925058 0.357339 0.12875
vn -0.87939 0.451963 0.149674
vn -0.976333 0.118271 0.181066
vn -0.983017 0.0833491 0.163496
vn -0.980941 0.0190369 0.193373

g
g all
usemtl all
f 15/19/15 16/20/16 37/21/17
f 37/21/17 18/22/18 15/19/15
f 19/23/19 37/21/17 21/24/20
f 20/25/21 21/24/20 25/26/22
f 23/27/23 24/28/24 25/26/22
f 19/23/19 17/29/25 37/21/17
f 20/25/21 19/23/19 21/24/20
f 26/30/26 20/25/21 25/26/22
f 27/31/27 26/30/26 25/26/22
f 28/32/28 27/31/27 25/26/22
f 22/33/29 28/32/28 25/26/22
f 29/34/30 22/33/29 25/26/22
f 24/28/24 29/34/30 25/26/22
f 30/35/31 32/36/32 34/37/33
f 31/38/34 32/36/32 30/35/31
f 21/24/20 37/21/17 35/39/35
f 37/21/17 33/40/36 35/39/35
f 25/26/22 21/24/20 41/41/37
f 21/24/20 35/39/35 41/41/37
f 25/26/22 41/41/37 36/42/38
f 25/26/22 36/42/38 34/37/33
f 32/36/32 23/27/23 25/26/22
f 32/36/32 25/26/22 34/37/33
f 39/43/39 38/44/40 33/45/36
f 37/21/17 39/43/39 33/45/36
f 40/46/41 39/43/39 37/21/17
f 16/20/16 40/46/41 37/21/17
f 17/29/25 18/22/18 37/21/17
f 43/47/42 42/48/43 64/49/44
f 45/50/45 64/49/44 42/48/43
f 64/49/44 46/51/46 48/52/47
f 48/52/47 47/53/48 52/54/49
f 51/55/50 50/56/51 52/54/49
f 44/57/52 46/51/46 64/49/44
f 46/51/46 47/53/48 48/52/47
f 47/53/48 53/58/53 52/54/49
f 53/58/53 54/59/54 52/54/49
f 54/59/54 55/60/55 52/54/49
f 55/60/55 49/61/56 52/54/49
f 49/61/56 56/62/57 52/54/49
f 56/62/57 51/55/50 52/54/49
f 59/63/58 57/64/59 61/65/60
f 59/63/58 58/66/61 57/64/59
f 64/49/44 48/52/47 62/67/62
f 60/68/63 64/49/44 62/67/62
f 48/52/47 52/54/49 68/69/64
f 62/67/62 48/52/47 68/69/64
f 68/69/64 52/54/49 63/70/65
f 63/70/65 52/54/49 61/65/60
f 50/56/51 59/63/58 52/54/49
f 52/54/49 59/63/58 61/65/60
f 65/71/66 66/72/67 60/73/63
f 66/72/67 64/49/44 60/73/63
f 66/72/67 67/74/68 64/49/44
f 67/74/68 43/47/42 64/49/44
f 45/50/45 44/57/52 64/49/44
