g
v -0.928925 0.554995 1.09395
v -0.948422 0.613314 1.0852
v -1.0888 0.511782 1.17189
v -1.10441 0.565225 1.16605
v -1.06887 0.575238 1.15002
v -0.468603 0.308447 0.889022
v -0.522649 0.558972 0.873304
v -1.06381 0.432007 1.18156
v -0.910789 0.467829 1.1039
v -0.878 0.274709 1.11409
v -1.0375 0.260133 1.18989
v -0.558042 0.648142 0.862926
v -0.263475 0.000113144 0.7928
v -0.594518 0.725296 0.853401
v -0.292559 0.325526 0.788796
v -0.371167 0.592331 0.770716
v -0.418139 0.682327 0.768537
v -0.475076 0.754317 0.772228
v -1.19436 0.6166 1.14735
v -1.24996 0.61058 1.15795
v -1.3023 0.675539 1.06323
v -0.898943 0.774252 0.844367
v -0.75472 0.77263 0.84183
v -0.945644 0.734801 0.942242
v -0.77041 0.749535 0.904185
v -0.85661 0.80202 0.75091
v -1.21943 0.80055 0.76799
v -1.24257 0.773901 0.855405
v -1.10863 0.63665 1.1151
v -0.99621 0.6766 1.05262
v -1.3355 0.60633 1.16685
v -1.50232 0.60097 1.17864
v -1.53877 0.76989 0.86975
v -1.51667 0.795733 0.783294
v -1.15323 0.62446 1.13447
v -1.27065 0.733562 0.955785
v -1.56606 0.72831 0.97006
v -1.59826 0.67016 1.07942
v -1.63219 0.59802 1.1857
v -0.72945 0.80467 0.7438
v -2.24424 0.61773 1.15335
v -2.29201 0.63165 1.13064
v -1.9778 0.65921 1.08952
v -2.36349 0.70174 0.99941
v -2.47221 0.69634 1.00216
v -2.34941 0.742495 0.901326
v -2.57595 0.73243 0.90987
v -1.95332 0.718823 0.976019
v -1.93542 0.75831 0.88444
v -1.72424 0.72315 0.97527
v -1.71043 0.76518 0.87614
v -2.60776 0.7464 0.86558
v -2.60034 0.75417 0.84051
v -1.74245 0.66531 1.08267
v -1.75954 0.59505 1.18675
v -1.99953 0.59782 1.1876
v -2.33163 0.70132 0.99785
v -2.31731 0.74337 0.90028
v -2.33618 0.76928 0.8175
v -2.55367 0.76005 0.82741
v -2.19488 0.60808 1.16925
v -2.34437 0.65285 1.09628
v -2.3028 0.770737 0.816192
v -1.92089 0.78505 0.80088
v -2.12789 0.60075 1.18163
v -2.58243 0.75708 0.8321
v -1.699 0.791543 0.79179
v -2.374 0.66174 1.07577
v -0.263518 0.0 0.792817
v -2.86949 0.0 1.05753
v -3.03477 0.0 0.976215
v -2.53417 0.55621 1.15262
v -2.44973 0.53959 1.18751
v -2.54768 0.506084 1.16039
v -2.4594 0.49089 1.19427
v -3.04395 0.66358 0.87492
v -2.95868 0.573405 0.95165
v -3.06956 0.59025 0.885
v -2.85969 0.248027 1.05202
v -3.02284 0.254082 0.969123
v -2.83399 0.450999 1.03936
v -2.98813 0.463156 0.956511
v -2.57054 0.241672 1.18506
v -2.68716 0.245784 1.13471
v -2.55762 0.432536 1.17043
v -2.66736 0.439802 1.12236
v -2.81011 0.549661 1.03212
v -2.46632 0.42588 1.20322
v -2.47942 0.24137 1.21339
v -3.10164 0.473882 0.892308
v -3.13284 0.25727 0.9025
v -2.63433 0.57973 1.10388
v -2.65144 0.523889 1.11215
v -3.0138 0.66349 0.89328
v -2.92434 0.64848 0.94659
v -2.78092 0.61643 1.0278
v -0.928925 -0.554995 1.09395
v -0.558042 -0.648142 0.862926
v -0.594518 -0.725296 0.853401
v -0.948422 -0.613314 1.0852
v -1.10441 -0.565225 1.16605
v -1.0888 -0.511782 1.17189
v -1.06887 -0.575238 1.15002
v -1.06381 -0.432007 1.18156
v -0.910789 -0.467829 1.1039
v -0.878 -0.274709 1.11409
v -1.0375 -0.260133 1.18989
v -0.522649 -0.558972 0.873304
v -0.858221 0.0 1.12014
v -1.02799 0.0 1.19569
v -0.26355 0.0 0.792835
v -0.26348 -5.65803e-005 0.792799
v -0.445045 0.0 0.897078
v -0.468603 -0.308447 0.889022
v -0.292559 -0.325526 0.788796
v -0.371167 -0.592331 0.770716
v -0.418139 -0.682327 0.768537
v -0.475076 -0.754317 0.772228
v -1.24996 -0.61058 1.15795
v -1.19436 -0.6166 1.14735
v -1.3023 -0.675539 1.06323
v -0.75472 -0.77263 0.84183
v -0.898943 -0.774252 0.844367
v -0.945644 -0.734801 0.942242
v -0.77041 -0.749535 0.904185
v -0.85661 -0.80202 0.75091
v -1.21943 -0.80055 0.76799
v -1.24257 -0.773901 0.855405
v -1.10863 -0.63665 1.1151
v -0.99621 -0.6766 1.05262
v -1.3355 -0.60633 1.16685
v -1.50232 -0.60097 1.17864
v -1.51667 -0.795733 0.783294
v -1.53877 -0.76989 0.86975
v -1.15323 -0.62446 1.13447
v -1.27065 -0.733562 0.955785
v -1.56606 -0.72831 0.97006
v -1.59826 -0.67016 1.07942
v -1.63219 -0.59802 1.1857
v -0.72945 -0.80467 0.7438
v -2.29201 -0.63165 1.13064
v -2.24424 -0.61773 1.15335
v -1.9778 -0.65921 1.08952
v -2.47221 -0.69634 1.00216
v -2.36349 -0.70174 0.99941
v -2.34941 -0.742495 0.901326
v -2.57595 -0.73243 0.90987
v -1.93542 -0.75831 0.88444
v -1.95332 -0.718823 0.976019
v -1.72424 -0.72315 0.97527
v -1.71043 -0.76518 0.87614
v -2.60034 -0.75417 0.84051
v -2.60776 -0.7464 0.86558
v -1.75954 -0.59505 1.18675
v -1.74245 -0.66531 1.08267
v -1.99953 -0.59782 1.1876
v -2.31731 -0.74337 0.90028
v -2.33163 -0.70132 0.99785
v -2.33618 -0.76928 0.8175
v -2.55367 -0.76005 0.82741
v -2.19488 -0.60808 1.16925
v -2.34437 -0.65285 1.09628
v -2.3028 -0.770737 0.816192
v -1.92089 -0.78505 0.80088
v -2.12789 -0.60075 1.18163
v -2.58243 -0.75708 0.8321
v -1.699 -0.791543 0.79179
v -2.374 -0.66174 1.07577
v -2.44973 -0.53959 1.18751
v -2.53417 -0.55621 1.15262
v -2.54768 -0.506084 1.16039
v -2.4594 -0.49089 1.19427
v -2.95868 -0.573405 0.95165
v -3.04395 -0.66358 0.87492
v -3.06956 -0.59025 0.885
v -3.02284 -0.254082 0.969123
v -2.85969 -0.248027 1.05202
v -2.83399 -0.450999 1.03936
v -2.98813 -0.463156 0.956511
v -2.68716 -0.245784 1.13471
v -2.57054 -0.241672 1.18506
v -2.55762 -0.432536 1.17043
v -2.66736 -0.439802 1.12236
v -2.81011 -0.549661 1.03212
v -2.46632 -0.42588 1.20322
v -2.47942 -0.24137 1.21339
v -3.10164 -0.473882 0.892308
v -2.6944 0.0 1.14359
v -3.13284 -0.25727 0.9025
v -2.63433 -0.57973 1.10388
v -2.65144 -0.523889 1.11215
v -3.0138 -0.66349 0.89328
v -2.78092 -0.61643 1.0278
v -2.92434 -0.64848 0.94659
v -2.57697 0.0 1.19325
v -2.49221 0.0 1.21841
v -3.14593 0.0 0.906478

vn 0.430204 0.234251 0.871809
vn 0.465551 0.302567 0.831694
vn 0.460111 0.317988 0.828964
vn 0.428346 0.272561 0.861528
vn 0.382526 0.190702 0.90405
vn 0.379255 0.218521 0.899119
vn 0.384812 0.128996 0.913937
vn 0.405611 0.163848 0.899241
vn 0.444078 0.159751 0.881632
vn 0.449242 0.0867188 0.889192
vn 0.418526 0.0760854 0.905012
vn 0.482533 0.225709 0.846296
vn 0.445756 0.0 0.895154
vn 0.406557 0.0 0.913625
vn 0.464792 -0.00438406 0.885409
vn 0.487425 0.00285179 0.87316
vn 0.486496 -3.88603e-007 0.873683
vn 0.478089 -0.0114067 0.878237
vn 0.48032 0.106422 0.870613
vn 0.493747 0.11593 0.861844
vn 0.50727 0.24099 0.827406
vn 0.484176 0.301538 0.82137
vn 0.472416 0.329246 0.817569
vn 0.0169065 0.828916 0.559117
vn 0.0167736 0.828858 0.559207
vn 0.0129518 0.855072 0.518347
vn 0.0111472 0.942688 0.333488
vn 0.0115101 0.941658 0.336374
vn 0.0185747 0.903082 0.429066
vn 0.00191689 0.92954 0.368717
vn 0.00074594 0.95849 0.285127
vn 0.00495032 0.956305 0.292327
vn 0.00632237 0.942648 0.333727
vn 0.0165215 0.828632 0.55955
vn 0.0183816 0.871643 0.489796
vn 0.0144098 0.829352 0.558541
vn 0.0140484 0.827115 0.561858
vn 0.000666236 0.957795 0.287453
vn 0.00204601 0.939214 0.343326
vn 0.0165876 0.828698 0.559451
vn 0.00962577 0.904256 0.426883
vn 0.00635981 0.89932 0.437244
vn 0.0122268 0.849721 0.52709
vn 0.011918 0.825568 0.564177
vn 0.00826981 0.953194 0.302246
vn -0.00493198 0.847714 0.53043
vn -0.00498324 0.847881 0.530163
vn -0.00498022 0.866614 0.498954
vn -0.0300002 0.914118 0.404337
vn -0.034629 0.908869 0.415641
vn -0.0312233 0.940916 0.337197
vn -0.0251755 0.943915 0.329227
vn -0.0192961 0.937557 0.347297
vn -0.0153895 0.90347 0.428374
vn -0.0147234 0.903894 0.427504
vn -0.0152004 0.940839 0.338514
vn -0.00791771 0.953397 0.301616
vn 0.0051649 0.954729 0.297433
vn -0.000404026 0.834249 0.551388
vn -0.00976134 0.860284 0.509722
vn 0.00232354 0.847424 0.530912
vn -0.0219072 0.934466 0.355377
vn -0.0136334 0.906158 0.422719
vn -0.0298487 0.952659 0.302573
vn -0.0345257 0.950429 0.309018
vn -0.00502427 0.84794 0.530069
vn -0.00663021 0.882423 0.47041
vn -0.0244467 0.952057 0.304943
vn -0.0201525 0.95348 0.300781
vn -0.0051609 0.848089 0.529829
vn -0.0335054 0.951919 0.304512
vn -0.0158049 0.954957 0.296324
vn -0.0324242 0.887197 0.46025
vn -0.325643 0.204945 0.923014
vn -0.354189 0.236878 0.904676
vn -0.355248 0.201687 0.912755
vn -0.325855 0.177287 0.928648
vn -0.458291 0.214124 0.862624
vn -0.480044 0.259201 0.838077
vn -0.475392 0.230382 0.849074
vn -0.482954 0.0821629 0.871782
vn -0.440025 0.0742144 0.894914
vn -0.443579 0.145089 0.884413
vn -0.466967 0.147549 0.871878
vn -0.413408 0.071114 0.907765
vn -0.344412 0.067297 0.936404
vn -0.356333 0.131448 0.925066
vn -0.411294 0.14349 0.900138
vn -0.428289 0.204988 0.880084
vn -0.329492 0.120448 0.936444
vn -0.301681 0.0624136 0.951364
vn -0.485513 0.150169 0.861235
vn -0.43936 0.0 0.898311
vn -0.416488 0.0 0.909141
vn -0.514956 0.0757169 0.853866
vn -0.389413 0.247981 0.887053
vn -0.398964 0.216244 0.891104
vn -0.494632 0.238818 0.835646
vn -0.415334 0.239821 0.877487
vn -0.444591 0.261126 0.856827
vn -0.489844 0.0 0.87181
vn -0.338003 0.0 0.941145
vn -0.287452 0.0 0.957795
vn -0.527168 0.0 0.849761
vn 0.430204 -0.234251 0.871809
vn 0.460111 -0.317988 0.828964
vn 0.465551 -0.302567 0.831694
vn 0.428346 -0.272561 0.861528
vn 0.382526 -0.190702 0.90405
vn 0.379255 -0.218521 0.899119
vn 0.384812 -0.128996 0.913937
vn 0.405611 -0.163848 0.899241
vn 0.444078 -0.159751 0.881632
vn 0.449242 -0.0867188 0.889192
vn 0.418526 -0.0760854 0.905012
vn 0.482533 -0.225709 0.846296
vn 0.495614 0.0630243 0.866253
vn 0.48032 -0.106422 0.870613
vn 0.493752 -0.115927 0.861841
vn 0.50727 -0.24099 0.827406
vn 0.484176 -0.301538 0.82137
vn 0.472416 -0.329246 0.81757
vn 0.0169066 -0.828916 0.559117
vn 0.0129518 -0.855072 0.518347
vn 0.0167731 -0.828858 0.559208
vn 0.0111475 -0.942688 0.333489
vn 0.0185747 -0.903082 0.429066
vn 0.0115102 -0.941658 0.336375
vn 0.0019167 -0.92954 0.368717
vn 0.00495024 -0.956306 0.292327
vn 0.000745745 -0.95849 0.285126
vn 0.0063223 -0.942648 0.333727
vn 0.0183816 -0.871643 0.489796
vn 0.0165216 -0.828632 0.55955
vn 0.0144099 -0.829352 0.558541
vn 0.0140483 -0.827115 0.561857
vn 0.000665972 -0.957795 0.287452
vn 0.00204585 -0.939214 0.343326
vn 0.0165877 -0.828698 0.55945
vn 0.00962572 -0.904256 0.426883
vn 0.00635973 -0.89932 0.437244
vn 0.0122267 -0.849722 0.52709
vn 0.0119181 -0.825568 0.564177
vn 0.00826996 -0.953194 0.302246
vn -0.00493197 -0.847715 0.530429
vn -0.0049802 -0.866614 0.498954
vn -0.00498312 -0.847881 0.530163
vn -0.0300006 -0.914118 0.404336
vn -0.0312234 -0.940916 0.337198
vn -0.0346298 -0.90887 0.41564
vn -0.025175 -0.943915 0.329228
vn -0.0192962 -0.937557 0.347297
vn -0.0147236 -0.903893 0.427504
vn -0.0153895 -0.90347 0.428375
vn -0.0152006 -0.940839 0.338514
vn -0.00791555 -0.953396 0.301616
vn 0.00516744 -0.954729 0.297433
vn -0.000404053 -0.834249 0.551388
vn -0.00976148 -0.860284 0.509722
vn 0.00232348 -0.847424 0.530911
vn -0.0219072 -0.934466 0.355377
vn -0.0136333 -0.906158 0.422719
vn -0.0298487 -0.952658 0.302574
vn -0.0345252 -0.950429 0.309019
vn -0.00502411 -0.84794 0.530069
vn -0.00663021 -0.882423 0.47041
vn -0.0244467 -0.952057 0.304943
vn -0.0201525 -0.95348 0.300781
vn -0.00516066 -0.848089 0.529829
vn -0.0335038 -0.951919 0.304513
vn -0.0158052 -0.954957 0.296324
vn -0.032425 -0.887197 0.46025
vn -0.325643 -0.204945 0.923013
vn -0.355248 -0.201687 0.912755
vn -0.354189 -0.236878 0.904676
vn -0.325855 -0.177287 0.928648
vn -0.458291 -0.214124 0.862624
vn -0.475392 -0.230382 0.849074
vn -0.480044 -0.259201 0.838077
vn -0.482954 -0.0821629 0.871782
vn -0.443579 -0.145089 0.884413
vn -0.440025 -0.0742144 0.894914
vn -0.466967 -0.147549 0.871878
vn -0.413408 -0.071114 0.907765
vn -0.356333 -0.131448 0.925066
vn -0.344412 -0.067297 0.936404
vn -0.411294 -0.14349 0.900138
vn -0.428289 -0.204988 0.880084
vn -0.329492 -0.120448 0.936444
vn -0.301681 -0.0624135 0.951364
vn -0.485513 -0.150169 0.861235
vn -0.514956 -0.0757169 0.853866
vn -0.398965 -0.216244 0.891104
vn -0.389413 -0.247981 0.887053
vn -0.494632 -0.238818 0.835646
vn -0.415334 -0.239821 0.877487
vn -0.444591 -0.261126 0.856827

g
f 1//1 12//2 14//3
f 1//1 14//3 2//4
f 4//5 3//6 1//1
f 4//5 1//1 5//7
f 1//1 3//6 8//8
f 1//1 8//8 9//9
f 10//10 9//9 8//8
f 10//10 8//8 11//11
f 1//1 9//9 7//12
f 1//1 7//12 12//2
f 109//13 10//10 11//11
f 109//13 11//11 110//14
f 69//15 13//16 113//17
f 13//16 69//15 112//18
f 113//17 6//19 10//10
f 113//17 10//10 109//13
f 7//12 6//19 15//20
f 7//12 15//20 16//21
f 6//19 7//12 9//9
f 6//19 9//9 10//10
f 7//12 16//21 17//22
f 7//12 17//22 12//2
f 15//20 6//19 113//17
f 15//20 113//17 13//16
f 1//1 2//4 5//7
f 12//2 17//22 18//23
f 12//2 18//23 14//3
f 20//24 19//25 21//26
f 23//27 22//28 24//29
f 23//27 24//29 25//30
f 22//28 26//31 27//32
f 22//28 27//32 28//33
f 21//26 29//34 30//35
f 31//36 21//26 32//37
f 34//38 33//39 28//33
f 34//38 28//33 27//32
f 30//35 25//30 24//29
f 19//25 35//40 21//26
f 31//36 20//24 21//26
f 24//29 22//28 28//33
f 24//29 28//33 36//41
f 33//39 37//42 36//41
f 33//39 36//41 28//33
f 37//42 38//43 21//26
f 37//42 21//26 36//41
f 32//37 21//26 38//43
f 32//37 38//43 39//44
f 22//28 23//27 40//45
f 22//28 40//45 26//31
f 30//35 24//29 36//41
f 30//35 36//41 21//26
f 35//40 29//34 21//26
f 42//46 41//47 43//48
f 45//49 44//50 46//51
f 45//49 46//51 47//52
f 49//53 48//54 50//55
f 49//53 50//55 51//56
f 53//57 52//58 47//52
f 55//59 54//60 43//48
f 55//59 43//48 56//61
f 58//62 57//63 48//54
f 58//62 48//54 49//53
f 47//52 46//51 59//64
f 47//52 59//64 60//65
f 41//47 61//66 43//48
f 62//67 42//46 43//48
f 63//68 58//62 49//53
f 63//68 49//53 64//69
f 57//63 62//67 43//48
f 57//63 43//48 48//54
f 43//48 65//70 56//61
f 53//57 47//52 66//71
f 66//71 47//52 60//65
f 48//54 43//48 54//60
f 48//54 54//60 50//55
f 64//69 49//53 51//56
f 64//69 51//56 67//72
f 68//73 44//50 45//49
f 61//66 65//70 43//48
f 73//74 72//75 74//76
f 73//74 74//76 75//77
f 77//78 76//79 78//80
f 80//81 79//82 81//83
f 80//81 81//83 82//84
f 84//85 83//86 85//87
f 84//85 85//87 86//88
f 87//89 77//78 82//84
f 87//89 82//84 81//83
f 88//90 75//77 74//76
f 88//90 74//76 85//87
f 89//91 88//90 85//87
f 89//91 85//87 83//86
f 77//78 78//80 90//92
f 77//78 90//92 82//84
f 70//93 188//94 84//85
f 70//93 84//85 79//82
f 90//92 91//95 80//81
f 90//92 80//81 82//84
f 72//75 92//96 93//97
f 72//75 93//97 74//76
f 94//98 76//79 77//78
f 96//99 95//100 77//78
f 96//99 77//78 87//89
f 71//101 70//93 79//82
f 71//101 79//82 80//81
f 188//94 195//102 83//86
f 188//94 83//86 84//85
f 93//97 87//89 81//83
f 93//97 81//83 86//88
f 196//103 89//91 83//86
f 196//103 83//86 195//102
f 74//76 93//97 86//88
f 74//76 86//88 85//87
f 79//82 84//85 86//88
f 79//82 86//88 81//83
f 197//104 71//101 80//81
f 197//104 80//81 91//95
f 92//96 96//99 87//89
f 92//96 87//89 93//97
f 95//100 94//98 77//78
f 97//105 99//106 98//107
f 97//105 100//108 99//106
f 101//109 97//105 102//110
f 101//109 103//111 97//105
f 97//105 104//112 102//110
f 97//105 105//113 104//112
f 106//114 104//112 105//113
f 106//114 107//115 104//112
f 97//105 108//116 105//113
f 97//105 98//107 108//116
f 109//13 107//115 106//114
f 109//13 110//14 107//115
f 111//117 113//17 112//18
f 112//18 69//15 111//117
f 113//17 106//114 114//118
f 113//17 109//13 106//114
f 108//116 115//119 114//118
f 108//116 116//120 115//119
f 114//118 105//113 108//116
f 114//118 106//114 105//113
f 108//116 117//121 116//120
f 108//116 98//107 117//121
f 115//119 113//17 114//118
f 115//119 112//18 113//17
f 97//105 103//111 100//108
f 98//107 118//122 117//121
f 98//107 99//106 118//122
f 119//123 121//124 120//125
f 122//126 124//127 123//128
f 122//126 125//129 124//127
f 123//128 127//130 126//131
f 123//128 128//132 127//130
f 121//124 130//133 129//134
f 131//135 132//136 121//124
f 133//137 128//132 134//138
f 133//137 127//130 128//132
f 130//133 124//127 125//129
f 120//125 121//124 135//139
f 131//135 121//124 119//123
f 124//127 128//132 123//128
f 124//127 136//140 128//132
f 134//138 136//140 137//141
f 134//138 128//132 136//140
f 137//141 121//124 138//142
f 137//141 136//140 121//124
f 132//136 138//142 121//124
f 132//136 139//143 138//142
f 123//128 140//144 122//126
f 123//128 126//131 140//144
f 130//133 136//140 124//127
f 130//133 121//124 136//140
f 135//139 121//124 129//134
f 141//145 143//146 142//147
f 144//148 146//149 145//150
f 144//148 147//151 146//149
f 148//152 150//153 149//154
f 148//152 151//155 150//153
f 152//156 147//151 153//157
f 154//158 143//146 155//159
f 154//158 156//160 143//146
f 157//161 149//154 158//162
f 157//161 148//152 149//154
f 147//151 159//163 146//149
f 147//151 160//164 159//163
f 142//147 143//146 161//165
f 162//166 143//146 141//145
f 163//167 148//152 157//161
f 163//167 164//168 148//152
f 158//162 143//146 162//166
f 158//162 149//154 143//146
f 143//146 156//160 165//169
f 152//156 166//170 147//151
f 166//170 160//164 147//151
f 149//154 155//159 143//146
f 149//154 150//153 155//159
f 164//168 151//155 148//152
f 164//168 167//171 151//155
f 168//172 144//148 145//150
f 161//165 143//146 165//169
f 169//173 171//174 170//175
f 169//173 172//176 171//174
f 173//177 175//178 174//179
f 176//180 178//181 177//182
f 176//180 179//183 178//181
f 180//184 182//185 181//186
f 180//184 183//187 182//185
f 184//188 179//183 173//177
f 184//188 178//181 179//183
f 185//189 171//174 172//176
f 185//189 182//185 171//174
f 186//190 182//185 185//189
f 186//190 181//186 182//185
f 173//177 187//191 175//178
f 173//177 179//183 187//191
f 70//93 180//184 188//94
f 70//93 177//182 180//184
f 187//191 176//180 189//192
f 187//191 179//183 176//180
f 170//175 191//193 190//194
f 170//175 171//174 191//193
f 192//195 173//177 174//179
f 193//196 173//177 194//197
f 193//196 184//188 173//177
f 71//101 177//182 70//93
f 71//101 176//180 177//182
f 188//94 181//186 195//102
f 188//94 180//184 181//186
f 191//193 178//181 184//188
f 191//193 183//187 178//181
f 196//103 181//186 186//190
f 196//103 195//102 181//186
f 171//174 183//187 191//193
f 171//174 182//185 183//187
f 177//182 183//187 180//184
f 177//182 178//181 183//187
f 197//104 176//180 71//101
f 197//104 189//192 176//180
f 190//194 184//188 193//196
f 190//194 191//193 184//188
f 194//197 173//177 192//195
