# Max2Obj Version 4.0 Mar 10th, 2001
#
# object Material__79 to come ...
#
v  -0.49271 0 0.00004
v  -0.46461 -0.0948 0.00004
v  -0.46461 -0.0474 0.08214
v  -0.46461 0.0474 0.08214
v  -0.46461 0.0948 0.00004
v  -0.46461 0.0474 -0.08206
v  -0.46461 -0.0474 -0.08206
v  -0.46461 -0.08036 0.04641
v  -0.46461 -0.08102 -0.04568
v  -0.46461 0.00071 -0.09322
v  -0.46461 0.08123 -0.04662
v  -0.46461 0.0808 0.04787
v  -0.46461 -0.00235 0.09322
# 13 vertices

vn  -0.01331 -0.00001 0
vn  -0.01276 -0.00378 0.00001
vn  -0.01276 -0.00192 0.00326
vn  -0.01276 0.00185 0.0033
vn  -0.01276 0.00378 0
vn  -0.01276 0.00189 -0.00328
vn  -0.01276 -0.0019 -0.00327
vn  -0.01274 -0.00334 0.00193
vn  -0.01274 -0.00334 -0.00191
vn  -0.01274 0.00001 -0.00384
vn  -0.01275 0.00331 -0.00191
vn  -0.01275 0.00329 0.00193
vn  -0.01274 -0.00005 0.00384
# 13 vertex normals

g Material__79
s 1
f 8//8 3//3 13//13 1//1
f 13//13 4//4 12//12 1//1
f 12//12 5//5 11//11 1//1
f 11//11 6//6 10//10 1//1
f 10//10 7//7 9//9 1//1
f 9//9 2//2 8//8 1//1
# 6 faces

g
