# 3ds Max Wavefront OBJ Exporter v0.94b - (c)2007 guruware
# File Created: 16.06.2009 15:33:53

mtllib EuropeanVan_RearWindows.mtl

#
# object RearWindows
#

v  -3.7863 -0.7115 1.7289
v  -3.7825 -0.7023 1.7706
v  -3.7811 -0.6802 1.7851
v  -3.7810 -0.4738 1.7863
v  -3.8280 -0.4763 1.6029
v  -3.7977 -0.7115 1.6061
v  -1.6373 -0.8486 1.6444
v  -1.6373 -0.8486 1.7402
v  -1.6610 -0.8486 1.7590
v  -1.6859 -0.8486 1.7788
v  -1.7205 -0.8486 1.7935
v  -1.7601 -0.8486 1.8033
v  -2.1236 -0.8486 1.8034
v  -2.1272 -0.8856 1.6478
v  -2.6464 -0.8486 1.8034
v  -2.6463 -0.8856 1.6515
v  -3.2013 -0.8486 1.8035
v  -3.1932 -0.8856 1.6554
v  -3.6759 -0.8486 1.8011
v  -3.6890 -0.8486 1.6589
v  -3.7065 -0.8486 1.3817
v  -3.1777 -0.8856 1.3748
v  -2.6462 -0.8856 1.3679
v  -2.1339 -0.8856 1.3613
v  -1.6373 -0.8486 1.3549
v  -3.7231 -0.8486 1.1189
v  -3.1634 -0.8486 1.1175
v  -2.6460 -0.8486 1.1162
v  -2.1400 -0.8486 1.1150
v  -1.8124 -0.8486 1.1142
v  -1.6570 -0.8486 1.3110
v  -3.8110 -0.7115 1.4617
v  -3.8464 -0.4784 1.4536
v  -3.8460 -0.6631 1.0810
v  -3.8446 -0.6897 1.0964
v  -3.8401 -0.7115 1.1454
v  -3.8286 -0.7115 1.2706
v  -3.8588 -0.4809 1.2674
v  -3.8473 -0.4837 1.0654
v  -3.7808 -0.0603 1.7886
v  -3.7983 -0.0603 1.5972
v  -3.8282 -0.2358 1.5996
v  -3.7809 -0.2331 1.7876
v  -3.8128 -0.0603 1.4390
v  -3.8471 -0.2381 1.4452
v  -3.8291 -0.0603 1.2617
v  -3.8504 -0.0603 1.0286
v  -3.8491 -0.2441 1.0445
v  -3.8590 -0.2408 1.2641
v  -3.7811 0.6950 1.7851
v  -3.7825 0.7172 1.7706
v  -3.7863 0.7264 1.7289
v  -3.7810 0.4886 1.7863
v  -3.8280 0.4912 1.6029
v  -3.7977 0.7264 1.6061
v  -1.6373 0.8635 1.6444
v  -2.1272 0.9005 1.6478
v  -2.1236 0.8635 1.8034
v  -1.7601 0.8635 1.8033
v  -1.7205 0.8635 1.7935
v  -1.6859 0.8635 1.7788
v  -1.6610 0.8635 1.7590
v  -1.6373 0.8635 1.7402
v  -2.6463 0.9005 1.6515
v  -2.6464 0.8635 1.8034
v  -3.1932 0.9005 1.6554
v  -3.2013 0.8635 1.8035
v  -3.6890 0.8635 1.6589
v  -3.6759 0.8635 1.8011
v  -3.7065 0.8635 1.3817
v  -3.1777 0.9005 1.3748
v  -2.6462 0.9005 1.3679
v  -2.1339 0.9005 1.3613
v  -1.6373 0.8635 1.3549
v  -3.7231 0.8635 1.1189
v  -3.1634 0.8635 1.1175
v  -2.6460 0.8635 1.1162
v  -2.1400 0.8635 1.1150
v  -1.6570 0.8635 1.3110
v  -1.8124 0.8635 1.1142
v  -3.8110 0.7264 1.4617
v  -3.8464 0.4932 1.4536
v  -3.8401 0.7264 1.1454
v  -3.8446 0.7046 1.0964
v  -3.8460 0.6780 1.0810
v  -3.8286 0.7264 1.2706
v  -3.8588 0.4958 1.2674
v  -3.8473 0.4986 1.0654
v  -3.7808 0.0752 1.7886
v  -3.7809 0.2479 1.7876
v  -3.8282 0.2507 1.5996
v  -3.7983 0.0752 1.5972
v  -3.8471 0.2530 1.4452
v  -3.8128 0.0752 1.4390
v  -3.8291 0.0752 1.2617
v  -3.8590 0.2557 1.2641
v  -3.8491 0.2590 1.0445
v  -3.8504 0.0752 1.0286
# 98 vertices

vn -0.9896 -0.0550 0.1329
vn -0.9956 -0.0001 0.0936
vn -0.9956 0.0001 0.0936
vn -0.9705 -0.0152 0.2408
vn -0.9834 -0.0489 0.1748
vn -0.9881 -0.1227 0.0929
vn 0.0462 -0.9987 0.0235
vn -0.0000 -1.0000 0.0000
vn -0.0000 -1.0000 -0.0000
vn 0.0316 -0.9755 0.2176
vn 0.0389 -0.9919 0.1207
vn 0.0014 -0.9689 0.2474
vn 0.0009 -0.9922 0.1247
vn -0.0311 -0.9728 0.2294
vn -0.0366 -0.9914 0.1255
vn -0.0469 -0.9985 0.0265
vn -0.0732 -0.9973 0.0034
vn -0.0229 -0.9976 -0.0647
vn -0.0007 -0.9971 -0.0762
vn 0.0375 -0.9962 -0.0783
vn 0.0562 -0.9981 -0.0264
vn -0.0512 -0.9979 -0.0399
vn -0.0010 -0.9888 -0.1494
vn -0.0009 -0.9883 -0.1528
vn 0.0258 -0.9906 -0.1344
vn -0.9859 -0.1356 0.0985
vn -0.9927 -0.0684 0.0994
vn -0.9981 -0.0528 0.0327
vn -0.9956 0.0007 0.0935
vn -0.9956 0.0006 0.0935
vn -0.9900 -0.1202 0.0742
vn -0.9986 -0.0491 0.0200
vn -0.9985 -0.0087 -0.0548
vn -0.9816 0.0800 0.1734
vn -0.9805 0.1703 0.0977
vn -0.9841 0.0632 0.1659
vn -0.9686 -0.0007 0.2486
vn -0.9801 0.1794 0.0846
vn -0.9918 0.0906 0.0904
vn -0.9909 0.1234 0.0543
vn -0.9957 0.0006 0.0930
vn -0.9995 0.0312 -0.0053
vn -0.9966 0.0815 0.0113
vn -0.9896 0.0550 0.1329
vn -0.9705 0.0152 0.2408
vn -0.9834 0.0489 0.1748
vn -0.9881 0.1227 0.0929
vn 0.0462 0.9987 0.0235
vn 0.0389 0.9919 0.1207
vn 0.0316 0.9755 0.2176
vn 0.0000 1.0000 -0.0000
vn 0.0000 1.0000 0.0000
vn -0.0000 1.0000 0.0000
vn 0.0009 0.9922 0.1247
vn 0.0014 0.9689 0.2474
vn -0.0366 0.9914 0.1255
vn -0.0311 0.9728 0.2294
vn -0.0469 0.9985 0.0265
vn -0.0732 0.9973 0.0034
vn -0.0229 0.9976 -0.0647
vn -0.0007 0.9971 -0.0762
vn 0.0375 0.9962 -0.0783
vn 0.0562 0.9981 -0.0264
vn -0.0512 0.9979 -0.0399
vn -0.0010 0.9888 -0.1494
vn -0.0009 0.9883 -0.1528
vn 0.0258 0.9906 -0.1344
vn -0.9859 0.1356 0.0985
vn -0.9927 0.0684 0.0994
vn -0.9956 -0.0006 0.0935
vn -0.9956 -0.0007 0.0935
vn -0.9981 0.0528 0.0327
vn -0.9900 0.1202 0.0742
vn -0.9986 0.0491 0.0200
vn -0.9985 0.0087 -0.0548
vn -0.9816 -0.0800 0.1734
vn -0.9686 0.0007 0.2486
vn -0.9841 -0.0632 0.1659
vn -0.9805 -0.1703 0.0977
vn -0.9918 -0.0906 0.0904
vn -0.9801 -0.1794 0.0846
vn -0.9909 -0.1234 0.0543
vn -0.9966 -0.0815 0.0113
vn -0.9995 -0.0312 -0.0053
vn -0.9957 -0.0006 0.0930
# 85 vertex normals

vt 0.0841 0.1483 0.0000
vt 0.0647 0.1608 0.0000
vt 0.0573 0.1941 0.0000
vt 0.0567 0.4625 0.0000
vt 0.1362 0.4559 0.0000
vt 0.1357 0.1483 0.0000
vt 0.5444 0.8846 0.0000
vt 0.5446 0.9202 0.0000
vt 0.5500 0.9286 0.0000
vt 0.5553 0.9371 0.0000
vt 0.5628 0.9434 0.0000
vt 0.5713 0.9476 0.0000
vt 0.7959 0.9476 0.0000
vt 0.7933 0.8897 0.0000
vt 0.8498 0.9477 0.0000
vt 0.8476 0.8904 0.0000
vt 0.9080 0.9477 0.0000
vt 0.9059 0.8912 0.0000
vt 0.9796 0.9477 0.0000
vt 0.9797 0.8747 0.0000
vt 0.9799 0.7771 0.0000
vt 0.9019 0.7837 0.0000
vt 0.8435 0.7824 0.0000
vt 0.7885 0.7810 0.0000
vt 0.5436 0.7772 0.0000
vt 0.9801 0.6845 0.0000
vt 0.8982 0.6841 0.0000
vt 0.8398 0.6838 0.0000
vt 0.7842 0.6836 0.0000
vt 0.5776 0.6825 0.0000
vt 0.5474 0.7583 0.0000
vt 0.1964 0.1483 0.0000
vt 0.1993 0.4532 0.0000
vt 0.3590 0.2149 0.0000
vt 0.3516 0.1774 0.0000
vt 0.3294 0.1483 0.0000
vt 0.2768 0.1483 0.0000
vt 0.2779 0.4499 0.0000
vt 0.3650 0.4486 0.0000
vt 0.0555 1.0000 0.0000
vt 0.1371 1.0000 0.0000
vt 0.1367 0.7705 0.0000
vt 0.0560 0.7754 0.0000
vt 0.2045 1.0000 0.0000
vt 0.2023 0.7675 0.0000
vt 0.2800 1.0000 0.0000
vt 0.3794 1.0000 0.0000
vt 0.3731 0.7607 0.0000
vt 0.2791 0.7639 0.0000
# 49 texture coords

g RearWindows
usemtl 11___Default
s 4
f -98/-49/-85 -97/-48/-84 -96/-47/-83 
f -98/-49/-85 -96/-47/-83 -95/-46/-82 
f -98/-49/-85 -95/-46/-82 -94/-45/-81 
f -93/-44/-80 -98/-49/-85 -94/-45/-81 
f -92/-43/-79 -91/-42/-78 -90/-41/-77 
f -90/-41/-77 -89/-40/-77 -88/-39/-77 
f -88/-39/-77 -87/-38/-77 -86/-37/-76 
f -90/-41/-77 -88/-39/-77 -86/-37/-76 
f -92/-43/-79 -90/-41/-77 -86/-37/-76 
f -92/-43/-79 -86/-37/-76 -85/-36/-75 
f -85/-36/-75 -86/-37/-76 -84/-35/-74 
f -84/-35/-74 -83/-34/-73 -85/-36/-75 
f -84/-35/-74 -82/-33/-72 -81/-32/-71 
f -81/-32/-71 -83/-34/-73 -84/-35/-74 
f -82/-33/-72 -80/-31/-77 -79/-30/-70 
f -79/-30/-70 -81/-32/-71 -82/-33/-72 
f -78/-29/-69 -77/-28/-68 -81/-32/-71 
f -81/-32/-71 -79/-30/-70 -78/-29/-69 
f -77/-28/-68 -76/-27/-67 -83/-34/-73 
f -83/-34/-73 -81/-32/-71 -77/-28/-68 
f -76/-27/-67 -75/-26/-66 -85/-36/-75 
f -85/-36/-75 -83/-34/-73 -76/-27/-67 
f -75/-26/-66 -74/-25/-65 -92/-43/-79 
f -92/-43/-79 -85/-36/-75 -75/-26/-66 
f -73/-24/-64 -72/-23/-63 -77/-28/-68 
f -77/-28/-68 -78/-29/-69 -73/-24/-64 
f -72/-23/-63 -71/-22/-62 -76/-27/-67 
f -76/-27/-67 -77/-28/-68 -72/-23/-63 
f -71/-22/-62 -70/-21/-61 -75/-26/-66 
f -75/-26/-66 -76/-27/-67 -71/-22/-62 
f -69/-20/-77 -68/-19/-78 -74/-25/-65 
f -70/-21/-61 -69/-20/-77 -74/-25/-65 
f -75/-26/-66 -70/-21/-61 -74/-25/-65 
f -67/-18/-60 -93/-44/-80 -94/-45/-81 
f -94/-45/-81 -66/-17/-59 -67/-18/-60 
f -65/-16/-58 -64/-15/-57 -63/-14/-56 
f -65/-16/-58 -63/-14/-56 -62/-13/-55 
f -65/-16/-58 -62/-13/-55 -61/-12/-54 
f -60/-11/-53 -65/-16/-58 -61/-12/-54 
f -59/-10/-52 -58/-9/-51 -57/-8/-50 
f -57/-8/-50 -56/-7/-49 -59/-10/-52 
f -58/-9/-51 -55/-6/-48 -54/-5/-47 
f -54/-5/-47 -57/-8/-50 -58/-9/-51 
f -53/-4/-46 -52/-3/-45 -51/-2/-44 
f -51/-2/-44 -50/-1/-43 -53/-4/-46 
f -95/-46/-82 -56/-7/-49 -57/-8/-50 
f -57/-8/-50 -94/-45/-81 -95/-46/-82 
f -57/-8/-50 -54/-5/-47 -66/-17/-59 
f -66/-17/-59 -94/-45/-81 -57/-8/-50 
f -50/-1/-43 -51/-2/-44 -60/-11/-53 
f -60/-11/-53 -61/-12/-54 -50/-1/-43 
f -55/-6/-48 -53/-4/-46 -50/-1/-43 
f -50/-1/-43 -54/-5/-47 -55/-6/-48 
f -54/-5/-47 -50/-1/-43 -61/-12/-54 
f -61/-12/-54 -66/-17/-59 -54/-5/-47 
f -66/-17/-59 -61/-12/-54 -62/-13/-55 
f -62/-13/-55 -67/-18/-60 -66/-17/-59 
f -49/-47/-84 -48/-48/-83 -47/-49/-42 
f -46/-46/-41 -49/-47/-84 -47/-49/-42 
f -45/-45/-40 -46/-46/-41 -47/-49/-42 
f -44/-44/-39 -45/-45/-40 -47/-49/-42 
f -43/-43/-38 -42/-36/-37 -41/-37/-36 
f -41/-37/-36 -40/-38/-35 -39/-39/-34 
f -39/-39/-34 -38/-40/-34 -37/-41/-33 
f -41/-37/-36 -39/-39/-34 -37/-41/-33 
f -43/-43/-38 -41/-37/-36 -37/-41/-33 
f -43/-43/-38 -37/-41/-33 -36/-42/-33 
f -42/-36/-37 -35/-34/-32 -34/-35/-31 
f -34/-35/-31 -41/-37/-36 -42/-36/-37 
f -34/-35/-31 -35/-34/-32 -33/-32/-30 
f -33/-32/-30 -32/-33/-29 -34/-35/-31 
f -32/-33/-29 -33/-32/-30 -31/-30/-28 
f -31/-30/-28 -30/-31/-33 -32/-33/-29 
f -29/-29/-27 -31/-30/-28 -33/-32/-30 
f -33/-32/-30 -28/-28/-26 -29/-29/-27 
f -28/-28/-26 -33/-32/-30 -35/-34/-32 
f -35/-34/-32 -27/-27/-25 -28/-28/-26 
f -27/-27/-25 -35/-34/-32 -42/-36/-37 
f -42/-36/-37 -26/-26/-24 -27/-27/-25 
f -26/-26/-24 -42/-36/-37 -43/-43/-38 
f -43/-43/-38 -25/-25/-23 -26/-26/-24 
f -24/-24/-22 -29/-29/-27 -28/-28/-26 
f -28/-28/-26 -23/-23/-21 -24/-24/-22 
f -23/-23/-21 -28/-28/-26 -27/-27/-25 
f -27/-27/-25 -22/-22/-20 -23/-23/-21 
f -22/-22/-20 -27/-27/-25 -26/-26/-24 
f -26/-26/-24 -21/-21/-19 -22/-22/-20 
f -25/-25/-23 -20/-19/-33 -19/-20/-33 
f -25/-25/-23 -19/-20/-33 -21/-21/-19 
f -26/-26/-24 -25/-25/-23 -21/-21/-19 
f -18/-18/-18 -17/-17/-17 -45/-45/-40 
f -45/-45/-40 -44/-44/-39 -18/-18/-18 
f -16/-14/-16 -15/-15/-15 -14/-16/-14 
f -13/-13/-13 -16/-14/-16 -14/-16/-14 
f -12/-12/-12 -13/-13/-13 -14/-16/-14 
f -11/-11/-11 -12/-12/-12 -14/-16/-14 
f -10/-10/-10 -9/-7/-9 -8/-8/-8 
f -8/-8/-8 -7/-9/-7 -10/-10/-10 
f -7/-9/-7 -8/-8/-8 -6/-5/-6 
f -6/-5/-6 -5/-6/-5 -7/-9/-7 
f -4/-4/-4 -3/-1/-3 -2/-2/-2 
f -2/-2/-2 -1/-3/-1 -4/-4/-4 
f -46/-46/-41 -45/-45/-40 -8/-8/-8 
f -8/-8/-8 -9/-7/-9 -46/-46/-41 
f -8/-8/-8 -45/-45/-40 -17/-17/-17 
f -17/-17/-17 -6/-5/-6 -8/-8/-8 
f -3/-1/-3 -12/-12/-12 -11/-11/-11 
f -11/-11/-11 -2/-2/-2 -3/-1/-3 
f -5/-6/-5 -6/-5/-6 -3/-1/-3 
f -3/-1/-3 -4/-4/-4 -5/-6/-5 
f -6/-5/-6 -17/-17/-17 -12/-12/-12 
f -12/-12/-12 -3/-1/-3 -6/-5/-6 
f -17/-17/-17 -18/-18/-18 -13/-13/-13 
f -13/-13/-13 -12/-12/-12 -17/-17/-17 
# 114 faces

