# 3ds Max Wavefront OBJ Exporter v0.94b - (c)2007 guruware
# File Created: 16.06.2009 15:35:10

mtllib EuropeanVan_Lights.mtl

#
# object Object03
#

v  -3.7684 -0.8559 1.5987
v  -3.7436 -0.8579 1.6556
v  -3.7875 -0.8165 1.6595
v  -3.8114 -0.8111 1.6013
v  -3.8231 -0.7779 1.6612
v  -3.8356 -0.7772 1.6019
v  -3.8859 -0.7680 0.7282
v  -3.8892 -0.7649 0.6990
v  -3.8537 -0.8028 0.7001
v  -3.8428 -0.8234 0.7278
v  -3.8188 -0.8448 0.7014
v  -3.8108 -0.8535 0.7268
v  0.7242 -0.7295 0.6454
v  0.7242 -0.6963 0.6454
v  0.7112 -0.7048 0.6986
v  0.7242 -0.7807 0.6454
v  0.7106 -0.8185 0.6644
v  0.6873 -0.7178 0.7558
v  0.6733 -0.7298 0.7958
v  0.6335 -0.7494 0.8690
v  0.4536 -0.8062 0.9695
v  0.3788 -0.8472 0.9931
v  0.3826 -0.8791 0.8178
v  0.4153 -0.8767 0.7687
v  0.4647 -0.8803 0.7466
v  0.6060 -0.8809 0.7130
v  0.3403 -0.8784 0.9238
v  0.3556 -0.8614 0.9764
v  0.6386 -0.8657 0.6972
v  0.6744 -0.8490 0.6836
v  0.4243 -0.8871 0.6826
v  0.4803 -0.8855 0.6641
v  0.6146 -0.8739 0.6126
v  0.7343 -0.7295 0.5516
v  0.7356 -0.6911 0.5542
v  0.7262 -0.7807 0.5802
v  0.7137 -0.8278 0.5836
v  0.6870 -0.8422 0.5960
v  -3.8916 -0.7626 0.6783
v  -3.8626 -0.7861 0.6777
v  -3.8252 -0.8379 0.6813
# 41 vertices

vn -0.7082 -0.6899 0.1503
vn -0.6574 -0.7046 0.2671
vn -0.6970 -0.6747 0.2430
vn -0.7631 -0.6341 0.1250
vn -0.7549 -0.6216 0.2091
vn -0.8158 -0.5694 0.1010
vn -0.7767 -0.6299 -0.0022
vn -0.7031 -0.7098 -0.0427
vn -0.7789 -0.6135 -0.1299
vn -0.7556 -0.6531 -0.0502
vn -0.7424 -0.6684 -0.0453
vn -0.6960 -0.7180 0.0070
vn 0.9862 -0.0105 0.1652
vn 0.9849 -0.0057 0.1733
vn 0.9422 -0.0713 0.3272
vn 0.9731 -0.1337 0.1875
vn 0.8458 -0.4702 0.2520
vn 0.9117 -0.1636 0.3768
vn -0.1662 -0.9218 -0.3502
vn 0.6293 -0.6015 0.4922
vn 0.5254 -0.5988 0.6044
vn 0.3851 -0.8284 0.4068
vn -0.0179 -0.9998 -0.0079
vn -0.1353 -0.9807 -0.1413
vn 0.0145 -0.9997 0.0172
vn 0.3434 -0.9043 0.2535
vn 0.1529 -0.9660 0.2086
vn 0.2720 -0.9093 0.3149
vn 0.4931 -0.8335 0.2494
vn 0.5902 -0.7678 0.2494
vn 0.0548 -0.9956 0.0754
vn 0.0986 -0.9916 0.0835
vn 0.2737 -0.9615 -0.0230
vn 0.9917 -0.0583 0.1149
vn 0.9915 -0.0419 0.1234
vn 0.9881 -0.1415 0.0600
vn 0.8238 -0.5604 0.0852
vn 0.5120 -0.8571 0.0564
vn -0.6416 -0.7669 -0.0134
vn -0.7332 -0.6607 -0.1610
vn -0.7854 -0.6190 -0.0061
# 41 vertex normals

vt 0.2288 0.4527 0.0000
vt 0.2383 0.4771 0.0000
vt 0.2066 0.4787 0.0000
vt 0.1961 0.4538 0.0000
vt 0.1789 0.4794 0.0000
vt 0.1742 0.4541 0.0000
vt 0.1530 0.0822 0.0000
vt 0.1506 0.0698 0.0000
vt 0.1780 0.0702 0.0000
vt 0.1900 0.0819 0.0000
vt 0.2068 0.0707 0.0000
vt 0.2131 0.0815 0.0000
vt 0.4403 0.1668 0.0000
vt 0.4505 0.1726 0.0000
vt 0.4432 0.1946 0.0000
vt 0.4245 0.1579 0.0000
vt 0.4079 0.1609 0.0000
vt 0.4306 0.2190 0.0000
vt 0.4218 0.2351 0.0000
vt 0.4015 0.2670 0.0000
vt 0.3193 0.3232 0.0000
vt 0.2799 0.3361 0.0000
vt 0.2714 0.2587 0.0000
vt 0.2839 0.2346 0.0000
vt 0.3005 0.2180 0.0000
vt 0.3510 0.1845 0.0000
vt 0.2565 0.3079 0.0000
vt 0.2672 0.3301 0.0000
vt 0.3675 0.1761 0.0000
vt 0.3855 0.1685 0.0000
vt 0.2839 0.1965 0.0000
vt 0.3045 0.1814 0.0000
vt 0.3563 0.1437 0.0000
vt 0.4439 0.1273 0.0000
vt 0.4562 0.1348 0.0000
vt 0.4252 0.1311 0.0000
vt 0.4062 0.1260 0.0000
vt 0.3921 0.1323 0.0000
vt 0.1489 0.0609 0.0000
vt 0.1683 0.0608 0.0000
vt 0.2018 0.0622 0.0000
# 41 texture coords

g Object03
usemtl 15___Default
s 69633
f -41/-41/-41 -40/-40/-40 -39/-39/-39 
f -39/-39/-39 -38/-38/-38 -41/-41/-41 
f -38/-38/-38 -39/-39/-39 -37/-37/-37 
f -37/-37/-37 -36/-36/-36 -38/-38/-38 
f -35/-35/-35 -34/-34/-34 -33/-33/-33 
f -33/-33/-33 -32/-32/-32 -35/-35/-35 
f -32/-32/-32 -33/-33/-33 -31/-31/-31 
f -31/-31/-31 -30/-30/-30 -32/-32/-32 
f -35/-35/-35 -32/-32/-32 -38/-38/-38 
f -38/-38/-38 -36/-36/-36 -35/-35/-35 
f -38/-38/-38 -32/-32/-32 -30/-30/-30 
f -30/-30/-30 -41/-41/-41 -38/-38/-38 
s 1
f -29/-29/-29 -28/-28/-28 -27/-27/-27 
f -26/-26/-26 -29/-29/-29 -27/-27/-27 
f -25/-25/-25 -26/-26/-26 -27/-27/-27 
f -25/-25/-25 -27/-27/-27 -24/-24/-24 
f -24/-24/-24 -23/-23/-23 -22/-22/-22 
f -25/-25/-25 -24/-24/-24 -22/-22/-22 
f -22/-22/-22 -21/-21/-21 -20/-20/-20 
f -19/-19/-19 -18/-18/-18 -17/-17/-17 
f -19/-19/-19 -17/-17/-17 -16/-16/-16 
f -15/-15/-15 -19/-19/-19 -16/-16/-16 
f -14/-14/-14 -15/-15/-15 -16/-16/-16 
f -14/-14/-14 -16/-16/-16 -13/-13/-13 
f -20/-20/-20 -14/-14/-14 -13/-13/-13 
f -20/-20/-20 -13/-13/-13 -12/-12/-12 
f -22/-22/-22 -20/-20/-20 -12/-12/-12 
f -25/-25/-25 -22/-22/-22 -12/-12/-12 
s 65537
f -17/-17/-17 -11/-11/-11 -10/-10/-10 
f -17/-17/-17 -10/-10/-10 -9/-9/-9 
f -16/-16/-16 -17/-17/-17 -9/-9/-9 
f -8/-8/-8 -7/-7/-7 -28/-28/-28 
f -8/-8/-8 -28/-28/-28 -29/-29/-29 
f -6/-6/-6 -8/-8/-8 -29/-29/-29 
f -6/-6/-6 -29/-29/-29 -26/-26/-26 
f -5/-5/-5 -6/-6/-6 -26/-26/-26 
f -5/-5/-5 -26/-26/-26 -25/-25/-25 
f -4/-4/-4 -5/-5/-5 -25/-25/-25 
f -4/-4/-4 -25/-25/-25 -12/-12/-12 
f -9/-9/-9 -4/-4/-4 -12/-12/-12 
f -9/-9/-9 -12/-12/-12 -13/-13/-13 
f -16/-16/-16 -9/-9/-9 -13/-13/-13 
s 69633
f -34/-34/-34 -3/-3/-3 -2/-2/-2 
f -2/-2/-2 -33/-33/-33 -34/-34/-34 
f -33/-33/-33 -2/-2/-2 -1/-1/-1 
f -1/-1/-1 -31/-31/-31 -33/-33/-33 
# 46 faces

#
# object Object04
#

v  -3.7684 0.8708 1.5987
v  -3.8113 0.8260 1.6013
v  -3.7875 0.8314 1.6595
v  -3.7436 0.8727 1.6556
v  -3.8356 0.7920 1.6019
v  -3.8231 0.7928 1.6612
v  -3.8859 0.7829 0.7282
v  -3.8428 0.8383 0.7278
v  -3.8537 0.8177 0.7001
v  -3.8892 0.7797 0.6990
v  -3.8108 0.8684 0.7268
v  -3.8188 0.8597 0.7014
v  0.4647 0.8952 0.7466
v  0.4153 0.8916 0.7687
v  0.3826 0.8940 0.8178
v  0.6060 0.8958 0.7130
v  0.3403 0.8933 0.9238
v  0.3556 0.8763 0.9764
v  0.6386 0.8806 0.6972
v  0.3788 0.8621 0.9931
v  0.6744 0.8639 0.6836
v  0.4536 0.8210 0.9695
v  0.6335 0.7643 0.8690
v  0.7106 0.8334 0.6644
v  0.6733 0.7447 0.7958
v  0.6873 0.7327 0.7558
v  0.7112 0.7197 0.6986
v  0.7242 0.7112 0.6454
v  0.7242 0.7443 0.6454
v  0.7242 0.7955 0.6454
v  0.7356 0.7060 0.5542
v  0.7343 0.7444 0.5516
v  0.7262 0.7955 0.5802
v  0.7137 0.8427 0.5836
v  0.6870 0.8570 0.5960
v  0.6146 0.8887 0.6126
v  0.4803 0.9003 0.6641
v  0.4243 0.9020 0.6826
v  -3.8626 0.8010 0.6777
v  -3.8916 0.7775 0.6783
v  -3.8252 0.8528 0.6813
# 41 vertices

vn -0.7081 0.6899 0.1503
vn -0.7631 0.6341 0.1250
vn -0.6970 0.6747 0.2430
vn -0.6574 0.7046 0.2671
vn -0.8158 0.5694 0.1010
vn -0.7549 0.6216 0.2091
vn -0.7767 0.6299 -0.0022
vn -0.7556 0.6531 -0.0502
vn -0.7789 0.6135 -0.1299
vn -0.7031 0.7098 -0.0427
vn -0.6960 0.7180 0.0070
vn -0.7424 0.6684 -0.0453
vn 0.0145 0.9997 0.0172
vn -0.1353 0.9807 -0.1413
vn -0.0179 0.9998 -0.0079
vn 0.3434 0.9043 0.2535
vn 0.1529 0.9660 0.2086
vn 0.2720 0.9093 0.3149
vn 0.4931 0.8335 0.2494
vn 0.3851 0.8284 0.4068
vn 0.5902 0.7678 0.2494
vn 0.5254 0.5988 0.6044
vn 0.6293 0.6015 0.4922
vn 0.8458 0.4702 0.2520
vn -0.1661 0.9218 -0.3502
vn 0.9117 0.1636 0.3768
vn 0.9422 0.0712 0.3273
vn 0.9849 0.0057 0.1733
vn 0.9862 0.0105 0.1652
vn 0.9731 0.1337 0.1876
vn 0.9915 0.0419 0.1235
vn 0.9917 0.0583 0.1149
vn 0.9881 0.1415 0.0600
vn 0.8238 0.5605 0.0852
vn 0.5120 0.8571 0.0564
vn 0.2737 0.9615 -0.0230
vn 0.0986 0.9916 0.0835
vn 0.0548 0.9956 0.0754
vn -0.7332 0.6607 -0.1611
vn -0.6416 0.7669 -0.0134
vn -0.7854 0.6190 -0.0061
# 41 vertex normals

vt 0.2288 0.4527 0.0000
vt 0.1961 0.4538 0.0000
vt 0.2066 0.4787 0.0000
vt 0.2383 0.4771 0.0000
vt 0.1742 0.4541 0.0000
vt 0.1789 0.4794 0.0000
vt 0.1530 0.0822 0.0000
vt 0.1900 0.0819 0.0000
vt 0.1780 0.0702 0.0000
vt 0.1506 0.0698 0.0000
vt 0.2131 0.0815 0.0000
vt 0.2068 0.0707 0.0000
vt 0.3005 0.2180 0.0000
vt 0.2839 0.2346 0.0000
vt 0.2714 0.2587 0.0000
vt 0.3510 0.1845 0.0000
vt 0.2565 0.3079 0.0000
vt 0.2672 0.3301 0.0000
vt 0.3675 0.1761 0.0000
vt 0.2799 0.3361 0.0000
vt 0.3855 0.1685 0.0000
vt 0.3193 0.3232 0.0000
vt 0.4015 0.2670 0.0000
vt 0.4079 0.1609 0.0000
vt 0.4218 0.2351 0.0000
vt 0.4306 0.2190 0.0000
vt 0.4432 0.1946 0.0000
vt 0.4505 0.1726 0.0000
vt 0.4403 0.1668 0.0000
vt 0.4245 0.1579 0.0000
vt 0.4562 0.1348 0.0000
vt 0.4439 0.1273 0.0000
vt 0.4252 0.1311 0.0000
vt 0.4062 0.1260 0.0000
vt 0.3921 0.1323 0.0000
vt 0.3563 0.1437 0.0000
vt 0.3045 0.1814 0.0000
vt 0.2839 0.1965 0.0000
vt 0.1683 0.0608 0.0000
vt 0.1489 0.0609 0.0000
vt 0.2018 0.0622 0.0000
# 41 texture coords

g Object04
usemtl 15___Default
s 69633
f -41/-41/-41 -40/-40/-40 -39/-39/-39 
f -39/-39/-39 -38/-38/-38 -41/-41/-41 
f -40/-40/-40 -37/-37/-37 -36/-36/-36 
f -36/-36/-36 -39/-39/-39 -40/-40/-40 
f -35/-35/-35 -34/-34/-34 -33/-33/-33 
f -33/-33/-33 -32/-32/-32 -35/-35/-35 
f -34/-34/-34 -31/-31/-31 -30/-30/-30 
f -30/-30/-30 -33/-33/-33 -34/-34/-34 
f -35/-35/-35 -37/-37/-37 -40/-40/-40 
f -40/-40/-40 -34/-34/-34 -35/-35/-35 
f -40/-40/-40 -41/-41/-41 -31/-31/-31 
f -31/-31/-31 -34/-34/-34 -40/-40/-40 
s 1
f -29/-29/-29 -28/-28/-28 -27/-27/-27 
f -26/-26/-26 -29/-29/-29 -27/-27/-27 
f -26/-26/-26 -27/-27/-27 -25/-25/-25 
f -26/-26/-26 -25/-25/-25 -24/-24/-24 
f -23/-23/-23 -26/-26/-26 -24/-24/-24 
f -23/-23/-23 -24/-24/-24 -22/-22/-22 
f -21/-21/-21 -23/-23/-23 -22/-22/-22 
f -22/-22/-22 -20/-20/-20 -19/-19/-19 
f -21/-21/-21 -22/-22/-22 -19/-19/-19 
f -18/-18/-18 -21/-21/-21 -19/-19/-19 
f -19/-19/-19 -17/-17/-17 -16/-16/-16 
f -18/-18/-18 -19/-19/-19 -16/-16/-16 
f -18/-18/-18 -16/-16/-16 -15/-15/-15 
f -15/-15/-15 -14/-14/-14 -13/-13/-13 
f -15/-15/-15 -13/-13/-13 -12/-12/-12 
f -18/-18/-18 -15/-15/-15 -12/-12/-12 
s 65537
f -14/-14/-14 -11/-11/-11 -10/-10/-10 
f -13/-13/-13 -14/-14/-14 -10/-10/-10 
f -13/-13/-13 -10/-10/-10 -9/-9/-9 
f -12/-12/-12 -13/-13/-13 -9/-9/-9 
f -12/-12/-12 -9/-9/-9 -8/-8/-8 
f -18/-18/-18 -12/-12/-12 -8/-8/-8 
f -18/-18/-18 -8/-8/-8 -7/-7/-7 
f -21/-21/-21 -18/-18/-18 -7/-7/-7 
f -21/-21/-21 -7/-7/-7 -6/-6/-6 
f -23/-23/-23 -21/-21/-21 -6/-6/-6 
f -26/-26/-26 -23/-23/-23 -6/-6/-6 
f -5/-5/-5 -4/-4/-4 -29/-29/-29 
f -6/-6/-6 -5/-5/-5 -29/-29/-29 
f -26/-26/-26 -6/-6/-6 -29/-29/-29 
s 69633
f -32/-32/-32 -33/-33/-33 -3/-3/-3 
f -3/-3/-3 -2/-2/-2 -32/-32/-32 
f -33/-33/-33 -30/-30/-30 -1/-1/-1 
f -1/-1/-1 -3/-3/-3 -33/-33/-33 
# 46 faces

