# 3ds Max Wavefront OBJ Exporter v0.94b - (c)2007 guruware
# File Created: 16.06.2009 15:29:54

mtllib RearWindowTrim.mtl

#
# object Object06
#

v  -3.8684 -0.6656 1.0744
v  -3.8668 -0.6962 1.0922
v  -3.8662 -0.6770 1.1246
v  -3.8676 -0.6525 1.1104
v  -3.8619 -0.7199 1.1455
v  -3.8617 -0.6971 1.1697
v  -3.8236 -0.7247 1.6580
v  -3.8079 -0.7201 1.7320
v  -3.8169 -0.6973 1.7073
v  -3.8291 -0.7249 1.5990
v  -3.8036 -0.7097 1.7782
v  -3.8041 -0.6886 1.7457
v  -3.8020 -0.6826 1.7959
v  -3.8028 -0.6682 1.7590
v  -3.8016 0.0074 1.7995
v  -3.8024 -0.0993 1.7623
v  -3.6963 -0.8696 1.5972
v  -3.7278 -0.8696 1.1145
v  -3.6520 -0.8696 1.1414
v  -3.6918 -0.8696 1.6506
v  -3.6802 -0.8696 1.8153
v  -3.6368 -0.8696 1.7908
v  -3.3337 -0.8696 1.1135
v  -3.3119 -0.8696 1.1405
v  -3.0951 -0.8696 1.1129
v  -3.0607 -0.8696 1.1399
v  -2.8274 -0.8696 1.1122
v  -2.8079 -0.8696 1.1393
v  -1.8103 -0.8696 1.1098
v  -1.8498 -0.8696 1.1369
v  -1.6531 -0.8696 1.3087
v  -1.7030 -0.8696 1.3228
v  -1.6329 -0.8696 1.3540
v  -1.6844 -0.8696 1.3642
v  -1.6329 -0.8696 1.4798
v  -1.6329 -0.8696 1.7424
v  -1.6844 -0.8696 1.7280
v  -1.6582 -0.8696 1.7625
v  -1.7068 -0.8696 1.7457
v  -1.6836 -0.8696 1.7826
v  -1.7303 -0.8696 1.7644
v  -1.7190 -0.8696 1.7977
v  -1.7629 -0.8696 1.7782
v  -1.7596 -0.8696 1.8077
v  -1.8004 -0.8696 1.7875
v  -2.8111 -0.8696 1.8079
v  -2.7925 -0.8696 1.7877
v  -3.0955 -0.8696 1.8079
v  -3.0612 -0.8696 1.7877
v  -3.3715 -0.8696 1.8080
v  -3.3219 -0.8696 1.7878
v  -3.6426 -0.8696 1.8144
v  -3.8720 -0.0993 1.0621
v  -3.8729 0.0074 1.0211
v  -3.8684 0.6805 1.0744
v  -3.8676 0.6674 1.1104
v  -3.8662 0.6919 1.1246
v  -3.8668 0.7111 1.0922
v  -3.8617 0.7120 1.1697
v  -3.8619 0.7348 1.1455
v  -3.8169 0.7122 1.7073
v  -3.8079 0.7349 1.7320
v  -3.8236 0.7396 1.6580
v  -3.8291 0.7397 1.5990
v  -3.8041 0.7035 1.7457
v  -3.8036 0.7246 1.7782
v  -3.8028 0.6831 1.7590
v  -3.8020 0.6975 1.7959
v  -3.8024 0.1141 1.7623
v  -3.6802 0.8845 1.8153
v  -3.6368 0.8845 1.7908
v  -3.6520 0.8845 1.1414
v  -3.7278 0.8845 1.1145
v  -3.6963 0.8845 1.5972
v  -3.6918 0.8845 1.6506
v  -3.3119 0.8845 1.1405
v  -3.3337 0.8845 1.1135
v  -3.0607 0.8845 1.1399
v  -3.0951 0.8845 1.1129
v  -2.8079 0.8845 1.1393
v  -2.8274 0.8845 1.1122
v  -1.8498 0.8845 1.1369
v  -1.8103 0.8845 1.1098
v  -1.7030 0.8845 1.3228
v  -1.6531 0.8845 1.3087
v  -1.6844 0.8845 1.3642
v  -1.6329 0.8845 1.3540
v  -1.6844 0.8845 1.7280
v  -1.6329 0.8845 1.7424
v  -1.6329 0.8845 1.4798
v  -1.7068 0.8845 1.7457
v  -1.6582 0.8845 1.7625
v  -1.7303 0.8845 1.7644
v  -1.6836 0.8845 1.7826
v  -1.7629 0.8845 1.7782
v  -1.7190 0.8845 1.7977
v  -1.8004 0.8845 1.7875
v  -1.7596 0.8845 1.8077
v  -2.7925 0.8845 1.7877
v  -2.8111 0.8845 1.8079
v  -3.0612 0.8845 1.7877
v  -3.0955 0.8845 1.8079
v  -3.3219 0.8845 1.7878
v  -3.3715 0.8845 1.8080
v  -3.6426 0.8845 1.8144
v  -3.8720 0.1141 1.0621
# 106 vertices

vn -0.9993 -0.0200 0.0306
vn -0.9978 -0.0458 0.0484
vn -0.9969 -0.0579 0.0531
vn -0.9993 -0.0202 0.0301
vn -0.9957 -0.0600 0.0710
vn -0.9943 -0.0733 0.0780
vn -0.9927 0.0442 0.1125
vn -0.9751 -0.0241 0.2205
vn -0.9701 -0.0752 0.2307
vn -0.9873 0.1395 0.0759
vn -0.9973 0.0535 0.0508
vn -0.9917 0.0391 0.1223
vn -0.9994 0.0195 0.0302
vn -0.9994 0.0176 0.0304
vn -1.0000 0.0000 -0.0000
vn -0.9991 0.0000 0.0419
vn -0.9985 -0.0102 0.0530
vn -0.0000 -1.0000 -0.0000
vn 0.0000 -1.0000 -0.0000
vn -0.0000 -1.0000 0.0000
vn 0.0000 -1.0000 0.0000
vn -0.9992 0.0052 0.0408
vn -0.9994 -0.0014 0.0357
vn -1.0000 0.0022 0.0015
vn -0.9993 0.0200 0.0306
vn -0.9993 0.0202 0.0301
vn -0.9969 0.0579 0.0531
vn -0.9978 0.0458 0.0484
vn -0.9943 0.0733 0.0780
vn -0.9957 0.0600 0.0710
vn -0.9701 0.0752 0.2307
vn -0.9751 0.0241 0.2205
vn -0.9927 -0.0442 0.1125
vn -0.9873 -0.1395 0.0759
vn -0.9917 -0.0391 0.1223
vn -0.9973 -0.0535 0.0508
vn -0.9994 -0.0176 0.0304
vn -0.9994 -0.0195 0.0302
vn -0.9985 0.0102 0.0530
vn 0.0000 1.0000 -0.0000
vn 0.0000 1.0000 0.0000
vn -0.0000 1.0000 -0.0000
vn -0.0000 1.0000 0.0000
vn -0.9992 -0.0052 0.0408
# 44 vertex normals

vt 0.3590 0.2149 0.0000
vt 0.3516 0.1774 0.0000
vt 0.3294 0.1483 0.0000
vt 0.1150 0.1483 0.0000
vt 0.0841 0.1483 0.0000
vt 0.1397 0.1483 0.0000
vt 0.0647 0.1608 0.0000
vt 0.0573 0.1941 0.0000
vt 0.0555 1.0000 0.0000
vt 0.9798 0.8677 0.0000
vt 0.9801 0.6845 0.0000
vt 0.9797 0.8880 0.0000
vt 0.9796 0.9477 0.0000
vt 0.8982 0.6841 0.0000
vt 0.8398 0.6838 0.0000
vt 0.7842 0.6836 0.0000
vt 0.5776 0.6825 0.0000
vt 0.5474 0.7583 0.0000
vt 0.5436 0.7772 0.0000
vt 0.5440 0.8235 0.0000
vt 0.5446 0.9202 0.0000
vt 0.5500 0.9286 0.0000
vt 0.5553 0.9371 0.0000
vt 0.5628 0.9434 0.0000
vt 0.5713 0.9476 0.0000
vt 0.7959 0.9476 0.0000
vt 0.8498 0.9477 0.0000
vt 0.9080 0.9477 0.0000
vt 0.9709 0.9477 0.0000
vt 0.3794 1.0000 0.0000
# 30 texture coords

g Object06
usemtl 04___Default
s 1
f -106/-30/-44 -105/-29/-43 -104/-29/-42 
f -104/-29/-42 -103/-30/-41 -106/-30/-44 
f -105/-29/-43 -102/-28/-40 -101/-28/-39 
f -101/-28/-39 -104/-29/-42 -105/-29/-43 
f -100/-27/-38 -99/-26/-37 -98/-26/-36 
f -97/-25/-35 -100/-27/-38 -98/-26/-36 
f -102/-28/-40 -97/-25/-35 -98/-26/-36 
f -102/-28/-40 -98/-26/-36 -101/-28/-39 
f -99/-26/-37 -96/-24/-34 -95/-24/-33 
f -95/-24/-33 -98/-26/-36 -99/-26/-37 
f -96/-24/-34 -94/-23/-32 -93/-23/-31 
f -93/-23/-31 -95/-24/-33 -96/-24/-34 
f -94/-23/-32 -92/-22/-30 -92/-22/-29 
f -94/-23/-32 -92/-22/-29 -91/-22/-28 
f -94/-23/-32 -91/-22/-28 -93/-23/-31 
s off
f -90/-21/-27 -89/-20/-27 -88/-20/-27 
f -87/-19/-27 -90/-21/-27 -88/-20/-27 
f -86/-18/-26 -87/-19/-26 -88/-20/-26 
f -86/-18/-27 -88/-20/-27 -85/-18/-27 
f -89/-20/-27 -84/-17/-27 -83/-17/-27 
f -83/-17/-25 -88/-20/-25 -89/-20/-25 
f -84/-17/-25 -82/-16/-25 -81/-16/-25 
f -81/-16/-27 -83/-17/-27 -84/-17/-27 
f -82/-16/-27 -80/-15/-27 -79/-15/-27 
f -79/-15/-25 -81/-16/-25 -82/-16/-25 
f -80/-15/-27 -78/-14/-27 -77/-14/-27 
f -77/-14/-27 -79/-15/-27 -80/-15/-27 
f -78/-14/-27 -76/-13/-27 -75/-13/-27 
f -75/-13/-26 -77/-14/-26 -78/-14/-26 
f -76/-13/-27 -74/-12/-27 -73/-12/-27 
f -73/-12/-27 -75/-13/-27 -76/-13/-27 
f -72/-11/-27 -71/-10/-27 -70/-10/-27 
f -74/-12/-24 -72/-11/-24 -70/-10/-24 
f -74/-12/-25 -70/-10/-25 -73/-12/-25 
f -71/-10/-27 -69/-9/-27 -68/-9/-27 
f -68/-9/-27 -70/-10/-27 -71/-10/-27 
f -69/-9/-24 -67/-8/-24 -66/-8/-24 
f -66/-8/-27 -68/-9/-27 -69/-9/-27 
f -67/-8/-26 -65/-7/-26 -64/-7/-26 
f -64/-7/-24 -66/-8/-24 -67/-8/-24 
f -65/-7/-25 -63/-6/-25 -62/-6/-25 
f -62/-6/-25 -64/-7/-25 -65/-7/-25 
f -63/-6/-25 -61/-5/-25 -60/-5/-25 
f -60/-5/-25 -62/-6/-25 -63/-6/-25 
f -61/-5/-27 -59/-4/-27 -58/-4/-27 
f -58/-4/-25 -60/-5/-25 -61/-5/-25 
f -59/-4/-27 -57/-3/-27 -56/-3/-27 
f -56/-3/-27 -58/-4/-27 -59/-4/-27 
f -55/-2/-27 -86/-18/-27 -85/-18/-27 
f -57/-3/-27 -55/-2/-27 -85/-18/-27 
f -85/-18/-27 -56/-3/-27 -57/-3/-27 
s 1
f -106/-30/-44 -103/-30/-41 -54/-1/-23 
f -106/-30/-44 -54/-1/-23 -53/-1/-22 
f -53/-1/-21 -106/-30/-44 -53/-1/-22 
f -54/-1/-23 -91/-22/-28 -92/-22/-29 
f -92/-22/-29 -53/-1/-22 -54/-1/-23 
f -52/-30/-20 -51/-30/-19 -50/-29/-18 
f -50/-29/-18 -49/-29/-17 -52/-30/-20 
f -49/-29/-17 -50/-29/-18 -48/-28/-16 
f -48/-28/-16 -47/-28/-15 -49/-29/-17 
f -47/-28/-15 -48/-28/-16 -46/-26/-14 
f -46/-26/-14 -45/-26/-13 -44/-27/-12 
f -46/-26/-14 -44/-27/-12 -43/-25/-11 
f -47/-28/-15 -46/-26/-14 -43/-25/-11 
f -45/-26/-13 -46/-26/-14 -42/-24/-10 
f -42/-24/-10 -41/-24/-9 -45/-26/-13 
f -41/-24/-9 -42/-24/-10 -40/-23/-8 
f -40/-23/-8 -39/-23/-7 -41/-24/-9 
f -39/-23/-7 -40/-23/-8 -38/-22/-6 
f -39/-23/-7 -38/-22/-6 -92/-22/-29 
f -39/-23/-7 -92/-22/-29 -92/-22/-30 
s off
f -37/-18/-5 -36/-18/-5 -35/-20/-5 
f -35/-20/-4 -34/-20/-4 -33/-21/-4 
f -35/-20/-4 -33/-21/-4 -32/-19/-4 
f -37/-18/-3 -35/-20/-3 -32/-19/-3 
f -34/-20/-4 -35/-20/-4 -31/-17/-4 
f -31/-17/-2 -30/-17/-2 -34/-20/-2 
f -30/-17/-2 -31/-17/-2 -29/-16/-2 
f -29/-16/-5 -28/-16/-5 -30/-17/-5 
f -28/-16/-3 -29/-16/-3 -27/-15/-3 
f -27/-15/-3 -26/-15/-3 -28/-16/-3 
f -26/-15/-3 -27/-15/-3 -25/-14/-3 
f -25/-14/-3 -24/-14/-3 -26/-15/-3 
f -24/-14/-5 -25/-14/-5 -23/-13/-5 
f -23/-13/-2 -22/-13/-2 -24/-14/-2 
f -22/-13/-3 -23/-13/-3 -21/-12/-3 
f -21/-12/-3 -20/-12/-3 -22/-13/-3 
f -20/-12/-3 -21/-12/-3 -19/-10/-3 
f -19/-10/-4 -18/-10/-4 -17/-11/-4 
f -20/-12/-3 -19/-10/-3 -17/-11/-3 
f -18/-10/-5 -19/-10/-5 -16/-9/-5 
f -16/-9/-5 -15/-9/-5 -18/-10/-5 
f -15/-9/-2 -16/-9/-2 -14/-8/-2 
f -14/-8/-3 -13/-8/-3 -15/-9/-3 
f -13/-8/-3 -14/-8/-3 -12/-7/-3 
f -12/-7/-2 -11/-7/-2 -13/-8/-2 
f -11/-7/-5 -12/-7/-5 -10/-6/-5 
f -10/-6/-5 -9/-6/-5 -11/-7/-5 
f -9/-6/-2 -10/-6/-2 -8/-5/-2 
f -8/-5/-3 -7/-5/-3 -9/-6/-3 
f -7/-5/-5 -8/-5/-5 -6/-4/-5 
f -6/-4/-2 -5/-4/-2 -7/-5/-2 
f -5/-4/-2 -6/-4/-2 -4/-3/-2 
f -4/-3/-4 -3/-3/-4 -5/-4/-4 
f -2/-2/-3 -36/-18/-3 -37/-18/-3 
f -3/-3/-2 -4/-3/-2 -36/-18/-2 
f -36/-18/-5 -2/-2/-5 -3/-3/-5 
s 1
f -1/-1/-1 -51/-30/-19 -52/-30/-20 
f -53/-1/-22 -1/-1/-1 -52/-30/-20 
f -53/-1/-21 -53/-1/-22 -52/-30/-20 
f -1/-1/-1 -53/-1/-22 -92/-22/-29 
f -92/-22/-29 -38/-22/-6 -1/-1/-1 
# 112 faces

